<?xml version="1.0" encoding="UTF-8" standalone="no"?>
<!-- Created with Inkscape (http://www.inkscape.org/) -->

<svg
   xmlns:dc="http://purl.org/dc/elements/1.1/"
   xmlns:cc="http://creativecommons.org/ns#"
   xmlns:rdf="http://www.w3.org/1999/02/22-rdf-syntax-ns#"
   xmlns:svg="http://www.w3.org/2000/svg"
   xmlns="http://www.w3.org/2000/svg"
   xmlns:sodipodi="http://sodipodi.sourceforge.net/DTD/sodipodi-0.dtd"
   xmlns:inkscape="http://www.inkscape.org/namespaces/inkscape"
   width="1183.89"
   height="1030"
   id="svg2"
   sodipodi:version="0.32"
   inkscape:version="0.92.4 (5da689c313, 2019-01-14)"
   sodipodi:docname="mapaEstablo.svg"
   inkscape:output_extension="org.inkscape.output.svg.inkscape"
   version="1.0">
  <defs
     id="defs4">
    <inkscape:perspective
       sodipodi:type="inkscape:persp3d"
       inkscape:vp_x="0 : 530.76001 : 1"
       inkscape:vp_y="0 : 1000 : 0"
       inkscape:vp_z="1183.8877 : 530.76001 : 1"
       inkscape:persp3d-origin="591.94385 : 353.84001 : 1"
       id="perspective2604" />
    <inkscape:perspective
       id="perspective4705"
       inkscape:persp3d-origin="0.5 : 0.33333333 : 1"
       inkscape:vp_z="1 : 0.5 : 1"
       inkscape:vp_y="0 : 1000 : 0"
       inkscape:vp_x="0 : 0.5 : 1"
       sodipodi:type="inkscape:persp3d" />
    <inkscape:perspective
       id="perspective4727"
       inkscape:persp3d-origin="0.5 : 0.33333333 : 1"
       inkscape:vp_z="1 : 0.5 : 1"
       inkscape:vp_y="0 : 1000 : 0"
       inkscape:vp_x="0 : 0.5 : 1"
       sodipodi:type="inkscape:persp3d" />
    <inkscape:perspective
       id="perspective4749"
       inkscape:persp3d-origin="0.5 : 0.33333333 : 1"
       inkscape:vp_z="1 : 0.5 : 1"
       inkscape:vp_y="0 : 1000 : 0"
       inkscape:vp_x="0 : 0.5 : 1"
       sodipodi:type="inkscape:persp3d" />
  </defs>
  <sodipodi:namedview
     id="base"
     pagecolor="#ffffff"
     bordercolor="#666666"
     borderopacity="1.0"
     inkscape:pageopacity="0.0"
     inkscape:pageshadow="2"
     inkscape:zoom="0.84876543"
     inkscape:cx="178.50342"
     inkscape:cy="498.05544"
     inkscape:document-units="px"
     inkscape:current-layer="layer1"
     inkscape:window-width="1920"
     inkscape:window-height="1051"
     inkscape:window-x="-9"
     inkscape:window-y="-9"
     showgrid="false"
     inkscape:window-maximized="1" />
  <metadata
     id="metadata7">
    <rdf:RDF>
      <cc:Work
         rdf:about="">
        <dc:format>image/svg+xml</dc:format>
        <dc:type
           rdf:resource="http://purl.org/dc/dcmitype/StillImage" />
        <dc:title></dc:title>
      </cc:Work>
    </rdf:RDF>
  </metadata>
  <g
     inkscape:label="Capa 1"
     inkscape:groupmode="layer"
     id="layer1"
     transform="translate(220.76186,-24.90167)">
    <g
       id="g5153"
       transform="matrix(2.3355601,0,0,2.3336724,-402.95723,-577.87355)"
       style="fill:#f9f9f9;stroke:#000000;stroke-width:0.08566719;stroke-miterlimit:4;stroke-opacity:1;stroke-dasharray:none">
      <path
         id="path5149"
         d="m 449.63014,363.97275 -8.53728,0 0,1.28059 -12.09449,0 0,0.99602 -4.98008,0 -4.13284,-6.99944 -17.70774,-4.04703 7.04263,-32.0668 15.22482,0 2.41889,-1.70746 -0.14228,-6.97211 33.86454,-1.1383 0,0.99601 c 0,0.64887 -0.14228,1.43976 -0.14228,1.99203 0,0.49098 0.40581,1.36479 0.28457,1.84975 -0.18302,0.73208 -0.44397,1.24074 0.28458,1.42288 0.37883,0.0947 1.58154,0.0768 1.42288,0.71144 -0.23407,0.93626 -0.15364,1.00737 -0.71144,1.56517 -0.33705,0.33705 0.19476,1.08583 -0.14229,1.42288 -0.29677,0.29677 -1.09095,0.6165 -0.56915,1.1383 1.24222,1.24222 -0.83871,-0.0601 -0.99602,0.56915 -0.0475,0.18998 -0.79776,1.33656 -0.71144,1.42288 0.38862,0.38862 0.86021,0.57564 1.28059,0.99602 0.19725,0.19724 0.88828,1.04989 0.14229,1.42288 -0.7501,0.37505 -1.09111,0.37896 -0.71144,1.1383 0.11627,0.23254 0.5908,1.2806 0.85373,1.2806 0.73716,0 1.40934,-0.16937 1.70746,0.42686 0.0482,0.0965 0.95776,1.42288 0.14229,1.42288 -0.55359,0 -1.61496,-0.185 -1.84975,0.28458 -0.1756,0.35121 -0.29118,1.1515 -0.56915,1.70745 -0.28227,0.56454 -0.70733,1.13008 -0.99602,1.70746 -0.28775,0.5755 -0.0953,1.23488 -0.28457,1.99203 -0.16626,0.66504 -0.14229,1.39186 -0.14229,2.13432 0,0.7945 0.24896,1.42269 0.42686,2.13432 0.12257,0.49029 0.47955,1.06985 0.28458,1.84975 -0.26605,1.0642 -0.93713,1.02052 -1.42288,1.99203 -0.22127,0.44254 -0.17664,1.36891 -0.85373,1.70745 -1.17438,0.58719 -0.5766,0.74123 -0.85373,1.84975 -0.14849,0.59399 -0.28457,1.33402 -0.28457,2.13432 0,1.15472 -0.74176,1.11728 -0.85373,1.56517 -0.0345,0.13803 -0.0552,1.73506 -0.28458,1.84974 -0.66147,0.33074 -0.69599,0.69599 -1.28059,1.28059 -0.48459,0.48459 -0.6707,0.77226 -0.99602,1.42288 -0.18537,0.37076 -0.44613,1.29987 -0.71144,1.56517 -0.37832,0.37833 -0.71766,1.00224 -1.1383,1.42288 -0.42777,0.42777 -0.45287,0.89707 -0.85373,1.56517 z"
         style="fill:#f9f9f9;fill-rule:evenodd;stroke:#000000;stroke-width:0.08566719;stroke-linecap:butt;stroke-linejoin:miter;stroke-miterlimit:4;stroke-dasharray:none;stroke-opacity:1"
         inkscape:connector-curvature="0"
         sodipodi:nodetypes="cccccccccccccssscsssscscssscscsscssssscsccsccssc" />
      <path
         id="path5151"
         d="m 464.2858,333.09625 c 0,-0.68404 1.54156,-0.47469 1.70746,-1.1383 0.12443,-0.49771 -0.91783,-0.49097 -1.28059,-0.85373 -0.49066,-0.49066 -0.58495,-0.79053 -0.42687,-1.42288 0.15255,-0.6102 0.45324,-1.00261 0.99602,-1.13831 0.52463,-0.13115 0.42686,-1.02439 0.42686,-1.56516 0,-0.77756 -0.1436,-1.13568 0.14229,-1.70746 0.28811,-0.57622 0.56915,-1.30446 0.56915,-1.99203 0,-0.46307 1.09448,-1.09448 1.2806,-1.28059 0.63865,-0.63866 0.85372,-0.58281 0.85372,-1.70746 0,-0.71144 -1.42288,0 -2.13432,0 -0.69931,0 -1.50023,-0.0193 -1.99203,-0.14229 -0.88429,-0.22107 -0.71144,0.17182 -0.71144,1.13831 0,0.68636 -0.92767,0.85372 0.42687,0.85372 0.55515,0 1.59512,-1.11582 1.28059,0.14229 -0.23575,0.94299 -0.4888,0.65117 -1.13831,1.13831 -0.52749,0.39561 -0.42686,0.75323 -0.42686,1.42288 0,0.61596 0.42686,1.1807 0.42686,1.84974 0,0.63556 -0.85957,0.71729 -1.1383,0.99602 -0.30776,0.30775 0.14229,1.25426 0.14229,1.84974 0,0.10946 0,0.2284 0,0.99602 0,0.84066 0.16816,1.1092 0.85373,1.28059 0.41666,0.10417 0.058,0.85944 0.14228,1.28059 z"
         style="fill:#f9f9f9;fill-rule:evenodd;stroke:#000000;stroke-width:0.08566719;stroke-linecap:butt;stroke-linejoin:miter;stroke-miterlimit:4;stroke-opacity:1;stroke-dasharray:none" />
    </g>
    <path
       style="fill:#f9f9f9;fill-rule:evenodd;stroke:#000000;stroke-width:0.2;stroke-linecap:butt;stroke-linejoin:miter;stroke-miterlimit:4;stroke-opacity:1;stroke-dasharray:none"
       d="m 687.95592,137.49435 c -1.27835,0.63866 -2.95668,-1.49394 -3.55248,0.88743 -0.43654,1.74472 0.21186,2.87392 0.88812,3.54961 1.2565,1.25552 1.6948,0.42886 2.66436,2.36644 0.72003,1.43887 1.07977,1.35752 1.4802,2.958 0.34849,1.39285 1.54318,1.90061 2.0723,2.95802 0.73404,1.46692 1.1664,2.92253 1.77626,4.14124 0.8423,1.68323 2.42049,0.53948 2.96042,0 0.86126,-0.86056 -0.73248,-3.22334 -0.88814,-3.84542 -0.27394,-1.09489 -1.68219,-1.10313 -2.07228,-2.66223 -0.34872,-1.39372 -0.59208,-2.15622 -0.59208,-3.84543 0,-0.47866 -2.10462,-1.8071 -2.36833,-2.07062 -0.67159,-0.67102 -1.0464,-2.09111 -1.48021,-2.95802 -0.25733,-0.51423 -0.59209,-0.986 -0.88814,-1.47902 z"
       id="path3197" />
    <path
       style="fill:#f9f9f9;fill-rule:evenodd;stroke:#000000;stroke-width:0.2;stroke-linecap:butt;stroke-linejoin:miter;stroke-miterlimit:4;stroke-opacity:1;stroke-dasharray:none"
       d="m 594.99887,64.135386 c 1.41351,0.353108 -2.43503,-1.717513 -3.84853,-2.070597 -1.27683,-0.318967 -3.30307,0.08557 -4.14459,0.295793 -1.15398,0.288255 -0.19983,1.774804 -2.66436,1.774804 -2.1263,0 -2.27456,0.20212 -3.25648,1.183219 -0.99378,0.993001 -0.34813,1.948733 -1.77624,2.66223 -0.93333,0.466291 -1.38998,1.890298 -1.77624,2.662207 -0.2953,0.590139 -3.24397,0.295816 -4.14459,0.295816 -1.48021,0 -2.96041,0 -4.44062,0 -1.48021,0 -2.96042,0 -4.44063,0 -1.60378,0 -2.83532,-0.03127 -4.14459,0.295793 -1.26157,0.315139 -1.4802,2.17944 -1.4802,3.549632 0,0.562789 -2.05801,2.06348 -2.66436,2.366414 -1.19511,0.59707 -2.18284,-2.291526 -2.36833,-2.66223 -0.41891,-0.837135 -2.02103,-1.453388 -2.66439,-1.774804 -0.94975,-0.474506 -2.12524,-1.827733 -2.96041,-2.662231 -0.86741,-0.866679 -1.59617,-1.710768 -2.0723,-2.662206 -0.57408,-1.147234 -1.7437,-1.183219 -3.25645,-1.183219 -1.3422,0 -0.23509,2.897114 -1.18417,3.845425 -0.31192,0.311662 -3.60657,0.470725 -3.84854,0.59161 -1.43354,0.716204 -1.6159,1.232459 -1.18415,2.958023 0.36738,1.468416 0.0481,3.246722 0.29603,4.732851 0.17176,1.029756 -2.42786,0.976222 -3.25645,1.183195 -0.17444,0.04357 -2.84062,-2.24672 -2.96041,-2.366414 -1.34634,-1.345245 -1.61488,-1.156498 -2.36835,-2.66223 -0.25642,-0.512428 1.92947,-2.968431 2.07229,-3.253816 0.75114,-1.501088 1.92518,-1.738073 3.25647,-2.070621 0.85442,-0.213438 2.56709,-1.677607 2.96042,-2.070621 0.98687,-0.98607 1.8578,-1.264687 2.66436,-2.070597 0.95865,-0.957879 1.48021,-1.453155 1.48021,-3.25384 0,-1.526548 2.07825,-2.36492 3.25647,-2.07062 1.35766,0.339152 1.6028,1.65756 3.25645,2.07062 2.36676,0.591213 2.7511,-0.20912 4.14457,1.183219 0.79577,0.795105 0.54993,2.324291 1.4802,3.253816 0.46578,0.465404 4.00663,0 4.73668,0 1.48568,0 2.634,-0.08154 4.14457,0.295816 1.84498,0.460854 2.88556,0 4.44062,0 1.57891,0 3.1578,0 4.73668,0 1.88459,0 2.34808,-0.591609 3.84854,-0.591609 0.58366,0 2.00071,-2.814992 2.0723,-2.958023 0.63106,-1.261117 1.24527,-1.361651 2.66436,-2.070621 1.12686,-0.562975 2.42038,-0.852467 3.25647,-1.479011 1.02178,-0.765725 2.10506,-0.624351 2.96041,-1.479012 0.15602,-0.155913 0.19736,-0.394414 0.29604,-0.591609 0.42955,-0.858418 2.80267,-1.548089 3.25647,-1.774805 0.61747,-0.308488 1.64089,-1.935384 2.07227,-2.366414 0.90449,-0.903761 1.90201,-1.01307 2.66438,-1.774828 l 0.88812,12.719495 z"
       id="path5143" />
    <path
       style="fill:#f9f9f9;fill-rule:evenodd;stroke:#000000;stroke-width:0.2;stroke-linecap:butt;stroke-linejoin:miter;stroke-miterlimit:4;stroke-opacity:1;stroke-dasharray:none"
       d="m 628.90326,362.83434 c 0.41382,0.91112 0.66464,3.97607 0.66464,5.97695 0,1.5862 -0.0612,3.56507 -0.33233,4.64875 -0.0233,0.0931 -3.15871,1.82795 -3.32323,1.99233 -1.35686,1.35577 -1.21334,2.55604 -0.3323,4.31669 0.67104,1.34102 2.36104,2.17573 3.32322,2.65644 1.19315,0.59608 0.33231,3.0102 0.33231,4.31669 0,2.5482 -0.83943,2.69147 1.3293,4.31671 0.98092,0.73511 0.12996,3.79723 0,4.31669 -0.14987,0.59895 -1.3293,1.4493 -1.3293,3.65258 0,2.29188 1.66911,4.65622 2.99092,5.97696 1.37345,1.37237 -0.69988,1.47665 2.32624,2.98851 2.12017,1.0592 3.66774,1.66026 5.98181,1.66026 1.60685,0 3.49061,-2.32601 3.98785,-2.9885 0.80133,-1.06756 1.66507,-2.66101 2.65859,-3.98463 0.99853,-1.33031 2.40369,-2.40174 3.65556,-3.6526 1.81426,-1.81279 3.18362,-2.02772 4.65249,-3.98465 0.86716,-1.15524 1.66869,-1.67443 2.32625,-2.98847 1.01224,-2.0228 2.58619,-2.2947 2.99092,-4.31669 0.3849,-1.92304 1.84883,-3.40474 2.32624,-5.31286 0.35141,-1.40442 1.74782,-3.16075 2.32627,-4.31671 0.82204,-1.64277 1.62061,-3.48877 1.99394,-4.98081 0.35026,-1.39989 2.72863,-3.05849 3.65551,-3.98462 1.2961,-1.29502 2.12373,-2.55524 3.65556,-3.32054 1.13511,-0.56708 1.55513,-2.44366 1.99393,-3.32053 0.80409,-1.60687 1.66162,-2.45713 1.66162,-4.64875 0,-1.95855 -0.18321,-3.61855 0.66465,-5.31286 0.65711,-1.31315 3.46826,-3.13339 4.32018,-3.98465 1.18651,-1.18554 1.14916,-2.41645 2.32626,-3.98465 1.15129,-1.53384 1.78019,-1.89723 2.65857,-3.65258 0.58863,-1.17633 1.56284,-2.127 2.32626,-3.65259 0.62084,-1.24068 0.33233,-3.50165 0.33233,-4.9808 0,-1.73952 1.71814,-2.61577 2.65857,-3.32054 0.37478,-0.28088 2.01788,-3.36837 2.32627,-3.98465 0.52367,-1.04651 0,-3.77992 0,-4.98081 0,-2.28916 0.0694,-2.91914 -0.99698,-3.98465 -1.17764,-1.17668 -3.48709,1.49197 -3.65555,1.6603 -1.28842,1.28735 -2.22848,1.23049 -3.65553,2.65641 -1.34736,1.34627 -2.31026,0.96418 -3.32322,2.98848 -0.81681,1.63231 -1.86934,2.15836 -2.99092,3.6526 -0.93751,1.24902 -1.6082,1.89596 -3.32323,2.32438 -0.4995,0.12475 -3.57427,-0.66412 -4.6525,-0.66412 -1.78619,0 -2.80783,0.46081 -4.6525,0 -1.76781,-0.4416 -1.56856,-1.6005 -3.98788,-0.99615 -2.16867,0.54171 -2.13603,0.85415 -3.65555,-0.66411 -0.91124,-0.91051 -3.65174,-0.24998 -4.65251,0 -1.88566,0.47103 -2.87343,0.27336 -4.32017,0.99615 -1.46487,0.73183 -2.47009,1.89816 -3.98788,2.65644 -1.35868,0.67879 -1.99933,2.34599 -2.32624,3.65259 -0.47241,1.88806 -0.42785,3.84344 -0.99698,4.98081 -0.7122,1.42328 -1.27797,2.2218 -1.99393,3.65256 -0.63306,1.26511 -1.75067,2.50238 -2.32625,3.6526 -0.72129,1.44141 -0.93193,2.06444 -1.32928,3.65259 -0.28167,1.12575 -1.79591,2.59276 -2.32626,3.6526 -0.56879,1.13664 -1.344,2.05106 -1.66162,3.32054 -0.37174,1.48582 -1.95575,1.95414 -2.65859,2.65641 -2.0157,2.01411 -1.83552,-0.6486 -3.65553,2.9885 z"
       id="path5159" />
    <path
       style="fill:#f9f9f9;fill-rule:evenodd;stroke:#000000;stroke-width:0.2;stroke-linecap:butt;stroke-linejoin:miter;stroke-miterlimit:4;stroke-opacity:1;stroke-dasharray:none"
       d="m 566.75901,371.46772 c -0.83319,1.66502 -1.66162,2.16121 -1.66162,3.98465 0,1.50548 -3.11484,0.42493 -4.32019,1.32821 -1.52522,1.14298 -2.51995,1.77035 -2.9909,3.65259 -0.50083,2.00169 -0.65227,2.31202 -1.99394,3.6526 -0.55511,0.55467 -0.20789,1.03864 -0.33232,1.66026 -0.11078,0.55343 -0.22155,1.10684 -0.33231,1.66028 -0.25731,1.28554 -1.14172,2.469 -1.99394,3.32053 -1.05263,1.05178 -1.67059,2.36027 -1.99393,3.65259 -0.36628,1.46396 -1.26838,2.41297 -1.66161,3.98463 -0.42559,1.70099 -0.5809,3.3179 -0.99696,4.9808 -0.3703,1.47995 -1.60729,2.10719 -1.99393,3.6526 -0.31776,1.27 -2.01006,3.45271 -2.6586,4.3167 -1.04703,1.39493 -1.60357,2.22773 -2.65857,3.98464 -0.95896,1.59697 -2.22553,2.58589 -2.65857,4.3167 -0.43948,1.75652 -2.16817,3.66872 -2.99092,5.31284 -0.92876,1.85607 -2.15646,3.3061 -2.65856,5.31287 -0.40178,1.60586 -1.691,3.37923 -2.32627,4.64877 -0.60271,1.20446 -0.84981,3.02649 -1.6616,4.64874 -0.94556,1.8896 -1.46842,3.26652 -2.32625,4.9808 -0.80084,1.60039 -0.99698,2.53958 -0.99698,4.64875 0,1.41444 -0.31424,3.58042 -0.66463,4.9808 -0.32753,1.30908 -0.99698,1.74655 -0.99698,3.32054 -0.52062,2.08077 -0.002,2.99223 -0.99695,4.9808 -0.61707,1.23309 -0.66466,3.51662 -0.66466,4.9808 0,1.66028 0,3.32054 0,4.9808 0,1.84025 -0.007,3.95766 0.33232,5.31287 0.43853,1.75263 0,4.15489 0,5.97696 0,1.08446 1.3726,2.74297 1.99394,3.98465 0.75056,1.49989 0.8057,2.46531 1.99394,3.65259 1.2719,1.27087 2.80505,1.74473 3.98785,3.32054 1.02994,1.3721 2.79123,2.83312 3.65555,3.98465 1.13585,1.51323 1.32928,2.07213 1.32928,4.31669 0,1.7036 -0.59416,3.70295 -0.99695,5.31286 -0.38418,1.53541 -0.37376,3.48613 -0.66465,4.64874 -0.41919,1.67542 -0.64857,2.92424 -0.99696,4.31669 -0.27994,1.1189 -1.05602,2.56036 -1.32929,3.6526 -0.16452,0.65751 -2.40924,2.21355 -2.99089,2.98847 -0.93839,1.25015 -1.61969,1.82475 -1.99394,3.32054 -0.43698,1.74652 -1.66161,1.73536 -1.66161,3.98465 0,2.16449 0.70461,2.69637 1.66161,3.65259 0.65137,0.65087 -0.25472,4.33858 -0.33232,4.64875 -0.33234,1.3282 -2.76235,-0.38389 -3.98788,-0.99615 -1.3439,-0.67142 -1.63357,-1.54821 -1.99394,-2.98848 -0.36227,-1.44798 0,-3.47946 0,-4.98083 0,-1.69651 1.15435,-2.86609 1.99394,-3.98463 1.05208,-1.40163 1.82802,-1.32921 2.32626,-3.32053 0.42465,-1.69726 1.52487,-2.18775 2.65857,-3.32054 1.27954,-1.2785 2.02916,-1.73065 2.6586,-2.98847 0.52367,-1.04654 0,-3.77993 0,-4.9808 0,-1.66028 0,-3.32054 0,-4.98081 0,-1.66027 0,-3.32053 0,-4.98081 0,-1.58596 -0.8374,-3.00166 -1.32929,-3.98465 -0.61829,-1.23558 -2.31346,-1.98912 -3.65555,-2.32438 -2.36589,-0.59098 -0.99698,1.75854 -0.99698,2.9885 0,1.83475 1.01905,2.03646 1.66161,3.32053 0.64742,1.29375 0.33232,3.43995 0.33232,4.98081 0,1.66027 0,3.32053 0,4.98081 0,1.97927 0.0455,2.98847 -1.99393,2.98847 -0.90321,0 -1.32929,3.14185 -1.32929,3.98463 0,0.65499 -2.74624,3.82778 -2.99089,4.31671 -0.60265,1.20431 -1.35381,2.04129 -1.99394,3.32053 -0.92299,1.84447 -1.92651,2.58908 -2.99089,3.6526 -0.52546,0.525 -1.32928,0.66409 -1.99394,0.99615 l 0.99696,-84.67366 -38.54938,-0.33206 -0.99695,-27.2284 -73.11089,0.66411 -14.62219,-72.38769 23.59243,-19.7134 32.59629,25.87952 37.18795,-1.15447 9.82967,18.59361 77.24464,0.63465 z"
       id="path5161"
       sodipodi:nodetypes="cssssssssssssssssssssscssssssssssssssssssssssssssssssssssssssssccccccccccc" />
    <path
       style="fill:#f9f9f9;fill-rule:evenodd;stroke:#000000;stroke-width:0.2;stroke-linecap:butt;stroke-linejoin:miter;stroke-miterlimit:4;stroke-opacity:1;stroke-dasharray:none"
       d="m 512.48711,530.77721 c -0.75023,0.38016 -1.74061,0.75188 -2.96191,1.05697 -1.2626,0.31539 -1.19728,0.49007 -1.69254,1.47976 -0.39218,0.78373 -1.50961,1.50839 -1.90408,1.90255 -0.94679,0.94605 -1.11079,0.95113 -1.69251,-0.21139 -0.516,-1.03113 -0.43259,-1.16504 -1.69254,-1.47978 -1.01709,-0.25404 -1.38952,1.64549 -2.32722,2.11395 -0.69116,0.34532 -1.47276,0.8374 -2.11567,1.47976 -0.71533,0.71479 -1.06615,1.07366 -1.48096,1.90256 -0.4682,0.93568 -0.62057,2.05756 -0.84626,2.95954 -0.18157,0.72569 -1.30194,1.72366 -1.69251,2.11393 -0.65382,0.65328 -0.83758,1.88518 -1.2694,2.74813 -0.56708,1.13323 -0.61939,2.08336 -1.05783,2.95952 -0.52988,1.05892 -0.80639,2.48363 -1.48095,3.38233 -0.58156,0.77476 -0.93665,0.93587 -1.69253,1.69114 -0.70709,0.70652 -0.84627,1.3978 -0.84627,2.53675 0,0.99384 -1.38625,1.29754 -2.11565,1.47976 -0.7058,0.17631 -0.84626,1.55908 -0.84626,2.32534 0,1.29383 -0.18058,1.77877 -0.42314,2.74813 -0.23542,0.94091 -0.34689,1.96159 -0.63468,2.53672 -0.3633,0.72601 -0.84503,1.26343 -1.05785,2.11396 -0.28909,1.1555 -0.36731,2.10229 -0.63469,3.1709 -0.23063,0.92183 0,2.21513 0,3.17093 0,1.64671 -0.30126,1.65901 -0.84626,2.74813 -0.36674,0.73288 -0.4347,1.94878 -0.63469,2.74813 -0.2862,1.14389 -1.00576,1.58711 -1.48096,2.53673 -0.52783,1.05484 -1.18651,1.01122 -1.69253,0 -0.54108,-1.08128 0.0786,-2.00722 0.63469,-2.74814 0.40363,-0.53772 0.30965,-2.2945 0.42314,-2.74811 0.2346,-0.93767 0.4384,-1.93307 0.84626,-2.74813 0.3334,-0.66626 0,-2.40641 0,-3.17093 0,-1.19936 0.86103,-1.50923 1.2694,-2.32533 0.39427,-0.78787 0.84627,-1.30219 0.84627,-2.53673 0,-1.05699 0,-2.11395 0,-3.17093 0,-0.62763 -2.10605,1.25875 -2.11567,1.26836 -0.95898,0.95823 -0.79148,1.24099 -2.11564,1.90257 -0.66681,0.33311 -2.40836,0 -3.17349,0 -1.18901,0 -2.13257,0.16276 -3.1735,0.42277 -0.89287,0.22305 -1.61381,0.98448 -2.75035,1.26838 -1.017,0.25403 -1.28848,1.00889 -2.32722,1.26837 -1.20903,0.302 -2.08311,0.0894 -3.17348,0.63417 -0.20337,0.10161 -1.40438,1.65959 -1.9041,2.32535 -0.76466,1.01873 -1.05782,1.22006 -1.05782,2.74813 0,1.40307 0.77314,2.03309 1.05782,3.17092 0.31033,1.24028 0.16735,1.99095 -0.21155,2.74813 -0.4368,0.87289 -1.14879,0.78634 -1.48096,2.11394 -0.28196,1.12693 -1.05784,1.19741 -1.05784,2.53675 0,1.37388 0.26081,1.78955 0.6347,2.53672 0.55158,1.10226 1.77013,1.76869 2.75037,2.74814 1.05579,1.05495 1.39467,1.26837 2.9619,1.26837 0.0361,0 0.4209,1.69114 1.69253,1.69114 1.25224,0 1.45247,0.57728 1.9041,1.47975 0.33338,0.66628 0,2.40643 0,3.17093 0,1.04322 2.46955,2.00923 3.17349,2.53675 0.99469,0.74542 1.49936,-0.91911 1.69251,-1.69116 0.14641,-0.58518 1.7835,-1.57068 2.11567,-1.90255 1.20311,-1.20215 -0.78431,-1.90256 1.6925,-1.90256 0.77308,0 1.42729,1.1611 1.69253,1.69117 0.44806,0.89536 -0.2413,2.38476 -0.42313,2.74811 -0.53526,1.06969 -0.998,1.02927 -1.2694,2.11395 -0.30196,1.20687 2.09131,2.51241 2.5388,2.95952 0.25201,0.2518 -1.03385,2.91161 -1.2694,3.38234 -0.50522,1.00966 -0.24002,2.17083 -0.84627,3.3823 -0.6714,1.34172 0.20642,1.90255 1.2694,1.90255 1.26887,0 1.85517,-0.39834 2.75037,-0.84558 0.80548,-0.40242 1.4792,-1.637 2.11563,-2.11396 1.21515,-0.91059 1.87957,0.52083 2.32723,-1.26835 0.24752,-0.98926 0,-2.36172 0,-3.3823 0,-1.01158 0.95332,-2.32792 1.2694,-2.95954 0.40504,-0.80941 1.17203,-1.70797 1.48095,-2.32535 0.52118,-1.04152 1.00154,-1.76873 1.69254,-2.11393 1.19782,-0.59844 2.215,-0.34512 3.5966,0 1.25628,0.31381 2.42884,0.21139 3.8082,0.21139 1.33323,0 2.10988,0.006 2.75035,-0.63418 0.84171,-0.84106 1.55292,-0.44823 2.3272,-1.47975 0.60982,-0.81245 1.79654,-1.3723 2.32723,-1.90256 1.00415,-1.00334 2.73292,0.59933 2.96193,1.05697 0.69989,1.39866 1.00438,2.27195 1.90409,3.17092 0.73547,0.73488 0.1062,2.43146 1.05782,3.38231 1.14959,1.14866 2.74494,0.21859 3.38504,-0.63417 0.6313,-0.84106 1.11656,-1.65299 2.11567,-1.90258 1.42182,-0.35517 2.03721,-0.13302 2.75035,-0.84556 0.31617,-0.3159 0,-2.66863 0,-3.17092 0,-1.05697 0,-2.11396 0,-3.17093 0.6347,-0.14093 1.2694,-0.28186 1.9041,-0.42278 3.53384,-0.78466 3.65543,0.65788 4.2313,2.95954 0.41466,1.65722 1.66087,1.98737 2.11565,3.80509 0.82625,3.30229 2.5388,-0.2985 2.5388,-2.11396 0,-2.3978 -0.94153,-3.14989 -1.69253,-4.65067 -1.47241,-2.94244 2.55947,-2.52642 3.38504,-2.11394 1.58071,0.78969 1.28913,3.40202 2.53881,4.65068 2.88726,2.88493 3.94489,-1.81483 4.2313,-2.95954 0.78141,-3.12313 0.51006,-4.56379 3.38505,-1.69114 1.24452,1.24352 -0.68981,5.60639 -0.84627,5.91903 -1.04283,2.08397 -2.53878,-0.13195 -2.53878,3.8051 0,3.1499 -0.88123,2.53675 -3.80817,2.53675 -1.07927,0 -3.49248,2.64408 -4.23131,3.38231 -1.25899,1.25797 -2.94131,2.49553 -3.80819,4.22788 -1.36975,2.73729 0.0513,2.95954 2.53878,2.95954 1.05329,0 3.30956,-2.4613 4.23132,-3.38232 1.95824,-1.95667 4.2313,-0.25136 4.2313,1.69117 0,2.78441 -1.10184,2.71263 -1.69253,5.07347 -0.23372,0.93414 -3.47615,2.62776 -4.23131,3.3823 -1.27318,1.27218 -2.94834,1.25482 -4.65444,2.95952 -2.2396,2.2378 -1.52227,2.53675 -5.07755,2.53675 -2.47201,0 -2.14363,2.28158 -2.5388,4.65068 -0.47243,2.83217 3.2552,4.2279 -1.26941,4.2279 -1.57865,0 -2.20615,2.89839 -2.53878,4.22788 -0.41353,1.65275 -2.8081,2.46945 -4.23131,2.11394 -2.38042,-0.59462 -2.11567,-3.62947 -2.11567,-5.49625 0,-3.20047 -0.48964,-3.1543 -2.9619,-2.53674 -1.66031,0.41474 -4.00928,1.04651 -5.07758,2.11395 -1.6732,1.67185 -2.33951,2.33762 -3.80818,3.8051 -1.56163,1.56037 -2.47077,3.53328 -2.96191,5.49626 -0.45121,1.80337 -5.11887,0 -6.77011,0 -2.61239,0 -4.23132,-0.42682 -4.23132,2.53673 0,3.01403 -0.69422,3.60253 -2.11563,5.49626 -1.81987,2.42453 -1.58755,3.09145 1.26937,3.80511 1.04831,0.26186 1.25457,3.77544 1.69253,4.65068 1.24887,2.4957 -3.30135,1.69114 -4.65444,1.69114 -2.38458,0 -4.91539,2.19499 -1.69251,3.80512 1.39087,0.69488 3.04109,3.46142 3.80818,4.2279 0.40795,0.40762 0,3.56323 0,4.22789 2.86234,2.86002 -1.03059,5.0138 -1.2694,5.07347 -2.09757,0.52396 -2.32351,-4.23532 -4.65445,0.42276 -0.87718,1.75297 -1.2694,2.29963 -1.2694,5.07348 0,2.42109 1.53582,3.72681 3.38507,4.65068 0.99401,0.49664 2.71081,3.55423 3.38505,4.22789 1.60008,1.59882 2.74484,1.69117 5.5007,1.69117 2.87748,0 3.68309,0.24996 4.65443,-1.69117 1.07132,-2.14089 0.89026,-3.89303 1.69253,-5.49624 0.92344,-1.84539 1.57755,-3.26744 2.96191,-4.65068 0.94723,-0.94647 2.22674,-2.98071 2.5388,-4.22789 0.59923,-2.39505 0.35146,-4.08467 1.2694,-5.91906 0.96505,-1.92857 2.36879,-3.21249 3.80818,-4.65068 1.24756,-1.24656 2.21729,-2.63828 3.38505,-3.8051 1.76967,-1.76827 1.80001,-2.59044 4.2313,-3.80509 1.73334,-0.86599 2.79628,-1.8198 4.23131,-2.53676 1.70092,-0.84976 3.36422,-1.89214 4.65445,-2.53672 1.58071,-0.78971 2.88717,2.53672 4.65444,2.53672 0.21427,0 1.74483,-2.53672 4.23131,-2.53672 2.88842,0 3.38505,1.70017 3.38505,4.22789 0,2.62039 -2.08014,3.57595 -3.38505,4.22789 -2.6019,1.2999 -2.13293,1.30286 -3.38504,3.8051 -0.75376,1.50629 -2.36352,3.71252 -3.38504,5.07347 -0.16168,0.21535 -5.81499,0.39558 -5.92385,0.42279 -2.22561,0.55596 -4.12955,0.16056 -5.50071,0.84558 -1.75258,0.87558 3.9019,1.39323 5.07758,2.95952 0.66094,0.88057 1.13036,2.04449 2.11564,2.53673 1.71589,0.85725 -3.78482,0.83391 -5.50069,1.69116 -2.39946,1.19876 -0.29736,2.6624 0.84627,3.8051 1.47603,1.47484 0.78683,3.50104 0,5.07347 -0.80925,1.6172 -0.27933,4.36328 -0.84627,5.49627 -0.6668,1.33248 0,4.8128 0,6.34183 l -146.82652,0 0,30.44082 -63.89282,-5.07345 -10.15513,-36.35988 -9.73203,-0.42279 0,8.03299 -16.07899,0 -3.80818,-17.33436 -10.57827,-0.42279 -1.69253,-13.52926 4.2313,-9.72414 -11.00142,0 -11.0014,-14.37483 -3.80817,-13.95204 19.46402,0 0.84627,-39.74218 -8.03949,-10.99254 18.19464,0.4228 11.0014,-32.55478 6.77011,0 8.03949,-30.86361 8.03948,-0.42278 -3.38503,-26.21293 11.84766,-45.66122 -6.34696,-6.76464 -34.27362,0.4228 80.81805,-57.07655 45.69817,-33.40035 14.38647,71.87417 72.77855,0 1.2694,27.05851 38.08182,0.84558 -0.63471,83.50087 z"
       id="path5164" />
    <path
       style="fill:#f9f9f9;fill-rule:evenodd;stroke:#000000;stroke-width:0.2;stroke-linecap:butt;stroke-linejoin:miter;stroke-miterlimit:4;stroke-opacity:1;stroke-dasharray:none"
       d="M 67.814122,575.89284 260.72716,437.4726 l 34.13687,0 6.35107,7.13915 -12.30516,44.02478 3.17552,26.97013 -7.93883,0 -7.93879,31.72956 -7.14493,0 -10.32044,32.1262 -18.65619,0 7.54185,11.10534 -0.39694,39.66195 -19.05314,0 3.57247,14.67492 11.51127,13.8817 10.32044,-0.39661 -4.36635,8.72562 2.7786,14.27831 -182.989549,8.329 -1.190809,-113.82981 z"
       id="path5170" />
    <path
       style="fill:#f9f9f9;fill-rule:evenodd;stroke:#000000;stroke-width:0.2;stroke-linecap:butt;stroke-linejoin:miter;stroke-miterlimit:4;stroke-opacity:1;stroke-dasharray:none"
       d="m 512.03661,702.52518 c 0.61948,1.26184 0.55387,5.8693 0.55387,8.85477 0,3.19101 -0.20233,5.38513 -1.10773,7.19447 -1.1529,2.30392 -2.12639,2.96437 -2.76937,5.53424 -0.70569,2.8205 -1.78731,3.57175 -2.76935,5.53423 -1.34062,2.67912 -2.04073,3.17555 -2.76934,6.08764 -0.39842,1.59236 -1.5055,5.22224 -2.21549,6.64107 -1.16794,2.33398 -1.30307,4.81776 -2.21549,6.64108 -1.23252,2.46305 -1.51402,3.83756 -2.21546,6.64106 -0.78115,3.12201 -2.76937,8.85478 -2.76937,8.85478 0,0 -114.80584,-4.34105 -114.80584,-4.34105 0,0 -2.67327,-5.37234 -2.67327,-5.37234 0,0 -8.15649,0.0144 -8.15649,0.0144 0,0 -10.10637,29.88988 -10.10637,29.88988 0,0 -10.21888,0.30152 -10.21888,0.30152 0,0 -35.94297,70.10333 -35.94297,70.10333 0,0 -39.2576,-3.51629 -39.2576,-3.51629 0,0 -3.53182,5.25356 -3.53182,5.25356 0,0 -51.80756,-0.39942 -51.80756,-0.39942 0,0 -0.32107,-48.85094 -0.32107,-48.85094 l -147.843583,-43.89954 -0.706976,-74.4486 182.777219,-7.74793 10.52355,1.10685 3.87707,17.15609 16.06226,0 0,-8.30134 9.41578,0 11.07742,37.07932 63.06467,4.21726 -0.21014,-29.88484 147.06233,-0.34327 z"
       id="path5174"
       sodipodi:nodetypes="cssssssssccccccccccccccccccccccc" />
    <path
       style="fill:#f9f9f9;fill-rule:evenodd;stroke:#000000;stroke-width:0.2;stroke-linecap:butt;stroke-linejoin:miter;stroke-miterlimit:4;stroke-opacity:1;stroke-dasharray:none"
       d="m 672.85781,153.17187 -78.74706,2.95803 -0.29603,-70.105133 c 0.59209,-0.295793 1.18415,-0.59161 1.77624,-0.887403 1.43558,-0.717231 1.69707,-1.458382 2.0723,-2.958023 0.31098,-1.242937 1.18415,-1.315888 1.18415,-3.253839 0,-1.479012 0,-2.958023 0,-4.437035 0,-1.325129 -0.69906,-1.938815 -0.29603,-3.549609 0.11717,-0.468321 2.36059,-1.47131 2.66438,-1.774828 1.20643,-1.205458 -1.16533,-2.800687 -1.48021,-2.958023 -1.33708,-0.66799 -1.97478,-0.838698 -3.25647,-1.479012 -0.93922,-0.469231 -0.6789,-0.613289 -1.77624,-0.887402 l 0,-12.127885 c -1.25445,-0.626708 2.62923,-1.408792 3.25645,-2.66223 0.88013,-1.758843 0.91734,-1.612335 2.36833,-0.887403 1.25321,0.626101 0.58711,1.773568 2.96041,2.366414 1.25214,0.312782 3.23744,0.06919 4.14459,0.295793 1.34718,0.336539 1.35103,1.479012 3.84854,1.479012 2.10371,0 3.92106,0.591609 5.92083,0.591609 1.70874,0 2.13228,1.854709 2.96042,2.958023 0.84981,1.132181 1.44104,1.735692 2.36833,2.66223 0.93459,0.933843 1.64211,1.640782 2.36832,2.366414 1.34073,1.339621 2.84451,2.250594 3.84856,3.253816 0.92348,0.922734 2.02734,2.996762 2.66436,3.845449 1.04916,1.397706 2.07963,2.082826 2.96042,3.549609 0.60005,0.999278 0.98082,2.551661 1.48021,3.549632 0.60822,1.215447 1.22437,2.742556 1.77626,3.845426 0.76997,1.53873 1.69377,3.089012 2.36833,4.437034 0.47891,0.957039 2.67237,2.670235 3.25645,3.25384 1.05513,1.05426 2.06926,2.650095 2.36833,3.845425 0.45536,1.819938 1.37534,2.538849 1.77626,4.141219 0.27083,1.08252 0.92444,2.215822 1.18415,3.253839 0.59846,2.391871 1.09907,0.465891 1.77626,-0.887402 0.76665,-1.53208 1.52286,-1.817441 2.36833,-2.66223 1.11371,-1.112812 -0.0691,-2.714038 2.36833,-0.887403 1.09169,0.818093 0.70859,3.084042 0.59209,3.549633 -0.47863,1.912983 -1.05745,1.711493 -2.36833,2.366413 -1.35792,0.6784 -1.18418,1.25589 -1.18418,3.25382 0,1.13283 1.51116,3.03531 2.0723,4.43703 0.47739,1.19251 0.36801,3.24572 0.59209,4.14124 0.43395,1.73437 1.06216,2.76622 1.48021,4.43704 0.37672,1.50573 1.00865,2.60729 1.4802,3.54963 0.60097,1.20096 0.24493,2.86647 0,3.84543 -0.40038,1.60027 -1.01295,2.70855 0,4.73282 0.75715,1.51306 0.88812,2.71694 0.88812,4.43704 0,1.28559 2.34668,1.16156 3.25645,2.07062 1.30184,1.30079 1.18418,2.62314 1.18418,4.43703 0,2.28051 -0.35552,2.66223 2.07229,2.66223 1.31067,0 0.88812,-2.54298 0.88812,-3.84545 0,-2.04588 -0.38448,-3.06173 1.18418,-3.84542 1.47425,-0.73653 -0.41613,-2.60636 -0.88814,-3.54963 -0.58212,-1.16331 -0.21843,-2.97238 0,-3.84543 0.42794,-1.71037 0.52431,-2.09554 0.88814,-3.54963 0.0773,-0.309 4.34061,-0.8874 5.03269,-0.8874 1.31125,0 1.48021,-2.01856 1.48021,-3.25382 0,-1.57761 0,-3.15522 0,-4.73285 0,-1.10826 -0.65396,-3.2053 -0.88812,-4.14122 -0.11134,-0.44501 -2.32036,-1.9081 -2.66436,-2.36641 -1.02947,-1.3715 -0.57745,-2.6476 -1.48021,-3.54963 -1.03379,-1.03296 -1.6195,-0.57418 -2.36835,-2.07063 -0.60001,-1.19906 0.3294,-2.03729 -0.88812,-3.25381 -1.10001,-1.099115 -1.11243,-2.214003 -0.59209,-3.253841 0.74614,-1.491077 2.65277,1.751654 2.66438,1.774828 0.86117,1.720923 1.82753,2.121843 2.96042,3.253813 0.88943,0.88874 2.78333,0.59161 4.14457,0.59161 1.71189,0 1.18417,1.69044 1.18417,3.25382 0,0.58678 -1.52895,0.69256 -1.18417,2.07062 0.16521,0.66031 2.55989,1.86178 2.96041,2.66223 0.56633,1.13171 0.29606,3.08721 0.29606,4.43703 0,1.57761 0,3.15522 0,4.73283 0,1.80062 -0.78396,1.96652 -1.77627,2.95803 -0.69992,0.69935 -1.31779,1.74605 -1.77624,2.66223 -0.7818,1.56232 -0.23668,2.07059 -2.36832,2.07059 -1.78977,0 -1.23344,1.87373 -0.88812,3.25384 0.0757,0.30249 0.19735,0.59161 0.29603,0.8874 0.48355,1.4495 1.13067,2.09912 1.48021,3.84543 0.0454,0.22683 -1.52875,1.67303 -1.77624,2.66223 -0.52352,2.09235 0.1373,2.22922 -1.18418,3.54963 -1.81237,1.81091 1.78871,1.47901 2.66438,1.47901 1.02795,0 1.19632,2.39073 1.48021,2.95803 0.76004,1.51882 2.13615,-0.25526 1.48021,2.36641 -0.29566,1.18166 -1.98114,1.72927 -2.66438,2.0706 -1.21823,0.60862 -0.41445,3.40179 0,4.43703 z"
       id="path2225" />
    <path
       style="fill:#f9f9f9;fill-rule:evenodd;stroke:#000000;stroke-width:0.2;stroke-linecap:butt;stroke-linejoin:miter;stroke-miterlimit:4;stroke-dasharray:none;stroke-opacity:1"
       d="m 661.32394,246.48372 c -0.16645,0.66582 -15.25343,26.55918 -16.08171,28.21575 -0.83762,1.67524 -1.69553,3.3181 -3.24514,4.86771 -0.59269,0.59269 -4.09267,2.84924 -4.32686,3.786 -0.56503,2.26012 -1.12314,3.86886 -2.16342,5.94942 -0.86743,1.73485 -2.11641,3.19812 -3.786,4.86772 -1.54399,1.54399 -2.7137,2.18224 -3.786,4.32685 l -2.70428,5.40857 c -0.24413,0.48825 -1.77225,5.40857 -2.70429,5.40857 -2.97208,0 -4.79251,-0.0376 -7.03114,1.08171 -2.06009,1.03005 -2.70428,2.36659 -2.70428,5.40857 0,3.24981 -0.87684,3.58112 -2.70429,5.40857 -1.39284,1.39284 -2.13353,2.67439 -3.78599,4.32685 -1.58377,1.58377 -2.67877,3.1941 -3.786,5.40857 -0.88978,1.77956 -1.09568,3.79996 -2.70429,5.40857 -1.39284,1.39284 -2.67438,2.13353 -4.32685,3.786 l -4.32686,4.32685 c -0.78358,0.78358 -3.99084,2.44197 -4.32685,3.786 -0.78988,3.15954 -2.34649,2.34649 -4.32686,4.32686 -1.39284,1.39284 -2.67438,2.13353 -4.32685,3.78599 -1.39284,1.39284 -3.21524,1.59268 -4.86771,3.24514 -1.1546,1.15461 -3.32415,2.32145 -4.32686,4.32686 -0.6655,1.33101 -1.82399,6.85387 -2.70428,7.572 l -76.26082,-0.54086 -10.27628,-18.38913 -37.85998,0.54085 -31.91055,-25.96113 32.99227,-27.5837 38.94169,1.08172 0,31.91055 29.74713,0.54086 0,-7.03114 2.70428,0 0,-17.30742 53.54483,0.54086 -8.11285,-6.49028 11.89885,-8.11286 -7.572,-3.24514 22.16043,-14.01818 -0.86423,-18.90359 22.77778,-11.03762 20.33209,-0.57025 13.33333,0.62905 z"
       id="path4391"
       inkscape:connector-curvature="0"
       sodipodi:nodetypes="cssssssssssssssssssssscccccccccccccccccccccc" />
    <path
       style="fill:#f9f9f9;fill-rule:evenodd;stroke:#000000;stroke-width:0.2;stroke-linecap:butt;stroke-linejoin:miter;stroke-miterlimit:4;stroke-dasharray:none;stroke-opacity:1"
       d="m 593.81472,85.72895 0,86.96589 -4.73668,3.25382 -31.11708,0.55556 -0.75018,38.14949 -0.0169,0.77172 0.0498,15.59394 21.60537,0.99395 -0.6919,28.33333 28.84854,-12.1946 -22.79519,34.86223 -12.59896,12.1427 -11.54563,7.69085 7.69707,6.50766 -52.99143,0 -0.29603,16.86073 -2.96041,0 0,7.09925 -29.30813,-0.88741 0,-31.94664 -39.66956,-0.59161 12.72978,-13.6069 42.92603,-73.65476 -0.59208,-129.8572 1.4802,0.295793 c 1.96722,0.393108 4.5312,-0.421087 6.21687,0 1.15295,0.287999 0.99014,1.973681 2.36833,2.662207 0.67567,0.337566 0.96404,3.157762 1.4802,3.845449 1.14971,1.531683 3.27336,1.479012 5.03272,1.479012 0.50088,0 2.03438,-2.72671 2.96041,-2.958024 1.51989,-0.379665 2.92863,-0.295816 4.73668,-0.295816 1.18931,0 3.55725,1.704444 4.44062,2.366414 0.69843,0.523419 3.7739,0 4.73666,0 1.25487,0 2.96854,1.183218 4.73666,1.183218 1.34098,0 4.16834,0.893354 5.32876,1.183219 1.938,0.484097 2.75136,-0.208864 3.84854,0.887402 0.75777,0.75716 3.41973,0.295793 4.44062,0.295793 0.30713,0 2.49838,2.103106 3.55248,2.366414 1.24848,0.311872 3.35013,-0.09734 4.1446,-0.295793 2.34296,-0.585262 -0.58562,-2.837115 3.5525,-1.183218 1.82475,0.729319 0.98402,2.07062 3.25645,2.07062 2.22123,0 2.8693,0.546103 4.14459,1.183219 0.98084,0.490021 1.6323,1.766661 2.66436,-0.295816 0.51961,-1.038344 2.1738,-1.386015 2.66438,-2.366414 0.67337,-1.345642 1.1083,-2.214795 1.77624,-3.549633 1.08674,-2.171715 3.54485,2.055289 3.55251,2.070621 0.5166,1.032347 2.53394,1.348676 3.5525,2.366414 1.90946,1.907941 2.65116,0.309002 2.96042,0 0.89358,-0.892863 -1.8301,-1.801712 -2.96042,-2.366414 -1.82234,-0.910435 1.03106,-3.067682 1.77624,-3.253816 1.65257,-0.412803 2.83189,-0.9653 3.25647,-2.66223 0.0768,-0.307041 -1.92347,-2.364803 -2.07229,-2.662207 -0.85139,-1.70141 0.48044,-2.254887 1.18417,-2.958023 0.96246,-0.961706 2.29359,0.942687 3.25645,1.183195 2.12389,0.530561 2.27147,1.898536 4.14459,2.366414 z"
       id="path4172"
       inkscape:connector-curvature="0"
       sodipodi:nodetypes="ccccccccccccccccccccccccssccssscssssssssssccccscsscsccc" />
    <g
       id="g5488"
       transform="matrix(0.2060548,0,0,0.2060548,444.3564,684.2225)"
       style="fill:#f9f9f9;stroke-width:0.97061557;stroke-miterlimit:4;stroke-dasharray:none">
      <path
         id="path5430"
         d="m 867.00832,386.92855 c -1.83402,-2.28067 -2.70772,-3.86337 -5.69152,-2.37147 -1.49481,0.74741 -5.3991,0 -7.1144,0 -0.76659,0 0.91267,6.49641 0.94859,6.64011 0.42523,1.70094 1.75193,2.73909 2.37147,5.21723 0.48154,1.92617 1.80901,2.49311 2.37146,4.74293 0.53875,2.15498 1.89718,2.0153 1.89718,5.21723 0,2.09873 0.53959,5.00413 0.94858,6.64011 0.55097,2.20385 1.83512,3.00975 2.37147,5.69152 0.45163,2.25816 1.00093,4.95229 1.42288,6.64011 0.60364,2.41454 1.00394,4.49003 1.42288,6.16581 0.60305,2.4122 1.38377,4.58647 1.89717,6.64011 0.60987,2.43947 1.39631,3.2669 2.37147,5.21722 1.12362,2.24724 2.29583,2.77013 3.79435,4.26865 1.30125,1.30124 1.42288,3.01864 1.42288,5.69152 0,1.89684 2.84576,3.12199 2.84576,5.69152 0,2.37146 0,4.74293 0,7.1144 0,2.37146 0,4.74293 0,7.1144 0,2.37147 0,4.74293 0,7.1144 0,2.37147 0,4.74293 0,7.1144 0,3.01029 0.0258,4.25575 -1.89717,5.21723 -1.12407,0.56203 -0.4743,5.43625 -0.4743,6.64011 0,0.31619 0,0.63239 0,0.94858 0,2.60125 0.4743,5.37397 0.4743,8.06299 0,2.37147 0,4.74293 0,7.1144 0,2.72868 -0.4743,4.22522 -0.4743,6.64011 0,1.91715 -1.42478,3.80196 -1.89717,5.69152 -0.60386,2.41544 -1.71781,2.6026 -2.37147,5.21723 -0.62197,2.48787 -0.9094,3.28086 -2.37147,4.74293 -1.32261,1.32261 -2.14331,2.86374 -2.84576,4.26864 -1.11341,2.22683 -1.48702,3.3842 -2.84576,4.74293 -1.76769,1.7677 -1.89717,1.92932 -1.89717,5.21723 0,3.0357 4.04201,-0.49532 4.26864,-0.94858 0.81831,-1.63661 2.68165,-2.60411 4.26864,-3.79435 1.49428,-1.12071 4.03594,-1.78082 5.21723,-2.37147 2.67945,-1.33973 2.84576,-1.12664 2.84576,-4.74293 0,-2.34545 -0.20647,-3.38142 0.94859,-5.69152 0.88547,-1.77095 2.01193,-2.60099 2.84576,-4.26864 0.7474,-1.49482 0,-5.3991 0,-7.11441 0,-3.11151 0.0398,-4.22882 -1.42288,-5.69152 -1.73146,-1.73145 -1.45796,-3.2499 -0.4743,-5.21722 1.15424,-2.30848 1.42288,-3.11734 1.42288,-6.16582 0,-2.1545 2.37147,-2.35346 2.37147,-5.69152 0,-2.37146 0,-4.74293 0,-7.1144 0,-2.23235 2.56482,-2.88443 4.74293,-3.32005 2.79493,-0.55899 0.63706,-3.63159 0,-4.26864 -1.44476,-1.44476 -2.40047,-2.42948 -3.32005,-4.26864 -0.95082,-1.90165 -0.48514,-4.69956 0,-6.64011 0.45666,-1.82666 2.27174,-2.44686 2.84576,-4.74294 0.41262,-1.65048 0.96816,-3.87263 1.42288,-5.69152 0.50187,-2.00748 -0.53202,-4.49955 -0.94859,-6.16581 -0.44861,-1.79446 -2.07722,-2.73157 -2.84576,-4.26864 -0.99449,-1.98899 -2.28336,-4.30926 -3.32005,-5.69152 -1.03394,-1.37859 -0.90764,-4.66104 -1.42288,-5.69152 -1.16584,-2.33169 -2.84576,-0.18097 -2.84576,-4.26864 0,-3.22854 -0.39069,-3.71074 -1.89717,-5.21723 -1.51519,-1.51518 -1.42288,-3.7518 -1.42288,-6.16581 0,-2.84998 -1.03683,-3.49654 -1.89718,-5.21723 -0.76989,-1.53978 -0.16993,-5.89697 -0.47429,-7.1144 -0.56679,-2.26717 -2.2335,-2.76819 -2.84576,-5.21723 -0.45073,-1.8029 -1.04943,-4.672 -1.42288,-6.16581 -0.77062,-3.08248 -2.37147,-2.61755 -2.37147,-6.16582 0,-2.37146 0,-4.74293 0,-7.1144 0,-1.65562 0.14141,-0.66577 -0.94859,-2.84576 z"
         style="fill:#f9f9f9;fill-rule:evenodd;stroke:#000000;stroke-width:0.97061557;stroke-linecap:butt;stroke-linejoin:miter;stroke-miterlimit:4;stroke-opacity:1;stroke-dasharray:none" />
      <path
         id="path5432"
         d="m 769.30389,569.53151 c 0,-1.6417 -5.63351,1.97223 -6.16582,2.37146 -1.93609,1.45208 -2.33829,2.35488 -4.26864,3.32006 -1.73874,0.86937 -3.0649,1.95196 -4.74293,2.37147 -1.69145,0.42286 -2.86685,2.39255 -3.79435,3.32005 -1.67402,1.67402 -2.72112,2.59648 -3.79435,4.74293 -1.05598,2.11198 -2.03461,4.06922 -2.84576,5.69152 -0.96049,1.92099 -0.94858,3.51617 -0.94858,6.16582 0,2.0229 -1.5149,4.1624 -1.89718,5.69152 -0.49167,1.96668 -1.9514,3.4285 -2.84576,5.21723 -0.86687,1.73374 -3.47,1.46036 -5.21723,1.89717 -2.16812,0.54203 -3.0028,2.21126 -3.79434,3.79435 -0.89503,1.79006 -0.94859,3.53814 -0.94859,6.16581 0,2.37147 4.74293,0 7.1144,0 3.2232,0 4.93496,0.096 7.5887,1.42288 1.49481,0.74741 5.39909,0 7.1144,0 0.43823,0 3.89742,-2.8973 4.74293,-3.32005 1.63504,-0.81752 0.94859,-4.26746 0.94859,-6.16582 0,-1.06741 2.89953,-4.32241 3.32005,-4.74293 1.58111,-1.58111 2.02785,-2.97643 3.32005,-4.26864 1.58111,-1.58111 2.50214,-2.50214 3.79435,-3.79435 1.66908,-1.66907 2.37147,-1.71661 2.37147,-4.74293 0,-1.12002 2.42886,-4.38343 2.84576,-5.21723 1.10083,-2.20166 1.39157,-4.14339 1.89717,-6.16581 0.43932,-1.75729 0.4743,-4.23602 0.4743,-6.64011 0,-2.7625 -0.15211,-4.57285 -0.94859,-6.16582 -0.38864,-0.77728 -3.17984,-0.92054 -3.32005,-0.94858 z"
         style="fill:#f9f9f9;fill-rule:evenodd;stroke:#000000;stroke-width:0.97061557;stroke-linecap:butt;stroke-linejoin:miter;stroke-miterlimit:4;stroke-opacity:1;stroke-dasharray:none" />
      <path
         id="path5436"
         d="m 793.49285,637.35546 c -1.5918,0.7959 -3.41842,2.89495 -5.21723,3.79435 -1.78667,0.89334 -4.51789,0.47429 -6.64011,0.47429 -1.91552,0 -3.43246,1.64771 -4.26864,3.32006 -1.03725,2.07451 -1.93364,2.44441 -2.84576,4.26864 -1.18221,2.36442 -2.63079,1.98587 -3.32005,4.74293 -0.2964,1.1856 -2.72027,3.54336 -3.32006,4.74294 -1.12102,2.24204 -1.99951,3.52473 -2.84576,5.21722 -0.98761,1.97523 -0.94858,3.6519 -0.94858,6.16582 0,2.26565 -0.0873,5.0922 -0.4743,6.6401 -0.45829,1.83318 -2.05132,2.67978 -2.84576,4.26865 -0.91967,1.83934 -1.67652,3.0994 -2.84576,4.26864 -1.09318,1.09318 -2.19362,3.91296 -2.84576,5.21722 -1.17498,2.34998 0.25608,5.34527 1.89718,6.16582 2.25082,1.12541 1.42288,6.46922 1.42288,8.53728 0,2.37147 0,4.74293 0,7.1144 0,2.07599 3.40534,3.87964 4.26864,4.74293 1.56811,1.56812 2.97051,3.56955 3.79434,5.21723 1.32495,2.6499 0.92573,4.31437 0,6.16581 -0.80297,1.60596 -0.13907,5.9126 -0.47429,7.5887 -0.45889,2.29444 -0.47429,4.0091 -0.47429,6.64011 0,2.98815 -0.44596,4.62959 -0.94859,6.6401 -0.49976,1.99906 -0.94859,4.09321 -0.94859,6.64011 0,2.37147 0,4.74294 0,7.1144 0,2.37147 0,4.74294 0,7.1144 0,2.52957 0,5.05913 0,7.5887 0,2.96626 -0.47429,5.64021 -0.47429,8.06299 0,2.1552 -0.47429,4.03131 -0.47429,6.6401 0,2.70175 -0.43937,4.12893 -0.94859,6.16582 -0.55035,2.20139 -1.36421,4.3485 -2.37147,5.69152 -1.31168,1.74891 -1.37229,3.11771 -1.89717,5.21722 -0.55621,2.22485 -1.77788,2.36858 -2.37147,4.74294 -0.81147,3.24589 -1.55443,3.58315 -2.84576,6.16581 -1.1962,2.3924 -2.31808,3.68758 -3.32005,5.69152 -1.1178,2.2356 -0.94865,4.26894 -1.42288,6.64011 -0.32739,1.63695 -2.44878,2.92308 -3.32005,3.79435 -0.98575,0.98574 -2.07311,4.66132 -2.84577,5.69152 -1.36792,1.82389 -1.98853,2.46283 -3.32005,3.79435 -1.51751,1.5175 -2.48064,3.06411 -3.32005,4.74293 -0.80435,1.6087 -3.41874,2.8012 -4.74294,3.79435 -1.6245,1.21837 -2.59366,2.11937 -3.79434,3.32005 -1.38722,1.38721 -2.3634,3.46739 -3.32006,4.74294 -1.17073,1.56097 -2.86381,2.61763 -4.26864,3.32005 -2.40976,1.20488 -2.92097,2.29165 -5.69152,2.84576 -2.65908,0.53181 -3.32005,0.46139 -3.32005,3.79435 0,3.07895 -1.74351,2.69209 -3.32006,4.26864 -1.36331,1.36331 -3.3953,2.17194 -4.74293,2.84576 -2.84354,1.42177 -3.38188,1.48471 -5.21723,3.32005 -1.61885,1.61885 -2.55416,3.21115 -3.32005,4.74293 -0.90759,1.81519 -3.40075,1.42289 -5.69152,1.42289 -2.52957,0 -5.05913,0 -7.5887,0 -3.56884,0 -4.15951,1.78804 -4.26864,1.89717 -0.72363,0.72364 5.49863,3.27183 5.69152,3.32005 1.82263,0.45566 3.54062,0.94859 6.16582,0.94859 2.37146,0 4.74293,0 7.1144,0 2.78795,0 3.40133,-1.02987 4.74293,-2.37147 1.23973,-1.23973 3.12544,-2.58122 4.74294,-3.79434 1.99875,-1.49907 3.20935,-1.84183 5.21722,-2.84577 2.32596,-1.16297 2.64208,-2.16778 4.26864,-3.79434 1.69461,-1.69461 2.77448,-3.24877 4.26865,-4.74294 1.59776,-1.59776 3.17619,-1.60945 4.26864,-3.79434 0.89765,-1.79532 2.59639,-3.29561 3.32005,-4.74294 0.99102,-1.98204 3.46894,-3.94324 4.74293,-5.21722 1.11863,-1.11864 2.20025,-3.14884 3.32006,-4.26865 1.12135,-1.12135 2.79965,-2.11126 4.26864,-2.84576 1.58086,-0.79043 2.29619,-2.77048 3.32005,-3.79434 1.70178,-1.70179 2.5195,-3.14182 3.32006,-4.74294 0.91054,-1.82108 1.57038,-3.61507 2.37146,-5.21722 0.81219,-1.62438 2.43853,-3.38711 3.79435,-4.74294 1.33896,-1.33896 2.56209,-4.17559 3.32005,-5.69152 0.86487,-1.72973 2.43664,-2.0275 3.32006,-3.79435 0.91309,-1.82618 1.42288,-4.19603 1.42288,-6.6401 0,-2.60682 0.49554,-4.82793 0.94858,-6.64011 0.53988,-2.15951 2.23662,-3.1852 3.32006,-4.26864 0.85563,-0.85564 0.49466,-0.98933 0.94858,-1.89718 1.61587,-1.61587 1.01001,-6.41148 1.42288,-8.06298 0.49632,-1.98525 0.94859,-3.38016 0.94859,-6.16582 0,-1.28088 3.32006,-1.87583 3.32006,-5.21722 0,-2.37147 0,-4.74294 0,-7.11441 0,-2.37146 0,-4.74293 0,-7.1144 0,-1.90672 1.01204,-4.52247 1.42288,-6.16581 0.56345,-2.2538 0.47429,-4.64989 0.47429,-7.1144 0,-2.76001 0.47429,-4.04238 0.47429,-6.64011 0,-2.37147 0,-4.74293 0,-7.1144 0,-2.80387 -0.47429,-4.2481 -0.47429,-5.69152 0,-0.55245 1.99737,-3.24655 2.37147,-4.74293 0.48848,-1.95393 0.5475,-4.5615 0.94858,-6.16582 0.50557,-2.02229 1.42288,-2.66629 1.42288,-5.69152 0,-2.37147 0,-4.74293 0,-7.1144 0,-1.68605 -2.80133,-4.17978 -3.32005,-5.21723 -0.85251,-1.70501 -1.75208,-3.17496 -2.84576,-4.26864 -1.61517,-1.61517 -2.54883,-2.60795 -3.79435,-4.26864 -1.2213,-1.6284 -1.90043,-2.8588 -2.37147,-4.74293 -0.12282,-0.49132 0,-1.35332 0,-1.89718 -0.92419,-3.69677 1.19237,-4.98671 2.84576,-6.6401 1.66034,-1.66034 3.32006,-1.51513 3.32006,-4.74294 0,-2.46366 0.0737,-4.92242 -0.47429,-7.1144 -0.25707,-1.02827 0.67306,-5.06372 0.94858,-6.16581 0.70383,-2.8153 1.23052,-2.6534 2.84576,-4.26864 1.69789,-1.69789 2.56512,-2.94586 4.26864,-5.21723 1.17053,-1.5607 2.82412,-2.34982 4.26864,-3.79435 0.96954,-0.96953 1.98393,-3.66706 2.37147,-5.21722 0.73406,-2.93624 1.67875,-2.07972 4.74293,-2.84577 2.24251,-0.56062 3.46642,-1.2413 4.26864,-2.84576 1.12661,-2.2532 2.84577,-1.70671 2.84577,-5.21722 0,-3.49305 0.82773,-5.66918 -2.37147,-7.5887 z"
         style="fill:#f9f9f9;fill-rule:evenodd;stroke:#000000;stroke-width:0.97061557;stroke-linecap:butt;stroke-linejoin:miter;stroke-miterlimit:4;stroke-opacity:1;stroke-dasharray:none" />
      <path
         id="path5438"
         d="m 670.65086,890.62814 c 0,-0.90884 -5.8106,1.06766 -6.64011,1.89717 -1.47039,1.47039 4.14845,0.44424 6.16582,0.94859 1.87239,0.46809 0.66705,-1.88197 0.47429,-2.84576 z"
         style="fill:#f9f9f9;fill-rule:evenodd;stroke:#000000;stroke-width:0.97061557;stroke-linecap:butt;stroke-linejoin:miter;stroke-miterlimit:4;stroke-opacity:1;stroke-dasharray:none" />
      <path
         id="path5440"
         d="m 651.20483,874.97645 c 1.96419,0.49105 -3.83749,1.98346 -4.74293,3.79435 -1.00675,2.01349 4.37292,1.42288 5.69152,1.42288 3.84199,0 3.77971,-0.41577 4.26864,-2.37147 0.55517,-2.22068 -3.70769,-2.84576 -5.21723,-2.84576 z"
         style="fill:#f9f9f9;fill-rule:evenodd;stroke:#000000;stroke-width:0.97061557;stroke-linecap:butt;stroke-linejoin:miter;stroke-miterlimit:4;stroke-opacity:1;stroke-dasharray:none" />
      <path
         id="path5442"
         d="m 631.28451,874.97645 c 0.46334,-1.85337 3.79964,-0.938 1.89717,-4.74293 -1.03293,-2.06586 -3.26271,-2.74152 -4.74293,-2.37147 -2.51736,0.62934 -0.19717,4.8229 0,5.21723 0.50985,1.0197 1.89717,1.26478 2.84576,1.89717 z"
         style="fill:#f9f9f9;fill-rule:evenodd;stroke:#000000;stroke-width:0.97061557;stroke-linecap:butt;stroke-linejoin:miter;stroke-miterlimit:4;stroke-opacity:1;stroke-dasharray:none" />
      <path
         id="path5444"
         d="m 621.32435,854.58184 c 0.69634,1.39269 -3.16762,-2.9982 -4.26864,-1.89718 -1.13425,1.13425 0.79928,6.04289 0.94858,6.64011 0.27027,1.08109 4.55754,0.94859 6.16582,0.94859 2.1211,0 -1.34592,-4.19168 -2.84576,-5.69152 z"
         style="fill:#f9f9f9;fill-rule:evenodd;stroke:#000000;stroke-width:0.97061557;stroke-linecap:butt;stroke-linejoin:miter;stroke-miterlimit:4;stroke-opacity:1;stroke-dasharray:none" />
      <path
         id="path5446"
         d="m 617.53,846.51885 c 1.92334,0 -3.97123,-0.0884 -5.69152,-0.94859 -0.85898,-0.42948 1.67289,-5.46724 1.89717,-5.69152 2.10242,-2.10241 3.19199,3.28207 3.32006,3.79435 0.23324,0.93296 0.31619,1.89717 0.47429,2.84576 z"
         style="fill:#f9f9f9;fill-rule:evenodd;stroke:#000000;stroke-width:0.97061557;stroke-linecap:butt;stroke-linejoin:miter;stroke-miterlimit:4;stroke-opacity:1;stroke-dasharray:none" />
      <path
         id="path5448"
         d="m 606.62125,821.3813 c 0.58026,2.32102 -0.94859,4.72195 -0.94859,7.1144 0,3.20798 1.42186,3.32005 4.26864,3.32005 3.49861,0 4.02978,-0.007 3.32006,-2.84576 -0.62469,-2.49876 -1.795,-3.38566 -2.37147,-5.69152 -0.6743,-2.6972 0.0115,-4.24555 -0.94859,-6.16581 -0.4579,-0.91581 0.76168,-5.01629 0.4743,-6.16581 -0.51706,-2.06824 0,-4.96991 0,-7.11441 0,-1.37582 -0.6201,-4.85185 -0.94859,-6.16581 -0.51629,-2.06515 -1.35158,-3.03486 -1.89717,-5.21723 -0.41048,-1.64189 0.94858,-4.36012 0.94858,-6.6401 0,-1.37059 -3.85051,-3.85052 -4.74293,-4.74294 -1.4491,-1.4491 -2.09863,-2.57292 -3.32005,-3.79435 -2.00189,-2.00189 -2.84576,-1.71758 -2.84576,1.42288 0,2.37147 0,4.74294 0,7.11441 0,0.59246 3.43746,2.96317 3.79434,3.32005 0.94457,0.94456 1.82512,4.12452 2.37147,5.21723 1.00017,2.00033 0.87077,2.64752 -1.42288,3.79434 -1.71463,0.85732 -2.69526,2.22097 -3.79435,3.32006 -2.10241,2.10241 3.28207,3.19198 3.79435,3.32005 1.4295,0.35738 1.42288,5.25138 1.42288,6.64011 0,3.41315 0.3216,3.64165 1.89717,5.21723 0.59032,0.59032 0.94859,3.96739 0.94859,4.74293 z"
         style="fill:#f9f9f9;fill-rule:evenodd;stroke:#000000;stroke-width:0.97061557;stroke-linecap:butt;stroke-linejoin:miter;stroke-miterlimit:4;stroke-opacity:1;stroke-dasharray:none" />
      <path
         id="path5450"
         d="m 593.81533,750.23729 c 0.17757,0.17757 -2.93957,5.59245 -3.32005,7.1144 -0.50876,2.03504 -0.4743,4.33164 -0.4743,6.64011 0,1.90375 3.98876,0.37709 5.69152,-0.47429 1.06724,-0.53362 0.4743,-5.81578 0.4743,-6.16582 0,-2.24418 0.87352,-5.0671 1.42288,-6.16581 0.89545,-1.79092 1.42288,-4.10696 1.42288,-6.64011 0,-2.37147 0,-4.74293 0,-7.1144 0,-2.37147 0,-4.74293 0,-7.1144 0,-2.37147 0,-4.74294 0,-7.1144 0,-2.37147 0,-4.74294 0,-7.1144 0,-2.76251 0.1521,-4.57285 0.94858,-6.16582 0.89884,-1.79767 -0.32324,-5.34713 0,-6.64011 0.0701,-0.28032 6.46837,-3.19124 6.64011,-3.32005 1.57335,-1.18001 -1.24939,-5.9345 -1.42288,-6.16581 -1.89601,-2.52802 -4.83567,1.04133 -5.21723,1.42288 -1.41063,1.41063 -1.59119,3.18238 -2.37146,4.74293 -1.02417,2.04834 -2.11176,4.22351 -2.84576,5.69152 -1.03566,2.07132 -1.89718,3.28393 -1.89718,6.16582 0,2.83821 0.94859,4.31924 0.94859,6.6401 0,2.42346 0.0286,4.85742 0.47429,6.64011 0.51706,2.06823 0,4.9699 0,7.1144 0,2.37147 0,4.74294 0,7.1144 0,2.52957 0,5.05913 0,7.5887 0,1.75473 0.062,0.63853 -0.47429,3.32005 z"
         style="fill:#f9f9f9;fill-rule:evenodd;stroke:#000000;stroke-width:0.97061557;stroke-linecap:butt;stroke-linejoin:miter;stroke-miterlimit:4;stroke-opacity:1;stroke-dasharray:none" />
      <path
         id="path5452"
         d="m 611.83848,637.82976 c 0,1.45759 3.49761,-2.01635 2.84576,-3.32006 -0.98929,-1.97857 0.99593,-3.98372 1.42288,-5.69152 0.70813,-2.83254 -2.34001,-3.68364 -3.79435,-3.32005 -2.37844,0.59461 -1.89717,4.42938 -1.89717,6.64011 0,2.58282 -0.0572,3.22465 1.42288,5.69152 z"
         style="fill:#f9f9f9;fill-rule:evenodd;stroke:#000000;stroke-width:0.97061557;stroke-linecap:butt;stroke-linejoin:miter;stroke-miterlimit:4;stroke-opacity:1;stroke-dasharray:none" />
      <path
         id="path5454"
         d="m 613.73565,598.4634 c 0,1.31861 4.73923,-3.31263 5.21723,-4.26864 1.19984,-2.39968 -1.90669,-3.80386 -2.84576,-4.74293 -1.4491,-1.4491 -2.09863,-2.57292 -3.32005,-3.79435 -2.37189,-2.37188 -2.37147,4.81246 -2.37147,5.69152 0,0.45834 3.79435,1.42252 3.79435,4.26864 0,0.22359 0.31619,0.3162 0.47429,0.4743 0.60202,0.60202 -0.63239,1.58098 -0.94859,2.37146 z"
         style="fill:#f9f9f9;fill-rule:evenodd;stroke:#000000;stroke-width:0.97061557;stroke-linecap:butt;stroke-linejoin:miter;stroke-miterlimit:4;stroke-opacity:1;stroke-dasharray:none" />
      <path
         id="path5456"
         d="m 609.9413,562.8914 c 2.32585,2.32584 3.18439,-2.57442 3.79435,-3.79435 0.98931,-1.97861 1.42288,-2.67214 1.42288,-5.69152 0,-1.8401 1.83496,-3.0712 2.37147,-5.21723 0.65604,-2.62414 0.0451,-4.78803 1.89717,-6.6401 1.98939,-1.98939 -0.30094,-4.56958 -0.94858,-5.21723 -1.18837,-1.18837 -2.13169,2.60598 -3.32006,3.79435 -0.70878,0.70878 0,5.98744 0,7.1144 0,2.73049 -1.05137,3.42283 -2.37146,4.74293 -1.70939,1.70939 -2.37147,1.95191 -2.37147,5.21723 0,2.02664 -0.0678,3.65895 -0.4743,5.69152 z"
         style="fill:#f9f9f9;fill-rule:evenodd;stroke:#000000;stroke-width:0.97061557;stroke-linecap:butt;stroke-linejoin:miter;stroke-miterlimit:4;stroke-opacity:1;stroke-dasharray:none" />
      <path
         id="path5458"
         d="m 622.74723,511.19342 c 0,1.33902 -2.07709,5.69152 1.42288,5.69152 3.3239,0 3.7577,-3.17348 4.26864,-5.21723 0.43466,-1.73865 2.60124,-2.35671 3.32005,-3.79434 0.74024,-1.48049 0.47429,-5.15949 0.47429,-6.64011 0,-2.71221 1.186,-3.6366 2.37147,-5.21723 1.2432,-1.65759 2.68552,-2.68552 3.79435,-3.79435 1.56698,-1.56698 0.94859,-4.45993 0.94859,-6.6401 0,-3.62977 -1.53089,-1.84317 -3.32006,-0.94859 -1.47841,0.73921 -2.35381,2.82811 -3.32005,3.79435 -1.09116,1.09115 -1.1242,4.49679 -1.42288,5.69152 -0.60008,2.40031 -1.56961,3.13922 -2.37147,4.74293 -0.85462,1.70923 -1.7497,3.17258 -2.84576,4.26864 -1.03392,1.03392 -1.5939,4.47842 -1.89717,5.69152 -0.22359,0.89434 -0.94859,1.58098 -1.42288,2.37147 z"
         style="fill:#f9f9f9;fill-rule:evenodd;stroke:#000000;stroke-width:0.97061557;stroke-linecap:butt;stroke-linejoin:miter;stroke-miterlimit:4;stroke-opacity:1;stroke-dasharray:none" />
      <path
         id="path5460"
         d="m 663.06216,439.57512 c -0.44586,1.78344 -1.42288,3.82925 -1.42288,7.1144 0,3.18213 3.65021,0.61844 4.26865,0 1.52194,-1.52195 0.2349,-4.50354 1.89717,-6.16582 1.14521,-1.14521 1.58158,-4.90344 1.89717,-6.16581 0.63931,-2.55724 1.89718,-2.51058 1.89718,-5.69152 0,-1.84458 2.01939,-3.44228 2.84576,-4.26864 2.17218,-2.17219 3.02943,-0.7347 3.79434,-3.79435 0.69725,-2.78898 0.46587,-3.7775 1.42288,-5.69152 0.89334,-1.78667 0.4743,-4.51789 0.4743,-6.64011 0,-3.29915 -3.21971,-0.10034 -3.79435,0.4743 -1.51652,1.51652 -1.89717,2.59553 -1.89717,5.21722 0,2.08222 -1.025,4.09998 -1.42288,5.69153 -0.40943,1.63772 -2.15702,3.36544 -2.84576,4.74293 -0.99216,1.98431 -0.82477,3.77336 -1.42288,6.16581 -0.4673,1.86917 -1.29332,4.00951 -1.89718,5.21723 -0.83073,1.66145 -2.23658,2.54814 -3.79435,3.79435 z"
         style="fill:#f9f9f9;fill-rule:evenodd;stroke:#000000;stroke-width:0.97061557;stroke-linecap:butt;stroke-linejoin:miter;stroke-miterlimit:4;stroke-opacity:1;stroke-dasharray:none" />
      <path
         id="path5462"
         d="m 689.62259,387.87714 c -0.93286,1.86572 -4.74293,-1.16767 -4.74293,3.32005 0,1.72669 3.13114,2.27701 4.26864,2.84576 2.75598,1.37799 0.69867,-5.60488 0.47429,-6.16581 z"
         style="fill:#f9f9f9;fill-rule:evenodd;stroke:#000000;stroke-width:0.97061557;stroke-linecap:butt;stroke-linejoin:miter;stroke-miterlimit:4;stroke-opacity:1;stroke-dasharray:none" />
      <path
         id="path5464"
         d="m 693.89124,376.4941 c 1.7905,0.89525 2.82815,2.84576 5.69152,2.84576 2.71212,0 -0.43236,-4.65907 -0.4743,-4.74294 -1.12442,-2.24884 1.51782,-3.88918 -1.89717,-4.74293 -1.97895,-0.49474 -3.88925,1.51778 -4.74293,2.37147 -0.78737,0.78736 1.09982,2.65334 1.42288,4.26864 z"
         style="fill:#f9f9f9;fill-rule:evenodd;stroke:#000000;stroke-width:0.97061557;stroke-linecap:butt;stroke-linejoin:miter;stroke-miterlimit:4;stroke-opacity:1;stroke-dasharray:none" />
      <path
         id="path5466"
         d="m 709.54292,357.99665 c -0.49724,0.49724 -1.25231,3.62378 -2.84576,5.21723 -2.04869,2.04869 -0.17604,4.34321 1.42288,4.74294 3.31191,0.82797 3.44053,-1.18954 4.26864,-2.84577 1.12664,-2.25327 2.58375,-3.53233 3.79434,-4.74293 1.29204,-1.29203 1.69606,-3.39211 2.37147,-4.74293 1.14026,-2.28052 0.12296,-4.49703 -0.47429,-5.69152 -0.82454,-1.64908 -3.43923,1.54205 -4.74294,2.84576 -1.76374,1.76374 -3.27351,2.61308 -3.79434,5.21722 z"
         style="fill:#f9f9f9;fill-rule:evenodd;stroke:#000000;stroke-width:0.97061557;stroke-linecap:butt;stroke-linejoin:miter;stroke-miterlimit:4;stroke-opacity:1;stroke-dasharray:none" />
      <path
         id="path5468"
         d="m 726.61748,330.96193 c -1.33025,1.33025 -2.9651,4.50732 -4.26864,7.1144 -1.2508,2.50159 -2.12354,2.88888 -1.42288,5.69152 0.20495,0.81979 5.20642,-1.89177 5.21723,-1.89717 1.38606,-0.69304 2.51368,-2.94034 2.84576,-4.26864 0.60337,-2.41349 0.63125,-3.95131 1.89717,-5.21723 1.81499,-1.81499 1.16096,-3.3696 0.47429,-4.74293 -1.37174,-2.74349 -4.70431,3.12693 -4.74293,3.32005 z"
         style="fill:#f9f9f9;fill-rule:evenodd;stroke:#000000;stroke-width:0.97061557;stroke-linecap:butt;stroke-linejoin:miter;stroke-miterlimit:4;stroke-opacity:1;stroke-dasharray:none" />
      <path
         id="path5470"
         d="m 807.72165,333.80769 c -1.05108,-2.10217 -4.9782,-0.70956 -6.64011,-2.37147 -1.52055,-1.52055 -4.05587,-0.64606 -4.74293,-0.47429 -0.24617,0.0615 0,6.47189 0,7.1144 0,1.13503 -4.39814,-1.46657 -4.74294,-2.84576 -0.51705,-2.06823 0,-4.9699 0,-7.1144 0,-0.79736 -6.11525,-2.12168 -7.1144,-2.37147 -1.37639,-0.3441 -3.15431,-4.50006 -4.74293,-5.69152 -2.38026,-1.7852 -3.48963,-2.37146 -6.64011,-2.37146 -2.94608,0 -1.84298,-3.06254 -1.42288,-4.74294 0.46672,-1.86689 4.51017,-1.95755 6.16582,-2.37147 2.61626,-0.65406 4.86269,1.24562 6.16581,1.89718 2.49153,1.24576 3.93748,3.60632 5.21723,6.16581 1.23735,2.47471 2.14525,3.09384 3.79434,4.74294 1.62496,1.62496 1.86538,2.59271 4.26865,3.79434 1.49481,0.74741 5.39909,0 7.1144,0 2.85482,0 3.3763,1.00484 4.74293,2.37147 1.06055,1.06055 -0.65121,2.98253 -1.42288,4.26864 z"
         style="fill:#f9f9f9;fill-rule:evenodd;stroke:#000000;stroke-width:0.97061557;stroke-linecap:butt;stroke-linejoin:miter;stroke-miterlimit:4;stroke-opacity:1;stroke-dasharray:none" />
      <path
         id="path5472"
         d="m 782.5841,346.61361 c 0.84778,0.84778 -3.91242,4.80198 -4.74293,5.21723 -3.33575,1.66787 -4.24921,0.90973 -2.84576,-1.89717 0.89213,-1.78427 1.46422,-4.43401 1.89717,-6.16582 0.64923,-2.5969 -2.49611,-1.5977 1.89717,-3.79435 1.79006,-0.89503 3.53814,-0.94858 6.16582,-0.94858 2.30319,0 -0.22084,4.20339 -0.4743,5.21723 -0.24552,0.98209 -1.26478,1.58097 -1.89717,2.37146 z"
         style="fill:#f9f9f9;fill-rule:evenodd;stroke:#000000;stroke-width:0.97061557;stroke-linecap:butt;stroke-linejoin:miter;stroke-miterlimit:4;stroke-opacity:1;stroke-dasharray:none" />
      <path
         id="path5474"
         d="m 792.54426,347.5622 c -0.5021,2.0084 -5.45545,-2.37362 -3.32005,1.89717 1.53286,3.06573 2.18768,3.51126 5.21722,4.26864 3.43242,0.85811 -0.27066,-3.59072 -0.47429,-3.79434 -0.65185,-0.65186 -0.94859,-1.58098 -1.42288,-2.37147 z"
         style="fill:#f9f9f9;fill-rule:evenodd;stroke:#000000;stroke-width:0.97061557;stroke-linecap:butt;stroke-linejoin:miter;stroke-miterlimit:4;stroke-opacity:1;stroke-dasharray:none" />
      <path
         id="path5476"
         d="m 798.71008,362.26529 c -2.49111,-2.4911 -4.11226,-0.15638 -5.69153,1.42288 -1.20921,1.20922 3.05943,1.63655 4.26865,2.84576 3.00347,3.00348 3.34038,-1.87176 1.42288,-4.26864 z"
         style="fill:#f9f9f9;fill-rule:evenodd;stroke:#000000;stroke-width:0.97061557;stroke-linecap:butt;stroke-linejoin:miter;stroke-miterlimit:4;stroke-opacity:1;stroke-dasharray:none" />
      <path
         id="path5478"
         d="m 822.42475,357.99665 c 1.42288,1.42288 -3.7806,2.31647 -4.26865,4.26864 -0.57089,2.28357 -2.09299,3.32006 1.89718,3.32006 3.09347,0 4.53458,0.83342 5.21723,-1.89718 0.0774,-0.30957 -2.30451,-4.96984 -2.84576,-5.69152 z"
         style="fill:#f9f9f9;fill-rule:evenodd;stroke:#000000;stroke-width:0.97061557;stroke-linecap:butt;stroke-linejoin:miter;stroke-miterlimit:4;stroke-opacity:1;stroke-dasharray:none" />
      <path
         id="path5480"
         d="m 835.70496,352.30513 c 0.43719,-1.74877 -4.26864,1.51746 -4.26864,3.32006 0,1.57453 3.63133,1.89717 5.21723,1.89717 4.25803,0 0.88307,-4.11823 -0.94859,-5.21723 z"
         style="fill:#f9f9f9;fill-rule:evenodd;stroke:#000000;stroke-width:0.97061557;stroke-linecap:butt;stroke-linejoin:miter;stroke-miterlimit:4;stroke-opacity:1;stroke-dasharray:none" />
      <path
         id="path5482"
         d="m 753.6522,315.31025 c 2.23584,0 -4.20066,2.57385 -4.74293,4.74293 -0.86835,3.47341 2.80654,2.37147 5.21723,2.37147 0.72166,0 3.79259,-3.43731 4.26864,-3.79435 2.59018,-1.94264 3.32005,1.02293 3.32005,-3.79435 0,-3.05755 -1.76845,-2.87794 -3.79435,-2.37146 -1.6942,0.42355 -2.05119,1.95878 -4.26864,2.84576 z"
         style="fill:#f9f9f9;fill-rule:evenodd;stroke:#000000;stroke-width:0.97061557;stroke-linecap:butt;stroke-linejoin:miter;stroke-miterlimit:4;stroke-opacity:1;stroke-dasharray:none" />
      <path
         id="path5484"
         d="m 738.94911,324.32182 c -2.35084,0.58771 -2.72231,3.30054 -3.32006,5.69152 -0.83119,3.32478 4.01466,0.25398 4.26864,0 0.8864,-0.88639 -0.79849,-5.31628 -0.94858,-5.69152 z"
         style="fill:#f9f9f9;fill-rule:evenodd;stroke:#000000;stroke-width:0.97061557;stroke-linecap:butt;stroke-linejoin:miter;stroke-miterlimit:4;stroke-opacity:1;stroke-dasharray:none" />
      <path
         id="path5486"
         d="m 749.38356,326.219 c 1.49985,-1.49985 -4.74293,0.94858 -5.69152,2.84576 -1.51738,3.03476 2.84461,2.48975 4.26864,2.84576 2.34914,0.58728 1.42288,-4.13438 1.42288,-5.69152 z"
         style="fill:#f9f9f9;fill-rule:evenodd;stroke:#000000;stroke-width:0.97061557;stroke-linecap:butt;stroke-linejoin:miter;stroke-miterlimit:4;stroke-opacity:1;stroke-dasharray:none" />
    </g>
    <rect
       style="fill:none;stroke:#000000;stroke-width:0.2;stroke-linecap:round;stroke-miterlimit:4;stroke-opacity:1;stroke-dasharray:none;stroke-dashoffset:0"
       id="rect5518"
       width="1182.8877"
       height="1060.52"
       x="-220.26186"
       y="25.881615" />
    <path
       style="fill:#f9f9f9;fill-rule:evenodd;stroke:#000000;stroke-width:0.2;stroke-linecap:butt;stroke-linejoin:miter;stroke-miterlimit:4;stroke-opacity:1;stroke-dasharray:none"
       d="m 493.85121,764.36209 c 0,0 -1.02124,4.63513 -1.66161,7.19449 -0.60381,2.41328 0,5.79906 0,8.30134 0,3.51811 -1.53714,3.37657 -2.21546,6.08765 -0.43065,1.72119 -2.54364,3.42287 -3.32323,4.9808 -1.14666,2.29143 -1.5769,4.08875 -2.21549,6.64108 -0.60381,2.41329 0,5.79904 0,8.30132 0,3.19103 -0.20232,5.38515 -1.10773,7.19451 -1.08138,2.16098 -3.05725,2.50135 -4.43097,3.87394 -1.88744,1.88591 -2.75361,2.18222 -3.87711,4.4274 -1.16027,2.31869 -1.98615,2.95746 -2.76934,6.08764 -0.76523,3.05846 -1.27344,4.75854 -2.21549,6.64107 -0.98621,1.97086 -1.10773,3.98311 -1.10773,7.1945 0,2.76711 0,5.53423 0,8.30134 0,2.76711 0,5.53423 0,8.30134 0,2.76711 0,5.53423 0,8.30134 0,1.26424 -2.77936,3.89397 -3.32323,4.9808 -1.73191,3.46105 -1.31258,2.86946 -4.43094,4.42738 -0.69885,0.34914 0.55385,6.69454 0.55385,7.74793 0,2.64365 -0.10195,5.94177 -0.55385,7.74791 -0.51488,2.05783 -0.71973,5.6437 -1.10776,7.1945 -0.57486,2.29761 -2.20199,3.82011 -2.76935,6.08764 -0.9036,3.6115 0.99726,5.64464 -1.66161,8.30134 -1.78644,1.785 -2.36254,2.8406 -4.43096,3.87396 -2.44098,1.21951 -1.6616,4.31826 -1.6616,7.19451 0,1.41259 -2.91445,3.347 -3.32323,4.9808 -0.77442,3.09517 -1.05435,5.42754 -2.21549,7.74791 -1.2843,2.56653 -0.2679,4.99882 0.55389,6.64107 1.07848,2.15529 0.41791,6.07751 0,7.74793 -0.68752,2.74781 -0.54302,5.49074 -1.10776,7.74794 -0.47599,1.9024 -3.04321,2.4873 -4.43096,3.8739 -2.11459,2.1129 -4.43095,-2.633 -4.43095,-4.4274 0,-2.7237 2.66431,-3.769 3.87708,-4.98076 1.63223,-1.63089 1.10776,-4.50313 1.10776,-7.19451 0,-2.22901 -4.09728,1.77028 -6.0926,2.76714 -4.69286,2.34451 -2.60749,-3.09055 -2.21546,-3.87397 1.16364,-2.32543 1.66161,-2.93098 1.66161,-6.64108 0,-3.65606 1.79586,-3.7398 -0.55388,-6.08763 -1.74392,-1.74251 -1.04227,-4.68905 -0.55388,-6.64108 0.59033,-2.35939 1.33216,-4.3224 2.21549,-6.08766 1.03456,-2.06743 -3.32322,-3.77618 -3.32322,-6.08764 0,-1.0704 -4.81677,-3.70604 -5.53871,-4.42738 -2.15958,-2.15783 -3.6659,-1.95099 -2.76935,-5.53423 0.66424,-2.65483 0.82957,-4.9833 -0.55387,-7.74791 -1.31701,-2.63188 -3.82089,-2.61471 -6.64645,-3.32053 -2.34266,-0.58519 -6.05697,-0.12947 -7.75418,-0.55343 -2.50937,-0.62685 -3.06049,-2.70149 -5.5387,-3.32054 -2.71063,-0.67711 -4.15478,-1.24557 -6.09257,-2.21369 -2.39785,-1.19795 -3.32322,-2.22175 -3.32322,-5.53424 0,-3.25106 1.55182,-4.20799 2.76934,-6.64107 1.27272,-2.54336 3.10601,-3.43988 4.43096,-6.08765 1.55798,-3.11341 3.25053,-2.35893 1.66161,-5.53423 -1.43146,-2.86063 -2.76934,-1.94486 -2.76934,-6.08763 0,-3.2047 1.57552,-3.52985 2.21548,-6.08765 0.41921,-1.67555 1.79166,-4.9472 2.21547,-6.64106 0.6537,-2.61263 2.61307,-2.69589 3.32322,-5.53424 0.81672,-3.26425 -0.3964,-5.37688 -1.66161,-6.64107 -1.15316,-1.15223 -1.10773,-5.54052 -1.10773,-7.74793 0,-2.63864 2.21549,-3.63277 2.21549,-6.64108 0,-3.06969 0.55385,-5.20696 0.55385,-7.74791 0,-1.84038 -2.21546,-4.40225 -2.21546,-7.74791 0,-2.76234 -1.5688,-2.67435 -3.32323,-4.42739 -1.85693,-1.85544 -3.07677,-1.22868 -3.87709,-4.42738 -0.30225,-1.20799 0.55387,-5.57331 0.55387,-7.74791 0,-3.87454 -1.56401,-4.32987 -3.32322,-6.08766 -2.41925,-2.41726 -2.96469,0.39038 -3.8771,2.21371 -1.62067,3.23873 -1.56947,3.22846 -3.8771,5.53423 -1.63671,1.63539 -3.30293,2.61355 -4.98484,3.87394 -2.68806,2.01445 -4.11817,1.2501 -3.32321,4.4274 0.58383,2.33345 1.66161,3.73326 1.66161,7.19448 0,3.17556 -0.24005,5.46053 -1.10774,7.19449 -0.68883,1.37654 -5.41679,-3.19872 -5.53871,-3.32054 -2.70154,-2.69935 -2.52551,-2.42948 -3.87708,-2.76709 -2.00253,-0.50023 -1.30977,4.07583 -2.76936,5.5342 -0.19626,0.1961 0.55387,6.37205 0.55387,7.74794 0,2.39406 3.5902,4.07899 -1.6616,2.7671 -3.34179,-0.83478 -3.92379,1.84687 -4.43096,3.87397 -0.41097,1.64245 -2.95459,2.40059 -3.32325,3.87397 -0.56639,2.26375 5.60208,0.1266 6.64647,2.21367 1.71741,3.43206 -3.6417,2.98502 -4.98483,3.32054 -1.63445,0.40827 -3.19518,3.61807 -3.87709,4.9808 -0.97512,1.94863 -1.10776,5.0552 -1.10776,7.1945 0,2.15232 -2.3582,4.01657 -3.32322,4.9808 -1.75541,1.75399 -2.76936,3.38078 -2.76936,6.64108 0,2.7671 0,5.53423 0,8.30134 0,0.58285 -3.51066,3.69515 -3.87709,4.42737 -1.42826,2.85424 -4.43095,1.946 -4.43095,6.64107 0,3.25715 -1.38369,3.73511 -3.87711,4.9808 -1.59717,0.79795 -2.82144,3.3726 -3.87707,4.4274 -0.25126,0.25103 -3.11732,1.00396 -3.32322,1.10684 -1.64349,1.64215 -7.70375,0.42766 -9.41582,0 -3.3895,-0.8467 -4.9081,-1.66028 -8.30805,-1.66028 -3.41277,0 -4.73207,0.70387 -6.64644,1.66028 -2.08643,1.04237 -5.27589,0.55343 -7.75418,0.55343 -2.54107,0 -5.55849,-0.55343 -8.30805,-0.55343 -2.76159,0 -4.94602,3.16534 -5.53872,5.53423 -0.61497,2.45792 -2.47001,2.8566 -1.6616,6.08764 1.04943,4.19438 -1.21975,2.98941 -3.8771,4.98081 -1.86829,1.4001 -1.10773,6.15741 -1.10773,8.30133 0,2.01161 1.6616,4.65411 1.6616,7.74794 0,2.61251 -2.13089,3.55497 -3.87709,4.42737 -2.15078,1.07451 -3.0747,4.48417 -3.87708,6.08764 -1.38748,2.77272 -2.68508,4.64396 -3.32322,7.1945 -0.23057,0.92145 -6.47978,2.13044 -6.64645,2.21369 -0.53341,0.26649 0,7.40591 0,8.30134 0,2.76711 0,5.53424 0,8.30131 0,1.8978 -4.89562,3.2314 -6.09259,4.4274 -2.01378,2.0122 -3.32322,1.4833 -3.32322,5.5342 0,2.1592 -2.21546,3.9285 -2.21546,6.0877 0,3.4855 -2.3729,4.5847 -3.87711,6.0876 -1.23389,1.2329 -2.22368,4.4438 -2.76934,5.5343 -1.33414,2.6661 -2.76936,1.9066 -2.76936,5.5342 0,2.7671 0,5.5342 0,8.3013 0,3.23653 -0.11073,5.20213 -1.10773,7.19453 -1.23454,2.4671 -2.61193,4.3881 -4.98483,4.9808 -3.66911,0.9166 -4.58177,-0.4027 -6.64645,1.6603 -1.38469,1.3836 -0.27695,5.2575 -1.66161,6.6411 -2.3133,2.3114 -2.76937,0.346 -2.76937,5.5342 0,0.6183 -4.04162,3.4849 -4.43096,3.874 -1.44174,1.4405 -2.38983,5.1242 -2.76934,6.641 -0.1988,0.7946 -6.90816,0.8955 -7.75419,1.1069 -3.04362,0.7603 -2.21547,2.5936 -2.21547,6.0876 0,3.6854 -0.51144,4.9384 -2.21549,6.6411 -2.32167,2.3198 -3.39124,0.4855 -5.53871,-1.6603 -1.69732,-1.6959 -3.53761,-2.2137 -6.64644,-2.2137 -2.06453,0 -3.38563,-3.9986 -3.87709,-4.9808 -1.87582,-3.7486 1.21314,-4.098 -2.76936,-6.0876 -2.22624,-1.1122 -3.16457,-2.1741 -5.53869,-2.7671 -1.839,-0.4594 -3.71746,3.7144 -4.43097,4.4274 -2.61724,2.6151 -3.59908,-2.7629 -3.87711,-3.874 -0.72829,-2.9109 -0.21031,-5.4011 -1.10773,-7.1945 -0.65622,-1.3114 -5.48151,-3.0295 -6.64644,-3.3205 -3.109,-0.7767 -4.29968,-0.033 -6.64645,0.5534 -1.15474,0.2884 -3.73241,3.1759 -4.43094,3.8739 -1.83697,1.8355 0.52217,-0.2608 -1.10777,0.5535 -0.9231,-0.1845 -1.84623,-0.369 -2.76934,-0.5535 -3.52502,-0.7044 -4.26106,2.9811 -4.98483,4.4274 -1.20604,2.4101 -4.43096,-1.593 -4.43096,3.874 0,3.6817 -0.79913,3.8739 -4.43098,3.8739 l 0.55388,27.1177 -64.80282,0.5535 0.153095,-300.21859 148.073965,44.0718 0.16333,48.99057 51.92163,0.0561 3.24664,-5.53931 39.38809,3.78257 35.72424,-70.2934 10.46649,0 9.81656,-29.95616 8.42761,0.0144 2.52171,5.20897 c 0,0 114.91519,4.48129 114.91519,4.48129 l 0,5e-5 z"
       id="path5174-1"
       sodipodi:nodetypes="csssssssssssssssssssssssssssssssssssssssssssssssssssssssssssssssssssssssssssssssssssssssscsssssssssssssssssssssssssssssssssssssssssssscssscccccccccccccccc" />
    <path
       style="fill:none;fill-rule:evenodd;stroke:#000000;stroke-width:0.2;stroke-linecap:butt;stroke-linejoin:miter;stroke-opacity:1;stroke-miterlimit:4;stroke-dasharray:none"
       d="m 588.12703,176.01278 23.33333,0 -1.66666,39.44445 59.44444,-1.11112"
       id="path3418"
       inkscape:connector-curvature="0" />
  </g>
</svg>
