<?xml version="1.0" encoding="UTF-8" standalone="no"?>
<!-- Created with Inkscape (http://www.inkscape.org/) -->

<svg
   xmlns:dc="http://purl.org/dc/elements/1.1/"
   xmlns:cc="http://creativecommons.org/ns#"
   xmlns:rdf="http://www.w3.org/1999/02/22-rdf-syntax-ns#"
   xmlns:svg="http://www.w3.org/2000/svg"
   xmlns="http://www.w3.org/2000/svg"
   xmlns:sodipodi="http://sodipodi.sourceforge.net/DTD/sodipodi-0.dtd"
   xmlns:inkscape="http://www.inkscape.org/namespaces/inkscape"
   width="314.83612"
   height="500"
   id="svg2"
   sodipodi:version="0.32"
   inkscape:version="0.92.4 (5da689c313, 2019-01-14)"
   sodipodi:docname="mBacalar.svg"
   inkscape:output_extension="org.inkscape.output.svg.inkscape"
   version="1.0">
  <defs
     id="defs4">
    <inkscape:perspective
       sodipodi:type="inkscape:persp3d"
       inkscape:vp_x="0 : 530.76001 : 1"
       inkscape:vp_y="0 : 1000 : 0"
       inkscape:vp_z="1183.8877 : 530.76001 : 1"
       inkscape:persp3d-origin="591.94385 : 353.84001 : 1"
       id="perspective2604" />
    <inkscape:perspective
       id="perspective4705"
       inkscape:persp3d-origin="0.5 : 0.33333333 : 1"
       inkscape:vp_z="1 : 0.5 : 1"
       inkscape:vp_y="0 : 1000 : 0"
       inkscape:vp_x="0 : 0.5 : 1"
       sodipodi:type="inkscape:persp3d" />
    <inkscape:perspective
       id="perspective4727"
       inkscape:persp3d-origin="0.5 : 0.33333333 : 1"
       inkscape:vp_z="1 : 0.5 : 1"
       inkscape:vp_y="0 : 1000 : 0"
       inkscape:vp_x="0 : 0.5 : 1"
       sodipodi:type="inkscape:persp3d" />
    <inkscape:perspective
       id="perspective4749"
       inkscape:persp3d-origin="0.5 : 0.33333333 : 1"
       inkscape:vp_z="1 : 0.5 : 1"
       inkscape:vp_y="0 : 1000 : 0"
       inkscape:vp_x="0 : 0.5 : 1"
       sodipodi:type="inkscape:persp3d" />
  </defs>
  <sodipodi:namedview
     id="base"
     pagecolor="#ffffff"
     bordercolor="#666666"
     borderopacity="1.0"
     inkscape:pageopacity="0.0"
     inkscape:pageshadow="2"
     inkscape:zoom="1.4142136"
     inkscape:cx="411.1078"
     inkscape:cy="307.71717"
     inkscape:document-units="px"
     inkscape:current-layer="layer1"
     inkscape:window-width="1920"
     inkscape:window-height="1051"
     inkscape:window-x="-9"
     inkscape:window-y="-9"
     showgrid="false"
     inkscape:window-maximized="1"
     fit-margin-top="0"
     fit-margin-left="0"
     fit-margin-right="0"
     fit-margin-bottom="0" />
  <metadata
     id="metadata7">
    <rdf:RDF>
      <cc:Work
         rdf:about="">
        <dc:format>image/svg+xml</dc:format>
        <dc:type
           rdf:resource="http://purl.org/dc/dcmitype/StillImage" />
        <dc:title></dc:title>
      </cc:Work>
    </rdf:RDF>
  </metadata>
  <g
     inkscape:label="Capa 1"
     inkscape:groupmode="layer"
     id="layer1"
     transform="translate(171.15709,-46.495692)">
    <path
       style="fill:#66bb6a;fill-opacity:0.78431373;fill-rule:evenodd;stroke:#000000;stroke-width:0.06693118;stroke-linecap:butt;stroke-linejoin:miter;stroke-miterlimit:4;stroke-dasharray:none;stroke-opacity:1"
       d="m 61.052345,274.3865 c 0.209128,0.41861 0.186978,1.94715 0.186978,2.93758 0,1.05862 -0.0683,1.78652 -0.373952,2.38677 -0.389207,0.76434 -0.717841,0.98344 -0.934905,1.83599 -0.23823,0.93571 -0.603366,1.18494 -0.93489,1.83599 -0.452573,0.8888 -0.688924,1.0535 -0.934893,2.01958 -0.134498,0.52827 -0.508233,1.73249 -0.747919,2.20319 -0.394279,0.7743 -0.439895,1.59829 -0.747916,2.20318 -0.416084,0.81713 -0.511113,1.27312 -0.747911,2.20318 -0.263704,1.03573 -0.934901,2.93759 -0.934901,2.93759 0,0 -38.75685,-1.44015 -38.75685,-1.44015 0,0 -0.902456,-1.78228 -0.902456,-1.78228 0,0 -2.753515,0.005 -2.753515,0.005 0,0 -3.4117741,9.916 -3.4117741,9.916 0,0 -3.449747,0.10003 -3.449747,0.10003 0,0 -12.133845,23.25686 -12.133845,23.25686 0,0 -13.2528199,-1.16653 -13.2528199,-1.16653 0,0 -1.19229,1.74288 -1.19229,1.74288 0,0 -17.4895,-0.13251 -17.4895,-0.13251 0,0 -0.1084,-16.20636 -0.1084,-16.20636 l -49.90993,-14.56372 -0.23866,-24.69841 61.70303,-2.57039 3.55261,0.36719 1.30884,5.69156 h 5.422397 v -2.75395 h 3.178631 l 3.7395849,12.3011 21.2897521,1.39908 -0.07094,-9.91433 z"
       id="path5174"
       sodipodi:nodetypes="cssssssssccccccccccccccccccccccc"
       inkscape:connector-curvature="0" />
  </g>
</svg>
