<?xml version="1.0" encoding="UTF-8" standalone="no"?>
<!-- Created with Inkscape (http://www.inkscape.org/) -->

<svg
   xmlns:dc="http://purl.org/dc/elements/1.1/"
   xmlns:cc="http://creativecommons.org/ns#"
   xmlns:rdf="http://www.w3.org/1999/02/22-rdf-syntax-ns#"
   xmlns:svg="http://www.w3.org/2000/svg"
   xmlns="http://www.w3.org/2000/svg"
   xmlns:sodipodi="http://sodipodi.sourceforge.net/DTD/sodipodi-0.dtd"
   xmlns:inkscape="http://www.inkscape.org/namespaces/inkscape"
   width="1183.89"
   height="1030"
   id="svg2"
   sodipodi:version="0.32"
   inkscape:version="0.92.4 (5da689c313, 2019-01-14)"
   sodipodi:docname="mBenitoJuarez.svg"
   inkscape:output_extension="org.inkscape.output.svg.inkscape"
   version="1.0">
  <defs
     id="defs4">
    <inkscape:perspective
       sodipodi:type="inkscape:persp3d"
       inkscape:vp_x="0 : 530.76001 : 1"
       inkscape:vp_y="0 : 1000 : 0"
       inkscape:vp_z="1183.8877 : 530.76001 : 1"
       inkscape:persp3d-origin="591.94385 : 353.84001 : 1"
       id="perspective2604" />
    <inkscape:perspective
       id="perspective4705"
       inkscape:persp3d-origin="0.5 : 0.33333333 : 1"
       inkscape:vp_z="1 : 0.5 : 1"
       inkscape:vp_y="0 : 1000 : 0"
       inkscape:vp_x="0 : 0.5 : 1"
       sodipodi:type="inkscape:persp3d" />
    <inkscape:perspective
       id="perspective4727"
       inkscape:persp3d-origin="0.5 : 0.33333333 : 1"
       inkscape:vp_z="1 : 0.5 : 1"
       inkscape:vp_y="0 : 1000 : 0"
       inkscape:vp_x="0 : 0.5 : 1"
       sodipodi:type="inkscape:persp3d" />
    <inkscape:perspective
       id="perspective4749"
       inkscape:persp3d-origin="0.5 : 0.33333333 : 1"
       inkscape:vp_z="1 : 0.5 : 1"
       inkscape:vp_y="0 : 1000 : 0"
       inkscape:vp_x="0 : 0.5 : 1"
       sodipodi:type="inkscape:persp3d" />
    <meshgradient
       inkscape:collect="always"
       id="meshgradient200"
       gradientUnits="userSpaceOnUse"
       x="402.1777"
       y="313.31821">
      <meshrow
         id="meshrow202">
        <meshpatch
           id="meshpatch204">
          <stop
             path="c 20.2937,0  40.5874,0  60.8811,0"
             style="stop-color:#ffffff;stop-opacity:1"
             id="stop206" />
          <stop
             path="c 0,17.6437  0,35.2874  0,52.9311"
             style="stop-color:#f9f9f9;stop-opacity:1"
             id="stop208" />
          <stop
             path="c -20.2937,0  -40.5874,0  -60.8811,0"
             style="stop-color:#ffffff;stop-opacity:1"
             id="stop210" />
          <stop
             path="c 0,-17.6437  0,-35.2874  0,-52.9311"
             style="stop-color:#f9f9f9;stop-opacity:1"
             id="stop212" />
        </meshpatch>
      </meshrow>
    </meshgradient>
  </defs>
  <sodipodi:namedview
     id="base"
     pagecolor="#ffffff"
     bordercolor="#666666"
     borderopacity="1.0"
     inkscape:pageopacity="0.0"
     inkscape:pageshadow="2"
     inkscape:zoom="2"
     inkscape:cx="875.73903"
     inkscape:cy="919.92729"
     inkscape:document-units="px"
     inkscape:current-layer="layer1"
     inkscape:window-width="1920"
     inkscape:window-height="1051"
     inkscape:window-x="-9"
     inkscape:window-y="-9"
     showgrid="false"
     inkscape:window-maximized="1" />
  <metadata
     id="metadata7">
    <rdf:RDF>
      <cc:Work
         rdf:about="">
        <dc:format>image/svg+xml</dc:format>
        <dc:type
           rdf:resource="http://purl.org/dc/dcmitype/StillImage" />
        <dc:title></dc:title>
      </cc:Work>
    </rdf:RDF>
  </metadata>
  <g
     inkscape:label="Capa 1"
     inkscape:groupmode="layer"
     id="layer1"
     transform="translate(220.76186,-24.90167)">
    <g
       id="g5153"
       transform="matrix(2.3355601,0,0,2.3336724,-402.95723,-577.87355)"
       style="fill:#f9f9f9;stroke:#000000;stroke-width:0.08566719;stroke-miterlimit:4;stroke-opacity:1;stroke-dasharray:none">
      <path
         id="path5149"
         d="m 449.63014,363.97275 -8.53728,0 0,1.28059 -12.09449,0 0,0.99602 -4.98008,0 -4.13284,-6.99944 -17.70774,-4.04703 7.04263,-32.0668 15.22482,0 2.41889,-1.70746 -0.14228,-6.97211 33.86454,-1.1383 0,0.99601 c 0,0.64887 -0.14228,1.43976 -0.14228,1.99203 0,0.49098 0.40581,1.36479 0.28457,1.84975 -0.18302,0.73208 -0.44397,1.24074 0.28458,1.42288 0.37883,0.0947 1.58154,0.0768 1.42288,0.71144 -0.23407,0.93626 -0.15364,1.00737 -0.71144,1.56517 -0.33705,0.33705 0.19476,1.08583 -0.14229,1.42288 -0.29677,0.29677 -1.09095,0.6165 -0.56915,1.1383 1.24222,1.24222 -0.83871,-0.0601 -0.99602,0.56915 -0.0475,0.18998 -0.79776,1.33656 -0.71144,1.42288 0.38862,0.38862 0.86021,0.57564 1.28059,0.99602 0.19725,0.19724 0.88828,1.04989 0.14229,1.42288 -0.7501,0.37505 -1.09111,0.37896 -0.71144,1.1383 0.11627,0.23254 0.5908,1.2806 0.85373,1.2806 0.73716,0 1.40934,-0.16937 1.70746,0.42686 0.0482,0.0965 0.95776,1.42288 0.14229,1.42288 -0.55359,0 -1.61496,-0.185 -1.84975,0.28458 -0.1756,0.35121 -0.29118,1.1515 -0.56915,1.70745 -0.28227,0.56454 -0.70733,1.13008 -0.99602,1.70746 -0.28775,0.5755 -0.0953,1.23488 -0.28457,1.99203 -0.16626,0.66504 -0.14229,1.39186 -0.14229,2.13432 0,0.7945 0.24896,1.42269 0.42686,2.13432 0.12257,0.49029 0.47955,1.06985 0.28458,1.84975 -0.26605,1.0642 -0.93713,1.02052 -1.42288,1.99203 -0.22127,0.44254 -0.17664,1.36891 -0.85373,1.70745 -1.17438,0.58719 -0.5766,0.74123 -0.85373,1.84975 -0.14849,0.59399 -0.28457,1.33402 -0.28457,2.13432 0,1.15472 -0.74176,1.11728 -0.85373,1.56517 -0.0345,0.13803 -0.0552,1.73506 -0.28458,1.84974 -0.66147,0.33074 -0.69599,0.69599 -1.28059,1.28059 -0.48459,0.48459 -0.6707,0.77226 -0.99602,1.42288 -0.18537,0.37076 -0.44613,1.29987 -0.71144,1.56517 -0.37832,0.37833 -0.71766,1.00224 -1.1383,1.42288 -0.42777,0.42777 -0.45287,0.89707 -0.85373,1.56517 z"
         style="fill:url(#meshgradient200);fill-rule:evenodd;stroke:#000000;stroke-width:0.08566719;stroke-linecap:butt;stroke-linejoin:miter;stroke-miterlimit:4;stroke-dasharray:none;stroke-opacity:1;fill-opacity:1"
         inkscape:connector-curvature="0"
         sodipodi:nodetypes="cccccccccccccssscsssscscssscscsscssssscsccsccssc" />
      <path
         id="path5151"
         d="m 464.2858,333.09625 c 0,-0.68404 1.54156,-0.47469 1.70746,-1.1383 0.12443,-0.49771 -0.91783,-0.49097 -1.28059,-0.85373 -0.49066,-0.49066 -0.58495,-0.79053 -0.42687,-1.42288 0.15255,-0.6102 0.45324,-1.00261 0.99602,-1.13831 0.52463,-0.13115 0.42686,-1.02439 0.42686,-1.56516 0,-0.77756 -0.1436,-1.13568 0.14229,-1.70746 0.28811,-0.57622 0.56915,-1.30446 0.56915,-1.99203 0,-0.46307 1.09448,-1.09448 1.2806,-1.28059 0.63865,-0.63866 0.85372,-0.58281 0.85372,-1.70746 0,-0.71144 -1.42288,0 -2.13432,0 -0.69931,0 -1.50023,-0.0193 -1.99203,-0.14229 -0.88429,-0.22107 -0.71144,0.17182 -0.71144,1.13831 0,0.68636 -0.92767,0.85372 0.42687,0.85372 0.55515,0 1.59512,-1.11582 1.28059,0.14229 -0.23575,0.94299 -0.4888,0.65117 -1.13831,1.13831 -0.52749,0.39561 -0.42686,0.75323 -0.42686,1.42288 0,0.61596 0.42686,1.1807 0.42686,1.84974 0,0.63556 -0.85957,0.71729 -1.1383,0.99602 -0.30776,0.30775 0.14229,1.25426 0.14229,1.84974 0,0.10946 0,0.2284 0,0.99602 0,0.84066 0.16816,1.1092 0.85373,1.28059 0.41666,0.10417 0.058,0.85944 0.14228,1.28059 z"
         style="fill:#f9f9f9;fill-rule:evenodd;stroke:#000000;stroke-width:0.08566719;stroke-linecap:butt;stroke-linejoin:miter;stroke-miterlimit:4;stroke-opacity:1;stroke-dasharray:none" />
    </g>
    <rect
       style="fill:none;stroke:#000000;stroke-width:0.2;stroke-linecap:round;stroke-miterlimit:4;stroke-opacity:1;stroke-dasharray:none;stroke-dashoffset:0"
       id="rect5518"
       width="1182.8877"
       height="1060.52"
       x="-220.26186"
       y="25.881615" />
    <path
       style="font-style:normal;font-weight:normal;font-size:29.09194565px;font-family:'Bitstream Vera Sans';fill:#000000;fill-opacity:1;stroke:none"
       d="m 621.445,170.34798 c 0,-2.4622 0.25333,-4.4438 0.75997,-5.94482 0.50665,-1.50098 1.25952,-2.65869 2.25861,-3.47313 0.99908,-0.81441 2.25623,-1.22162 3.77144,-1.22164 1.11745,2e-5 2.0976,0.22494 2.94044,0.67474 0.84283,0.44985 1.53887,1.09855 2.08815,1.94609 0.54925,0.84759 0.98013,1.87982 1.29266,3.09671 0.31249,1.21691 0.46875,2.85759 0.46876,4.92205 -10e-6,2.44327 -0.25097,4.41541 -0.75286,5.9164 -0.50193,1.501 -1.25243,2.66108 -2.2515,3.48024 -0.9991,0.81916 -2.26099,1.22873 -3.78565,1.22873 -2.00765,0 -3.58441,-0.71972 -4.73028,-2.15916 -1.37316,-1.73302 -2.05974,-4.55508 -2.05974,-8.46621 l 0,0 z m 2.62794,0 c -10e-6,3.41869 0.4001,5.69386 1.20033,6.82552 0.80021,1.13167 1.78746,1.69751 2.96175,1.69751 1.17427,0 2.16152,-0.5682 2.96175,-1.70461 0.80021,-1.1364 1.20032,-3.4092 1.20033,-6.81842 -10e-6,-3.42814 -0.40012,-5.70568 -1.20033,-6.83263 -0.80023,-1.12692 -1.79695,-1.69039 -2.99016,-1.6904 -1.17429,1e-5 -2.11182,0.49719 -2.8126,1.49153 -0.88072,1.269 -1.32108,3.61283 -1.32107,7.0315 l 0,0 z m 13.56582,0 c 0,-2.4622 0.25332,-4.4438 0.75997,-5.94482 0.50665,-1.50098 1.25951,-2.65869 2.25861,-3.47313 0.99908,-0.81441 2.25622,-1.22162 3.77144,-1.22164 1.11745,2e-5 2.0976,0.22494 2.94044,0.67474 0.84282,0.44985 1.53887,1.09855 2.08815,1.94609 0.54924,0.84759 0.98013,1.87982 1.29265,3.09671 0.3125,1.21691 0.46876,2.85759 0.46877,4.92205 -10e-6,2.44327 -0.25097,4.41541 -0.75287,5.9164 -0.50192,1.501 -1.25242,2.66108 -2.2515,3.48024 -0.9991,0.81916 -2.26098,1.22873 -3.78564,1.22873 -2.00766,0 -3.58442,-0.71972 -4.73029,-2.15916 -1.37315,-1.73302 -2.05973,-4.55508 -2.05973,-8.46621 l 0,0 z m 2.62794,0 c -10e-6,3.41869 0.4001,5.69386 1.20032,6.82552 0.80022,1.13167 1.78747,1.69751 2.96176,1.69751 1.17427,0 2.16152,-0.5682 2.96175,-1.70461 0.80021,-1.1364 1.20031,-3.4092 1.20033,-6.81842 -2e-5,-3.42814 -0.40012,-5.70568 -1.20033,-6.83263 -0.80023,-1.12692 -1.79695,-1.69039 -2.99016,-1.6904 -1.17429,1e-5 -2.11183,0.49719 -2.8126,1.49153 -0.88072,1.269 -1.32108,3.61283 -1.32107,7.0315 l 0,0 z m 13.56582,4.81551 2.68476,-0.22728 c 0.19886,1.30687 0.66053,2.28938 1.38499,2.94755 0.72445,0.65817 1.59806,0.98725 2.62083,0.98725 1.23109,0 2.2728,-0.46403 3.12511,-1.3921 0.85229,-0.92806 1.27844,-2.15916 1.27846,-3.69331 -2e-5,-1.45838 -0.4096,-2.60899 -1.22874,-3.45183 -0.81917,-0.84282 -1.89165,-1.26424 -3.21745,-1.26425 -0.8239,10e-6 -1.56729,0.18705 -2.23019,0.5611 -0.66291,0.37408 -1.18376,0.85942 -1.56255,1.45602 l -2.40066,-0.31251 2.01712,-10.69641 10.35548,0 0,2.44327 -8.30995,0 -1.1222,5.59679 c 1.25004,-0.87123 2.56163,-1.30685 3.9348,-1.30686 1.81823,1e-5 3.35238,0.62977 4.60243,1.88927 1.25003,1.25953 1.87506,2.8789 1.87507,4.85813 -10e-6,1.88454 -0.54928,3.51338 -1.64779,4.88654 -1.33528,1.68566 -3.15826,2.52849 -5.46894,2.52849 -1.89401,0 -3.43999,-0.53032 -4.63795,-1.59096 -1.19796,-1.06064 -1.88217,-2.46694 -2.05263,-4.2189 l 0,0 z"
       id="text2230"
       inkscape:connector-curvature="0" />
    <path
       style="fill:none;fill-rule:evenodd;stroke:#000000;stroke-width:0.2;stroke-linecap:butt;stroke-linejoin:miter;stroke-miterlimit:4;stroke-dasharray:none;stroke-opacity:1"
       d="m 588.35995,176.22022 23.10041,-0.20744 -1.66666,39.44445 59.44444,-1.11112"
       id="path3418"
       inkscape:connector-curvature="0"
       sodipodi:nodetypes="cccc" />
    <path
       style="fill:#f9f9f9;fill-opacity:1;fill-rule:evenodd;stroke-width:0.01301719"
       d="m 871.50429,185.46932 2e-5,-4.21432 h 10.01673 c 5.5092,0 10.01673,0.003 10.01673,0.006 0,0.003 -0.0722,0.12179 -0.16039,0.2636 -0.53072,0.85309 -0.91,1.53886 -1.05596,1.90923 -0.11045,0.28029 -0.19288,0.62725 -0.24008,1.01061 -0.0376,0.30515 -0.0506,0.51407 -0.0731,1.17155 -0.0403,1.17909 -0.0806,1.54522 -0.24726,2.25197 -0.0978,0.41469 -0.16253,0.78735 -0.21589,1.24315 -0.0151,0.12887 -0.0283,0.23505 -0.0295,0.23596 -10e-4,9.1e-4 -1.94387,0.0378 -4.31723,0.0819 -2.37336,0.0442 -4.76332,0.0887 -5.31101,0.0991 -0.5477,0.0103 -2.57155,0.048 -4.49744,0.0837 -1.9259,0.0357 -3.58804,0.0665 -3.69365,0.0685 l -0.19202,0.004 z"
       id="path214"
       inkscape:connector-curvature="0"
       transform="translate(-220.76186,24.90167)" />
  </g>
</svg>
