<?xml version="1.0" encoding="UTF-8" standalone="no"?>
<!-- Created with Inkscape (http://www.inkscape.org/) -->

<svg
   xmlns:dc="http://purl.org/dc/elements/1.1/"
   xmlns:cc="http://creativecommons.org/ns#"
   xmlns:rdf="http://www.w3.org/1999/02/22-rdf-syntax-ns#"
   xmlns:svg="http://www.w3.org/2000/svg"
   xmlns="http://www.w3.org/2000/svg"
   xmlns:sodipodi="http://sodipodi.sourceforge.net/DTD/sodipodi-0.dtd"
   xmlns:inkscape="http://www.inkscape.org/namespaces/inkscape"
   width="314.83612"
   height="500"
   id="svg2"
   sodipodi:version="0.32"
   inkscape:version="0.92.4 (5da689c313, 2019-01-14)"
   sodipodi:docname="mBenitoJuarez.svg"
   inkscape:output_extension="org.inkscape.output.svg.inkscape"
   version="1.0">
  <defs
     id="defs4">
    <inkscape:perspective
       sodipodi:type="inkscape:persp3d"
       inkscape:vp_x="0 : 530.76001 : 1"
       inkscape:vp_y="0 : 1000 : 0"
       inkscape:vp_z="1183.8877 : 530.76001 : 1"
       inkscape:persp3d-origin="591.94385 : 353.84001 : 1"
       id="perspective2604" />
    <inkscape:perspective
       id="perspective4705"
       inkscape:persp3d-origin="0.5 : 0.33333333 : 1"
       inkscape:vp_z="1 : 0.5 : 1"
       inkscape:vp_y="0 : 1000 : 0"
       inkscape:vp_x="0 : 0.5 : 1"
       sodipodi:type="inkscape:persp3d" />
    <inkscape:perspective
       id="perspective4727"
       inkscape:persp3d-origin="0.5 : 0.33333333 : 1"
       inkscape:vp_z="1 : 0.5 : 1"
       inkscape:vp_y="0 : 1000 : 0"
       inkscape:vp_x="0 : 0.5 : 1"
       sodipodi:type="inkscape:persp3d" />
    <inkscape:perspective
       id="perspective4749"
       inkscape:persp3d-origin="0.5 : 0.33333333 : 1"
       inkscape:vp_z="1 : 0.5 : 1"
       inkscape:vp_y="0 : 1000 : 0"
       inkscape:vp_x="0 : 0.5 : 1"
       sodipodi:type="inkscape:persp3d" />
  </defs>
  <sodipodi:namedview
     id="base"
     pagecolor="#ffffff"
     bordercolor="#666666"
     borderopacity="1.0"
     inkscape:pageopacity="0.0"
     inkscape:pageshadow="2"
     inkscape:zoom="2"
     inkscape:cx="257.31262"
     inkscape:cy="338.61403"
     inkscape:document-units="px"
     inkscape:current-layer="layer1"
     inkscape:window-width="1920"
     inkscape:window-height="1051"
     inkscape:window-x="-9"
     inkscape:window-y="-9"
     showgrid="false"
     inkscape:window-maximized="1"
     fit-margin-top="0"
     fit-margin-left="0"
     fit-margin-right="0"
     fit-margin-bottom="0" />
  <metadata
     id="metadata7">
    <rdf:RDF>
      <cc:Work
         rdf:about="">
        <dc:format>image/svg+xml</dc:format>
        <dc:type
           rdf:resource="http://purl.org/dc/dcmitype/StillImage" />
        <dc:title></dc:title>
      </cc:Work>
    </rdf:RDF>
  </metadata>
  <g
     inkscape:label="Capa 1"
     inkscape:groupmode="layer"
     id="layer1"
     transform="translate(171.15709,-46.495692)">
    <path
       style="fill:#66bb6a;fill-opacity:0.78431373;stroke:#000000;stroke-width:0.33073065;stroke-linecap:butt;stroke-linejoin:miter;stroke-miterlimit:4;stroke-dasharray:none;stroke-opacity:1"
       d="m -78.868947,276.26236 -9.35382,6.48487 h 38.311502 l -2.736532,64.78037 97.603276,-1.82484 0.17066,-1.46371 0.14221,-1.24024 0.33589,-1.24024 0.16801,-1.45984 0.10319,-1.47282 0.14222,-2.55797 0.2196,-0.74933 0.34882,-0.89142 0.36172,-0.71054 0.83976,-1.39529 0.58136,-0.94308 0.81389,-1.29193 0.86559,-1.36942 0.50387,-1.04647 0.33589,-0.78806 0.36172,-1.03354 0.46511,-1.51154 0.50383,-1.87324 0.34882,-0.87853 0.2583,-0.40049 0.23251,-0.28409 0.2712,-0.15512 0.29699,-0.14221 0.29733,-0.12932 0.33589,-0.0645 0.43924,-0.0903 0.58136,-0.0387 1.02064,-0.0516 1.42108,0.0387 1.279,0.0774 h 0.99477 l 0.50387,-0.0903 0.37465,-0.2841 0.19381,-0.4651 0.0387,-0.51677 -0.11609,-0.63302 -0.18091,-0.51677 -0.58136,-1.16275 -0.64598,-1.20147 -0.73637,-1.14979 -0.83976,-0.63304 -0.99477,-0.37466 -1.44695,-0.0903 -1.92495,0.0645 -1.0206,0.0132 -0.43928,-0.16801 -0.58136,-0.58136 -0.72347,-1.08522 -0.86559,-1.60197 -0.67178,-1.43403 -0.37465,-0.77515 -0.20671,-0.63304 -0.0265,-0.60719 0.20671,-0.51677 0.45218,-0.40049 0.80099,-0.43927 1.0723,-0.49091 1.22731,-0.64597 0.4651,-0.41341 0.23251,-0.38755 0.1938,-0.54264 -0.0132,-0.43924 -0.0516,-0.5297 -0.297,-0.78807 -0.34882,-0.64595 -0.49093,-0.71054 -0.62012,-0.69763 -0.73638,-0.65889 -1.65365,-1.20148 -1.16275,-0.76223 -1.0206,-0.82683 -0.36172,-0.33589 -0.10319,-0.20671 0.67178,-1.44694 1.0723,-1.70535 0.72347,-1.39525 0.41341,-0.71058 0.11642,-0.33589 0.41341,-0.18091 0.68472,-0.12931 0.72347,0.0645 1.65365,0.33589 1.09813,0.2325 h 0.41341 l 0.19381,-0.12932 -0.11609,-0.478 -0.54263,-0.65888 -1.08519,-1.09813 -0.29733,-0.50383 -0.12931,-0.40048 0.0645,-0.59429 0.33592,-0.50387 0.49091,-0.50384 1.05939,-0.77513 0.63302,-0.49094 0.50387,-0.55552 0.2325,-0.76224 -0.12931,-1.24024 -0.0906,-0.62012 -0.15512,-1.13689 0.11609,-0.71054 0.14221,-0.37465 0.2712,-0.37468 1.11106,-1.16272 0.55553,-0.87849 0.2325,-0.62012 0.33589,-1.30483 0.32313,-1.29193 0.18091,-0.95601 -0.0265,-0.43925 -0.41342,-0.60722 -0.87852,-0.50383 -1.18854,-0.36176 -1.5503,-0.1938 -1.04647,-0.15512 -1.11105,-0.2712 -0.73638,-0.51676 -0.38758,-0.51677 -0.0906,-0.64595 0.0906,-0.94311 0.21961,-0.91725 0.2454,-0.89142 0.20671,-0.78806 0.10318,-0.5426 -0.0132,-0.56846 -0.1938,-1.34359 -0.20671,-0.82683 -0.40048,-1.5503 -0.33589,-1.53737 -0.0387,-0.72347 0.20671,-3.359 0.2196,-1.60196 0.10319,-2.00244 -0.0132,-1.66659 0.0298,-2.64154 -130.955866,4.32228 z"
       id="path2512"
       inkscape:connector-curvature="0" />
  </g>
</svg>
