<?xml version="1.0" encoding="UTF-8" standalone="no"?>
<!-- Created with Inkscape (http://www.inkscape.org/) -->

<svg
   xmlns:dc="http://purl.org/dc/elements/1.1/"
   xmlns:cc="http://creativecommons.org/ns#"
   xmlns:rdf="http://www.w3.org/1999/02/22-rdf-syntax-ns#"
   xmlns:svg="http://www.w3.org/2000/svg"
   xmlns="http://www.w3.org/2000/svg"
   xmlns:sodipodi="http://sodipodi.sourceforge.net/DTD/sodipodi-0.dtd"
   xmlns:inkscape="http://www.inkscape.org/namespaces/inkscape"
   width="1183.89"
   height="1030"
   id="svg2"
   sodipodi:version="0.32"
   inkscape:version="0.92.4 (5da689c313, 2019-01-14)"
   sodipodi:docname="mCozumel.svg"
   inkscape:output_extension="org.inkscape.output.svg.inkscape"
   version="1.0">
  <defs
     id="defs4">
    <inkscape:perspective
       sodipodi:type="inkscape:persp3d"
       inkscape:vp_x="0 : 530.76001 : 1"
       inkscape:vp_y="0 : 1000 : 0"
       inkscape:vp_z="1183.8877 : 530.76001 : 1"
       inkscape:persp3d-origin="591.94385 : 353.84001 : 1"
       id="perspective2604" />
    <inkscape:perspective
       id="perspective4705"
       inkscape:persp3d-origin="0.5 : 0.33333333 : 1"
       inkscape:vp_z="1 : 0.5 : 1"
       inkscape:vp_y="0 : 1000 : 0"
       inkscape:vp_x="0 : 0.5 : 1"
       sodipodi:type="inkscape:persp3d" />
    <inkscape:perspective
       id="perspective4727"
       inkscape:persp3d-origin="0.5 : 0.33333333 : 1"
       inkscape:vp_z="1 : 0.5 : 1"
       inkscape:vp_y="0 : 1000 : 0"
       inkscape:vp_x="0 : 0.5 : 1"
       sodipodi:type="inkscape:persp3d" />
    <inkscape:perspective
       id="perspective4749"
       inkscape:persp3d-origin="0.5 : 0.33333333 : 1"
       inkscape:vp_z="1 : 0.5 : 1"
       inkscape:vp_y="0 : 1000 : 0"
       inkscape:vp_x="0 : 0.5 : 1"
       sodipodi:type="inkscape:persp3d" />
  </defs>
  <sodipodi:namedview
     id="base"
     pagecolor="#ffffff"
     bordercolor="#666666"
     borderopacity="1.0"
     inkscape:pageopacity="0.0"
     inkscape:pageshadow="2"
     inkscape:zoom="0.84876543"
     inkscape:cx="178.50342"
     inkscape:cy="450.92817"
     inkscape:document-units="px"
     inkscape:current-layer="layer1"
     inkscape:window-width="1920"
     inkscape:window-height="1051"
     inkscape:window-x="-9"
     inkscape:window-y="-9"
     showgrid="false"
     inkscape:window-maximized="1" />
  <metadata
     id="metadata7">
    <rdf:RDF>
      <cc:Work
         rdf:about="">
        <dc:format>image/svg+xml</dc:format>
        <dc:type
           rdf:resource="http://purl.org/dc/dcmitype/StillImage" />
        <dc:title></dc:title>
      </cc:Work>
    </rdf:RDF>
  </metadata>
  <g
     inkscape:label="Capa 1"
     inkscape:groupmode="layer"
     id="layer1"
     transform="translate(220.76186,-24.90167)">
    <path
       style="fill:#f9f9f9;fill-rule:evenodd;stroke:#000000;stroke-width:0.2;stroke-linecap:butt;stroke-linejoin:miter;stroke-miterlimit:4;stroke-opacity:1;stroke-dasharray:none"
       d="m 628.90326,362.83434 c 0.41382,0.91112 0.66464,3.97607 0.66464,5.97695 0,1.5862 -0.0612,3.56507 -0.33233,4.64875 -0.0233,0.0931 -3.15871,1.82795 -3.32323,1.99233 -1.35686,1.35577 -1.21334,2.55604 -0.3323,4.31669 0.67104,1.34102 2.36104,2.17573 3.32322,2.65644 1.19315,0.59608 0.33231,3.0102 0.33231,4.31669 0,2.5482 -0.83943,2.69147 1.3293,4.31671 0.98092,0.73511 0.12996,3.79723 0,4.31669 -0.14987,0.59895 -1.3293,1.4493 -1.3293,3.65258 0,2.29188 1.66911,4.65622 2.99092,5.97696 1.37345,1.37237 -0.69988,1.47665 2.32624,2.98851 2.12017,1.0592 3.66774,1.66026 5.98181,1.66026 1.60685,0 3.49061,-2.32601 3.98785,-2.9885 0.80133,-1.06756 1.66507,-2.66101 2.65859,-3.98463 0.99853,-1.33031 2.40369,-2.40174 3.65556,-3.6526 1.81426,-1.81279 3.18362,-2.02772 4.65249,-3.98465 0.86716,-1.15524 1.66869,-1.67443 2.32625,-2.98847 1.01224,-2.0228 2.58619,-2.2947 2.99092,-4.31669 0.3849,-1.92304 1.84883,-3.40474 2.32624,-5.31286 0.35141,-1.40442 1.74782,-3.16075 2.32627,-4.31671 0.82204,-1.64277 1.62061,-3.48877 1.99394,-4.98081 0.35026,-1.39989 2.72863,-3.05849 3.65551,-3.98462 1.2961,-1.29502 2.12373,-2.55524 3.65556,-3.32054 1.13511,-0.56708 1.55513,-2.44366 1.99393,-3.32053 0.80409,-1.60687 1.66162,-2.45713 1.66162,-4.64875 0,-1.95855 -0.18321,-3.61855 0.66465,-5.31286 0.65711,-1.31315 3.46826,-3.13339 4.32018,-3.98465 1.18651,-1.18554 1.14916,-2.41645 2.32626,-3.98465 1.15129,-1.53384 1.78019,-1.89723 2.65857,-3.65258 0.58863,-1.17633 1.56284,-2.127 2.32626,-3.65259 0.62084,-1.24068 0.33233,-3.50165 0.33233,-4.9808 0,-1.73952 1.71814,-2.61577 2.65857,-3.32054 0.37478,-0.28088 2.01788,-3.36837 2.32627,-3.98465 0.52367,-1.04651 0,-3.77992 0,-4.98081 0,-2.28916 0.0694,-2.91914 -0.99698,-3.98465 -1.17764,-1.17668 -3.48709,1.49197 -3.65555,1.6603 -1.28842,1.28735 -2.22848,1.23049 -3.65553,2.65641 -1.34736,1.34627 -2.31026,0.96418 -3.32322,2.98848 -0.81681,1.63231 -1.86934,2.15836 -2.99092,3.6526 -0.93751,1.24902 -1.6082,1.89596 -3.32323,2.32438 -0.4995,0.12475 -3.57427,-0.66412 -4.6525,-0.66412 -1.78619,0 -2.80783,0.46081 -4.6525,0 -1.76781,-0.4416 -1.56856,-1.6005 -3.98788,-0.99615 -2.16867,0.54171 -2.13603,0.85415 -3.65555,-0.66411 -0.91124,-0.91051 -3.65174,-0.24998 -4.65251,0 -1.88566,0.47103 -2.87343,0.27336 -4.32017,0.99615 -1.46487,0.73183 -2.47009,1.89816 -3.98788,2.65644 -1.35868,0.67879 -1.99933,2.34599 -2.32624,3.65259 -0.47241,1.88806 -0.42785,3.84344 -0.99698,4.98081 -0.7122,1.42328 -1.27797,2.2218 -1.99393,3.65256 -0.63306,1.26511 -1.75067,2.50238 -2.32625,3.6526 -0.72129,1.44141 -0.93193,2.06444 -1.32928,3.65259 -0.28167,1.12575 -1.79591,2.59276 -2.32626,3.6526 -0.56879,1.13664 -1.344,2.05106 -1.66162,3.32054 -0.37174,1.48582 -1.95575,1.95414 -2.65859,2.65641 -2.0157,2.01411 -1.83552,-0.6486 -3.65553,2.9885 z"
       id="path5159" />
    <rect
       style="fill:none;stroke:#000000;stroke-width:0.2;stroke-linecap:round;stroke-miterlimit:4;stroke-opacity:1;stroke-dasharray:none;stroke-dashoffset:0"
       id="rect5518"
       width="1182.8877"
       height="1060.52"
       x="-220.26186"
       y="25.881615" />
  </g>
</svg>
