<?xml version="1.0" encoding="UTF-8" standalone="no"?>
<!-- Created with Inkscape (http://www.inkscape.org/) -->

<svg
   xmlns:dc="http://purl.org/dc/elements/1.1/"
   xmlns:cc="http://creativecommons.org/ns#"
   xmlns:rdf="http://www.w3.org/1999/02/22-rdf-syntax-ns#"
   xmlns:svg="http://www.w3.org/2000/svg"
   xmlns="http://www.w3.org/2000/svg"
   xmlns:sodipodi="http://sodipodi.sourceforge.net/DTD/sodipodi-0.dtd"
   xmlns:inkscape="http://www.inkscape.org/namespaces/inkscape"
   width="314.83612"
   height="500"
   id="svg2"
   sodipodi:version="0.32"
   inkscape:version="0.92.4 (5da689c313, 2019-01-14)"
   sodipodi:docname="mCozumel.svg"
   inkscape:output_extension="org.inkscape.output.svg.inkscape"
   version="1.0">
  <defs
     id="defs4">
    <inkscape:perspective
       sodipodi:type="inkscape:persp3d"
       inkscape:vp_x="0 : 530.76001 : 1"
       inkscape:vp_y="0 : 1000 : 0"
       inkscape:vp_z="1183.8877 : 530.76001 : 1"
       inkscape:persp3d-origin="591.94385 : 353.84001 : 1"
       id="perspective2604" />
    <inkscape:perspective
       id="perspective4705"
       inkscape:persp3d-origin="0.5 : 0.33333333 : 1"
       inkscape:vp_z="1 : 0.5 : 1"
       inkscape:vp_y="0 : 1000 : 0"
       inkscape:vp_x="0 : 0.5 : 1"
       sodipodi:type="inkscape:persp3d" />
    <inkscape:perspective
       id="perspective4727"
       inkscape:persp3d-origin="0.5 : 0.33333333 : 1"
       inkscape:vp_z="1 : 0.5 : 1"
       inkscape:vp_y="0 : 1000 : 0"
       inkscape:vp_x="0 : 0.5 : 1"
       sodipodi:type="inkscape:persp3d" />
    <inkscape:perspective
       id="perspective4749"
       inkscape:persp3d-origin="0.5 : 0.33333333 : 1"
       inkscape:vp_z="1 : 0.5 : 1"
       inkscape:vp_y="0 : 1000 : 0"
       inkscape:vp_x="0 : 0.5 : 1"
       sodipodi:type="inkscape:persp3d" />
  </defs>
  <sodipodi:namedview
     id="base"
     pagecolor="#ffffff"
     bordercolor="#666666"
     borderopacity="1.0"
     inkscape:pageopacity="0.0"
     inkscape:pageshadow="2"
     inkscape:zoom="1.6975309"
     inkscape:cx="375.02197"
     inkscape:cy="280.39674"
     inkscape:document-units="px"
     inkscape:current-layer="layer1"
     inkscape:window-width="1920"
     inkscape:window-height="1051"
     inkscape:window-x="-9"
     inkscape:window-y="-9"
     showgrid="true"
     inkscape:window-maximized="1"
     fit-margin-top="0"
     fit-margin-left="0"
     fit-margin-right="0"
     fit-margin-bottom="0" />
  <metadata
     id="metadata7">
    <rdf:RDF>
      <cc:Work
         rdf:about="">
        <dc:format>image/svg+xml</dc:format>
        <dc:type
           rdf:resource="http://purl.org/dc/dcmitype/StillImage" />
        <dc:title />
      </cc:Work>
    </rdf:RDF>
  </metadata>
  <g
     inkscape:label="Capa 1"
     inkscape:groupmode="layer"
     id="layer1"
     transform="translate(171.15709,-46.495692)"
     style="display:inline">
    <g
       id="g5527"
       transform="matrix(1.499875,0,0,1.499875,6.8677972,-148.21078)">
      <path
         inkscape:connector-curvature="0"
         id="path5159"
         d="m -58.024916,296.70034 c 0.578378,1.25138 0.929039,5.46151 0.929039,8.20954 0,2.17882 -0.08544,4.89772 -0.464514,6.38589 -0.03217,0.12671 -4.415253,2.51103 -4.645142,2.7364 -1.896652,1.8629 -1.696021,3.51092 -0.464531,5.92958 0.938031,1.84192 3.300271,2.98917 4.645148,3.64939 1.667803,0.81852 0.464525,4.13441 0.464525,5.9292 0,3.50034 -1.173437,3.69668 1.858008,5.92979 1.371188,1.0089 0.18173,5.21552 0,5.92891 -0.209525,0.82323 -1.858008,1.99094 -1.858008,5.01782 0,3.14796 2.333003,6.39547 4.1806,8.20985 1.91976,1.88482 -0.978326,2.02861 3.251601,4.10478 2.96353,1.45537 5.126628,2.28058 8.361184,2.28058 2.246093,0 4.879181,-3.19471 5.574195,-4.10478 1.120088,-1.46666 2.327394,-3.6554 3.716104,-5.47316 1.395702,-1.82733 3.359844,-3.29935 5.10965,-5.01727 2.535943,-2.49043 4.450016,-2.78608 6.50316,-5.47366 1.212109,-1.58732 2.33245,-2.29999 3.251584,-4.10531 1.414871,-2.77806 3.614945,-3.15203 4.180627,-5.92891 0.537985,-2.64214 2.584303,-4.67705 3.251566,-7.29784 0.4911898,-1.92996 2.4430678,-4.3417 3.2516548,-5.92996 1.14902,-2.25614 2.265261,-4.79239 2.787026,-6.84172 0.489652,-1.92253 3.81403004,-4.20133 5.10963404,-5.47291 1.81168596,-1.77969 2.96847596,-3.51053 5.10967896,-4.56114 1.586586,-0.77975 2.173665,-3.35733 2.787067,-4.56113 1.123939,-2.20772 2.3225392,-3.37611 2.3225392,-6.38565 0,-2.69038 -0.256024,-4.9706 0.929021,-7.29779 0.918514,-1.80394 4.847904,-4.30427 6.038657,-5.47365 1.658487,-1.62816 1.606296,-3.31912 3.251609,-5.47317 1.609291,-2.10696 2.488337,-2.60638 3.716072,-5.01719 0.822833,-1.61641 2.18454,-2.92195 3.251644,-5.01781 0.867787,-1.7038 0.464518,-4.81006 0.464518,-6.84172 0,-2.38961 2.401578,-3.59335 3.716099,-4.56114 0.523836,-0.38564 2.820528,-4.62651 3.251588,-5.47351 0.731987,-1.43747 0,-5.19221 0,-6.84178 0,-3.14411 0.09723,-4.00979 -1.393576,-5.47264 -1.646053,-1.61692 -4.874147,2.04894 -5.109599,2.28059 -1.800929,1.768 -3.114908,1.68999 -5.109625,3.6485 -1.883308,1.84945 -3.229238,1.32409 -4.64514,4.10469 -1.141735,2.24227 -2.612927,2.96544 -4.180603,5.01761 -1.310466,1.71531 -2.247918,2.60375 -4.645141,3.1932 -0.69822,0.17086 -4.9961152,-0.91264 -6.5032112,-0.91264 -2.496688,0 -3.92470796,0.63286 -6.503149,0 -2.471025,-0.60718 -2.192486,-2.19812 -5.574207,-1.36794 -3.0312938,0.74362 -2.9856828,1.17259 -5.1096108,-0.91262 -1.27375,-1.25065 -5.104321,-0.34358 -6.50322,0 -2.635705,0.64672 -4.016394,0.37538 -6.038587,1.36869 -2.047578,1.00466 -3.452687,2.60681 -5.574189,3.64842 -1.899132,0.9328 -2.794616,3.22211 -3.251569,5.01781 -0.660327,2.59286 -0.598036,5.27909 -1.393584,6.84172 -0.995465,1.95448 -1.786319,3.05117 -2.78707,5.01719 -0.884867,1.73701 -2.447071,3.43669 -3.251613,5.01664 -1.008209,1.97969 -1.302564,2.83622 -1.858029,5.01767 -0.39367,1.54609 -2.510215,3.56146 -3.251543,5.01698 -0.795069,1.56127 -1.878621,2.8175 -2.322605,4.56114 -0.519637,2.04101 -2.733668,2.68454 -3.716072,3.64878 -2.817533,2.76693 -2.565755,-0.89108 -5.109661,4.10568 z"
         style="fill:#f9f9f9;fill-rule:evenodd;stroke:#000000;stroke-width:0.27712911;stroke-linecap:butt;stroke-linejoin:miter;stroke-miterlimit:4;stroke-dasharray:none;stroke-opacity:1" />
      <path
         transform="translate(-171.15709,46.495692)"
         inkscape:connector-curvature="0"
         id="path4628"
         d="m 124.55207,313.26844 c -3.46702,-1.38705 -5.36634,-2.4937 -5.36634,-3.12673 0,-0.37681 -1.05101,-2.08387 -2.33558,-3.79346 -3.01694,-4.01517 -3.43262,-6.2099 -1.83879,-9.70857 1.62397,-3.56484 1.61659,-6.9436 -0.0184,-8.41461 -1.13662,-1.02264 -1.21405,-1.52433 -0.87264,-5.65417 0.31471,-3.80687 0.21902,-4.65514 -0.59807,-5.30182 -5.87013,-4.64588 -6.82494,-7.06443 -3.71658,-9.41414 5.04904,-3.81674 4.83644,-3.28078 4.59238,-11.57763 l -0.2196,-7.46536 1.76727,-0.88485 c 3.47034,-1.73755 5.74311,-3.7407 6.61466,-5.82999 0.48675,-1.16684 1.84607,-3.57061 3.0207,-5.34172 1.17464,-1.77112 2.57491,-4.4674 3.11173,-5.99174 0.53682,-1.52434 1.74925,-3.91907 2.69431,-5.32161 3.38591,-5.02502 4.7748,-7.91269 5.19686,-10.80492 0.2358,-1.61584 0.81374,-3.91523 1.2843,-5.10976 2.15352,-5.46668 16.37988,-10.804 20.71117,-7.77025 1.00234,0.70207 2.06518,0.8601 4.00052,0.59483 1.71105,-0.23452 3.18965,-0.0819 4.21519,0.43519 0.92103,0.46436 4.72128,0.95763 9.11459,1.18306 l 7.53495,0.38664 3.27284,-3.09532 c 1.80006,-1.70243 3.64074,-3.80675 4.09039,-4.67628 0.44965,-0.86953 2.87615,-3.06409 5.39221,-4.87681 2.51607,-1.81272 5.31322,-3.88097 6.21589,-4.59612 2.66606,-2.11219 3.56636,-1.01209 4.15148,5.07285 0.47328,4.92181 0.43316,5.20487 -1.11856,7.89132 -0.8852,1.53252 -2.4676,3.50977 -3.51643,4.3939 -1.746,1.47181 -1.92613,1.94644 -2.13385,5.62241 -0.20793,3.67988 -0.48421,4.40598 -3.31104,8.70158 -1.6963,2.57768 -3.81144,5.85201 -4.70032,7.27631 -0.88888,1.42429 -3.4055,4.35431 -5.5925,6.51115 -3.29274,3.24734 -3.98944,4.27065 -4.05241,5.9522 -0.20157,5.3822 -0.54782,7.02202 -2.23239,10.57248 -1.47143,3.10125 -2.82228,4.72136 -7.10666,8.52321 -4.62608,4.10505 -5.48243,5.17697 -6.82409,8.54182 -0.84379,2.11623 -2.05512,4.69595 -2.69183,5.73271 -1.87604,3.05473 -5.8108,11.33735 -5.8108,12.23165 0,1.72834 -8.16927,10.72475 -14.87725,16.38356 -1.83396,1.54712 -4.6932,4.77841 -6.35386,7.18064 -1.66066,2.40223 -3.65079,4.7814 -4.4225,5.28705 -1.55098,1.01623 -5.09155,1.15321 -7.27096,0.2813 z"
         style="fill:#4caf50;fill-opacity:0;fill-rule:evenodd;stroke-width:0.58909088" />
      <path
         transform="translate(-171.15709,46.495692)"
         inkscape:connector-curvature="0"
         id="path4630"
         d="m 124.55207,313.26844 c -3.46702,-1.38705 -5.36634,-2.4937 -5.36634,-3.12673 0,-0.37681 -1.05101,-2.08387 -2.33558,-3.79346 -3.01694,-4.01517 -3.43262,-6.2099 -1.83879,-9.70857 1.62397,-3.56484 1.61659,-6.9436 -0.0184,-8.41461 -1.13662,-1.02264 -1.21405,-1.52433 -0.87264,-5.65417 0.31471,-3.80687 0.21902,-4.65514 -0.59807,-5.30182 -5.87013,-4.64588 -6.82494,-7.06443 -3.71658,-9.41414 5.04904,-3.81674 4.83644,-3.28078 4.59238,-11.57763 l -0.2196,-7.46536 1.76727,-0.88485 c 3.47034,-1.73755 5.74311,-3.7407 6.61466,-5.82999 0.48675,-1.16684 1.84607,-3.57061 3.0207,-5.34172 1.17464,-1.77112 2.57491,-4.4674 3.11173,-5.99174 0.53682,-1.52434 1.74925,-3.91907 2.69431,-5.32161 3.38591,-5.02502 4.7748,-7.91269 5.19686,-10.80492 0.2358,-1.61584 0.81374,-3.91523 1.2843,-5.10976 2.15352,-5.46668 16.37988,-10.804 20.71117,-7.77025 1.00234,0.70207 2.06518,0.8601 4.00052,0.59483 1.71105,-0.23452 3.18965,-0.0819 4.21519,0.43519 0.92103,0.46436 4.72128,0.95763 9.11459,1.18306 l 7.53495,0.38664 3.27284,-3.09532 c 1.80006,-1.70243 3.64074,-3.80675 4.09039,-4.67628 0.44965,-0.86953 2.87615,-3.06409 5.39221,-4.87681 2.51607,-1.81272 5.31322,-3.88097 6.21589,-4.59612 2.66606,-2.11219 3.56636,-1.01209 4.15148,5.07285 0.47328,4.92181 0.43316,5.20487 -1.11856,7.89132 -0.8852,1.53252 -2.4676,3.50977 -3.51643,4.3939 -1.746,1.47181 -1.92613,1.94644 -2.13385,5.62241 -0.20793,3.67988 -0.48421,4.40598 -3.31104,8.70158 -1.6963,2.57768 -3.81144,5.85201 -4.70032,7.27631 -0.88888,1.42429 -3.4055,4.35431 -5.5925,6.51115 -3.29274,3.24734 -3.98944,4.27065 -4.05241,5.9522 -0.20157,5.3822 -0.54782,7.02202 -2.23239,10.57248 -1.47143,3.10125 -2.82228,4.72136 -7.10666,8.52321 -4.62608,4.10505 -5.48243,5.17697 -6.82409,8.54182 -0.84379,2.11623 -2.05512,4.69595 -2.69183,5.73271 -1.87604,3.05473 -5.8108,11.33735 -5.8108,12.23165 0,1.72834 -8.16927,10.72475 -14.87725,16.38356 -1.83396,1.54712 -4.6932,4.77841 -6.35386,7.18064 -1.66066,2.40223 -3.65079,4.7814 -4.4225,5.28705 -1.55098,1.01623 -5.09155,1.15321 -7.27096,0.2813 z"
         style="fill:#4caf50;fill-opacity:0;fill-rule:evenodd;stroke-width:0.58909088" />
      <path
         transform="translate(-171.15709,46.495692)"
         inkscape:connector-curvature="0"
         id="path4632"
         d="m 124.55207,313.26844 c -3.46702,-1.38705 -5.36634,-2.4937 -5.36634,-3.12673 0,-0.37681 -1.05101,-2.08387 -2.33558,-3.79346 -3.01694,-4.01517 -3.43262,-6.2099 -1.83879,-9.70857 1.62397,-3.56484 1.61659,-6.9436 -0.0184,-8.41461 -1.13662,-1.02264 -1.21405,-1.52433 -0.87264,-5.65417 0.31471,-3.80687 0.21902,-4.65514 -0.59807,-5.30182 -5.87013,-4.64588 -6.82494,-7.06443 -3.71658,-9.41414 5.04904,-3.81674 4.83644,-3.28078 4.59238,-11.57763 l -0.2196,-7.46536 1.76727,-0.88485 c 3.47034,-1.73755 5.74311,-3.7407 6.61466,-5.82999 0.48675,-1.16684 1.84607,-3.57061 3.0207,-5.34172 1.17464,-1.77112 2.57491,-4.4674 3.11173,-5.99174 0.53682,-1.52434 1.74925,-3.91907 2.69431,-5.32161 3.38591,-5.02502 4.7748,-7.91269 5.19686,-10.80492 0.2358,-1.61584 0.81374,-3.91523 1.2843,-5.10976 2.15352,-5.46668 16.37988,-10.804 20.71117,-7.77025 1.00234,0.70207 2.06518,0.8601 4.00052,0.59483 1.71105,-0.23452 3.18965,-0.0819 4.21519,0.43519 0.92103,0.46436 4.72128,0.95763 9.11459,1.18306 l 7.53495,0.38664 3.27284,-3.09532 c 1.80006,-1.70243 3.64074,-3.80675 4.09039,-4.67628 0.44965,-0.86953 2.87615,-3.06409 5.39221,-4.87681 2.51607,-1.81272 5.31322,-3.88097 6.21589,-4.59612 2.66606,-2.11219 3.56636,-1.01209 4.15148,5.07285 0.47328,4.92181 0.43316,5.20487 -1.11856,7.89132 -0.8852,1.53252 -2.4676,3.50977 -3.51643,4.3939 -1.746,1.47181 -1.92613,1.94644 -2.13385,5.62241 -0.20793,3.67988 -0.48421,4.40598 -3.31104,8.70158 -1.6963,2.57768 -3.81144,5.85201 -4.70032,7.27631 -0.88888,1.42429 -3.4055,4.35431 -5.5925,6.51115 -3.29274,3.24734 -3.98944,4.27065 -4.05241,5.9522 -0.20157,5.3822 -0.54782,7.02202 -2.23239,10.57248 -1.47143,3.10125 -2.82228,4.72136 -7.10666,8.52321 -4.62608,4.10505 -5.48243,5.17697 -6.82409,8.54182 -0.84379,2.11623 -2.05512,4.69595 -2.69183,5.73271 -1.87604,3.05473 -5.8108,11.33735 -5.8108,12.23165 0,1.72834 -8.16927,10.72475 -14.87725,16.38356 -1.83396,1.54712 -4.6932,4.77841 -6.35386,7.18064 -1.66066,2.40223 -3.65079,4.7814 -4.4225,5.28705 -1.55098,1.01623 -5.09155,1.15321 -7.27096,0.2813 z"
         style="fill:#4caf50;fill-opacity:0;fill-rule:evenodd;stroke-width:0.58909088" />
      <path
         transform="translate(-171.15709,46.495692)"
         inkscape:connector-curvature="0"
         id="path4634"
         d="m 124.55207,313.26844 c -3.46702,-1.38705 -5.36634,-2.4937 -5.36634,-3.12673 0,-0.37681 -1.05101,-2.08387 -2.33558,-3.79346 -3.01694,-4.01517 -3.43262,-6.2099 -1.83879,-9.70857 1.62397,-3.56484 1.61659,-6.9436 -0.0184,-8.41461 -1.13662,-1.02264 -1.21405,-1.52433 -0.87264,-5.65417 0.31471,-3.80687 0.21902,-4.65514 -0.59807,-5.30182 -5.87013,-4.64588 -6.82494,-7.06443 -3.71658,-9.41414 5.04904,-3.81674 4.83644,-3.28078 4.59238,-11.57763 l -0.2196,-7.46536 1.76727,-0.88485 c 3.47034,-1.73755 5.74311,-3.7407 6.61466,-5.82999 0.48675,-1.16684 1.84607,-3.57061 3.0207,-5.34172 1.17464,-1.77112 2.57491,-4.4674 3.11173,-5.99174 0.53682,-1.52434 1.74925,-3.91907 2.69431,-5.32161 3.38591,-5.02502 4.7748,-7.91269 5.19686,-10.80492 0.2358,-1.61584 0.81374,-3.91523 1.2843,-5.10976 2.15352,-5.46668 16.37988,-10.804 20.71117,-7.77025 1.00234,0.70207 2.06518,0.8601 4.00052,0.59483 1.71105,-0.23452 3.18965,-0.0819 4.21519,0.43519 0.92103,0.46436 4.72128,0.95763 9.11459,1.18306 l 7.53495,0.38664 3.27284,-3.09532 c 1.80006,-1.70243 3.64074,-3.80675 4.09039,-4.67628 0.44965,-0.86953 2.87615,-3.06409 5.39221,-4.87681 2.51607,-1.81272 5.31322,-3.88097 6.21589,-4.59612 2.66606,-2.11219 3.56636,-1.01209 4.15148,5.07285 0.47328,4.92181 0.43316,5.20487 -1.11856,7.89132 -0.8852,1.53252 -2.4676,3.50977 -3.51643,4.3939 -1.746,1.47181 -1.92613,1.94644 -2.13385,5.62241 -0.20793,3.67988 -0.48421,4.40598 -3.31104,8.70158 -1.6963,2.57768 -3.81144,5.85201 -4.70032,7.27631 -0.88888,1.42429 -3.4055,4.35431 -5.5925,6.51115 -3.29274,3.24734 -3.98944,4.27065 -4.05241,5.9522 -0.20157,5.3822 -0.54782,7.02202 -2.23239,10.57248 -1.47143,3.10125 -2.82228,4.72136 -7.10666,8.52321 -4.62608,4.10505 -5.48243,5.17697 -6.82409,8.54182 -0.84379,2.11623 -2.05512,4.69595 -2.69183,5.73271 -1.87604,3.05473 -5.8108,11.33735 -5.8108,12.23165 0,1.72834 -8.16927,10.72475 -14.87725,16.38356 -1.83396,1.54712 -4.6932,4.77841 -6.35386,7.18064 -1.66066,2.40223 -3.65079,4.7814 -4.4225,5.28705 -1.55098,1.01623 -5.09155,1.15321 -7.27096,0.2813 z"
         style="fill:#4caf50;fill-opacity:0;fill-rule:evenodd;stroke-width:0.58909088" />
      <path
         transform="translate(-171.15709,46.495692)"
         inkscape:connector-curvature="0"
         id="path4636"
         d="m 124.55207,313.26844 c -3.46702,-1.38705 -5.36634,-2.4937 -5.36634,-3.12673 0,-0.37681 -1.05101,-2.08387 -2.33558,-3.79346 -3.01694,-4.01517 -3.43262,-6.2099 -1.83879,-9.70857 1.62397,-3.56484 1.61659,-6.9436 -0.0184,-8.41461 -1.13662,-1.02264 -1.21405,-1.52433 -0.87264,-5.65417 0.31471,-3.80687 0.21902,-4.65514 -0.59807,-5.30182 -5.87013,-4.64588 -6.82494,-7.06443 -3.71658,-9.41414 5.04904,-3.81674 4.83644,-3.28078 4.59238,-11.57763 l -0.2196,-7.46536 1.76727,-0.88485 c 3.47034,-1.73755 5.74311,-3.7407 6.61466,-5.82999 0.48675,-1.16684 1.84607,-3.57061 3.0207,-5.34172 1.17464,-1.77112 2.57491,-4.4674 3.11173,-5.99174 0.53682,-1.52434 1.74925,-3.91907 2.69431,-5.32161 3.38591,-5.02502 4.7748,-7.91269 5.19686,-10.80492 0.2358,-1.61584 0.81374,-3.91523 1.2843,-5.10976 2.15352,-5.46668 16.37988,-10.804 20.71117,-7.77025 1.00234,0.70207 2.06518,0.8601 4.00052,0.59483 1.71105,-0.23452 3.18965,-0.0819 4.21519,0.43519 0.92103,0.46436 4.72128,0.95763 9.11459,1.18306 l 7.53495,0.38664 3.27284,-3.09532 c 1.80006,-1.70243 3.64074,-3.80675 4.09039,-4.67628 0.44965,-0.86953 2.87615,-3.06409 5.39221,-4.87681 2.51607,-1.81272 5.31322,-3.88097 6.21589,-4.59612 2.66606,-2.11219 3.56636,-1.01209 4.15148,5.07285 0.47328,4.92181 0.43316,5.20487 -1.11856,7.89132 -0.8852,1.53252 -2.4676,3.50977 -3.51643,4.3939 -1.746,1.47181 -1.92613,1.94644 -2.13385,5.62241 -0.20793,3.67988 -0.48421,4.40598 -3.31104,8.70158 -1.6963,2.57768 -3.81144,5.85201 -4.70032,7.27631 -0.88888,1.42429 -3.4055,4.35431 -5.5925,6.51115 -3.29274,3.24734 -3.98944,4.27065 -4.05241,5.9522 -0.20157,5.3822 -0.54782,7.02202 -2.23239,10.57248 -1.47143,3.10125 -2.82228,4.72136 -7.10666,8.52321 -4.62608,4.10505 -5.48243,5.17697 -6.82409,8.54182 -0.84379,2.11623 -2.05512,4.69595 -2.69183,5.73271 -1.87604,3.05473 -5.8108,11.33735 -5.8108,12.23165 0,1.72834 -8.16927,10.72475 -14.87725,16.38356 -1.83396,1.54712 -4.6932,4.77841 -6.35386,7.18064 -1.66066,2.40223 -3.65079,4.7814 -4.4225,5.28705 -1.55098,1.01623 -5.09155,1.15321 -7.27096,0.2813 z"
         style="fill:#c83737;fill-opacity:0;fill-rule:evenodd;stroke-width:0.58909088" />
      <path
         transform="translate(-171.15709,46.495692)"
         inkscape:connector-curvature="0"
         id="path4638"
         d="m 124.55207,313.26844 c -3.46702,-1.38705 -5.36634,-2.4937 -5.36634,-3.12673 0,-0.37681 -1.05101,-2.08387 -2.33558,-3.79346 -3.01694,-4.01517 -3.43262,-6.2099 -1.83879,-9.70857 1.62397,-3.56484 1.61659,-6.9436 -0.0184,-8.41461 -1.13662,-1.02264 -1.21405,-1.52433 -0.87264,-5.65417 0.31471,-3.80687 0.21902,-4.65514 -0.59807,-5.30182 -5.87013,-4.64588 -6.82494,-7.06443 -3.71658,-9.41414 5.04904,-3.81674 4.83644,-3.28078 4.59238,-11.57763 l -0.2196,-7.46536 1.76727,-0.88485 c 3.47034,-1.73755 5.74311,-3.7407 6.61466,-5.82999 0.48675,-1.16684 1.84607,-3.57061 3.0207,-5.34172 1.17464,-1.77112 2.57491,-4.4674 3.11173,-5.99174 0.53682,-1.52434 1.74925,-3.91907 2.69431,-5.32161 3.38591,-5.02502 4.7748,-7.91269 5.19686,-10.80492 0.2358,-1.61584 0.81374,-3.91523 1.2843,-5.10976 2.15352,-5.46668 16.37988,-10.804 20.71117,-7.77025 1.00234,0.70207 2.06518,0.8601 4.00052,0.59483 1.71105,-0.23452 3.18965,-0.0819 4.21519,0.43519 0.92103,0.46436 4.72128,0.95763 9.11459,1.18306 l 7.53495,0.38664 3.27284,-3.09532 c 1.80006,-1.70243 3.64074,-3.80675 4.09039,-4.67628 0.44965,-0.86953 2.87615,-3.06409 5.39221,-4.87681 2.51607,-1.81272 5.31322,-3.88097 6.21589,-4.59612 2.66606,-2.11219 3.56636,-1.01209 4.15148,5.07285 0.47328,4.92181 0.43316,5.20487 -1.11856,7.89132 -0.8852,1.53252 -2.4676,3.50977 -3.51643,4.3939 -1.746,1.47181 -1.92613,1.94644 -2.13385,5.62241 -0.20793,3.67988 -0.48421,4.40598 -3.31104,8.70158 -1.6963,2.57768 -3.81144,5.85201 -4.70032,7.27631 -0.88888,1.42429 -3.4055,4.35431 -5.5925,6.51115 -3.29274,3.24734 -3.98944,4.27065 -4.05241,5.9522 -0.20157,5.3822 -0.54782,7.02202 -2.23239,10.57248 -1.47143,3.10125 -2.82228,4.72136 -7.10666,8.52321 -4.62608,4.10505 -5.48243,5.17697 -6.82409,8.54182 -0.84379,2.11623 -2.05512,4.69595 -2.69183,5.73271 -1.87604,3.05473 -5.8108,11.33735 -5.8108,12.23165 0,1.72834 -8.16927,10.72475 -14.87725,16.38356 -1.83396,1.54712 -4.6932,4.77841 -6.35386,7.18064 -1.66066,2.40223 -3.65079,4.7814 -4.4225,5.28705 -1.55098,1.01623 -5.09155,1.15321 -7.27096,0.2813 z"
         style="fill:#c83737;fill-opacity:0;fill-rule:evenodd;stroke-width:0.58909088" />
      <path
         transform="translate(-171.15709,46.495692)"
         inkscape:connector-curvature="0"
         id="path4640"
         d="m 124.55207,313.26844 c -3.46702,-1.38705 -5.36634,-2.4937 -5.36634,-3.12673 0,-0.37681 -1.05101,-2.08387 -2.33558,-3.79346 -3.01694,-4.01517 -3.43262,-6.2099 -1.83879,-9.70857 1.62397,-3.56484 1.61659,-6.9436 -0.0184,-8.41461 -1.13662,-1.02264 -1.21405,-1.52433 -0.87264,-5.65417 0.31471,-3.80687 0.21902,-4.65514 -0.59807,-5.30182 -5.87013,-4.64588 -6.82494,-7.06443 -3.71658,-9.41414 5.04904,-3.81674 4.83644,-3.28078 4.59238,-11.57763 l -0.2196,-7.46536 1.76727,-0.88485 c 3.47034,-1.73755 5.74311,-3.7407 6.61466,-5.82999 0.48675,-1.16684 1.84607,-3.57061 3.0207,-5.34172 1.17464,-1.77112 2.57491,-4.4674 3.11173,-5.99174 0.53682,-1.52434 1.74925,-3.91907 2.69431,-5.32161 3.38591,-5.02502 4.7748,-7.91269 5.19686,-10.80492 0.2358,-1.61584 0.81374,-3.91523 1.2843,-5.10976 2.15352,-5.46668 16.37988,-10.804 20.71117,-7.77025 1.00234,0.70207 2.06518,0.8601 4.00052,0.59483 1.71105,-0.23452 3.18965,-0.0819 4.21519,0.43519 0.92103,0.46436 4.72128,0.95763 9.11459,1.18306 l 7.53495,0.38664 3.27284,-3.09532 c 1.80006,-1.70243 3.64074,-3.80675 4.09039,-4.67628 0.44965,-0.86953 2.87615,-3.06409 5.39221,-4.87681 2.51607,-1.81272 5.31322,-3.88097 6.21589,-4.59612 2.66606,-2.11219 3.56636,-1.01209 4.15148,5.07285 0.47328,4.92181 0.43316,5.20487 -1.11856,7.89132 -0.8852,1.53252 -2.4676,3.50977 -3.51643,4.3939 -1.746,1.47181 -1.92613,1.94644 -2.13385,5.62241 -0.20793,3.67988 -0.48421,4.40598 -3.31104,8.70158 -1.6963,2.57768 -3.81144,5.85201 -4.70032,7.27631 -0.88888,1.42429 -3.4055,4.35431 -5.5925,6.51115 -3.29274,3.24734 -3.98944,4.27065 -4.05241,5.9522 -0.20157,5.3822 -0.54782,7.02202 -2.23239,10.57248 -1.47143,3.10125 -2.82228,4.72136 -7.10666,8.52321 -4.62608,4.10505 -5.48243,5.17697 -6.82409,8.54182 -0.84379,2.11623 -2.05512,4.69595 -2.69183,5.73271 -1.87604,3.05473 -5.8108,11.33735 -5.8108,12.23165 0,1.72834 -8.16927,10.72475 -14.87725,16.38356 -1.83396,1.54712 -4.6932,4.77841 -6.35386,7.18064 -1.66066,2.40223 -3.65079,4.7814 -4.4225,5.28705 -1.55098,1.01623 -5.09155,1.15321 -7.27096,0.2813 z"
         style="fill:#c83737;fill-opacity:0;fill-rule:evenodd;stroke-width:0.58909088" />
      <path
         transform="translate(-171.15709,46.495692)"
         inkscape:connector-curvature="0"
         id="path4642"
         d="m 124.55207,313.26844 c -3.46702,-1.38705 -5.36634,-2.4937 -5.36634,-3.12673 0,-0.37681 -1.05101,-2.08387 -2.33558,-3.79346 -3.01694,-4.01517 -3.43262,-6.2099 -1.83879,-9.70857 1.62397,-3.56484 1.61659,-6.9436 -0.0184,-8.41461 -1.13662,-1.02264 -1.21405,-1.52433 -0.87264,-5.65417 0.31471,-3.80687 0.21902,-4.65514 -0.59807,-5.30182 -5.87013,-4.64588 -6.82494,-7.06443 -3.71658,-9.41414 5.04904,-3.81674 4.83644,-3.28078 4.59238,-11.57763 l -0.2196,-7.46536 1.76727,-0.88485 c 3.47034,-1.73755 5.74311,-3.7407 6.61466,-5.82999 0.48675,-1.16684 1.84607,-3.57061 3.0207,-5.34172 1.17464,-1.77112 2.57491,-4.4674 3.11173,-5.99174 0.53682,-1.52434 1.74925,-3.91907 2.69431,-5.32161 3.38591,-5.02502 4.7748,-7.91269 5.19686,-10.80492 0.2358,-1.61584 0.81374,-3.91523 1.2843,-5.10976 2.15352,-5.46668 16.37988,-10.804 20.71117,-7.77025 1.00234,0.70207 2.06518,0.8601 4.00052,0.59483 1.71105,-0.23452 3.18965,-0.0819 4.21519,0.43519 0.92103,0.46436 4.72128,0.95763 9.11459,1.18306 l 7.53495,0.38664 3.27284,-3.09532 c 1.80006,-1.70243 3.64074,-3.80675 4.09039,-4.67628 0.44965,-0.86953 2.87615,-3.06409 5.39221,-4.87681 2.51607,-1.81272 5.31322,-3.88097 6.21589,-4.59612 2.66606,-2.11219 3.56636,-1.01209 4.15148,5.07285 0.47328,4.92181 0.43316,5.20487 -1.11856,7.89132 -0.8852,1.53252 -2.4676,3.50977 -3.51643,4.3939 -1.746,1.47181 -1.92613,1.94644 -2.13385,5.62241 -0.20793,3.67988 -0.48421,4.40598 -3.31104,8.70158 -1.6963,2.57768 -3.81144,5.85201 -4.70032,7.27631 -0.88888,1.42429 -3.4055,4.35431 -5.5925,6.51115 -3.29274,3.24734 -3.98944,4.27065 -4.05241,5.9522 -0.20157,5.3822 -0.54782,7.02202 -2.23239,10.57248 -1.47143,3.10125 -2.82228,4.72136 -7.10666,8.52321 -4.62608,4.10505 -5.48243,5.17697 -6.82409,8.54182 -0.84379,2.11623 -2.05512,4.69595 -2.69183,5.73271 -1.87604,3.05473 -5.8108,11.33735 -5.8108,12.23165 0,1.72834 -8.16927,10.72475 -14.87725,16.38356 -1.83396,1.54712 -4.6932,4.77841 -6.35386,7.18064 -1.66066,2.40223 -3.65079,4.7814 -4.4225,5.28705 -1.55098,1.01623 -5.09155,1.15321 -7.27096,0.2813 z"
         style="fill:#c83737;fill-opacity:0;fill-rule:evenodd;stroke-width:0.58909088" />
      <path
         transform="translate(-171.15709,46.495692)"
         inkscape:connector-curvature="0"
         id="path4644"
         d="m 124.55207,313.26844 c -3.46702,-1.38705 -5.36634,-2.4937 -5.36634,-3.12673 0,-0.37681 -1.05101,-2.08387 -2.33558,-3.79346 -3.01694,-4.01517 -3.43262,-6.2099 -1.83879,-9.70857 1.62397,-3.56484 1.61659,-6.9436 -0.0184,-8.41461 -1.13662,-1.02264 -1.21405,-1.52433 -0.87264,-5.65417 0.31471,-3.80687 0.21902,-4.65514 -0.59807,-5.30182 -5.87013,-4.64588 -6.82494,-7.06443 -3.71658,-9.41414 5.04904,-3.81674 4.83644,-3.28078 4.59238,-11.57763 l -0.2196,-7.46536 1.76727,-0.88485 c 3.47034,-1.73755 5.74311,-3.7407 6.61466,-5.82999 0.48675,-1.16684 1.84607,-3.57061 3.0207,-5.34172 1.17464,-1.77112 2.57491,-4.4674 3.11173,-5.99174 0.53682,-1.52434 1.74925,-3.91907 2.69431,-5.32161 3.38591,-5.02502 4.7748,-7.91269 5.19686,-10.80492 0.2358,-1.61584 0.81374,-3.91523 1.2843,-5.10976 2.15352,-5.46668 16.37988,-10.804 20.71117,-7.77025 1.00234,0.70207 2.06518,0.8601 4.00052,0.59483 1.71105,-0.23452 3.18965,-0.0819 4.21519,0.43519 0.92103,0.46436 4.72128,0.95763 9.11459,1.18306 l 7.53495,0.38664 3.27284,-3.09532 c 1.80006,-1.70243 3.64074,-3.80675 4.09039,-4.67628 0.44965,-0.86953 2.87615,-3.06409 5.39221,-4.87681 2.51607,-1.81272 5.31322,-3.88097 6.21589,-4.59612 2.66606,-2.11219 3.56636,-1.01209 4.15148,5.07285 0.47328,4.92181 0.43316,5.20487 -1.11856,7.89132 -0.8852,1.53252 -2.4676,3.50977 -3.51643,4.3939 -1.746,1.47181 -1.92613,1.94644 -2.13385,5.62241 -0.20793,3.67988 -0.48421,4.40598 -3.31104,8.70158 -1.6963,2.57768 -3.81144,5.85201 -4.70032,7.27631 -0.88888,1.42429 -3.4055,4.35431 -5.5925,6.51115 -3.29274,3.24734 -3.98944,4.27065 -4.05241,5.9522 -0.20157,5.3822 -0.54782,7.02202 -2.23239,10.57248 -1.47143,3.10125 -2.82228,4.72136 -7.10666,8.52321 -4.62608,4.10505 -5.48243,5.17697 -6.82409,8.54182 -0.84379,2.11623 -2.05512,4.69595 -2.69183,5.73271 -1.87604,3.05473 -5.8108,11.33735 -5.8108,12.23165 0,1.72834 -8.16927,10.72475 -14.87725,16.38356 -1.83396,1.54712 -4.6932,4.77841 -6.35386,7.18064 -1.66066,2.40223 -3.65079,4.7814 -4.4225,5.28705 -1.55098,1.01623 -5.09155,1.15321 -7.27096,0.2813 z"
         style="fill:#c83737;fill-opacity:0;fill-rule:evenodd;stroke-width:0.58909088" />
      <path
         transform="translate(-171.15709,46.495692)"
         inkscape:connector-curvature="0"
         id="path4646"
         d="m 124.55207,313.26844 c -3.46702,-1.38705 -5.36634,-2.4937 -5.36634,-3.12673 0,-0.37681 -1.05101,-2.08387 -2.33558,-3.79346 -3.01694,-4.01517 -3.43262,-6.2099 -1.83879,-9.70857 1.62397,-3.56484 1.61659,-6.9436 -0.0184,-8.41461 -1.13662,-1.02264 -1.21405,-1.52433 -0.87264,-5.65417 0.31471,-3.80687 0.21902,-4.65514 -0.59807,-5.30182 -5.87013,-4.64588 -6.82494,-7.06443 -3.71658,-9.41414 5.04904,-3.81674 4.83644,-3.28078 4.59238,-11.57763 l -0.2196,-7.46536 1.76727,-0.88485 c 3.47034,-1.73755 5.74311,-3.7407 6.61466,-5.82999 0.48675,-1.16684 1.84607,-3.57061 3.0207,-5.34172 1.17464,-1.77112 2.57491,-4.4674 3.11173,-5.99174 0.53682,-1.52434 1.74925,-3.91907 2.69431,-5.32161 3.38591,-5.02502 4.7748,-7.91269 5.19686,-10.80492 0.2358,-1.61584 0.81374,-3.91523 1.2843,-5.10976 2.15352,-5.46668 16.37988,-10.804 20.71117,-7.77025 1.00234,0.70207 2.06518,0.8601 4.00052,0.59483 1.71105,-0.23452 3.18965,-0.0819 4.21519,0.43519 0.92103,0.46436 4.72128,0.95763 9.11459,1.18306 l 7.53495,0.38664 3.27284,-3.09532 c 1.80006,-1.70243 3.64074,-3.80675 4.09039,-4.67628 0.44965,-0.86953 2.87615,-3.06409 5.39221,-4.87681 2.51607,-1.81272 5.31322,-3.88097 6.21589,-4.59612 2.66606,-2.11219 3.56636,-1.01209 4.15148,5.07285 0.47328,4.92181 0.43316,5.20487 -1.11856,7.89132 -0.8852,1.53252 -2.4676,3.50977 -3.51643,4.3939 -1.746,1.47181 -1.92613,1.94644 -2.13385,5.62241 -0.20793,3.67988 -0.48421,4.40598 -3.31104,8.70158 -1.6963,2.57768 -3.81144,5.85201 -4.70032,7.27631 -0.88888,1.42429 -3.4055,4.35431 -5.5925,6.51115 -3.29274,3.24734 -3.98944,4.27065 -4.05241,5.9522 -0.20157,5.3822 -0.54782,7.02202 -2.23239,10.57248 -1.47143,3.10125 -2.82228,4.72136 -7.10666,8.52321 -4.62608,4.10505 -5.48243,5.17697 -6.82409,8.54182 -0.84379,2.11623 -2.05512,4.69595 -2.69183,5.73271 -1.87604,3.05473 -5.8108,11.33735 -5.8108,12.23165 0,1.72834 -8.16927,10.72475 -14.87725,16.38356 -1.83396,1.54712 -4.6932,4.77841 -6.35386,7.18064 -1.66066,2.40223 -3.65079,4.7814 -4.4225,5.28705 -1.55098,1.01623 -5.09155,1.15321 -7.27096,0.2813 z"
         style="fill:#c83737;fill-opacity:0;fill-rule:evenodd;stroke-width:0.58909088" />
      <path
         transform="translate(-171.15709,46.495692)"
         inkscape:connector-curvature="0"
         id="path4648"
         d="m 124.55207,313.26844 c -3.46702,-1.38705 -5.36634,-2.4937 -5.36634,-3.12673 0,-0.37681 -1.05101,-2.08387 -2.33558,-3.79346 -3.01694,-4.01517 -3.43262,-6.2099 -1.83879,-9.70857 1.62397,-3.56484 1.61659,-6.9436 -0.0184,-8.41461 -1.13662,-1.02264 -1.21405,-1.52433 -0.87264,-5.65417 0.31471,-3.80687 0.21902,-4.65514 -0.59807,-5.30182 -5.87013,-4.64588 -6.82494,-7.06443 -3.71658,-9.41414 5.04904,-3.81674 4.83644,-3.28078 4.59238,-11.57763 l -0.2196,-7.46536 1.76727,-0.88485 c 3.47034,-1.73755 5.74311,-3.7407 6.61466,-5.82999 0.48675,-1.16684 1.84607,-3.57061 3.0207,-5.34172 1.17464,-1.77112 2.57491,-4.4674 3.11173,-5.99174 0.53682,-1.52434 1.74925,-3.91907 2.69431,-5.32161 3.38591,-5.02502 4.7748,-7.91269 5.19686,-10.80492 0.2358,-1.61584 0.81374,-3.91523 1.2843,-5.10976 2.15352,-5.46668 16.37988,-10.804 20.71117,-7.77025 1.00234,0.70207 2.06518,0.8601 4.00052,0.59483 1.71105,-0.23452 3.18965,-0.0819 4.21519,0.43519 0.92103,0.46436 4.72128,0.95763 9.11459,1.18306 l 7.53495,0.38664 3.27284,-3.09532 c 1.80006,-1.70243 3.64074,-3.80675 4.09039,-4.67628 0.44965,-0.86953 2.87615,-3.06409 5.39221,-4.87681 2.51607,-1.81272 5.31322,-3.88097 6.21589,-4.59612 2.66606,-2.11219 3.56636,-1.01209 4.15148,5.07285 0.47328,4.92181 0.43316,5.20487 -1.11856,7.89132 -0.8852,1.53252 -2.4676,3.50977 -3.51643,4.3939 -1.746,1.47181 -1.92613,1.94644 -2.13385,5.62241 -0.20793,3.67988 -0.48421,4.40598 -3.31104,8.70158 -1.6963,2.57768 -3.81144,5.85201 -4.70032,7.27631 -0.88888,1.42429 -3.4055,4.35431 -5.5925,6.51115 -3.29274,3.24734 -3.98944,4.27065 -4.05241,5.9522 -0.20157,5.3822 -0.54782,7.02202 -2.23239,10.57248 -1.47143,3.10125 -2.82228,4.72136 -7.10666,8.52321 -4.62608,4.10505 -5.48243,5.17697 -6.82409,8.54182 -0.84379,2.11623 -2.05512,4.69595 -2.69183,5.73271 -1.87604,3.05473 -5.8108,11.33735 -5.8108,12.23165 0,1.72834 -8.16927,10.72475 -14.87725,16.38356 -1.83396,1.54712 -4.6932,4.77841 -6.35386,7.18064 -1.66066,2.40223 -3.65079,4.7814 -4.4225,5.28705 -1.55098,1.01623 -5.09155,1.15321 -7.27096,0.2813 z"
         style="fill:#c83737;fill-opacity:0;fill-rule:evenodd;stroke-width:0.58909088" />
      <path
         transform="translate(-171.15709,46.495692)"
         inkscape:connector-curvature="0"
         id="path4650"
         d="m 124.55207,313.26844 c -3.46702,-1.38705 -5.36634,-2.4937 -5.36634,-3.12673 0,-0.37681 -1.05101,-2.08387 -2.33558,-3.79346 -3.01694,-4.01517 -3.43262,-6.2099 -1.83879,-9.70857 1.62397,-3.56484 1.61659,-6.9436 -0.0184,-8.41461 -1.13662,-1.02264 -1.21405,-1.52433 -0.87264,-5.65417 0.31471,-3.80687 0.21902,-4.65514 -0.59807,-5.30182 -5.87013,-4.64588 -6.82494,-7.06443 -3.71658,-9.41414 5.04904,-3.81674 4.83644,-3.28078 4.59238,-11.57763 l -0.2196,-7.46536 1.76727,-0.88485 c 3.47034,-1.73755 5.74311,-3.7407 6.61466,-5.82999 0.48675,-1.16684 1.84607,-3.57061 3.0207,-5.34172 1.17464,-1.77112 2.57491,-4.4674 3.11173,-5.99174 0.53682,-1.52434 1.74925,-3.91907 2.69431,-5.32161 3.38591,-5.02502 4.7748,-7.91269 5.19686,-10.80492 0.2358,-1.61584 0.81374,-3.91523 1.2843,-5.10976 2.15352,-5.46668 16.37988,-10.804 20.71117,-7.77025 1.00234,0.70207 2.06518,0.8601 4.00052,0.59483 1.71105,-0.23452 3.18965,-0.0819 4.21519,0.43519 0.92103,0.46436 4.72128,0.95763 9.11459,1.18306 l 7.53495,0.38664 3.27284,-3.09532 c 1.80006,-1.70243 3.64074,-3.80675 4.09039,-4.67628 0.44965,-0.86953 2.87615,-3.06409 5.39221,-4.87681 2.51607,-1.81272 5.31322,-3.88097 6.21589,-4.59612 2.66606,-2.11219 3.56636,-1.01209 4.15148,5.07285 0.47328,4.92181 0.43316,5.20487 -1.11856,7.89132 -0.8852,1.53252 -2.4676,3.50977 -3.51643,4.3939 -1.746,1.47181 -1.92613,1.94644 -2.13385,5.62241 -0.20793,3.67988 -0.48421,4.40598 -3.31104,8.70158 -1.6963,2.57768 -3.81144,5.85201 -4.70032,7.27631 -0.88888,1.42429 -3.4055,4.35431 -5.5925,6.51115 -3.29274,3.24734 -3.98944,4.27065 -4.05241,5.9522 -0.20157,5.3822 -0.54782,7.02202 -2.23239,10.57248 -1.47143,3.10125 -2.82228,4.72136 -7.10666,8.52321 -4.62608,4.10505 -5.48243,5.17697 -6.82409,8.54182 -0.84379,2.11623 -2.05512,4.69595 -2.69183,5.73271 -1.87604,3.05473 -5.8108,11.33735 -5.8108,12.23165 0,1.72834 -8.16927,10.72475 -14.87725,16.38356 -1.83396,1.54712 -4.6932,4.77841 -6.35386,7.18064 -1.66066,2.40223 -3.65079,4.7814 -4.4225,5.28705 -1.55098,1.01623 -5.09155,1.15321 -7.27096,0.2813 z"
         style="fill:#66bb6a;fill-opacity:0.78431373;fill-rule:evenodd;stroke-width:0.58909088" />
      <path
         transform="translate(-171.15709,46.495692)"
         inkscape:connector-curvature="0"
         id="path5458"
         d="m 200.30573,206.45168 c 0,-0.0697 0.2502,-0.53302 0.40373,-0.74761 0.19614,-0.27415 0.58663,-0.67167 1.10626,-1.12621 0.5316,-0.465 0.67581,-0.60232 0.99145,-0.9441 0.6283,-0.68031 1.47157,-1.74829 2.03509,-2.5774 0.59329,-0.8729 1.34511,-2.22349 1.61714,-2.90508 0.40203,-1.00733 0.46488,-1.97558 0.27528,-4.24136 -0.35738,-4.2709 -0.71696,-6.2154 -1.32229,-7.15048 -0.20809,-0.32145 -0.39012,-0.47848 -0.67429,-0.58168 -0.14142,-0.0514 -0.1959,-0.0573 -0.41655,-0.0452 -0.53627,0.0294 -1.03753,0.29397 -2.06324,1.08884 -0.98664,0.7646 -3.10427,2.33326 -5.23291,3.87636 -1.21505,0.88082 -1.40234,1.01921 -1.95258,1.44281 -1.78873,1.37704 -3.43937,2.88628 -4.04599,3.69938 -0.0748,0.10023 -0.21125,0.30952 -0.30327,0.46508 -0.44134,0.74611 -1.59014,2.11023 -2.92053,3.46796 -0.60637,0.61883 -1.99295,1.95189 -2.01124,1.93361 -0.006,-0.006 0.0891,-0.12738 0.21104,-0.2701 0.1219,-0.14273 0.35837,-0.43524 0.52549,-0.65002 0.64579,-0.82995 0.90408,-1.11589 2.14009,-2.36913 0.38129,-0.38661 0.76996,-0.79079 0.8637,-0.89818 0.42931,-0.49184 0.86791,-1.11501 1.1544,-1.64017 0.39586,-0.72566 0.47441,-0.86256 0.61987,-1.08043 0.2109,-0.31586 0.43034,-0.58405 0.67604,-0.82621 0.36029,-0.3551 0.66347,-0.5592 1.70922,-1.15061 0.75681,-0.428 1.1698,-0.73061 1.75957,-1.28929 0.89025,-0.84331 1.34578,-1.16509 2.8759,-2.03151 1.17646,-0.66615 1.53631,-0.93984 2.55137,-1.94041 0.39377,-0.38815 0.83896,-0.81063 0.98931,-0.93884 1.16913,-0.99697 2.17111,-1.47467 2.87918,-1.37266 0.33297,0.048 0.51963,0.15954 0.8713,0.52076 0.75984,0.7805 1.02824,1.35553 1.1459,2.45509 0.0161,0.15035 0.0385,0.99386 0.0498,1.87448 0.0194,1.5102 0.0252,1.64915 0.10229,2.44723 0.16433,1.70158 0.18792,2.038 0.20273,2.89122 0.0157,0.90631 -0.005,1.26809 -0.10068,1.71686 -0.0842,0.39675 -0.14941,0.53532 -0.90109,1.91353 -1.13719,2.08506 -2.1253,3.71925 -2.43686,4.03023 -0.0459,0.0458 -0.3465,0.26358 -0.66811,0.48404 -1.44848,0.99291 -2.04863,1.52416 -2.52658,2.23654 -0.099,0.14753 -0.17997,0.25221 -0.17997,0.23261 z"
         style="fill:#66bb6a;fill-opacity:0.78431373;fill-rule:evenodd;stroke-width:0.02603438" />
      <path
         transform="translate(-171.15709,46.495692)"
         inkscape:connector-curvature="0"
         id="path5460"
         d="m 182.70648,204.30918 c -0.30785,-0.018 -0.59488,-0.0345 -0.63784,-0.0367 -0.0494,-0.002 0.0367,-0.0361 0.23431,-0.0915 1.01647,-0.28474 1.82511,-0.66256 2.46835,-1.1533 0.0832,-0.0635 0.15507,-0.11126 0.15969,-0.10617 0.005,0.005 -0.32918,0.3285 -0.74176,0.71869 -0.68767,0.65035 -0.75736,0.70911 -0.83658,0.70553 -0.0475,-0.002 -0.33831,-0.0186 -0.64617,-0.0366 z"
         style="fill:#66bb6a;fill-opacity:0.78431373;fill-rule:evenodd;stroke-width:0.02603438" />
      <path
         transform="translate(-171.15709,46.495692)"
         inkscape:connector-curvature="0"
         id="path5462"
         d="m 192.72972,224.616 c 0,-0.0282 1.98182,-3.09295 3.33244,-5.15333 1.64389,-2.50777 2.10879,-3.25751 2.56678,-4.13947 0.79956,-1.53968 1.03366,-2.59252 1.18541,-5.33129 0.0181,-0.32617 0.0409,-0.57806 0.0507,-0.55974 0.0328,0.0614 0.0843,2.13345 0.0669,2.693 -0.0295,0.95265 -0.11334,1.62313 -0.27446,2.19571 -0.10258,0.36454 -0.21049,0.61317 -0.46766,1.07752 -0.40239,0.72657 -0.71744,1.20396 -1.59117,2.41109 -0.92048,1.2717 -1.05504,1.47946 -1.51344,2.33678 -0.68911,1.28881 -1.08369,1.84962 -2.23923,3.18264 -0.29176,0.33657 -0.6579,0.76712 -0.81365,0.95677 -0.26911,0.3277 -0.3026,0.36425 -0.3026,0.33032 z"
         style="fill:#66bb6a;fill-opacity:0.78431373;fill-rule:evenodd;stroke-width:0.02603438" />
      <path
         transform="translate(-171.15709,46.495692)"
         inkscape:connector-curvature="0"
         id="path5464"
         d="m 184.84169,233.95775 c 0.17878,-0.18232 0.81218,-0.82375 1.40758,-1.42538 1.16286,-1.17504 1.37909,-1.39995 2.00296,-2.0833 1.07185,-1.17406 2.20246,-2.51789 2.86336,-3.40337 0.13603,-0.18225 0.25089,-0.32091 0.25526,-0.30813 0.004,0.0128 -0.0411,0.1208 -0.10107,0.24003 -0.0599,0.11924 -0.24302,0.51564 -0.40682,0.88091 -0.60224,1.34294 -0.95796,1.91221 -1.59554,2.55345 -0.34297,0.34493 -0.64669,0.59658 -1.75759,1.4563 -1.47888,1.14448 -2.59693,2.05851 -2.86215,2.33987 -0.0421,0.0446 -0.0887,0.0811 -0.10374,0.0811 -0.015,0 0.11898,-0.14917 0.29775,-0.3315 z"
         style="fill:#66bb6a;fill-opacity:0.78431373;fill-rule:evenodd;stroke-width:0.02603438" />
      <path
         transform="translate(-171.15709,46.495692)"
         inkscape:connector-curvature="0"
         id="path5466"
         d="m 175.84913,254.79784 c 0.44396,-0.44747 0.94233,-0.96588 1.10749,-1.15202 1.25,-1.40885 2.06003,-2.6461 2.93166,-4.47792 1.65125,-3.47024 2.0283,-5.14157 2.23186,-9.89306 0.0444,-1.03685 0.0514,-1.12301 0.12134,-1.49177 0.10831,-0.57134 0.36803,-1.13077 0.82208,-1.7708 0.0642,-0.0905 0.12148,-0.1597 0.12733,-0.15385 0.006,0.006 -0.0584,0.15602 -0.14278,0.33371 -0.306,0.64436 -0.49333,1.21147 -0.63992,1.93719 -0.20021,0.99115 -0.22746,1.46183 -0.23365,4.03533 -0.005,2.25619 -0.005,2.25148 -0.14541,2.94416 -0.19189,0.94797 -0.48481,1.62306 -1.40542,3.23901 -0.66993,1.17595 -0.86524,1.57473 -1.26228,2.5774 -0.54517,1.37679 -0.98135,2.17591 -1.46509,2.68424 -0.27349,0.2874 -0.43588,0.40572 -0.88941,0.64809 -0.63848,0.34119 -1.21379,0.73326 -1.71324,1.16754 -0.11785,0.10248 -0.22271,0.18632 -0.23302,0.18632 -0.0103,0 0.3445,-0.3661 0.78846,-0.81357 z"
         style="fill:#66bb6a;fill-opacity:0.78431373;fill-rule:evenodd;stroke-width:0.02603438" />
      <path
         transform="translate(-171.15709,46.495692)"
         inkscape:connector-curvature="0"
         id="path5468"
         d="m 168.07516,262.30973 c 0,-0.0192 0.30833,-0.3917 0.58797,-0.71041 0.76636,-0.87342 1.9277,-1.98386 4.11124,-3.93106 0.90862,-0.81028 1.74473,-1.57283 1.77081,-1.61503 0.009,-0.0139 0.028,-0.0253 0.0431,-0.0253 0.0151,0 -0.148,0.18452 -0.36251,0.41005 -0.21451,0.22552 -0.64008,0.67949 -0.94572,1.00883 -1.12461,1.2118 -1.41519,1.48958 -2.64053,2.52428 -1.0243,0.86492 -1.50002,1.29192 -2.06323,1.8519 -0.27564,0.27406 -0.50116,0.49308 -0.50116,0.48671 z"
         style="fill:#66bb6a;fill-opacity:0.78431373;fill-rule:evenodd;stroke-width:0.02603438" />
      <path
         transform="translate(-171.15709,46.495692)"
         inkscape:connector-curvature="0"
         id="path5470"
         d="m 156.28776,286.37755 c 0.27509,-0.3613 0.70225,-1.02316 0.89473,-1.38633 0.18569,-0.35034 0.26787,-0.57809 0.29943,-0.82975 0.0864,-0.68894 1.11848,-3.10222 2.83355,-6.62554 1.12813,-2.31753 2.05337,-4.05992 3.07098,-5.7832 0.25994,-0.44018 1.00494,-1.91933 1.3834,-2.74662 0.34429,-0.7526 0.79361,-1.79214 1.13655,-2.62948 0.1642,-0.40093 0.36311,-0.88126 0.442,-1.06741 0.17216,-0.40617 0.53351,-1.16287 0.54828,-1.14811 0.006,0.006 -0.0324,0.1669 -0.0849,0.35803 -0.40795,1.48612 -1.09601,3.23841 -2.09412,5.33308 -0.63905,1.34114 -0.84152,1.70378 -1.71522,3.07206 -0.98978,1.55008 -1.27016,2.02595 -1.63365,2.77266 -0.27661,0.56823 -0.38022,0.83651 -0.54508,1.41142 -0.3027,1.05551 -0.58646,1.67838 -1.5216,3.33986 -1.13953,2.02463 -1.43687,2.70024 -1.71865,3.90516 -0.11852,0.50677 -0.24548,0.88217 -0.40863,1.20822 -0.12931,0.25841 -0.35299,0.61574 -0.49447,0.78991 l -0.0899,0.11065 h -0.18359 -0.18359 z"
         style="fill:#66bb6a;fill-opacity:0.78431373;fill-rule:evenodd;stroke-width:0.02603438" />
      <path
         transform="translate(-171.15709,46.495692)"
         inkscape:connector-curvature="0"
         id="path5472"
         d="m 154.95383,288.11786 c 0,-0.009 0.16192,-0.21779 0.35983,-0.46473 0.19791,-0.24694 0.48605,-0.61593 0.64032,-0.81998 l 0.28048,-0.37099 h 0.18464 0.18464 l -0.0649,0.0716 c -0.4357,0.48062 -0.64264,0.69424 -1.07609,1.11078 -0.2799,0.26898 -0.50891,0.48198 -0.50891,0.47332 z"
         style="fill:#66bb6a;fill-opacity:0.78431373;fill-rule:evenodd;stroke-width:0.02603438" />
      <path
         transform="translate(-171.15709,46.495692)"
         inkscape:connector-curvature="0"
         id="path5474"
         d="m 130.88278,313.4328 c 0.41698,-0.14031 0.79793,-0.32788 1.04657,-0.51532 0.80651,-0.60801 2.54007,-2.6819 4.14934,-4.96393 1.23686,-1.75395 2.31909,-3.09835 3.86665,-4.80335 0.67319,-0.74168 2.02432,-2.07477 2.6269,-2.59183 1.33396,-1.14463 1.96901,-1.70833 3.05404,-2.71089 2.74564,-2.53697 5.87276,-5.73858 8.04886,-8.24058 0.20808,-0.23925 0.3821,-0.43123 0.3867,-0.42662 0.005,0.005 -0.0691,0.1242 -0.16378,0.26577 -0.16381,0.24491 -0.25318,0.39835 -0.59725,1.02541 -0.45177,0.82334 -0.77093,1.2377 -1.87357,2.43242 -0.63865,0.69198 -0.76388,0.83711 -1.30442,1.51179 -0.98321,1.22719 -1.57306,1.74888 -3.35681,2.96888 -1.59148,1.0885 -2.09076,1.48282 -3.11111,2.45712 -0.6182,0.5903 -0.97406,0.91847 -1.96559,1.81268 -2.5282,2.28002 -3.08752,2.94823 -5.14196,6.14299 -1.11149,1.72841 -1.57377,2.38751 -2.1928,3.12634 -0.79885,0.95345 -1.6339,1.76685 -2.41419,2.35156 l -0.35054,0.26268 -0.5086,-3.8e-4 -0.50859,-3.8e-4 z"
         style="fill:#66bb6a;fill-opacity:0.78431373;fill-rule:evenodd;stroke-width:0.02603438" />
      <path
         transform="translate(-171.15709,46.495692)"
         inkscape:connector-curvature="0"
         id="path5476"
         d="m 128.71117,314.35347 c -2.41012,-0.0889 -4.43409,-0.6855 -7.53696,-2.22168 -1.47534,-0.73042 -2.15135,-1.20618 -2.38329,-1.67732 l -0.0887,-0.18024 -0.0164,-0.49646 c -0.0153,-0.46538 -0.0214,-0.51108 -0.0971,-0.7298 -0.0444,-0.12834 -0.0766,-0.23739 -0.0717,-0.24234 0.0141,-0.0141 0.36229,0.60485 0.49458,0.8792 0.0656,0.13603 0.13705,0.33298 0.15879,0.43767 0.0217,0.10469 0.069,0.23708 0.10508,0.29419 0.37344,0.59157 2.02291,1.51841 4.60428,2.58714 0.90276,0.37376 1.13357,0.4538 1.68231,0.58343 0.69129,0.1633 1.29371,0.23526 2.13371,0.25486 0.95302,0.0222 1.75926,-0.0501 2.54043,-0.22787 0.32249,-0.0734 0.3666,-0.0771 0.8331,-0.0704 l 0.49257,0.007 -0.24732,0.15414 c -0.32264,0.20109 -0.75817,0.40923 -1.06741,0.51013 -0.42928,0.14006 -0.73682,0.16774 -1.53603,0.13826 z"
         style="fill:#66bb6a;fill-opacity:0.78431373;fill-rule:evenodd;stroke-width:0.02603438" />
      <path
         transform="translate(-171.15709,46.495692)"
         inkscape:connector-curvature="0"
         id="path5478"
         d="m 118.25788,308.44381 c -0.0256,-0.0391 -0.25424,-0.28842 -0.50804,-0.55404 -0.49894,-0.52217 -0.80354,-0.86305 -1.11779,-1.25096 -1.5004,-1.85204 -2.4846,-3.82571 -2.78472,-5.58438 -0.19048,-1.11617 -0.0942,-2.35494 0.2614,-3.36234 0.20712,-0.58683 0.4062,-0.96046 0.96378,-1.80879 0.21296,-0.324 0.41652,-0.65541 0.45237,-0.73647 0.12627,-0.28551 0.45465,-1.71986 0.59653,-2.60564 0.079,-0.49316 0.0888,-0.31324 0.0145,0.26586 -0.15872,1.2367 -0.51158,2.42024 -1.15876,3.88662 -0.63946,1.4489 -0.88109,2.4148 -0.87922,3.51465 10e-4,0.83374 0.13103,1.4861 0.46813,2.35611 0.4202,1.08448 1.05604,2.13726 2.34735,3.88661 0.66562,0.90172 1.43311,2.02186 1.40475,2.05021 -0.008,0.008 -0.0346,-0.0183 -0.0602,-0.0574 z"
         style="fill:#66bb6a;fill-opacity:0.78431373;fill-rule:evenodd;stroke-width:0.02603438" />
      <path
         transform="translate(-171.15709,46.495692)"
         inkscape:connector-curvature="0"
         id="path5480"
         d="m 115.21234,288.60375 c -0.6027,-0.46664 -1.12873,-0.96905 -1.33791,-1.27783 -0.15273,-0.22546 -0.25692,-0.45667 -0.30228,-0.67078 -0.0529,-0.24995 -0.048,-0.71953 0.0133,-1.27094 0.10279,-0.92444 0.13211,-1.31392 0.15588,-2.07075 0.0247,-0.78491 0.0545,-1.08522 0.20777,-2.08899 0.14053,-0.92046 0.1866,-1.35482 0.20146,-1.89906 0.0164,-0.60205 -0.0119,-0.91915 -0.11329,-1.26911 -0.0348,-0.12013 -0.0583,-0.22339 -0.0522,-0.22947 0.0177,-0.0177 0.14198,0.32786 0.18431,0.51261 0.0703,0.30686 0.0941,0.64938 0.0939,1.35096 -2.3e-4,0.75719 -0.031,1.31977 -0.16832,3.07489 -0.13308,1.70143 -0.15097,2.02565 -0.15294,2.77266 -0.002,0.70062 0.0196,0.94756 0.11509,1.32535 0.12138,0.48019 0.26543,0.69809 0.87495,1.32355 0.43033,0.4416 0.516,0.54285 0.45608,0.53908 -0.0107,-6.7e-4 -0.0898,-0.0556 -0.17573,-0.12217 z"
         style="fill:#66bb6a;fill-opacity:0.78431373;fill-rule:evenodd;stroke-width:0.02603438" />
      <path
         transform="translate(-171.15709,46.495692)"
         inkscape:connector-curvature="0"
         id="path5482"
         d="m 112.45102,276.60391 c -1.77757,-0.90921 -2.95844,-1.83198 -3.59275,-2.80748 -0.27786,-0.4273 -0.71979,-1.38343 -0.90933,-1.96731 -0.2973,-0.91587 -0.32651,-1.73239 -0.0865,-2.41769 0.24777,-0.70743 0.88525,-1.5698 1.40871,-1.90569 0.29108,-0.18677 3.43412,-1.97865 3.44738,-1.96538 0.006,0.006 -0.0809,0.0911 -0.19271,0.18941 -0.3796,0.33385 -0.82627,0.68349 -2.15589,1.68755 -0.87205,0.65853 -0.99782,0.7616 -1.30177,1.0669 -1.05123,1.05584 -1.27169,2.13516 -0.69685,3.4117 0.5374,1.1934 1.88588,2.6913 4.00804,4.45214 0.53037,0.44007 0.57667,0.48138 0.53956,0.48138 -0.0148,0 -0.22539,-0.10149 -0.4679,-0.22553 z"
         style="fill:#66bb6a;fill-opacity:0.78431373;fill-rule:evenodd;stroke-width:0.02603438" />
      <path
         transform="translate(-171.15709,46.495692)"
         inkscape:connector-curvature="0"
         id="path5484"
         d="m 113.9093,264.02052 c 0.19061,-1.27135 0.30016,-3.25017 0.30049,-5.42817 4.8e-4,-3.15588 -0.35323,-6.70552 -0.80529,-8.08154 l -0.0991,-0.30153 0.10423,-0.20828 c 0.0573,-0.11455 0.19243,-0.36613 0.30024,-0.55907 0.70645,-1.26428 1.23078,-1.85186 1.74134,-1.95143 0.0691,-0.0135 0.28374,-0.0319 0.47704,-0.0411 0.53355,-0.0252 0.80696,-0.0953 1.21964,-0.31294 0.29606,-0.1561 0.67134,-0.43913 1.05837,-0.79821 0.39834,-0.36957 0.53767,-0.47311 1.31474,-0.97703 0.35081,-0.22749 0.71341,-0.46866 0.80577,-0.53593 0.12388,-0.0902 0.19173,-0.1223 0.2587,-0.1223 h 0.0908 l -0.0765,0.0806 c -0.23781,0.25059 -1.01837,0.89769 -1.5159,1.2567 -1.02149,0.7371 -1.8833,1.2393 -3.74395,2.18169 l -1.17409,0.59466 0.0101,0.25374 c 0.006,0.13956 0.0566,1.85876 0.1133,3.82045 0.0567,1.96169 0.12006,4.14077 0.14073,4.8424 0.0818,2.77716 0.0767,3.69008 -0.0256,4.57981 -0.0765,0.66545 -0.24091,1.29497 -0.43188,1.65395 -0.0716,0.13463 -0.076,0.13834 -0.0633,0.0535 z"
         style="fill:#66bb6a;fill-opacity:0.78431373;fill-rule:evenodd;stroke-width:0.02603438" />
      <path
         transform="translate(-171.15709,46.495692)"
         inkscape:connector-curvature="0"
         id="path5488"
         d="m 127.62728,233.10469 c 0.0216,-0.11109 0.23676,-0.91253 0.39494,-1.47094 0.34288,-1.21048 0.68383,-2.07387 1.32409,-3.35304 0.43304,-0.86517 0.73384,-1.3434 1.68185,-2.67393 1.03067,-1.44653 1.33956,-1.92693 1.78738,-2.77983 0.43963,-0.83728 0.74252,-1.3787 1.47431,-2.63532 0.81483,-1.39923 1.31116,-2.33535 1.48544,-2.80169 0.0515,-0.13768 0.13444,-0.40713 0.18441,-0.59879 0.16212,-0.62175 0.2321,-1.03948 0.52286,-3.12113 0.051,-0.36513 0.1339,-0.90404 0.18422,-1.19758 0.52445,-3.05955 1.54089,-5.11448 3.02445,-6.11452 0.0895,-0.0603 0.35898,-0.21277 0.59879,-0.33871 0.48752,-0.25604 0.70759,-0.38504 1.16929,-0.68543 0.29588,-0.19251 0.32475,-0.20554 0.43877,-0.19805 l 0.12205,0.008 -0.26797,0.18224 c -1.79539,1.221 -3.09434,2.55692 -3.72113,3.82705 -0.46126,0.93469 -1.11823,3.36463 -1.41831,5.24593 -0.1078,0.67586 -0.19049,1.10033 -0.29921,1.53603 -0.58882,2.3596 -1.88895,4.91413 -4.50508,8.85169 -0.9631,1.44957 -1.39858,2.19691 -2.05561,3.52766 -0.52103,1.05532 -0.72378,1.52363 -1.16088,2.68154 -0.0811,0.21479 -0.24577,0.61311 -0.36597,0.88517 -0.23477,0.53138 -0.6153,1.30911 -0.59869,1.22362 z"
         style="fill:#66bb6a;fill-opacity:0.78431373;fill-rule:evenodd;stroke-width:0.02603438" />
      <path
         transform="translate(-171.15709,46.495692)"
         inkscape:connector-curvature="0"
         id="path5490"
         d="m 141.90814,205.03288 c 0.0774,-0.0536 0.5635,-0.41177 1.08021,-0.79601 1.81356,-1.3486 2.57371,-1.80072 3.6446,-2.16773 0.66529,-0.22801 1.08587,-0.31549 2.42129,-0.50363 1.43234,-0.20179 1.73948,-0.25808 2.91865,-0.53493 1.47055,-0.34526 2.43483,-0.50237 3.43654,-0.55994 1.24316,-0.0714 2.14903,0.1181 2.63202,0.55073 0.0845,0.0757 0.28253,0.26108 0.44004,0.41196 0.15751,0.15088 0.38307,0.35522 0.50126,0.45408 0.11819,0.0989 0.21017,0.18447 0.2044,0.19023 -0.0176,0.0176 -0.33018,-0.149 -0.52342,-0.27889 -0.30772,-0.20683 -0.58502,-0.35416 -0.90742,-0.48209 -1.46737,-0.58229 -3.70096,-0.5971 -6.35682,-0.0422 -3.02132,0.6313 -6.33606,1.95986 -8.91285,3.57231 -0.42367,0.26511 -0.46255,0.28392 -0.58649,0.2837 l -0.13274,-2.3e-4 z"
         style="fill:#66bb6a;fill-opacity:0.78431373;fill-rule:evenodd;stroke-width:0.02603438" />
      <path
         transform="translate(-171.15709,46.495692)"
         inkscape:connector-curvature="0"
         id="path5492"
         d="m 167.71068,203.06317 c -0.44398,-0.10512 -0.65787,-0.1752 -1.0093,-0.33068 -0.77819,-0.34429 -1.56861,-0.49161 -2.63552,-0.49121 -0.53578,2e-4 -0.86093,0.0238 -1.625,0.11798 -0.2852,0.0351 -0.55466,0.0631 -0.59879,0.062 -0.0886,-0.002 0.25727,-0.10102 1.13035,-0.32333 1.21185,-0.30856 1.83208,-0.38145 2.44723,-0.28759 0.46919,0.0716 0.7567,0.20089 1.47094,0.66153 0.25774,0.16622 0.624,0.38142 0.81391,0.47822 0.18991,0.0968 0.32464,0.17501 0.2994,0.17381 -0.0252,-0.001 -0.15719,-0.0285 -0.29322,-0.0607 z"
         style="fill:#66bb6a;fill-opacity:0.78431373;fill-rule:evenodd;stroke-width:0.02603438" />
      <path
         transform="translate(-171.15709,46.495692)"
         inkscape:connector-curvature="0"
         id="path5494"
         d="m 178.85339,204.11405 c -0.75174,-0.04 -1.84128,-0.0972 -2.42119,-0.12724 -1.66855,-0.0863 -2.54289,-0.14712 -4.39331,-0.30548 -0.21155,-0.0181 -0.25642,-0.0606 -0.064,-0.0606 0.0686,0 0.5343,-0.0403 1.03486,-0.0896 1.33914,-0.13185 1.71501,-0.15325 2.40643,-0.13702 0.80264,0.0189 0.98112,0.0445 3.56737,0.51245 0.78038,0.14121 1.45402,0.26178 1.49697,0.26794 0.19112,0.0274 -0.36111,0.007 -1.62715,-0.0605 z"
         style="fill:#66bb6a;fill-opacity:0.78431373;fill-rule:evenodd;stroke-width:0.02603438" />
    </g>
  </g>
</svg>
