<?xml version="1.0" encoding="UTF-8" standalone="no"?>
<!-- Created with Inkscape (http://www.inkscape.org/) -->

<svg
   xmlns:dc="http://purl.org/dc/elements/1.1/"
   xmlns:cc="http://creativecommons.org/ns#"
   xmlns:rdf="http://www.w3.org/1999/02/22-rdf-syntax-ns#"
   xmlns:svg="http://www.w3.org/2000/svg"
   xmlns="http://www.w3.org/2000/svg"
   xmlns:sodipodi="http://sodipodi.sourceforge.net/DTD/sodipodi-0.dtd"
   xmlns:inkscape="http://www.inkscape.org/namespaces/inkscape"
   width="314.83612"
   height="500"
   id="svg2"
   sodipodi:version="0.32"
   inkscape:version="0.92.4 (5da689c313, 2019-01-14)"
   sodipodi:docname="mFelipeCarrilloPuerto.svg"
   inkscape:output_extension="org.inkscape.output.svg.inkscape"
   version="1.0">
  <defs
     id="defs4">
    <inkscape:perspective
       sodipodi:type="inkscape:persp3d"
       inkscape:vp_x="0 : 530.76001 : 1"
       inkscape:vp_y="0 : 1000 : 0"
       inkscape:vp_z="1183.8877 : 530.76001 : 1"
       inkscape:persp3d-origin="591.94385 : 353.84001 : 1"
       id="perspective2604" />
    <inkscape:perspective
       id="perspective4705"
       inkscape:persp3d-origin="0.5 : 0.33333333 : 1"
       inkscape:vp_z="1 : 0.5 : 1"
       inkscape:vp_y="0 : 1000 : 0"
       inkscape:vp_x="0 : 0.5 : 1"
       sodipodi:type="inkscape:persp3d" />
    <inkscape:perspective
       id="perspective4727"
       inkscape:persp3d-origin="0.5 : 0.33333333 : 1"
       inkscape:vp_z="1 : 0.5 : 1"
       inkscape:vp_y="0 : 1000 : 0"
       inkscape:vp_x="0 : 0.5 : 1"
       sodipodi:type="inkscape:persp3d" />
    <inkscape:perspective
       id="perspective4749"
       inkscape:persp3d-origin="0.5 : 0.33333333 : 1"
       inkscape:vp_z="1 : 0.5 : 1"
       inkscape:vp_y="0 : 1000 : 0"
       inkscape:vp_x="0 : 0.5 : 1"
       sodipodi:type="inkscape:persp3d" />
  </defs>
  <sodipodi:namedview
     id="base"
     pagecolor="#ffffff"
     bordercolor="#666666"
     borderopacity="1.0"
     inkscape:pageopacity="0.0"
     inkscape:pageshadow="2"
     inkscape:zoom="1.4142136"
     inkscape:cx="129.79147"
     inkscape:cy="230.82474"
     inkscape:document-units="px"
     inkscape:current-layer="layer1"
     inkscape:window-width="1920"
     inkscape:window-height="1051"
     inkscape:window-x="-9"
     inkscape:window-y="-9"
     showgrid="false"
     inkscape:window-maximized="1"
     fit-margin-top="0"
     fit-margin-left="0"
     fit-margin-right="0"
     fit-margin-bottom="0" />
  <metadata
     id="metadata7">
    <rdf:RDF>
      <cc:Work
         rdf:about="">
        <dc:format>image/svg+xml</dc:format>
        <dc:type
           rdf:resource="http://purl.org/dc/dcmitype/StillImage" />
        <dc:title></dc:title>
      </cc:Work>
    </rdf:RDF>
  </metadata>
  <g
     inkscape:label="Capa 1"
     inkscape:groupmode="layer"
     id="layer1"
     transform="translate(171.15709,-46.495692)">
    <path
       style="fill:#f9f9f9;fill-rule:evenodd;stroke:#000000;stroke-width:0.0947132;stroke-linecap:butt;stroke-linejoin:miter;stroke-miterlimit:4;stroke-dasharray:none;stroke-opacity:1"
       d="m 43.614216,296.29502 c -0.358393,0.17846 -0.831513,0.35299 -1.414945,0.49619 -0.603153,0.14808 -0.571951,0.23009 -0.808546,0.69467 -0.187346,0.36798 -0.721152,0.70815 -0.9096,0.89322 -0.452291,0.4441 -0.530637,0.44649 -0.808532,-0.0988 -0.246495,-0.48411 -0.206656,-0.54697 -0.808548,-0.69475 -0.485878,-0.11922 -0.663788,0.77256 -1.111738,0.99244 -0.330181,0.16208 -0.703556,0.39321 -1.01068,0.69468 -0.341724,0.3356 -0.509314,0.50406 -0.707469,0.89316 -0.22367,0.43926 -0.296466,0.96595 -0.404275,1.38943 -0.08672,0.34064 -0.62195,0.80913 -0.808532,0.99238 -0.31234,0.30664 -0.400126,0.88498 -0.606414,1.29009 -0.270895,0.53197 -0.29588,0.97804 -0.505331,1.38937 -0.253126,0.49711 -0.385224,1.16596 -0.707473,1.5878 -0.277815,0.36379 -0.447449,0.43941 -0.808541,0.79398 -0.337776,0.33166 -0.404268,0.65618 -0.404268,1.19089 0,0.46656 -0.662231,0.60914 -1.010666,0.69469 -0.33718,0.0827 -0.404279,0.73186 -0.404279,1.09161 0,0.60741 -0.08626,0.83509 -0.202135,1.29014 -0.112476,0.44172 -0.165714,0.92088 -0.30319,1.19092 -0.173559,0.34078 -0.403684,0.59303 -0.505353,0.99238 -0.138101,0.54244 -0.175472,0.98687 -0.303201,1.48857 -0.110171,0.4328 0,1.03987 0,1.48861 0,0.77309 -0.143917,0.77884 -0.404272,1.29008 -0.175188,0.34408 -0.20766,0.91494 -0.303196,1.2902 -0.136717,0.53699 -0.480462,0.745 -0.70747,1.19084 -0.252154,0.49521 -0.566818,0.47473 -0.808541,0 -0.258479,-0.50761 0.0375,-0.94227 0.303196,-1.29011 0.192816,-0.25242 0.147925,-1.07716 0.202143,-1.29008 0.11207,-0.44023 0.209422,-0.90754 0.404267,-1.29021 0.159268,-0.31277 0,-1.12968 0,-1.48859 0,-0.563 0.411322,-0.70849 0.606405,-1.0916 0.188346,-0.36988 0.404278,-0.61134 0.404278,-1.19092 0,-0.4962 0,-0.99238 0,-1.48858 0,-0.29462 -1.006093,0.59095 -1.010683,0.59541 -0.458117,0.44987 -0.378103,0.5826 -1.010665,0.89317 -0.318545,0.15637 -1.150504,0 -1.51602,0 -0.567998,0 -1.018749,0.0769 -1.516017,0.19853 -0.426539,0.1047 -0.770937,0.46213 -1.313879,0.59543 -0.485829,0.11921 -0.615513,0.4736 -1.111743,0.59544 -0.57756,0.14176 -0.995124,0.0417 -1.516003,0.29771 -0.09718,0.0478 -0.67089,0.77909 -0.909613,1.09164 -0.365293,0.47823 -0.505336,0.57275 -0.505336,1.29013 0,0.65863 0.369343,0.95444 0.505336,1.48857 0.148248,0.58232 0.07995,0.93469 -0.101058,1.29019 -0.20867,0.40979 -0.548792,0.36905 -0.707473,0.99238 -0.134694,0.52901 -0.505351,0.56211 -0.505351,1.19088 0,0.64501 0.124592,0.84014 0.303208,1.19088 0.263497,0.51748 0.845613,0.83034 1.313888,1.2901 0.504359,0.49525 0.666251,0.5955 1.414929,0.5955 0.01717,0 0.201083,0.7939 0.808546,0.7939 0.598219,0 0.693858,0.27103 0.909612,0.69462 0.159261,0.31282 0,1.12974 0,1.48865 0,0.48977 1.179739,0.94324 1.516015,1.19092 0.47518,0.34991 0.716259,-0.43151 0.808535,-0.79394 0.06991,-0.27473 0.851992,-0.73736 1.010681,-0.89322 0.574737,-0.56428 -0.374675,-0.89312 0.808523,-0.89312 0.369313,0 0.681835,0.5451 0.808542,0.79395 0.214049,0.42034 -0.115273,1.11951 -0.202132,1.29008 -0.255696,0.5022 -0.476752,0.48323 -0.60641,0.99239 -0.14425,0.5666 0.999047,1.17949 1.21282,1.38937 0.120384,0.11823 -0.493882,1.36688 -0.60641,1.58789 -0.241352,0.47401 -0.114659,1.01909 -0.404268,1.5878 -0.320741,0.62991 0.09856,0.8932 0.6064,0.8932 0.606154,0 0.886245,-0.18701 1.313891,-0.39696 0.384787,-0.1889 0.706629,-0.76855 1.010659,-0.99239 0.580496,-0.4275 0.897899,0.24444 1.111747,-0.59548 0.118242,-0.46444 0,-1.10875 0,-1.58779 0,-0.47496 0.455411,-1.09294 0.606404,-1.3894 0.193495,-0.37999 0.559893,-0.80185 0.707469,-1.09165 0.248971,-0.48894 0.478455,-0.83036 0.808548,-0.99239 0.572217,-0.28097 1.05813,-0.16206 1.718137,0 0.600138,0.14731 1.160294,0.0988 1.819222,0.0988 0.636904,0 1.007917,0.003 1.313882,-0.2977 0.402091,-0.39482 0.741844,-0.21038 1.111731,-0.69467 0.291316,-0.38137 0.858231,-0.64418 1.111749,-0.89314 0.479686,-0.47103 1.305537,0.2814 1.414947,0.4962 0.334345,0.65659 0.479802,1.06656 0.909601,1.4886 0.351351,0.34498 0.05072,1.14144 0.505335,1.58787 0.549172,0.53919 1.311296,0.10261 1.617078,-0.29773 0.301573,-0.39482 0.533397,-0.77604 1.010679,-0.89319 0.679216,-0.16669 0.973198,-0.0626 1.313872,-0.39695 0.151048,-0.14832 0,-1.2528 0,-1.4886 0,-0.4962 0,-0.99239 0,-1.48859 0.303208,-0.066 0.60641,-0.13234 0.909617,-0.19852 1.688156,-0.36831 1.74624,0.30886 2.021349,1.38937 0.198083,0.778 0.793412,0.93299 1.010665,1.78634 0.394709,1.55028 1.212819,-0.14008 1.212819,-0.99243 0,-1.12566 -0.449784,-1.47867 -0.808548,-2.18328 -0.703389,-1.38133 1.222689,-1.18607 1.617083,-0.99238 0.755118,0.37072 0.615826,1.59712 1.212814,2.18329 1.379282,1.35434 1.884525,-0.85199 2.021348,-1.38935 0.373288,-1.46615 0.24366,-2.14253 1.61707,-0.79394 0.594522,0.5838 -0.329521,2.63198 -0.404269,2.7787 -0.498172,0.97837 -1.212801,-0.0621 -1.212801,1.78634 0,1.47873 -0.42098,1.19092 -1.819218,1.19092 -0.515574,0 -1.668391,1.24129 -2.021342,1.58782 -0.601434,0.59059 -1.405101,1.17157 -1.819229,1.9848 -0.654338,1.28503 0.02456,1.38934 1.212815,1.38934 0.50317,0 1.581018,-1.15547 2.021352,-1.58781 0.935479,-0.91861 2.021342,-0.11802 2.021342,0.79397 0,1.30711 -0.526364,1.27345 -0.808546,2.38175 -0.111646,0.43847 -1.660594,1.23359 -2.021336,1.58779 -0.608219,0.59726 -1.408462,0.58911 -2.22349,1.38934 -1.069884,1.05054 -0.727211,1.19094 -2.42561,1.19094 -1.180906,0 -1.024033,1.07108 -1.212808,2.18332 -0.225693,1.32957 1.555041,1.98478 -0.606421,1.98478 -0.754136,0 -1.053899,1.36064 -1.212802,1.9848 -0.197547,0.77588 -1.341463,1.15928 -2.02134,0.99237 -1.137169,-0.27908 -1.010687,-1.70387 -1.010687,-2.58025 0,-1.50243 -0.233911,-1.48083 -1.414937,-1.19084 -0.793148,0.19469 -1.915285,0.49126 -2.425622,0.99239 -0.799308,0.78482 -1.117609,1.09744 -1.819216,1.78633 -0.746012,0.73255 -1.180311,1.65875 -1.414936,2.58028 -0.215547,0.84656 -2.445349,0 -3.234164,0 -1.247976,0 -2.021353,-0.20045 -2.021353,1.1908 0,1.41499 -0.331633,1.69128 -1.010659,2.58029 -0.86938,1.13822 -0.758395,1.45126 0.606387,1.78634 0.500795,0.12291 0.59932,1.77236 0.808544,2.18331 0.596601,1.17154 -1.577097,0.79384 -2.223479,0.79384 -1.139148,0 -2.348142,1.03046 -0.808534,1.78634 0.664434,0.32623 1.45276,1.62502 1.819217,1.98488 0.194882,0.19129 0,1.6727 0,1.98476 1.367372,1.34269 -0.492334,2.35373 -0.606416,2.38175 -1.002028,0.24597 -1.109962,-1.9883 -2.223479,0.19852 -0.419043,0.82294 -0.606414,1.07953 -0.606414,2.38178 0,1.13655 0.733683,1.74952 1.617092,2.18324 0.474848,0.23319 1.294989,1.66854 1.617082,1.98485 0.764378,0.75053 1.311242,0.79386 2.627745,0.79386 1.37461,0 1.759457,0.1174 2.223479,-0.79386 0.511789,-1.00507 0.425292,-1.82765 0.808538,-2.58026 0.441145,-0.86636 0.753622,-1.53393 1.414946,-2.1833 0.452506,-0.44433 1.063743,-1.39931 1.212818,-1.98483 0.286265,-1.1243 0.167897,-1.91754 0.606404,-2.77872 0.461017,-0.90539 1.131596,-1.50812 1.819213,-2.18329 0.595976,-0.5852 1.059228,-1.23854 1.617086,-1.78633 0.845387,-0.83007 0.859887,-1.21604 2.021345,-1.78626 0.828029,-0.40656 1.33581,-0.85435 2.02134,-1.19093 0.812558,-0.39892 1.607131,-0.88831 2.223485,-1.1909 0.75513,-0.37075 1.379245,1.1909 2.223484,1.1909 0.102364,0 0.833528,-1.1909 2.02135,-1.1909 1.379833,0 1.617079,0.79816 1.617079,1.98486 0,1.23012 -0.993704,1.67874 -1.617079,1.98475 -1.242955,0.61022 -1.018928,0.61168 -1.617074,1.78635 -0.360076,0.70716 -1.129083,1.74285 -1.617072,2.38175 -0.07722,0.10112 -2.777894,0.18571 -2.829899,0.19853 -1.063196,0.26094 -1.972733,0.075 -2.627757,0.39689 -0.83723,0.41112 1.863991,0.65411 2.425624,1.3894 0.315738,0.4134 0.539986,0.95981 1.010661,1.19089 0.819706,0.40244 -1.808046,0.39144 -2.627739,0.79394 -1.146257,0.56272 -0.142056,1.24989 0.404272,1.78634 0.705114,0.69231 0.375872,1.64354 0,2.38174 -0.386596,0.75917 -0.133443,2.04832 -0.404272,2.5802 -0.318536,0.62557 0,2.25942 0,2.97726 h -70.14081 v 14.29055 l -30.522376,-2.38166 -4.851219,-17.06941 -4.649112,-0.19845 v 3.77107 h -7.681133 l -1.81921,-8.13764 -5.053368,-0.19848 -0.808544,-6.3514 2.021346,-4.56507 h -5.255514 l -5.255507,-6.74829 -1.819206,-6.54986 h 9.298202 l 0.404269,-18.65722 -3.840556,-5.16049 8.691798,0.19848 5.255502,-15.28304 h 3.234162 l 3.840562,-14.48908 3.840553,-0.19845 -1.617064,-12.30579 5.65977,-21.43594 -3.032025,-3.17568 -16.372916,0.19844 38.607752,-26.79487 21.830574,-15.67996 6.8725916,33.74174 H 25.118862 l 0.606416,12.70276 18.192146,0.39696 z"
       id="path5164"
       inkscape:connector-curvature="0" />
    <path
       style="fill:#66bb6a;fill-opacity:0.78431373;fill-rule:evenodd;stroke-width:0.58909088"
       d="m 126.93879,343.32708 c -6.91381,-0.57896 -12.63484,-1.13952 -12.71339,-1.24571 -0.0785,-0.10618 -1.18978,-3.90433 -2.4694,-8.44033 l -2.32657,-8.24727 -2.48549,-0.18115 c -2.41881,-0.17629 -2.48548,-0.13282 -2.48548,1.62 v 1.80115 h -3.74062 -3.740623 l -0.824835,-3.97637 -0.824835,-3.97636 -2.443013,-0.17818 c -1.938325,-0.14137 -2.514723,-0.44562 -2.790138,-1.47273 -0.596477,-2.22446 -0.398027,-4.89643 0.528329,-7.11352 l 0.891542,-2.13375 h -2.624384 c -2.502306,0 -2.746563,-0.15878 -5.25092,-3.41338 -1.444594,-1.87736 -3.036345,-4.79336 -3.537224,-6.48 l -0.910688,-3.06662 h 4.652848 4.652848 l 0.1754,-9.51197 0.1754,-9.51196 -1.670963,-2.26985 -1.670962,-2.26986 h 4.096336 4.096335 l 2.580397,-7.65818 c 2.464082,-7.31298 2.652747,-7.65818 4.18544,-7.65818 1.74116,0 1.73283,0.0195 4.40488,-10.30909 1.03603,-4.00471 1.12409,-4.12912 3.05323,-4.31377 l 1.98643,-0.19013 -0.39662,-2.75532 c -1.28797,-8.94751 -1.20971,-9.90077 1.71701,-20.91414 l 2.79047,-10.50062 -1.68781,-1.78113 -1.68781,-1.78114 -7.65818,0.4035 c -5.012866,0.26411 -7.454697,0.20371 -7.069093,-0.17485 0.324,-0.31809 9.337093,-6.65605 20.029093,-14.08435 10.692,-7.42831 23.72928,-16.58523 28.97174,-20.34872 l 9.53174,-6.8427 0.58139,2.76168 c 0.31976,1.51893 1.83485,9.0576 3.36686,16.7526 l 2.78548,13.99091 h 17.2923 c 9.51077,0 17.32479,0.0663 17.36449,0.14727 0.0397,0.081 0.23852,2.93073 0.44182,6.33273 l 0.36963,6.18545 8.98364,0.16262 8.98363,0.16261 v 19.3301 19.3301 l -1.62,0.78302 c -0.891,0.43066 -2.03053,0.73068 -2.53231,0.66671 -1.34805,-0.17186 -3.11914,2.02327 -5.637,6.98666 -1.2327,2.43 -2.58294,4.63017 -3.00053,4.88927 -0.41759,0.2591 -0.76331,1.18692 -0.76827,2.06182 -0.007,1.19767 -0.14289,1.37911 -0.55078,0.73431 -0.42095,-0.66545 -0.84584,-0.71669 -1.90552,-0.22979 -0.75007,0.34464 -2.90481,1.11015 -4.7883,1.70112 -3.5519,1.11447 -4.86102,2.46692 -4.33499,4.47849 0.16453,0.62912 -0.062,1.83992 -0.50335,2.69065 -1.0148,1.95603 -0.33212,3.36401 2.41779,4.98649 1.1088,0.65421 2.01599,1.6651 2.01599,2.24644 0,1.61 1.78942,2.00265 2.76688,0.60712 1.41815,-2.02469 1.78208,-1.34913 1.57966,2.93226 -0.16993,3.59409 -0.0644,4.12112 0.82198,4.10404 1.45571,-0.028 3.66784,-2.03705 3.66784,-3.33103 0,-2.25861 1.68004,-3.7173 4.30431,-3.7372 1.35864,-0.0103 2.98482,-0.40794 3.61374,-0.88364 1.60744,-1.21581 1.84,-1.12252 2.93047,1.17546 l 0.96822,2.04037 2.02986,-1.00946 c 1.56838,-0.77995 2.03317,-1.37776 2.04437,-2.62945 0.0196,-2.18787 1.50015,-2.10607 2.6654,0.14727 0.50264,0.972 1.14381,1.76728 1.42483,1.76728 0.89475,0 1.24454,-1.81023 0.58714,-3.03859 -1.00176,-1.87181 0.0197,-2.13975 1.32517,-0.34761 1.47856,2.02973 1.99883,2.02955 3.10046,-10e-4 0.58299,-1.07462 0.8868,-1.28901 0.90245,-0.63683 0.0295,1.2295 -1.85346,4.60445 -2.57172,4.60947 -0.29342,0.002 -1.42005,0.67994 -2.50364,1.50643 -3.23147,2.46477 -2.33284,5.56563 0.93797,3.23661 1.8898,-1.34566 2.83793,-0.77917 1.83437,1.09598 -0.72464,1.35401 -5.60993,4.76834 -6.82261,4.76834 -0.46359,0 -0.99627,0.729 -1.18374,1.62 -0.18747,0.891 -0.59785,2.01764 -0.91196,2.50364 -0.31411,0.486 -0.72687,1.34754 -0.91726,1.91454 -0.19038,0.567 -0.84541,1.03091 -1.45562,1.03091 -0.84003,10e-5 -1.10948,-0.4291 -1.10948,-1.76717 0,-1.49182 -0.22928,-1.76727 -1.47103,-1.76727 -1.62624,0 -6.18715,3.74682 -6.18715,5.08278 0,0.62856 -0.55233,0.73373 -2.34656,0.44682 -1.96936,-0.31492 -2.40291,-0.19766 -2.69712,0.7294 -0.1928,0.60755 -0.7634,1.86922 -1.268,2.80371 -0.83719,1.55044 -0.83314,1.74625 0.0462,2.23836 1.55118,0.86809 1.222,2.83711 -0.47431,2.83711 -2.13688,0 -2.39241,1.04301 -0.67603,2.7594 1.91364,1.91365 2.18504,5.18769 0.38259,4.61562 -0.78354,-0.24868 -1.33858,0.004 -1.76727,0.80521 -1.07185,2.00278 -0.69659,3.58624 1.34909,5.69261 1.51224,1.5571 2.4582,2.03261 4.0436,2.03261 1.90462,0 2.14881,-0.20755 3.06422,-2.6045 0.54707,-1.43248 1.36131,-2.9088 1.80944,-3.28071 0.44812,-0.37191 0.99991,-1.51914 1.22619,-2.54941 0.90706,-4.12979 8.74499,-10.69344 11.05047,-9.2539 0.81032,0.50597 1.28263,0.50193 1.90705,-0.0163 1.00524,-0.83428 2.61224,-0.324 2.61224,0.82949 0,0.4589 -0.65721,1.26499 -1.46046,1.7913 -0.80326,0.52631 -1.87043,1.74971 -2.3715,2.71866 -0.80292,1.55268 -1.21965,1.76173 -3.51203,1.76173 -3.02954,0 -3.99398,0.92814 -1.82236,1.75379 1.65083,0.62765 2.04327,1.78075 0.60605,1.78075 -1.15241,0 -1.76751,1.56046 -0.98983,2.51114 0.40051,0.4896 0.40319,1.83926 0.008,4.11149 l -0.58807,3.38262 -34.84588,0.15192 -34.84584,0.15189 -0.16597,6.92182 -0.16596,6.92182 -2.1904,-0.0797 c -1.20472,-0.0439 -7.84715,-0.55344 -14.76097,-1.13239 z"
       id="path4766"
       inkscape:connector-curvature="0"
       transform="translate(-171.15709,46.495692)" />
    <path
       style="fill:#66bb6a;fill-opacity:0.78431373;fill-rule:evenodd;stroke-width:0.03125"
       d="m 198.23235,274.53255 c -0.052,-0.0438 -0.13393,-0.15978 -0.18205,-0.25782 -0.16484,-0.33581 -0.10472,-0.63933 0.22084,-1.11479 0.17988,-0.26271 0.19947,-0.33506 0.24134,-0.89159 0.0398,-0.52873 0.20299,-1.2262 0.39219,-1.67597 0.10763,-0.25585 0.11672,-0.30117 0.11832,-0.58965 9.4e-4,-0.17188 -0.0108,-0.51763 -0.0261,-0.76835 -0.0274,-0.44978 -0.0268,-0.45809 0.051,-0.625 0.0434,-0.093 0.16144,-0.26373 0.26243,-0.37932 0.20147,-0.2306 0.47278,-0.69831 0.58118,-1.00189 0.0646,-0.18103 0.0701,-0.25821 0.0805,-1.13906 l 0.0112,-0.94487 0.0908,0.047 c 0.13344,0.069 0.28859,0.23486 0.4669,0.49911 0.27807,0.41208 0.39818,0.4198 0.48441,0.0311 0.0114,-0.0516 0.0326,-0.36797 0.0471,-0.70313 0.0349,-0.81069 0.14633,-1.30354 0.39206,-1.73437 0.12823,-0.22484 0.17125,-0.27573 0.36893,-0.43652 0.52672,-0.42842 1.61011,-2.20246 3.08746,-5.05569 0.57799,-1.11628 0.68158,-1.30678 0.68215,-1.25439 5.4e-4,0.0499 -0.22676,0.64795 -0.33822,0.88983 -0.0521,0.11315 -0.15265,0.39411 -0.22334,0.62436 -0.0707,0.23024 -0.17626,0.52438 -0.23459,0.65364 -0.0583,0.12926 -0.17133,0.4108 -0.2511,0.62564 -0.29298,0.78913 -0.33742,0.85827 -0.92375,1.4375 -0.6512,0.64331 -0.69982,0.73217 -0.7447,1.36106 -0.0176,0.24713 -0.037,0.33679 -0.0885,0.40901 -0.0906,0.12719 -0.31624,0.24307 -0.666,0.34197 -0.1623,0.0459 -0.3281,0.11329 -0.36844,0.14976 -0.16919,0.15298 -0.28408,0.53737 -0.28602,0.95695 -0.002,0.36513 -0.0531,0.76936 -0.14062,1.10631 -0.0441,0.16963 -0.1155,0.47879 -0.15873,0.687 -0.10913,0.52566 -0.17963,0.72454 -0.36329,1.02487 -0.31265,0.51126 -0.3369,0.58919 -0.59146,1.90057 l -0.13042,0.67188 0.0352,0.64062 c 0.0332,0.60345 0.0184,0.99894 -0.0438,1.17188 -0.0124,0.0344 -0.0972,0.19609 -0.18846,0.35937 -0.21614,0.38659 -0.24383,0.47098 -0.35737,1.08935 -0.11063,0.60253 -0.17924,0.77246 -0.46864,1.16065 -0.10892,0.1461 -0.25277,0.36043 -0.31968,0.4763 -0.19631,0.33994 -0.33708,0.40957 -0.51882,0.25665 z"
       id="path5311"
       inkscape:connector-curvature="0"
       transform="translate(-171.15709,46.495692)" />
    <path
       style="fill:#66bb6a;fill-opacity:0.78431373;fill-rule:evenodd;stroke-width:0.03125"
       d="m 195.52523,266.55175 c 1.32829,-0.44907 2.39137,-0.8426 3.11443,-1.1529 0.19488,-0.0836 0.39651,-0.16807 0.44807,-0.18764 0.13527,-0.0514 0.48675,-0.12957 0.57813,-0.12864 0.077,7.8e-4 0.0768,0.002 -0.0156,0.0509 -0.24371,0.13019 -0.70066,0.51569 -1.04472,0.88136 -0.30852,0.32791 -0.42154,0.42576 -0.60485,0.52372 l -0.22543,0.12046 -0.375,-4.7e-4 c -0.20625,-2.6e-4 -0.58594,-0.0124 -0.84375,-0.027 -0.50892,-0.0288 -0.87265,-8.7e-4 -1.38688,0.10651 -0.16222,0.0339 -0.31029,0.0605 -0.32903,0.0592 -0.0188,-0.001 0.28935,-0.11178 0.68466,-0.24543 z"
       id="path5313"
       inkscape:connector-curvature="0"
       transform="translate(-171.15709,46.495692)" />
    <path
       style="fill:#66bb6a;fill-opacity:0.78431373;fill-rule:evenodd;stroke-width:0.03125"
       d="m 191.68106,267.95027 c 0.54342,-0.27541 1.10779,-0.49751 2.06116,-0.81116 0.4631,-0.15235 0.85652,-0.27701 0.87428,-0.27701 0.0396,0 -0.57932,0.3461 -0.76763,0.42925 -0.0749,0.0331 -0.23458,0.09 -0.35489,0.12653 -0.15714,0.0477 -0.30469,0.12776 -0.52391,0.28421 -0.28305,0.20203 -0.45977,0.28575 -0.69484,0.32919 -0.0994,0.0184 -0.91357,0.1132 -0.94828,0.11045 -0.0113,-8.9e-4 0.14809,-0.087 0.35411,-0.19146 z"
       id="path5315"
       inkscape:connector-curvature="0"
       transform="translate(-171.15709,46.495692)" />
    <path
       style="fill:#66bb6a;fill-opacity:0.78431373;fill-rule:evenodd;stroke-width:0.03125"
       d="m 193.34458,281.17745 c -0.18132,-0.51248 -0.91949,-1.27594 -1.73471,-1.79416 -1.32916,-0.84493 -1.70628,-1.12543 -2.18185,-1.62289 -0.83487,-0.87329 -1.0638,-1.72548 -0.74061,-2.75693 0.0432,-0.13791 0.16982,-0.44675 0.28135,-0.68633 0.36834,-0.79121 0.53244,-1.40399 0.5612,-2.09566 0.0144,-0.34718 0.007,-0.44942 -0.0516,-0.70313 -0.23965,-1.03863 -0.024,-1.81533 0.70912,-2.55406 0.17517,-0.17652 0.33378,-0.32094 0.35246,-0.32094 0.0187,0 -0.0558,0.10899 -0.16562,0.24219 -0.42232,0.51248 -0.79338,1.03024 -0.84621,1.18078 -0.073,0.20794 -0.10053,0.73723 -0.0515,0.98939 0.0212,0.1088 0.12684,0.38592 0.23603,0.61889 0.21701,0.46298 0.25322,0.57423 0.29487,0.90597 0.0643,0.51183 -0.0584,0.8473 -0.46283,1.26531 -0.21489,0.22213 -0.29087,0.32501 -0.34305,0.46445 -0.0369,0.0985 -0.067,0.19321 -0.067,0.21044 0,0.0523 -0.12095,0.2723 -0.26699,0.48563 -0.19761,0.28863 -0.24591,0.48032 -0.22334,0.88632 0.0218,0.39193 0.0742,0.58056 0.26332,0.94812 0.17036,0.33105 0.34112,0.5238 0.80146,0.90464 0.19108,0.15808 0.46695,0.39839 0.61305,0.534 0.46911,0.43548 0.62497,0.51384 1.07827,0.5421 l 0.28139,0.0175 0.0761,0.17245 c 0.10813,0.24502 0.28542,0.45602 0.45019,0.53578 0.0857,0.0415 0.24809,0.0792 0.41531,0.0965 0.38097,0.0393 0.47882,0.11091 0.67529,0.49419 l 0.14844,0.28958 -0.002,0.33445 c -9.9e-4,0.18395 -0.0115,0.38806 -0.0234,0.45358 l -0.0216,0.11913 -0.0556,-0.15729 z"
       id="path5317"
       inkscape:connector-curvature="0"
       transform="translate(-171.15709,46.495692)" />
    <path
       style="fill:#66bb6a;fill-opacity:0.78431373;fill-rule:evenodd;stroke-width:0.03125"
       d="m 197.80873,282.48099 c -0.0439,-0.78202 -0.15573,-1.26947 -0.32094,-1.39942 -0.10395,-0.0818 -0.27649,-0.0812 -0.412,10e-4 -0.0963,0.0587 -0.10332,0.0594 -0.079,0.008 0.0147,-0.0312 0.0272,-0.17381 0.0278,-0.3169 0.001,-0.30917 0.007,-0.31501 0.34097,-0.34026 0.30909,-0.0234 0.41748,0.0183 0.61894,0.23799 0.32334,0.35259 0.45459,0.65581 0.41383,0.95603 -0.0487,0.35895 -0.27639,0.89762 -0.47954,1.13466 l -0.0885,0.10327 z"
       id="path5331"
       inkscape:connector-curvature="0"
       transform="translate(-171.15709,46.495692)" />
    <path
       style="fill:#66bb6a;fill-opacity:0.78431373;fill-rule:evenodd;stroke-width:0.03125"
       d="m 197.71151,287.72059 c -0.0248,-0.26309 -0.0117,-0.90899 0.0522,-2.58277 l 0.039,-1.02116 0.16273,0.14873 c 0.0895,0.0818 0.30565,0.25076 0.48033,0.37547 0.30952,0.22099 0.31707,0.22927 0.29665,0.32556 -0.0362,0.17095 -0.20267,0.58332 -0.41193,1.02068 -0.26437,0.55255 -0.30707,0.68031 -0.36787,1.10067 -0.0567,0.39221 -0.12496,0.68598 -0.18673,0.80388 -0.0378,0.0722 -0.0427,0.0594 -0.0644,-0.17106 z"
       id="path5333"
       inkscape:connector-curvature="0"
       transform="translate(-171.15709,46.495692)" />
    <path
       style="fill:#66bb6a;fill-opacity:0.78431373;fill-rule:evenodd;stroke-width:0.03125"
       d="m 195.72876,282.52617 c 2.2e-4,-0.0129 0.029,-0.11485 0.064,-0.22657 0.0746,-0.23856 0.17342,-0.35108 0.56423,-0.64279 0.28793,-0.21493 0.36934,-0.25374 0.24124,-0.11502 -0.0436,0.0473 -0.18889,0.2336 -0.32278,0.41406 -0.32248,0.4347 -0.54837,0.67036 -0.54665,0.57032 z"
       id="path5335"
       inkscape:connector-curvature="0"
       transform="translate(-171.15709,46.495692)" />
    <path
       style="fill:#66bb6a;fill-opacity:0.78431373;fill-rule:evenodd;stroke-width:0.03125"
       d="m 194.45982,282.92365 c -0.18463,-0.0366 -0.34234,-0.10835 -0.5121,-0.23297 -0.15111,-0.11093 -0.3514,-0.37384 -0.3931,-0.51603 -0.0211,-0.0719 -0.0126,-0.0687 0.10845,0.0406 0.16435,0.14848 0.36709,0.27853 0.83685,0.53678 l 0.36906,0.20289 -0.14062,-0.003 c -0.0773,-0.002 -0.19819,-0.0144 -0.26854,-0.0283 z"
       id="path5337"
       inkscape:connector-curvature="0"
       transform="translate(-171.15709,46.495692)" />
    <path
       style="fill:#66bb6a;fill-opacity:0.78431373;fill-rule:evenodd;stroke-width:0.03125"
       d="m 198.3195,289.11428 c -0.12736,-0.0249 -0.34114,-0.14745 -0.34114,-0.19557 0,-0.0186 0.023,-0.0222 0.0547,-0.009 0.0301,0.0128 0.1766,0.03 0.32559,0.0383 0.36251,0.0201 0.67311,-0.0503 1.08848,-0.24663 0.4291,-0.20279 0.53028,-0.27575 0.77311,-0.55744 0.54789,-0.63556 0.66435,-0.71777 1.01836,-0.71891 l 0.21336,-6.9e-4 -0.14046,0.16407 c -0.17828,0.20825 -0.60257,0.57657 -0.95247,0.82684 -0.72434,0.51807 -1.53792,0.79682 -2.03951,0.69877 z"
       id="path5339"
       inkscape:connector-curvature="0"
       transform="translate(-171.15709,46.495692)" />
    <path
       style="fill:#66bb6a;fill-opacity:0.78431373;fill-rule:evenodd;stroke-width:0.03125"
       d="m 201.94892,286.4246 c -0.002,-0.16328 -0.0168,-0.47682 -0.0329,-0.69676 -0.0187,-0.25594 -0.0183,-0.45841 0.001,-0.5625 0.0556,-0.29698 0.47057,-1.0675 0.97607,-1.81255 0.14229,-0.20972 0.33565,-0.52153 0.42969,-0.6929 0.20351,-0.37086 0.47843,-0.67033 0.70554,-0.76852 0.24565,-0.10622 0.56371,-0.16181 0.79357,-0.13872 0.11171,0.0112 0.42812,0.0702 0.70312,0.13102 0.43299,0.0958 0.57748,0.11331 1.07813,0.13073 l 0.57812,0.0201 -0.57812,0.0246 c -1.09711,0.0467 -1.74574,0.19001 -2.4375,0.53839 -0.70895,0.35703 -1.22978,0.8768 -1.56538,1.56217 -0.19448,0.39716 -0.30325,0.8226 -0.34338,1.34302 -0.0433,0.5612 -0.0805,0.74665 -0.20073,1 l -0.10382,0.21875 z"
       id="path5341"
       inkscape:connector-curvature="0"
       transform="translate(-171.15709,46.495692)" />
    <path
       style="fill:#66bb6a;fill-opacity:0.78431373;fill-rule:evenodd;stroke-width:0.03125"
       d="m 213.16881,282.49508 c -0.84248,-1.7744 -1.16739,-2.16802 -1.70638,-2.06733 -0.27614,0.0516 -0.49038,0.16944 -1.09342,0.60148 -0.18905,0.13544 -0.45029,0.29983 -0.58052,0.36532 -0.25012,0.12575 -0.88999,0.35239 -0.94405,0.33438 -0.0669,-0.0223 0.24773,-0.21187 0.53609,-0.32303 0.28618,-0.11033 0.31475,-0.13009 0.5822,-0.40275 0.15469,-0.1577 0.42891,-0.38997 0.60938,-0.51616 0.18046,-0.12618 0.39755,-0.28676 0.48241,-0.35684 0.14585,-0.12044 0.16553,-0.12742 0.35938,-0.12742 0.2612,0 0.49103,0.1072 0.75622,0.35271 0.16353,0.1514 0.2203,0.23778 0.42422,0.64542 0.26568,0.53109 0.37648,0.70899 0.60232,0.96707 0.20852,0.23828 0.24436,0.31476 0.2828,0.60345 0.0179,0.13412 0.0462,0.34792 0.0631,0.47511 0.0168,0.1272 0.0256,0.23625 0.0195,0.24235 -0.006,0.006 -0.18305,-0.3511 -0.39323,-0.79376 z"
       id="path5343"
       inkscape:connector-curvature="0"
       transform="translate(-171.15709,46.495692)" />
    <path
       style="fill:#66bb6a;fill-opacity:0.78431373;fill-rule:evenodd;stroke-width:0.03125"
       d="m 213.86887,283.9677 c -0.11166,-0.23499 -0.20301,-0.43475 -0.20301,-0.44392 0,-0.009 0.0477,0.039 0.10597,0.10713 0.21352,0.24945 0.56631,0.3669 0.89219,0.29701 0.39092,-0.0838 0.68465,-0.31003 1.09565,-0.84373 0.22729,-0.29515 0.44373,-0.47296 0.66645,-0.54751 0.083,-0.0278 0.33611,-0.0797 0.5625,-0.11535 0.22639,-0.0357 0.47355,-0.0919 0.54925,-0.12491 0.0757,-0.033 0.14276,-0.055 0.14902,-0.0487 0.006,0.006 -0.0838,0.10662 -0.20014,0.22304 -0.33583,0.33606 -0.77093,0.59716 -2.14131,1.28498 l -1.27355,0.63922 z"
       id="path5345"
       inkscape:connector-curvature="0"
       transform="translate(-171.15709,46.495692)" />
    <path
       style="fill:#66bb6a;fill-opacity:0.78431373;fill-rule:evenodd;stroke-width:0.03125"
       d="m 221.56977,282.1068 c -0.19974,-0.25062 -0.49423,-0.71392 -0.73159,-1.15095 -0.63707,-1.17296 -1.21534,-1.74432 -1.79673,-1.77522 -0.24965,-0.0133 -0.4327,0.071 -0.58391,0.26878 -0.18882,0.247 -0.31944,0.73117 -0.3221,1.19394 -0.002,0.35588 -0.0553,0.75026 -0.13359,0.98871 l -0.0704,0.21442 -0.0205,-0.42188 c -0.0113,-0.23203 -0.0308,-0.84396 -0.0432,-1.35984 l -0.0227,-0.93797 0.56029,-0.11839 c 0.96445,-0.20381 1.25373,-0.21818 1.57857,-0.0784 0.2907,0.12506 0.42519,0.35322 0.60524,1.02678 0.17808,0.6662 0.21668,0.74435 0.61156,1.23797 0.11813,0.14766 0.2558,0.34066 0.30594,0.42887 0.0944,0.16603 0.24134,0.60433 0.21235,0.63331 -0.009,0.009 -0.0762,-0.0585 -0.14921,-0.15009 z"
       id="path5347"
       inkscape:connector-curvature="0"
       transform="translate(-171.15709,46.495692)" />
    <path
       style="fill:#66bb6a;fill-opacity:0.78431373;fill-rule:evenodd;stroke-width:0.03125"
       d="m 222.5171,282.52617 c 0.10221,-0.10753 0.28018,-0.46019 0.36527,-0.72381 0.10681,-0.33094 0.13723,-0.58162 0.11771,-0.97001 -0.029,-0.57774 -0.13689,-0.87836 -0.5758,-1.60486 -0.26836,-0.4442 -0.3505,-0.64773 -0.35143,-0.8708 -6.1e-4,-0.14642 0.0136,-0.19427 0.0813,-0.27481 0.21614,-0.25687 0.69881,-0.33503 1.3242,-0.21443 0.22917,0.0442 0.37136,0.12034 0.50885,0.27252 0.1615,0.17877 0.24732,0.36411 0.44282,0.9563 0.21349,0.64673 0.28943,0.79064 0.55544,1.05266 0.25965,0.25575 0.4947,0.37822 0.75808,0.39499 0.32034,0.0204 0.55059,-0.11531 0.77887,-0.45906 0.25812,-0.38868 0.40718,-0.81835 0.65555,-1.88968 0.15853,-0.68385 0.22428,-0.86474 0.3424,-0.94214 0.0746,-0.0489 0.0875,-0.0481 0.22643,0.0133 0.17599,0.0778 0.48897,0.32863 0.75204,0.60259 0.16657,0.17346 0.19611,0.22284 0.22947,0.38354 0.0696,0.33537 -0.0223,0.9011 -0.25942,1.59666 -0.23182,0.68002 -0.41337,1.01373 -0.62801,1.15437 -0.0767,0.0503 -0.52284,0.20867 -0.53983,0.19168 -0.006,-0.006 0.082,-0.20418 0.19498,-0.44089 0.57402,-1.20228 0.80095,-2.15353 0.57911,-2.42749 -0.0549,-0.0678 -0.0556,-0.0679 -0.15665,-0.009 -0.14074,0.0825 -0.35278,0.38142 -0.67406,0.95013 -0.37169,0.65793 -0.58199,0.97544 -0.79207,1.19586 -0.59827,0.6277 -1.10393,0.40451 -2.12193,-0.9366 -0.21026,-0.277 -0.46915,-0.60357 -0.57531,-0.7257 -0.44163,-0.50808 -0.94021,-0.80027 -1.19724,-0.70164 -0.14069,0.054 -0.18281,0.39069 -0.0928,0.7417 0.0271,0.1056 0.14503,0.39592 0.26209,0.64513 0.11706,0.24922 0.23559,0.52374 0.26339,0.61005 0.14597,0.45317 0.18569,1.08919 0.0961,1.53971 -0.0647,0.32545 -0.2603,0.72118 -0.42703,0.86389 -0.15822,0.13543 -0.26531,0.15451 -0.1426,0.0254 z"
       id="path5349"
       inkscape:connector-curvature="0"
       transform="translate(-171.15709,46.495692)" />
    <path
       style="fill:#66bb6a;fill-opacity:0.78431373;fill-rule:evenodd;stroke-width:0.03125"
       d="m 221.10399,287.49821 c -0.002,-0.19346 0.24264,-0.77693 0.48293,-1.15257 0.45667,-0.71389 1.26748,-1.45794 2.43081,-2.23065 0.7673,-0.50966 1.22198,-0.75663 1.51954,-0.82537 0.10525,-0.0243 0.24848,-0.0838 0.31827,-0.13216 0.24128,-0.1672 0.61053,-0.61736 0.95363,-1.16258 l 0.17205,-0.2734 -0.0165,0.28125 c -0.009,0.15469 -0.0243,0.44571 -0.0339,0.64671 -0.0199,0.41958 -0.08,0.66049 -0.19491,0.78225 -0.14038,0.14873 -0.24229,0.16473 -0.98503,0.15462 -0.6654,-0.009 -0.68416,-0.008 -0.84375,0.0669 -0.35889,0.16751 -0.66866,0.42826 -1.80745,1.52137 -1.43187,1.37444 -1.59099,1.55499 -1.8591,2.10938 -0.0748,0.15469 -0.1363,0.25109 -0.13666,0.21423 z"
       id="path5351"
       inkscape:connector-curvature="0"
       transform="translate(-171.15709,46.495692)" />
    <path
       style="fill:#66bb6a;fill-opacity:0.78431373;fill-rule:evenodd;stroke-width:0.03125"
       d="m 214.14535,301.45653 c -0.47691,-0.10159 -0.7932,-0.42736 -0.92987,-0.95776 -0.0788,-0.30571 -0.11098,-0.7276 -0.11182,-1.46479 -8.5e-4,-0.75502 -0.03,-1.02269 -0.13438,-1.23275 -0.0973,-0.19594 -0.20152,-0.26187 -0.43657,-0.27629 -0.23068,-0.0141 -0.81993,0.10765 -1.57638,0.32583 -0.27148,0.0783 -0.52172,0.14826 -0.5561,0.15548 -0.13473,0.0283 0.74948,-0.3912 0.99212,-0.47067 0.45333,-0.14847 1.13362,-0.14078 1.49052,0.0169 0.41435,0.183 0.51274,0.48037 0.54706,1.65342 0.0316,1.08133 0.15085,1.43179 0.55656,1.63621 0.1377,0.0694 0.23509,0.0929 0.43614,0.10543 0.46265,0.0288 0.89164,-0.13999 1.23888,-0.48736 0.19104,-0.1911 0.28526,-0.35831 0.46024,-0.81678 0.16659,-0.43651 0.47363,-1.06477 0.74798,-1.5305 0.39065,-0.6632 0.70498,-1.48594 0.93974,-2.45976 0.0602,-0.24962 0.14449,-0.54729 0.18736,-0.66149 0.15556,-0.4144 0.46836,-0.8515 0.72115,-1.00774 0.06,-0.0371 0.19964,-0.0771 0.32324,-0.0926 0.30971,-0.0389 0.63374,-0.15461 1.17151,-0.4184 1.764,-0.86527 4.50796,-2.90357 5.38808,-4.00241 0.21542,-0.26896 0.40482,-0.62672 0.53845,-1.01706 0.12801,-0.37397 0.14463,-0.75771 0.0405,-0.935 -0.15707,-0.26738 -0.49743,-0.3203 -0.99365,-0.1545 -0.35236,0.11773 -0.61073,0.2578 -1.21834,0.66049 -1.10961,0.7354 -1.87376,0.95593 -2.413,0.69639 -0.15919,-0.0766 -0.38267,-0.27299 -0.24827,-0.21815 0.23402,0.0955 0.52926,0.14246 0.9375,0.14918 0.41357,0.007 0.4469,0.003 0.60938,-0.0738 0.28339,-0.13357 0.66194,-0.44383 1.30907,-1.07294 0.71563,-0.69569 0.87312,-0.80054 1.23609,-0.82297 0.28227,-0.0174 0.51503,0.0654 0.73189,0.26033 0.30767,0.27663 0.43222,0.61863 0.39751,1.09159 -0.0284,0.38678 -0.12331,0.71678 -0.28935,1.00582 -0.22971,0.39988 -0.3713,0.69757 -0.46091,0.96903 -0.12547,0.38007 -0.23797,0.48394 -1.25646,1.16008 -0.36316,0.24109 -0.73468,0.50441 -0.82561,0.58516 -0.23574,0.20938 -0.44946,0.33874 -0.90634,0.54861 -0.82628,0.37955 -1.08322,0.57311 -1.81117,1.36436 -0.43878,0.47692 -0.57509,0.55516 -1.0466,0.60074 -0.17187,0.0166 -0.47518,0.0306 -0.67401,0.031 -0.67367,0.001 -0.97156,0.16905 -1.15394,0.64903 -0.0712,0.18739 -0.12714,0.51348 -0.22294,1.29957 -0.0695,0.56989 -0.0701,0.59646 -0.0191,0.84375 0.0365,0.17726 0.1161,0.38523 0.26025,0.68019 0.14418,0.29504 0.20138,0.44453 0.18718,0.48926 -0.0362,0.11422 -0.24456,0.16888 -0.73683,0.19335 -0.5288,0.0263 -0.62667,0.0622 -0.85152,0.31226 -0.23878,0.26558 -0.42026,0.69444 -0.64889,1.53339 -0.1119,0.41061 -0.15829,0.49777 -0.37056,0.69633 -0.36418,0.34065 -1.09843,0.55803 -1.55579,0.4606 z"
       id="path5353"
       inkscape:connector-curvature="0"
       transform="translate(-171.15709,46.495692)" />
    <path
       style="fill:#66bb6a;fill-opacity:0.78431373;fill-rule:evenodd;stroke-width:0.03125"
       d="m 204.72836,303.37075 c -0.0602,-0.007 -0.46797,-0.0848 -0.90625,-0.17315 l -0.79688,-0.16055 -0.78125,-0.002 c -0.84642,-0.002 -0.96648,0.0168 -1.21746,0.1871 -0.15471,0.10499 -0.13784,0.0465 0.039,-0.13497 0.22734,-0.2334 0.37327,-0.2731 0.99099,-0.26955 0.40302,0.002 0.6485,0.0249 1.26563,0.11646 0.99236,0.14724 1.42872,0.18896 1.72413,0.16483 0.37208,-0.0304 0.59012,-0.12949 0.68906,-0.31315 0.0178,-0.0331 0.0442,-0.16461 0.0585,-0.29218 0.0578,-0.51558 0.44744,-1.08694 1.36986,-2.00885 0.54261,-0.54231 1.22256,-1.14884 1.32488,-1.18182 0.0202,-0.007 -0.31538,0.34505 -0.74574,0.78125 -0.8586,0.87025 -1.04708,1.11118 -1.3651,1.74497 -0.0988,0.19698 -0.25279,0.58324 -0.34211,0.85837 -0.17492,0.53877 -0.21799,0.60625 -0.42686,0.66884 -0.11394,0.0341 -0.63367,0.0424 -0.88033,0.0139 z"
       id="path5355"
       inkscape:connector-curvature="0"
       transform="translate(-171.15709,46.495692)" />
    <path
       style="fill:#66bb6a;fill-opacity:0.78431373;fill-rule:evenodd;stroke-width:0.03125"
       d="m 199.21273,311.58085 c -0.26851,-0.0186 -0.27205,-0.0197 -0.0781,-0.0257 0.88559,-0.0274 1.48674,-0.69593 1.37295,-1.52692 -0.0701,-0.51171 -0.43512,-0.99784 -1.00205,-1.33444 -0.39951,-0.2372 -0.54117,-0.3626 -0.60837,-0.53854 -0.10223,-0.26769 0.008,-0.58329 0.58008,-1.66599 0.37779,-0.71456 0.68975,-1.37037 0.98956,-2.08027 l 0.19797,-0.46875 1e-5,0.3125 c 3e-5,0.67431 -0.0991,1.19973 -0.29763,1.57753 -0.0593,0.11295 -0.31112,0.4762 -0.55948,0.80724 -0.24836,0.33104 -0.50842,0.71551 -0.57793,0.85437 -0.29912,0.59763 -0.0994,0.88162 0.80552,1.14548 0.17737,0.0517 0.35176,0.11993 0.38753,0.15158 0.14901,0.13187 0.2831,0.53825 0.47782,1.44817 0.046,0.21485 0.12447,0.49365 0.17443,0.61955 0.1021,0.2573 0.11377,0.39631 0.0419,0.49892 -0.0675,0.0964 -0.24653,0.18194 -0.46561,0.22244 -0.19097,0.0353 -0.94734,0.0368 -1.43858,0.003 z"
       id="path5357"
       inkscape:connector-curvature="0"
       transform="translate(-171.15709,46.495692)" />
    <path
       style="fill:#66bb6a;fill-opacity:0.78431373;fill-rule:evenodd;stroke-width:0.03125"
       d="m 199.82413,316.79124 c -0.0699,-0.28021 -0.34056,-0.93129 -0.51642,-1.24203 -0.25434,-0.44941 -0.51858,-0.80278 -0.91676,-1.22601 -0.37062,-0.39393 -0.67737,-0.76173 -0.80841,-0.96933 -0.11401,-0.1806 -0.2606,-0.47874 -0.25905,-0.52688 7.6e-4,-0.0237 0.0282,0.008 0.0609,0.0696 0.086,0.16277 0.35998,0.39975 0.6275,0.54282 0.31739,0.16974 0.77604,0.63187 1.32842,1.33854 0.60219,0.77038 0.568,0.71616 0.59182,0.93861 0.0177,0.16511 -0.0316,1.20265 -0.0584,1.22946 -0.005,0.005 -0.0271,-0.0648 -0.0495,-0.15474 z"
       id="path5359"
       inkscape:connector-curvature="0"
       transform="translate(-171.15709,46.495692)" />
    <path
       style="fill:#66bb6a;fill-opacity:0.78431373;fill-rule:evenodd;stroke-width:0.03125"
       d="m 197.27334,312.65724 c -0.0543,-0.36218 0.0527,-0.62595 0.32375,-0.79793 0.15833,-0.10045 0.46776,-0.20701 0.67467,-0.23232 l 0.12847,-0.0157 -0.15625,0.0584 c -0.27837,0.10404 -0.48937,0.22586 -0.64773,0.37399 -0.20782,0.1944 -0.27939,0.34152 -0.27828,0.57213 4.8e-4,0.1011 -0.005,0.18382 -0.0112,0.18382 -0.007,0 -0.0217,-0.0641 -0.0334,-0.14236 z"
       id="path5363"
       inkscape:connector-curvature="0"
       transform="translate(-171.15709,46.495692)" />
    <path
       style="fill:#66bb6a;fill-opacity:0.78431373;fill-rule:evenodd;stroke-width:0.03125"
       d="m 198.90023,319.65392 c -0.0516,-0.0272 -0.2287,-0.18113 -0.39364,-0.34209 -0.3241,-0.31628 -0.47549,-0.40408 -0.64266,-0.37271 -0.14699,0.0276 -0.12998,-0.005 0.0243,-0.0467 0.19876,-0.0535 0.52621,-0.04 0.81346,0.0336 0.4877,0.12497 0.77199,0.0732 0.99613,-0.18145 0.16255,-0.18467 0.24735,-0.45751 0.27139,-0.87311 l 0.0184,-0.3188 0.0934,0.11567 c 0.27959,0.34638 0.33775,0.75729 0.16021,1.13192 -0.12203,0.25751 -0.39002,0.54828 -0.69065,0.74935 -0.20661,0.13819 -0.25233,0.15613 -0.39509,0.15502 -0.0888,-6.8e-4 -0.20364,-0.0235 -0.2552,-0.0507 z"
       id="path5365"
       inkscape:connector-curvature="0"
       transform="translate(-171.15709,46.495692)" />
    <path
       style="fill:#66bb6a;fill-opacity:0.78431373;fill-rule:evenodd;stroke-width:0.03125"
       d="m 196.42001,321.63964 c -0.01,-0.42052 0.1515,-1.01962 0.43549,-1.61601 0.2185,-0.45887 0.4148,-0.74412 0.62809,-0.91272 0.20349,-0.16085 0.25752,-0.15919 0.0906,0.003 -0.18783,0.18228 -0.39836,0.51973 -0.68616,1.09978 -0.27541,0.5551 -0.39426,0.91864 -0.43682,1.33614 -0.0244,0.2396 -0.0275,0.24842 -0.0312,0.09 z"
       id="path5367"
       inkscape:connector-curvature="0"
       transform="translate(-171.15709,46.495692)" />
    <path
       style="fill:#66bb6a;fill-opacity:0.78431373;fill-rule:evenodd;stroke-width:0.03125"
       d="m 199.29161,326.30723 c -0.40383,-0.33707 -1.08525,-1.01261 -1.44194,-1.4295 -0.3081,-0.36009 -0.62487,-0.77249 -0.60705,-0.79031 0.007,-0.007 0.0871,0.0442 0.17866,0.11305 0.0916,0.0689 0.27895,0.18493 0.41645,0.25787 0.45239,0.24 0.56918,0.36448 1.29442,1.37955 0.22441,0.3141 0.43747,0.60976 0.47347,0.65703 0.11234,0.1475 0.0251,0.0954 -0.31401,-0.18769 z"
       id="path5369"
       inkscape:connector-curvature="0"
       transform="translate(-171.15709,46.495692)" />
    <path
       style="fill:#66bb6a;fill-opacity:0.78431373;fill-rule:evenodd;stroke-width:0.03125"
       d="m 204.51526,326.75273 c 0.006,-0.0172 0.0684,-0.15078 0.1395,-0.29688 0.16789,-0.34509 0.29567,-0.75103 0.43475,-1.38116 0.14376,-0.65132 0.21941,-0.87489 0.45529,-1.34552 0.43758,-0.87303 0.74093,-1.34604 1.1336,-1.76761 0.53674,-0.57624 0.82837,-0.98129 1.11782,-1.55258 0.27031,-0.5335 0.30531,-0.67047 0.47817,-1.87137 0.15212,-1.05674 0.26736,-1.39274 0.69899,-2.03804 0.25814,-0.38591 0.57157,-0.74014 1.25536,-1.41872 0.32041,-0.31796 0.80648,-0.83824 1.08015,-1.15617 0.27368,-0.31792 0.65284,-0.7398 0.84259,-0.9375 0.18975,-0.1977 0.48055,-0.51514 0.64622,-0.70543 0.43382,-0.49828 0.63852,-0.65131 1.44628,-1.08117 0.24063,-0.12806 0.67488,-0.38489 0.96502,-0.57075 0.29014,-0.18586 0.78935,-0.47488 1.10938,-0.64227 0.32002,-0.16738 0.91935,-0.49006 1.33185,-0.71706 0.74871,-0.41201 0.75031,-0.4127 0.92868,-0.40083 0.22633,0.0151 0.37534,0.11428 0.86912,0.57863 0.48323,0.45443 0.66055,0.57432 0.93658,0.63326 l 0.10937,0.0234 -0.0955,0.004 c -0.14317,0.005 -0.4435,-0.10645 -0.7368,-0.27437 -0.40068,-0.2294 -0.54356,-0.26906 -0.96458,-0.26771 -0.41148,10e-4 -0.67923,0.0538 -1.21313,0.23794 -2.42385,0.83577 -5.98549,3.86679 -7.8343,6.66711 -0.61095,0.92539 -0.95062,1.65402 -1.18588,2.54394 -0.17668,0.66827 -0.32515,1.09084 -0.53403,1.51984 -0.23228,0.47708 -0.3859,0.70512 -0.68374,1.01498 -0.41121,0.42782 -0.87595,1.18347 -1.34397,2.18529 -0.21112,0.45191 -0.31178,0.69338 -0.62594,1.50157 -0.19061,0.49038 -0.60008,1.34256 -0.70573,1.46875 -0.036,0.043 -0.0608,0.0641 -0.0551,0.0469 z"
       id="path5371"
       inkscape:connector-curvature="0"
       transform="translate(-171.15709,46.495692)" />
    <path
       style="fill:#66bb6a;fill-opacity:0.78431373;fill-rule:evenodd;stroke-width:0.03125"
       d="m 214.47478,320.93242 c 0.0378,-0.0692 0.23854,-0.25829 0.3687,-0.34732 0.16597,-0.11353 0.35247,-0.16331 0.71742,-0.19147 0.57046,-0.044 0.8091,-0.19192 0.80723,-0.50028 -0.001,-0.19791 -0.0892,-0.35875 -0.32571,-0.5955 -0.26887,-0.26912 -0.59114,-0.46464 -1.15743,-0.70222 -0.5329,-0.22357 -0.7469,-0.3394 -0.92252,-0.4993 -0.14977,-0.13636 -0.19866,-0.14744 0.73588,0.1667 0.81319,0.27335 1.19654,0.44209 1.39794,0.61534 0.0735,0.0632 0.25905,0.30061 0.41242,0.52759 0.28983,0.42896 0.51632,0.67266 0.74308,0.79957 0.073,0.0409 0.13282,0.0843 0.13282,0.0965 0,0.0551 -0.3039,0.11846 -1.26233,0.26304 -0.82464,0.12439 -1.24555,0.22122 -1.4816,0.34084 -0.18949,0.096 -0.20524,0.0985 -0.1659,0.0265 z"
       id="path5373"
       inkscape:connector-curvature="0"
       transform="translate(-171.15709,46.495692)" />
    <path
       style="fill:#66bb6a;fill-opacity:0.78431373;fill-rule:evenodd;stroke-width:0.03125"
       d="m 213.795,317.49208 c 0.0606,-0.0971 0.31779,-0.25365 0.54836,-0.33384 0.55094,-0.19159 1.13146,-0.26057 2.49437,-0.29639 0.66575,-0.0175 1.20992,-0.0469 1.39063,-0.0751 0.95068,-0.14835 1.33297,-0.46382 1.95364,-1.61218 0.2689,-0.4975 0.51109,-0.86067 0.87528,-1.3125 0.30263,-0.37544 0.45233,-0.53364 0.45233,-0.47802 0,0.0181 -0.0227,0.0517 -0.0503,0.0747 -0.0277,0.023 -0.19437,0.33056 -0.3704,0.68351 -0.43854,0.87931 -0.73164,1.34568 -1.44768,2.30353 l -0.37535,0.5021 -0.16718,0.0195 c -0.31552,0.0369 -0.98053,0.0794 -1.76093,0.11271 -0.42969,0.0183 -0.82344,0.0409 -0.875,0.0501 -0.0516,0.009 -0.20593,0.037 -0.34305,0.0616 -0.13711,0.0247 -0.55196,0.0667 -0.92187,0.0934 -0.71203,0.0514 -1.05455,0.10618 -1.27811,0.2043 -0.16768,0.0736 -0.16911,0.0736 -0.1247,0.003 z"
       id="path5375"
       inkscape:connector-curvature="0"
       transform="translate(-171.15709,46.495692)" />
    <path
       style="fill:#66bb6a;fill-opacity:0.78431373;fill-rule:evenodd;stroke-width:0.03125"
       d="m 221.54086,313.30417 c 0,-0.0164 0.14205,-0.16122 0.31567,-0.32186 0.29698,-0.27479 0.42833,-0.37958 0.95239,-0.75984 0.47753,-0.34649 0.93954,-0.85881 1.12736,-1.25011 0.19666,-0.40971 0.12665,-0.82284 -0.19906,-1.17464 -0.54364,-0.5872 -1.56365,-0.62415 -2.27449,-0.0824 -0.36915,0.28134 -0.55079,0.36851 -0.85937,0.41243 l -0.14063,0.02 0.0937,-0.0613 c 0.0516,-0.0337 0.20625,-0.17654 0.34375,-0.31737 0.61179,-0.62662 1.05032,-0.84449 1.69985,-0.84449 0.82839,0 1.25299,0.30175 1.42877,1.01536 0.0736,0.29877 0.0917,1.04994 0.0315,1.30496 -0.0714,0.30216 -0.21762,0.56989 -0.43493,0.79619 -0.23085,0.24041 -0.52185,0.43003 -1.11579,0.72707 -0.24922,0.12465 -0.55157,0.29169 -0.67188,0.37121 -0.12031,0.0795 -0.23633,0.15583 -0.25781,0.16958 -0.0215,0.0137 -0.0391,0.0116 -0.0391,-0.005 z"
       id="path5377"
       inkscape:connector-curvature="0"
       transform="translate(-171.15709,46.495692)" />
    <path
       style="fill:#66bb6a;fill-opacity:0.78431373;fill-rule:evenodd;stroke-width:0.03125"
       d="m 178.19711,330.56428 c 4.37421,-0.021 13.87343,-0.0618 21.10937,-0.0906 7.23594,-0.0288 13.48604,-0.0622 13.88912,-0.0741 l 0.73286,-0.0218 0.28909,-1.65625 c 0.49261,-2.82222 0.57527,-3.44626 0.5775,-4.35938 0.002,-0.82958 -0.0615,-1.12436 -0.32916,-1.52649 -0.19765,-0.29701 -0.26564,-0.47567 -0.28721,-0.75476 -0.0154,-0.19953 -0.0148,-0.20174 0.0379,-0.125 0.0295,0.043 0.26158,0.28611 0.51572,0.54032 0.37357,0.37367 0.48178,0.50223 0.56497,0.67132 0.10027,0.20377 0.10286,0.21916 0.10082,0.60031 -0.002,0.44622 -0.0488,0.61956 -0.32612,1.21682 -0.19757,0.42556 -0.24207,0.62329 -0.28182,1.25248 -0.0684,1.08187 -0.0819,1.18509 -0.1924,1.46879 l -0.10347,0.26559 0.002,0.71875 c 9.7e-4,0.44072 0.0221,0.91745 0.0545,1.23242 0.0291,0.28252 0.0529,0.55322 0.0529,0.60156 l -1e-5,0.0879 -22.17969,-0.005 c -22.13452,-0.005 -22.16349,-0.005 -14.22656,-0.043 z"
       id="path5379"
       inkscape:connector-curvature="0"
       transform="translate(-171.15709,46.495692)" />
    <path
       style="fill:#66bb6a;fill-opacity:0.78431373;fill-rule:evenodd;stroke-width:0.03125"
       d="m 132.27523,343.95409 c -6.53125,-0.51265 -11.90664,-0.93291 -11.94531,-0.93391 -0.0617,-0.002 -0.0703,-0.0182 -0.0703,-0.13604 v -0.13421 l 0.77343,0.0709 c 5.26652,0.48311 14.85619,1.26115 19.38282,1.57259 0.24922,0.0172 0.55859,0.0385 0.6875,0.0475 0.21722,0.0151 2.53984,0.10753 2.72159,0.10832 l 0.081,3.6e-4 0.0213,-0.97657 c 0.0289,-1.32733 0.26241,-11.09481 0.28871,-12.07812 l 0.0211,-0.78907 h 0.12067 0.12067 v 7.09375 7.09375 l -0.16407,-0.004 c -0.0902,-0.002 -5.50781,-0.42303 -12.03906,-0.93568 z"
       id="path5381"
       inkscape:connector-curvature="0"
       transform="translate(-171.15709,46.495692)" />
    <path
       style="fill:#66bb6a;fill-opacity:0.78431373;fill-rule:evenodd;stroke-width:0.03125"
       d="m 117.09747,342.77175 c -1.66183,-0.13152 -3.028,-0.24585 -3.03593,-0.25407 -0.008,-0.008 -1.10073,-3.83995 -2.42843,-8.51495 -1.32771,-4.675 -2.42247,-8.5098 -2.43282,-8.52178 -0.0103,-0.012 -0.90475,-0.0582 -1.98756,-0.10268 -1.08281,-0.0445 -2.04609,-0.0896 -2.14062,-0.10019 l -0.17188,-0.0193 0.14063,-0.0451 c 0.21344,-0.0685 1.03481,-0.0551 2.28125,0.0371 0.59297,0.0439 1.30673,0.0962 1.58613,0.11629 l 0.50802,0.0365 0.0606,0.20582 c 0.0333,0.1132 0.52631,1.85816 1.09552,3.87769 2.13947,7.59077 3.23888,11.40885 3.57198,12.40489 l 0.0684,0.20449 0.19306,0.0382 c 0.29161,0.0577 2.19225,0.26567 4.12725,0.4516 l 1.72657,0.1659 v 0.13308 c 0,0.11829 -0.008,0.13267 -0.0703,0.12935 -0.0387,-0.002 -1.42999,-0.11135 -3.09182,-0.24287 z"
       id="path5383"
       inkscape:connector-curvature="0"
       transform="translate(-171.15709,46.495692)" />
    <path
       style="fill:#66bb6a;fill-opacity:0.78431373;fill-rule:evenodd;stroke-width:0.03125"
       d="m 96.874648,328.99492 c -0.0075,-0.0129 -0.418279,-1.8375 -0.91283,-4.05469 -0.494551,-2.21719 -0.901497,-4.03452 -0.904324,-4.03852 -0.0028,-0.004 -1.136242,-0.0514 -2.518701,-0.10544 -1.382459,-0.054 -2.517893,-0.10192 -2.523187,-0.10652 -0.0053,-0.005 -0.18918,-1.41805 -0.408636,-3.14102 l -0.399012,-3.13267 1.018602,-2.30042 1.018602,-2.30041 0.116597,-0.01 c 0.06413,-0.005 0.116597,-3e-4 0.116597,0.0112 0,0.0115 -0.223945,0.55726 -0.497656,1.21282 -0.552391,1.32303 -0.691897,1.70578 -0.85588,2.34819 -0.260656,1.02113 -0.366141,1.85475 -0.367756,2.90625 -0.0015,0.9807 0.05802,1.57057 0.24125,2.39062 0.187252,0.83806 0.40614,1.19546 0.877555,1.43288 0.529853,0.26685 0.919062,0.32822 3.071237,0.48422 l 1.359375,0.0985 0.03807,0.15625 c 0.02094,0.0859 0.382318,1.81562 0.803067,3.84375 0.420749,2.02812 0.776903,3.74375 0.791454,3.8125 l 0.02646,0.125 3.740788,0.008 3.74079,0.008 v 0.18737 0.18737 h -3.77941 c -2.078667,0 -3.785541,-0.0105 -3.793047,-0.0234 z"
       id="path5385"
       inkscape:connector-curvature="0"
       transform="translate(-171.15709,46.495692)" />
    <path
       style="fill:#66bb6a;fill-opacity:0.78431373;fill-rule:evenodd;stroke-width:0.03125"
       d="M 100.12891 257.71289 L 98.683594 257.7207 L 96.060547 265.3457 C 94.618748 269.53945 93.436141 272.97547 93.431641 272.98047 C 93.427161 272.98557 92.877084 272.97628 92.208984 272.95898 C 89.109993 272.87873 84.882887 272.79094 84.867188 272.80664 C 84.857614 272.81622 85.694069 273.95882 86.726562 275.3457 L 88.605469 277.86719 L 88.572266 279.12305 C 88.554876 279.81355 88.541173 280.46485 88.541016 280.57227 L 88.541016 280.76758 L 88.546875 280.76758 L 88.527344 281.33789 C 88.511277 281.79959 88.196557 296.29757 88.197266 296.54102 L 88.197266 296.61133 L 83.560547 296.61914 L 78.923828 296.62695 L 79.818359 299.8457 L 80.712891 303.06445 L 83.322266 306.41602 L 85.931641 309.76562 L 86.791016 309.76367 C 87.629474 309.76137 87.643081 309.7619 87.378906 309.7207 C 86.649439 309.60707 86.154121 309.3219 85.492188 308.63867 C 85.044266 308.17633 84.639978 307.68786 83.800781 306.5957 C 82.348814 304.70606 80.993708 302.33945 80.285156 300.45703 C 80.163944 300.13501 79.197266 296.9229 79.197266 296.8418 C 79.197266 296.8069 79.978743 296.79883 83.833984 296.79883 L 88.472656 296.79883 L 88.490234 296.32227 C 88.500404 296.06016 88.537276 294.21445 88.572266 292.2207 C 88.691354 285.43469 88.756101 281.81539 88.769531 281.29102 L 88.783203 280.76758 L 88.78125 280.76758 L 88.800781 279.71289 C 88.812161 279.13281 88.822238 278.46173 88.822266 278.2207 L 88.822266 277.7832 L 88.0625 276.75195 C 87.644913 276.18517 86.906329 275.1818 86.419922 274.52148 C 85.933515 273.86116 85.528331 273.3022 85.519531 273.2793 C 85.506286 273.2447 86.201318 273.23633 89.597656 273.23633 L 93.691406 273.23633 L 93.832031 272.82227 C 93.908833 272.59454 94.429136 271.05118 94.988281 269.39258 C 97.026555 263.34644 97.476081 262.03437 97.863281 261.00195 C 98.439301 259.46606 98.827028 258.69973 99.220703 258.32422 C 99.549237 258.01084 99.719889 257.95998 100.55664 257.92578 C 101.08295 257.90438 101.21053 257.88953 101.36133 257.83203 C 101.4599 257.79443 101.54859 257.75058 101.55859 257.73438 C 101.56997 257.71597 101.03183 257.70789 100.12891 257.71289 z "
       transform="translate(-171.15709,46.495692)"
       id="path5387" />
    <path
       style="fill:#66bb6a;fill-opacity:0.78431373;fill-rule:evenodd;stroke-width:0.03125"
       d="m 102.13599,256.95992 c -0.001,-0.0373 3.61961,-13.72898 3.63471,-13.74426 0.003,-0.003 0.87032,-0.0505 1.92702,-0.10514 1.05669,-0.0546 1.9236,-0.10123 1.92647,-0.10355 0.003,-0.002 -0.36006,-2.78158 -0.8065,-6.17612 l -0.8117,-6.17187 0.14887,-0.57031 0.14886,-0.57032 h 0.29986 0.29985 l -0.0392,0.32032 c -0.13495,1.10416 -0.18812,2.49315 -0.13847,3.61718 0.0786,1.77871 0.22554,3.0661 0.84859,7.43316 0.17253,1.20933 0.30545,2.20702 0.29538,2.21709 -0.0101,0.0101 -0.55578,0.0701 -1.21268,0.13333 -1.69244,0.16299 -1.88137,0.19982 -2.23439,0.43556 -0.41523,0.27728 -0.69269,0.81881 -1.04856,2.04649 -0.21163,0.73009 -0.19431,0.66494 -0.94264,3.54687 -0.98098,3.77794 -1.40489,5.31933 -1.74462,6.34375 -0.2455,0.74028 -0.54673,1.47724 -0.5509,1.34782 z"
       id="path5392"
       inkscape:connector-curvature="0"
       transform="translate(-171.15709,46.495692)" />
    <path
       style="fill:#66bb6a;fill-opacity:0.78431373;fill-rule:evenodd;stroke-width:0.03125"
       d="m 108.32211,229.48595 c 0,-0.0178 1.20336,-4.58993 2.67414,-10.16023 l 2.67415,-10.12783 -0.0896,-0.0976 c -0.1598,-0.17408 -1.45041,-1.52724 -1.72493,-1.80852 l -0.26686,-0.27344 h 0.28678 0.28677 l 0.92388,0.97425 c 0.61855,0.65228 0.91872,0.9905 0.90829,1.02344 -0.0198,0.0626 -2.57691,9.68331 -3.09872,11.65856 -0.78196,2.96 -1.29664,5.06554 -1.58876,6.49957 -0.13908,0.68273 -0.33482,1.80556 -0.37733,2.1645 l -0.0213,0.17968 h -0.29327 c -0.18167,0 -0.29327,-0.0123 -0.29327,-0.0324 z"
       id="path5394"
       inkscape:connector-curvature="0"
       transform="translate(-171.15709,46.495692)" />
    <path
       style="fill:#66bb6a;fill-opacity:0.78431373;fill-rule:evenodd;stroke-width:0.03125"
       d="m 111.10336,206.50176 -0.48438,-0.51392 -0.68152,-3.6e-4 c -0.65331,-3.6e-4 -4.33864,0.0426 -11.957781,0.13949 -1.950055,0.0248 -3.548919,0.0417 -3.553033,0.0376 -0.0041,-0.004 5.381229,-3.74768 11.967424,-8.31903 l 11.97491,-8.31155 0.23438,-0.0105 c 0.1289,-0.006 0.22734,-0.004 0.21875,0.003 -0.009,0.007 -1.3375,0.93242 -2.95313,2.05544 -8.33891,5.79639 -14.80366,10.32498 -18.124999,12.69667 -1.400241,0.99988 -1.747455,1.25638 -1.83848,1.35813 -0.05555,0.0621 -0.05543,0.0658 0.0038,0.12504 0.170022,0.17003 1.442894,0.24251 3.41277,0.19435 1.612779,-0.0394 1.898379,-0.0524 6.887639,-0.31392 2.28429,-0.11971 4.21884,-0.21766 4.29899,-0.21766 h 0.14573 l 0.71799,0.75782 c 0.3949,0.41679 0.72876,0.77539 0.74191,0.79687 0.0185,0.0301 -0.0389,0.0388 -0.25136,0.0377 l -0.27528,-0.001 z"
       id="path5396"
       inkscape:connector-curvature="0"
       transform="translate(-171.15709,46.495692)" />
    <path
       style="fill:#66bb6a;fill-opacity:0.78431373;fill-rule:evenodd;stroke-width:0.03125"
       d="m 118.43304,189.49191 c 0.0163,-0.0145 3.25,-2.2602 7.18594,-4.99033 6.41139,-4.44721 7.80842,-5.43211 13.42188,-9.46229 3.44609,-2.47413 6.2832,-4.51223 6.30468,-4.52912 0.0303,-0.0238 0.039,0.0104 0.0386,0.1528 l -4.8e-4,0.18351 -0.4668,0.33474 c -4.15829,2.98188 -15.15301,10.71666 -24.39162,17.1595 l -1.6875,1.17683 -0.21719,4e-4 c -0.12102,2.2e-4 -0.20404,-0.0113 -0.1875,-0.0261 z"
       id="path5398"
       inkscape:connector-curvature="0"
       transform="translate(-171.15709,46.495692)" />
    <path
       style="fill:#66bb6a;fill-opacity:0.78431373;fill-rule:evenodd;stroke-width:0.03125"
       d="m 160.09072,192.30742 c -3.80995,-19.16413 -5.5857,-27.94532 -5.65117,-27.94532 -0.015,0 -2.05494,1.45588 -4.53327,3.23527 l -4.50605,3.23527 -0.01,-0.17837 c -0.007,-0.12221 0.003,-0.18587 0.0312,-0.20219 0.0224,-0.0131 2.09392,-1.49942 4.60329,-3.30294 2.50938,-1.80352 4.5662,-3.26981 4.57072,-3.25842 0.0123,0.0311 6.25741,30.69766 6.25741,30.72716 0,0.014 -0.0671,0.0255 -0.14912,0.0255 h -0.14912 z"
       id="path5400"
       inkscape:connector-curvature="0"
       transform="translate(-171.15709,46.495692)" />
    <path
       style="fill:#66bb6a;fill-opacity:0.78431373;fill-rule:evenodd;stroke-width:0.03125"
       d="m 189.50187,197.8752 c -0.01,-0.01 -6.38466,-0.0276 -14.16593,-0.0391 l -14.14778,-0.0209 -0.30784,-1.54688 c -0.16932,-0.85078 -0.30793,-1.56522 -0.30803,-1.58765 -1.3e-4,-0.0291 0.0418,-0.038 0.14645,-0.0312 l 0.14664,0.01 0.13149,0.64062 c 0.0723,0.35235 0.20546,1.00274 0.29586,1.44532 l 0.16436,0.80468 h 15.71376 15.71376 v 0.17188 0.17187 h -1.6823 c -0.92526,0 -1.69046,-0.008 -1.70044,-0.0181 z"
       id="path5402"
       inkscape:connector-curvature="0"
       transform="translate(-171.15709,46.495692)" />
    <path
       style="fill:#66bb6a;fill-opacity:0.78431373;fill-rule:evenodd;stroke-width:0.03125"
       d="m 214.63461,220.8621 v -10.03125 l -0.10157,-1.2e-4 c -0.0803,-9e-5 -9.41283,-0.16805 -16.68527,-0.30028 l -1.17745,-0.0214 -0.0187,-0.22191 c -0.0103,-0.12204 -0.0959,-1.52971 -0.19026,-3.12815 -0.35851,-6.07291 -0.56425,-9.10729 -0.62139,-9.16443 -0.0276,-0.0276 -1.22861,-0.0662 -2.11943,-0.0682 l -0.83593,-0.002 v -0.1875 -0.1875 h 1.67187 1.67188 v 0.12446 c 0,0.18134 0.59263,12.57243 0.60171,12.58097 0.004,0.004 2.99594,0.0724 6.64829,0.15209 3.65234,0.0797 7.54062,0.1652 8.64062,0.19005 1.1,0.0248 2.18281,0.0456 2.40625,0.0462 0.22344,5.4e-4 0.42472,0.0127 0.4473,0.027 0.0339,0.0215 0.0299,1.48862 -0.0225,8.39796 -0.035,4.60456 -0.0727,9.14888 -0.0838,10.09849 l -0.0203,1.72656 h -0.10564 -0.10564 z"
       id="path5404"
       inkscape:connector-curvature="0"
       transform="translate(-171.15709,46.495692)" />
    <path
       style="fill:#66bb6a;fill-opacity:0.78431373;fill-rule:evenodd;stroke-width:0.03125"
       d="m 213.32346,250.14882 c 0.1984,-0.0975 0.57457,-0.28082 0.83594,-0.4073 l 0.47521,-0.22995 v -9.30911 -9.30911 h 0.11434 0.11435 l -0.0201,1.88282 c -0.0111,1.03554 -0.0418,5.09609 -0.0683,9.02343 -0.0265,3.92735 -0.0584,7.32985 -0.0708,7.56112 l -0.0226,0.4205 -0.29687,0.1212 c -0.26173,0.10685 -1.32812,0.4323 -1.39615,0.42608 -0.0142,-0.001 0.1366,-0.0821 0.335,-0.17968 z"
       id="path5406"
       inkscape:connector-curvature="0"
       transform="translate(-171.15709,46.495692)" />
    <path
       style="fill:#66bb6a;fill-opacity:0.78431373;fill-rule:evenodd;stroke-width:0.03125"
       d="m 211.08149,252.07304 c -0.0352,-0.0387 -0.1511,-0.23302 -0.25755,-0.43188 -0.21736,-0.40606 -0.31699,-0.49719 -0.61691,-0.56431 -0.093,-0.0208 -0.17625,-0.0495 -0.18507,-0.0638 -0.0191,-0.031 0.0433,-0.036 0.53452,-0.0428 0.24626,-0.003 0.48765,-0.0287 0.70313,-0.0736 0.3437,-0.0716 1.26435,-0.36773 1.47091,-0.47311 0.1745,-0.089 0.20351,-0.0754 0.0767,0.0359 -0.061,0.0535 -0.17434,0.22028 -0.25196,0.37057 -0.15093,0.29222 -0.29455,0.44691 -0.88576,0.954 -0.3119,0.26752 -0.43671,0.35895 -0.49036,0.35921 -0.0185,9e-5 -0.0624,-0.0315 -0.0976,-0.0702 z"
       id="path5408"
       inkscape:connector-curvature="0"
       transform="translate(-171.15709,46.495692)" />
    <path
       style="fill:#66bb6a;fill-opacity:0.78431373;fill-rule:evenodd;stroke-width:0.03125"
       d="m 208.24812,252.35429 c 0.062,-0.10334 0.46004,-0.52029 0.68225,-0.71473 0.24919,-0.21803 0.57285,-0.45051 0.59558,-0.42778 0.0144,0.0144 -0.36845,0.57132 -0.46495,0.67648 -0.0369,0.0402 -0.15843,0.12285 -0.27014,0.18374 -0.11172,0.0609 -0.27674,0.15811 -0.36671,0.21604 -0.17641,0.11357 -0.21262,0.1272 -0.17603,0.0662 z"
       id="path5410"
       inkscape:connector-curvature="0"
       transform="translate(-171.15709,46.495692)" />
    <path
       style="fill:#66bb6a;fill-opacity:0.78431373;fill-rule:evenodd;stroke-width:0.03125"
       d="m 205.8233,256.10408 c -0.003,-0.0609 1.02821,-1.81674 1.05267,-1.79228 0.0321,0.0321 -0.15762,0.75963 -0.2369,0.90832 -0.0748,0.14028 -0.81295,0.94013 -0.81577,0.88396 z"
       id="path5412"
       inkscape:connector-curvature="0"
       transform="translate(-171.15709,46.495692)" />
  </g>
</svg>
