<?xml version="1.0" encoding="UTF-8" standalone="no"?>
<!-- Created with Inkscape (http://www.inkscape.org/) -->

<svg
   xmlns:dc="http://purl.org/dc/elements/1.1/"
   xmlns:cc="http://creativecommons.org/ns#"
   xmlns:rdf="http://www.w3.org/1999/02/22-rdf-syntax-ns#"
   xmlns:svg="http://www.w3.org/2000/svg"
   xmlns="http://www.w3.org/2000/svg"
   xmlns:sodipodi="http://sodipodi.sourceforge.net/DTD/sodipodi-0.dtd"
   xmlns:inkscape="http://www.inkscape.org/namespaces/inkscape"
   width="1183.89"
   height="1030"
   id="svg2"
   sodipodi:version="0.32"
   inkscape:version="0.92.4 (5da689c313, 2019-01-14)"
   sodipodi:docname="mFelipeCarrilloPuerto.svg"
   inkscape:output_extension="org.inkscape.output.svg.inkscape"
   version="1.0">
  <defs
     id="defs4">
    <inkscape:perspective
       sodipodi:type="inkscape:persp3d"
       inkscape:vp_x="0 : 530.76001 : 1"
       inkscape:vp_y="0 : 1000 : 0"
       inkscape:vp_z="1183.8877 : 530.76001 : 1"
       inkscape:persp3d-origin="591.94385 : 353.84001 : 1"
       id="perspective2604" />
    <inkscape:perspective
       id="perspective4705"
       inkscape:persp3d-origin="0.5 : 0.33333333 : 1"
       inkscape:vp_z="1 : 0.5 : 1"
       inkscape:vp_y="0 : 1000 : 0"
       inkscape:vp_x="0 : 0.5 : 1"
       sodipodi:type="inkscape:persp3d" />
    <inkscape:perspective
       id="perspective4727"
       inkscape:persp3d-origin="0.5 : 0.33333333 : 1"
       inkscape:vp_z="1 : 0.5 : 1"
       inkscape:vp_y="0 : 1000 : 0"
       inkscape:vp_x="0 : 0.5 : 1"
       sodipodi:type="inkscape:persp3d" />
    <inkscape:perspective
       id="perspective4749"
       inkscape:persp3d-origin="0.5 : 0.33333333 : 1"
       inkscape:vp_z="1 : 0.5 : 1"
       inkscape:vp_y="0 : 1000 : 0"
       inkscape:vp_x="0 : 0.5 : 1"
       sodipodi:type="inkscape:persp3d" />
  </defs>
  <sodipodi:namedview
     id="base"
     pagecolor="#ffffff"
     bordercolor="#666666"
     borderopacity="1.0"
     inkscape:pageopacity="0.0"
     inkscape:pageshadow="2"
     inkscape:zoom="0.84876543"
     inkscape:cx="555.5216"
     inkscape:cy="498.05544"
     inkscape:document-units="px"
     inkscape:current-layer="layer1"
     inkscape:window-width="1920"
     inkscape:window-height="1051"
     inkscape:window-x="-9"
     inkscape:window-y="-9"
     showgrid="false"
     inkscape:window-maximized="1" />
  <metadata
     id="metadata7">
    <rdf:RDF>
      <cc:Work
         rdf:about="">
        <dc:format>image/svg+xml</dc:format>
        <dc:type
           rdf:resource="http://purl.org/dc/dcmitype/StillImage" />
        <dc:title></dc:title>
      </cc:Work>
    </rdf:RDF>
  </metadata>
  <g
     inkscape:label="Capa 1"
     inkscape:groupmode="layer"
     id="layer1"
     transform="translate(220.76186,-24.90167)">
    <path
       style="fill:#f9f9f9;fill-rule:evenodd;stroke:#000000;stroke-width:0.2;stroke-linecap:butt;stroke-linejoin:miter;stroke-miterlimit:4;stroke-opacity:1;stroke-dasharray:none"
       d="m 512.48711,530.77721 c -0.75023,0.38016 -1.74061,0.75188 -2.96191,1.05697 -1.2626,0.31539 -1.19728,0.49007 -1.69254,1.47976 -0.39218,0.78373 -1.50961,1.50839 -1.90408,1.90255 -0.94679,0.94605 -1.11079,0.95113 -1.69251,-0.21139 -0.516,-1.03113 -0.43259,-1.16504 -1.69254,-1.47978 -1.01709,-0.25404 -1.38952,1.64549 -2.32722,2.11395 -0.69116,0.34532 -1.47276,0.8374 -2.11567,1.47976 -0.71533,0.71479 -1.06615,1.07366 -1.48096,1.90256 -0.4682,0.93568 -0.62057,2.05756 -0.84626,2.95954 -0.18157,0.72569 -1.30194,1.72366 -1.69251,2.11393 -0.65382,0.65328 -0.83758,1.88518 -1.2694,2.74813 -0.56708,1.13323 -0.61939,2.08336 -1.05783,2.95952 -0.52988,1.05892 -0.80639,2.48363 -1.48095,3.38233 -0.58156,0.77476 -0.93665,0.93587 -1.69253,1.69114 -0.70709,0.70652 -0.84627,1.3978 -0.84627,2.53675 0,0.99384 -1.38625,1.29754 -2.11565,1.47976 -0.7058,0.17631 -0.84626,1.55908 -0.84626,2.32534 0,1.29383 -0.18058,1.77877 -0.42314,2.74813 -0.23542,0.94091 -0.34689,1.96159 -0.63468,2.53672 -0.3633,0.72601 -0.84503,1.26343 -1.05785,2.11396 -0.28909,1.1555 -0.36731,2.10229 -0.63469,3.1709 -0.23063,0.92183 0,2.21513 0,3.17093 0,1.64671 -0.30126,1.65901 -0.84626,2.74813 -0.36674,0.73288 -0.4347,1.94878 -0.63469,2.74813 -0.2862,1.14389 -1.00576,1.58711 -1.48096,2.53673 -0.52783,1.05484 -1.18651,1.01122 -1.69253,0 -0.54108,-1.08128 0.0786,-2.00722 0.63469,-2.74814 0.40363,-0.53772 0.30965,-2.2945 0.42314,-2.74811 0.2346,-0.93767 0.4384,-1.93307 0.84626,-2.74813 0.3334,-0.66626 0,-2.40641 0,-3.17093 0,-1.19936 0.86103,-1.50923 1.2694,-2.32533 0.39427,-0.78787 0.84627,-1.30219 0.84627,-2.53673 0,-1.05699 0,-2.11395 0,-3.17093 0,-0.62763 -2.10605,1.25875 -2.11567,1.26836 -0.95898,0.95823 -0.79148,1.24099 -2.11564,1.90257 -0.66681,0.33311 -2.40836,0 -3.17349,0 -1.18901,0 -2.13257,0.16276 -3.1735,0.42277 -0.89287,0.22305 -1.61381,0.98448 -2.75035,1.26838 -1.017,0.25403 -1.28848,1.00889 -2.32722,1.26837 -1.20903,0.302 -2.08311,0.0894 -3.17348,0.63417 -0.20337,0.10161 -1.40438,1.65959 -1.9041,2.32535 -0.76466,1.01873 -1.05782,1.22006 -1.05782,2.74813 0,1.40307 0.77314,2.03309 1.05782,3.17092 0.31033,1.24028 0.16735,1.99095 -0.21155,2.74813 -0.4368,0.87289 -1.14879,0.78634 -1.48096,2.11394 -0.28196,1.12693 -1.05784,1.19741 -1.05784,2.53675 0,1.37388 0.26081,1.78955 0.6347,2.53672 0.55158,1.10226 1.77013,1.76869 2.75037,2.74814 1.05579,1.05495 1.39467,1.26837 2.9619,1.26837 0.0361,0 0.4209,1.69114 1.69253,1.69114 1.25224,0 1.45247,0.57728 1.9041,1.47975 0.33338,0.66628 0,2.40643 0,3.17093 0,1.04322 2.46955,2.00923 3.17349,2.53675 0.99469,0.74542 1.49936,-0.91911 1.69251,-1.69116 0.14641,-0.58518 1.7835,-1.57068 2.11567,-1.90255 1.20311,-1.20215 -0.78431,-1.90256 1.6925,-1.90256 0.77308,0 1.42729,1.1611 1.69253,1.69117 0.44806,0.89536 -0.2413,2.38476 -0.42313,2.74811 -0.53526,1.06969 -0.998,1.02927 -1.2694,2.11395 -0.30196,1.20687 2.09131,2.51241 2.5388,2.95952 0.25201,0.2518 -1.03385,2.91161 -1.2694,3.38234 -0.50522,1.00966 -0.24002,2.17083 -0.84627,3.3823 -0.6714,1.34172 0.20642,1.90255 1.2694,1.90255 1.26887,0 1.85517,-0.39834 2.75037,-0.84558 0.80548,-0.40242 1.4792,-1.637 2.11563,-2.11396 1.21515,-0.91059 1.87957,0.52083 2.32723,-1.26835 0.24752,-0.98926 0,-2.36172 0,-3.3823 0,-1.01158 0.95332,-2.32792 1.2694,-2.95954 0.40504,-0.80941 1.17203,-1.70797 1.48095,-2.32535 0.52118,-1.04152 1.00154,-1.76873 1.69254,-2.11393 1.19782,-0.59844 2.215,-0.34512 3.5966,0 1.25628,0.31381 2.42884,0.21139 3.8082,0.21139 1.33323,0 2.10988,0.006 2.75035,-0.63418 0.84171,-0.84106 1.55292,-0.44823 2.3272,-1.47975 0.60982,-0.81245 1.79654,-1.3723 2.32723,-1.90256 1.00415,-1.00334 2.73292,0.59933 2.96193,1.05697 0.69989,1.39866 1.00438,2.27195 1.90409,3.17092 0.73547,0.73488 0.1062,2.43146 1.05782,3.38231 1.14959,1.14866 2.74494,0.21859 3.38504,-0.63417 0.6313,-0.84106 1.11656,-1.65299 2.11567,-1.90258 1.42182,-0.35517 2.03721,-0.13302 2.75035,-0.84556 0.31617,-0.3159 0,-2.66863 0,-3.17092 0,-1.05697 0,-2.11396 0,-3.17093 0.6347,-0.14093 1.2694,-0.28186 1.9041,-0.42278 3.53384,-0.78466 3.65543,0.65788 4.2313,2.95954 0.41466,1.65722 1.66087,1.98737 2.11565,3.80509 0.82625,3.30229 2.5388,-0.2985 2.5388,-2.11396 0,-2.3978 -0.94153,-3.14989 -1.69253,-4.65067 -1.47241,-2.94244 2.55947,-2.52642 3.38504,-2.11394 1.58071,0.78969 1.28913,3.40202 2.53881,4.65068 2.88726,2.88493 3.94489,-1.81483 4.2313,-2.95954 0.78141,-3.12313 0.51006,-4.56379 3.38505,-1.69114 1.24452,1.24352 -0.68981,5.60639 -0.84627,5.91903 -1.04283,2.08397 -2.53878,-0.13195 -2.53878,3.8051 0,3.1499 -0.88123,2.53675 -3.80817,2.53675 -1.07927,0 -3.49248,2.64408 -4.23131,3.38231 -1.25899,1.25797 -2.94131,2.49553 -3.80819,4.22788 -1.36975,2.73729 0.0513,2.95954 2.53878,2.95954 1.05329,0 3.30956,-2.4613 4.23132,-3.38232 1.95824,-1.95667 4.2313,-0.25136 4.2313,1.69117 0,2.78441 -1.10184,2.71263 -1.69253,5.07347 -0.23372,0.93414 -3.47615,2.62776 -4.23131,3.3823 -1.27318,1.27218 -2.94834,1.25482 -4.65444,2.95952 -2.2396,2.2378 -1.52227,2.53675 -5.07755,2.53675 -2.47201,0 -2.14363,2.28158 -2.5388,4.65068 -0.47243,2.83217 3.2552,4.2279 -1.26941,4.2279 -1.57865,0 -2.20615,2.89839 -2.53878,4.22788 -0.41353,1.65275 -2.8081,2.46945 -4.23131,2.11394 -2.38042,-0.59462 -2.11567,-3.62947 -2.11567,-5.49625 0,-3.20047 -0.48964,-3.1543 -2.9619,-2.53674 -1.66031,0.41474 -4.00928,1.04651 -5.07758,2.11395 -1.6732,1.67185 -2.33951,2.33762 -3.80818,3.8051 -1.56163,1.56037 -2.47077,3.53328 -2.96191,5.49626 -0.45121,1.80337 -5.11887,0 -6.77011,0 -2.61239,0 -4.23132,-0.42682 -4.23132,2.53673 0,3.01403 -0.69422,3.60253 -2.11563,5.49626 -1.81987,2.42453 -1.58755,3.09145 1.26937,3.80511 1.04831,0.26186 1.25457,3.77544 1.69253,4.65068 1.24887,2.4957 -3.30135,1.69114 -4.65444,1.69114 -2.38458,0 -4.91539,2.19499 -1.69251,3.80512 1.39087,0.69488 3.04109,3.46142 3.80818,4.2279 0.40795,0.40762 0,3.56323 0,4.22789 2.86234,2.86002 -1.03059,5.0138 -1.2694,5.07347 -2.09757,0.52396 -2.32351,-4.23532 -4.65445,0.42276 -0.87718,1.75297 -1.2694,2.29963 -1.2694,5.07348 0,2.42109 1.53582,3.72681 3.38507,4.65068 0.99401,0.49664 2.71081,3.55423 3.38505,4.22789 1.60008,1.59882 2.74484,1.69117 5.5007,1.69117 2.87748,0 3.68309,0.24996 4.65443,-1.69117 1.07132,-2.14089 0.89026,-3.89303 1.69253,-5.49624 0.92344,-1.84539 1.57755,-3.26744 2.96191,-4.65068 0.94723,-0.94647 2.22674,-2.98071 2.5388,-4.22789 0.59923,-2.39505 0.35146,-4.08467 1.2694,-5.91906 0.96505,-1.92857 2.36879,-3.21249 3.80818,-4.65068 1.24756,-1.24656 2.21729,-2.63828 3.38505,-3.8051 1.76967,-1.76827 1.80001,-2.59044 4.2313,-3.80509 1.73334,-0.86599 2.79628,-1.8198 4.23131,-2.53676 1.70092,-0.84976 3.36422,-1.89214 4.65445,-2.53672 1.58071,-0.78971 2.88717,2.53672 4.65444,2.53672 0.21427,0 1.74483,-2.53672 4.23131,-2.53672 2.88842,0 3.38505,1.70017 3.38505,4.22789 0,2.62039 -2.08014,3.57595 -3.38505,4.22789 -2.6019,1.2999 -2.13293,1.30286 -3.38504,3.8051 -0.75376,1.50629 -2.36352,3.71252 -3.38504,5.07347 -0.16168,0.21535 -5.81499,0.39558 -5.92385,0.42279 -2.22561,0.55596 -4.12955,0.16056 -5.50071,0.84558 -1.75258,0.87558 3.9019,1.39323 5.07758,2.95952 0.66094,0.88057 1.13036,2.04449 2.11564,2.53673 1.71589,0.85725 -3.78482,0.83391 -5.50069,1.69116 -2.39946,1.19876 -0.29736,2.6624 0.84627,3.8051 1.47603,1.47484 0.78683,3.50104 0,5.07347 -0.80925,1.6172 -0.27933,4.36328 -0.84627,5.49627 -0.6668,1.33248 0,4.8128 0,6.34183 l -146.82652,0 0,30.44082 -63.89282,-5.07345 -10.15513,-36.35988 -9.73203,-0.42279 0,8.03299 -16.07899,0 -3.80818,-17.33436 -10.57827,-0.42279 -1.69253,-13.52926 4.2313,-9.72414 -11.00142,0 -11.0014,-14.37483 -3.80817,-13.95204 19.46402,0 0.84627,-39.74218 -8.03949,-10.99254 18.19464,0.4228 11.0014,-32.55478 6.77011,0 8.03949,-30.86361 8.03948,-0.42278 -3.38503,-26.21293 11.84766,-45.66122 -6.34696,-6.76464 -34.27362,0.4228 80.81805,-57.07655 45.69817,-33.40035 14.38647,71.87417 72.77855,0 1.2694,27.05851 38.08182,0.84558 -0.63471,83.50087 z"
       id="path5164" />
    <rect
       style="fill:none;stroke:#000000;stroke-width:0.2;stroke-linecap:round;stroke-miterlimit:4;stroke-opacity:1;stroke-dasharray:none;stroke-dashoffset:0"
       id="rect5518"
       width="1182.8877"
       height="1060.52"
       x="-220.26186"
       y="25.881615" />
  </g>
</svg>
