<?xml version="1.0" encoding="UTF-8" standalone="no"?>
<!-- Created with Inkscape (http://www.inkscape.org/) -->

<svg
   xmlns:dc="http://purl.org/dc/elements/1.1/"
   xmlns:cc="http://creativecommons.org/ns#"
   xmlns:rdf="http://www.w3.org/1999/02/22-rdf-syntax-ns#"
   xmlns:svg="http://www.w3.org/2000/svg"
   xmlns="http://www.w3.org/2000/svg"
   xmlns:sodipodi="http://sodipodi.sourceforge.net/DTD/sodipodi-0.dtd"
   xmlns:inkscape="http://www.inkscape.org/namespaces/inkscape"
   width="314.83612"
   height="500"
   id="svg2"
   sodipodi:version="0.32"
   inkscape:version="0.92.4 (5da689c313, 2019-01-14)"
   sodipodi:docname="mIslaMujeres.svg"
   inkscape:output_extension="org.inkscape.output.svg.inkscape"
   version="1.0">
  <defs
     id="defs4">
    <inkscape:perspective
       sodipodi:type="inkscape:persp3d"
       inkscape:vp_x="0 : 530.76001 : 1"
       inkscape:vp_y="0 : 1000 : 0"
       inkscape:vp_z="1183.8877 : 530.76001 : 1"
       inkscape:persp3d-origin="591.94385 : 353.84001 : 1"
       id="perspective2604" />
    <inkscape:perspective
       id="perspective4705"
       inkscape:persp3d-origin="0.5 : 0.33333333 : 1"
       inkscape:vp_z="1 : 0.5 : 1"
       inkscape:vp_y="0 : 1000 : 0"
       inkscape:vp_x="0 : 0.5 : 1"
       sodipodi:type="inkscape:persp3d" />
    <inkscape:perspective
       id="perspective4727"
       inkscape:persp3d-origin="0.5 : 0.33333333 : 1"
       inkscape:vp_z="1 : 0.5 : 1"
       inkscape:vp_y="0 : 1000 : 0"
       inkscape:vp_x="0 : 0.5 : 1"
       sodipodi:type="inkscape:persp3d" />
    <inkscape:perspective
       id="perspective4749"
       inkscape:persp3d-origin="0.5 : 0.33333333 : 1"
       inkscape:vp_z="1 : 0.5 : 1"
       inkscape:vp_y="0 : 1000 : 0"
       inkscape:vp_x="0 : 0.5 : 1"
       sodipodi:type="inkscape:persp3d" />
  </defs>
  <sodipodi:namedview
     id="base"
     pagecolor="#ffffff"
     bordercolor="#666666"
     borderopacity="1.0"
     inkscape:pageopacity="0.0"
     inkscape:pageshadow="2"
     inkscape:zoom="1.4142136"
     inkscape:cx="-52.27993"
     inkscape:cy="215.7969"
     inkscape:document-units="px"
     inkscape:current-layer="g956"
     inkscape:window-width="1920"
     inkscape:window-height="1051"
     inkscape:window-x="-9"
     inkscape:window-y="-9"
     showgrid="false"
     inkscape:window-maximized="1"
     fit-margin-top="0"
     fit-margin-left="0"
     fit-margin-right="0"
     fit-margin-bottom="0" />
  <metadata
     id="metadata7">
    <rdf:RDF>
      <cc:Work
         rdf:about="">
        <dc:format>image/svg+xml</dc:format>
        <dc:type
           rdf:resource="http://purl.org/dc/dcmitype/StillImage" />
        <dc:title></dc:title>
      </cc:Work>
    </rdf:RDF>
  </metadata>
  <g
     inkscape:label="Capa 1"
     inkscape:groupmode="layer"
     id="layer1"
     transform="translate(171.15709,-46.495692)">
    <g
       id="g956"
       transform="matrix(2.9127772,0,0,2.9127772,-357.2315,52.323616)">
      <path
         inkscape:connector-curvature="0"
         id="path3197"
         d="m 139.35259,90.744937 c -0.63998,0.31421 -1.48019,-0.73497 -1.77847,0.4366 -0.21854,0.85836 0.10607,1.41389 0.44462,1.74632 0.62903,0.61768 0.84846,0.21098 1.33385,1.16422 0.36046,0.70789 0.54056,0.66787 0.74103,1.45526 0.17446,0.68525 0.77256,0.93505 1.03745,1.45527 0.36748,0.72169 0.58393,1.43782 0.88924,2.03739 0.42168,0.8281 1.21176,0.26541 1.48207,0 0.43116,-0.42338 -0.3667,-1.58581 -0.44463,-1.89185 -0.13714,-0.53866 -0.84215,-0.54271 -1.03744,-1.30975 -0.17458,-0.68568 -0.29641,-1.06081 -0.29641,-1.89186 0,-0.23548 -1.05363,-0.88904 -1.18565,-1.01868 -0.33622,-0.33013 -0.52386,-1.02878 -0.74104,-1.45527 -0.12882,-0.25299 -0.29641,-0.48509 -0.44462,-0.72765 z"
         style="fill:#66bb6a;fill-rule:evenodd;stroke:#000000;stroke-width:0.09925636;stroke-linecap:butt;stroke-linejoin:miter;stroke-miterlimit:4;stroke-dasharray:none;stroke-opacity:1;fill-opacity:0.78431374" />
      <path
         inkscape:connector-curvature="0"
         id="path2225"
         d="m 131.79407,98.457877 -39.42292,1.45528 -0.148196,-34.48992 c 0.296416,-0.14552 0.592814,-0.29106 0.889229,-0.43658 0.71869,-0.35286 0.849602,-0.71749 1.037455,-1.45527 0.155681,-0.6115 0.592813,-0.64739 0.592813,-1.60081 0,-0.72763 0,-1.45527 0,-2.1829 0,-0.65193 -0.34997,-0.95385 -0.148202,-1.74632 0.05866,-0.2304 1.181778,-0.72385 1.333865,-0.87317 0.60397,-0.59305 -0.583395,-1.37787 -0.741039,-1.45527 -0.66937,-0.32863 -0.988622,-0.41262 -1.630268,-0.72764 -0.4702,-0.23085 -0.339875,-0.30172 -0.889241,-0.43658 v -5.9666 c -0.628005,-0.30833 1.316266,-0.69309 1.630268,-1.30975 0.44062,-0.86531 0.45925,-0.79323 1.185656,-0.43658 0.627388,0.30802 0.293919,0.87255 1.482061,1.16421 0.626853,0.15388 1.620748,0.034 2.074891,0.14553 0.674436,0.16556 0.676357,0.72763 1.926688,0.72763 1.05317,0 1.96299,0.29106 2.96412,0.29106 0.85544,0 1.06748,0.91247 1.48207,1.45527 0.42543,0.557 0.72142,0.85392 1.18565,1.30975 0.46788,0.45942 0.82209,0.80722 1.18564,1.16421 0.67121,0.65906 1.42404,1.10724 1.9267,1.6008 0.46232,0.45396 1.01494,1.47433 1.33385,1.89186 0.52523,0.68763 1.04112,1.0247 1.48206,1.74631 0.30041,0.49162 0.49103,1.25536 0.74104,1.74633 0.30449,0.59797 0.61295,1.34927 0.88924,1.89185 0.38547,0.75702 0.84795,1.51972 1.18565,2.18291 0.23976,0.47084 1.33787,1.31369 1.63027,1.6008 0.52823,0.51867 1.03593,1.30378 1.18565,1.89185 0.22797,0.89537 0.68853,1.24905 0.88925,2.03738 0.13558,0.53257 0.46279,1.09013 0.59282,1.6008 0.2996,1.17674 0.55022,0.22921 0.88924,-0.43658 0.3838,-0.75374 0.76238,-0.89413 1.18565,-1.30975 0.55755,-0.54747 -0.0346,-1.33523 1.18565,-0.43657 0.54653,0.40248 0.35474,1.51726 0.29641,1.74632 -0.23961,0.94114 -0.52939,0.84201 -1.18565,1.16422 -0.67981,0.33375 -0.59283,0.61786 -0.59283,1.60079 0,0.55732 0.75653,1.4933 1.03746,2.18291 0.23898,0.58668 0.18423,1.5968 0.29641,2.03738 0.21724,0.85326 0.53174,1.36091 0.74103,2.18291 0.18859,0.74078 0.50496,1.28272 0.74103,1.74633 0.30086,0.59084 0.12262,1.41023 0,1.89185 -0.20044,0.78729 -0.50711,1.33254 0,2.32842 0.37905,0.74439 0.44462,1.33667 0.44462,2.18292 0,0.63247 1.17481,0.57145 1.63026,1.01868 0.65174,0.63996 0.59283,1.29052 0.59283,2.18291 0,1.12195 -0.17798,1.30975 1.03745,1.30975 0.65616,0 0.44462,-1.25108 0.44462,-1.89187 0,-1.00651 -0.19248,-1.50629 0.59283,-1.89184 0.73805,-0.36235 -0.20833,-1.28226 -0.44463,-1.74633 -0.29143,-0.57231 -0.10935,-1.46233 0,-1.89185 0.21424,-0.84146 0.26249,-1.03095 0.44463,-1.74632 0.0387,-0.15203 2.17303,-0.43658 2.5195,-0.43658 0.65645,0 0.74103,-0.99309 0.74103,-1.60081 0,-0.77614 0,-1.55228 0,-2.32843 0,-0.54524 -0.32739,-1.57693 -0.44461,-2.03737 -0.0558,-0.21894 -1.16164,-0.93874 -1.33385,-1.16422 -0.51538,-0.67474 -0.28909,-1.30255 -0.74104,-1.74632 -0.51754,-0.50819 -0.81077,-0.28249 -1.18566,-1.0187 -0.30038,-0.58991 0.16491,-1.0023 -0.44461,-1.60079 -0.5507,-0.54074 -0.55692,-1.08924 -0.29642,-1.60081 0.37354,-0.73357 1.32805,0.86177 1.33386,0.87317 0.43113,0.84665 0.91491,1.04389 1.48207,1.6008 0.44527,0.43724 1.39341,0.29105 2.07488,0.29105 0.85701,0 0.59283,0.83166 0.59283,1.6008 0,0.28868 -0.76544,0.34072 -0.59283,1.01869 0.0827,0.32485 1.28155,0.91594 1.48206,1.30974 0.28352,0.55678 0.14822,1.51883 0.14822,2.18291 0,0.77615 0,1.55229 0,2.32843 0,0.88586 -0.39247,0.96748 -0.88925,1.45527 -0.3504,0.34407 -0.65972,0.85902 -0.88923,1.30976 -0.39139,0.76862 -0.1185,1.01867 -1.18565,1.01867 -0.89601,0 -0.61749,0.92183 -0.44462,1.60081 0.0379,0.14881 0.0988,0.29105 0.1482,0.43658 0.24208,0.71312 0.56604,1.03271 0.74104,1.89185 0.0228,0.11159 -0.76534,0.82309 -0.88924,1.30975 -0.26209,1.02938 0.0687,1.09671 -0.59283,1.74633 -0.90732,0.89091 0.89548,0.72763 1.33386,0.72763 0.51462,0 0.59891,1.17618 0.74103,1.45527 0.3805,0.74722 1.06942,-0.12558 0.74104,1.16422 -0.14802,0.58135 -0.99182,0.85075 -1.33386,1.01868 -0.60989,0.29942 -0.20749,1.67359 0,2.1829 z"
         style="fill:#66bb6a;fill-rule:evenodd;stroke:#000000;stroke-width:0.09925636;stroke-linecap:butt;stroke-linejoin:miter;stroke-miterlimit:4;stroke-dasharray:none;stroke-opacity:1;fill-opacity:0.78431374" />
      <g
         id="g949"
         style="fill:#66bb6a;fill-opacity:0.78431374">
        <path
           style="fill:#66bb6a;stroke:#000000;stroke-width:0.1;stroke-linecap:butt;stroke-linejoin:miter;stroke-miterlimit:4;stroke-dasharray:none;stroke-opacity:1;fill-opacity:0.78431374"
           d="m 136.01096,121.15074 0.009,-0.22891 -0.0195,-0.10546 0.008,-0.14063 0.0508,-0.25391 0.0156,-0.24218 0.004,-0.16016 -0.0351,-0.16797 -0.0859,-0.1289 -0.19531,-0.0703 -0.21485,-0.0664 -0.3125,-0.15235 -0.16015,-0.16797 -0.15625,-0.23828 -0.0664,-0.45312 -0.008,-0.39453 0.0117,-0.75782 -0.008,-0.47656 -0.082,-0.44922 -0.1289,-0.59765 -0.0781,-0.34766 v -0.39453 l 0.0586,-0.14844 0.082,-0.0977 0.22656,-0.13281 0.59375,-0.27344 0.19531,-0.14453 0.18359,-0.16797 0.0625,-0.14453 0.0586,-0.21094 -0.0195,-0.25781 -0.0703,-0.375 -0.20312,-0.60156 -0.15625,-0.47657 -0.0625,-0.34375 0.008,-0.94921 0.0547,-0.26563 0.125,-0.22656 0.21484,-0.22266 0.20703,-0.13672 0.22657,-0.14843 0.3789,-0.16407 0.17969,-0.11328 0.16016,-0.15625 0.1289,-0.1914 0.0703,-0.21485 0.082,-0.25 0.0391,-0.23437 0.0234,-0.22657 -0.0274,-0.13281 -0.082,-0.0898 -0.14453,-0.0117 -0.94141,0.4336 -0.25,0.0781 -0.3125,0.004 -0.24218,0.004 -0.22657,-0.0234 -0.16796,-0.0547 -0.0352,-0.0547 0.0156,-0.0586 0.25391,-0.38672 0.0625,-0.16797 0.0273,-0.17969 0.004,-0.37109 -0.004,-0.4375 0.0117,-0.33594 0.0625,-0.15625 0.0859,-0.0742 0.12109,-0.0391 0.25,-0.004 0.35938,0.0664 0.34375,0.0742 0.45312,0.0508 0.70313,0.0273 0.58594,0.0117 0.3125,-0.004 0.46093,-0.0781 0.47657,-0.10938 0.5,-0.11718 0.30468,-0.043 0.26954,-0.0195 0.20703,0.0703 0.0742,0.0625 0.0703,0.10937 0.0117,0.44922 -0.0312,0.27735 -0.0508,0.27734 -0.10547,0.25 -0.16797,0.23047 -0.35156,0.32812 -0.3086,0.28907 -0.36328,0.28125 -0.34766,0.23437 -0.33593,0.27734 -0.27735,0.28516 -0.13672,0.22656 -0.0234,0.17188 -0.0195,0.41015 -0.10157,0.45704 -0.1914,0.62109 -0.17578,0.39844 -0.1875,0.42187 -0.12891,0.29688 -0.0625,0.30078 0.004,0.30859 0.004,0.29297 0.0312,0.68359 0.0117,0.62891 -0.0195,0.36719 -0.0859,0.44922 -0.082,0.14453 -0.13281,0.17187 -0.41797,0.15235 -0.24219,0.10937 -0.26562,0.24219 -0.17969,0.23047 -0.10547,0.22265 -0.12891,0.34375 -0.0469,0.20313 -0.0469,0.33203 0.004,0.31641 0.13672,0.34375 0.20312,0.26953 0.29688,0.29687 0.28125,0.17188 0.42187,0.12109 0.26172,0.11328 0.28907,0.12891 0.11718,0.11328 0.0742,0.0977 0.008,0.17188 -0.10546,0.19921 -0.15235,0.14063 -0.23437,0.10937 -0.22657,0.0898 -0.54687,0.16797 -0.34375,0.11328 -0.23047,0.14063 -0.12891,0.12109 z"
           id="path2514"
           inkscape:connector-curvature="0" />
        <path
           style="fill:#66bb6a;fill-opacity:0.78431374;fill-rule:evenodd;stroke:#f9f9f9;stroke-width:0.0125;stroke-miterlimit:4;stroke-dasharray:none;stroke-opacity:1"
           d="m 136.12631,120.37203 c 0.0469,-0.60871 -0.008,-0.74665 -0.32741,-0.82688 -0.64918,-0.16293 -0.80915,-0.47929 -0.81116,-1.60412 -0.001,-0.56719 -0.0873,-1.39363 -0.19166,-1.83653 -0.10439,-0.4429 -0.16226,-0.87706 -0.12859,-0.9648 0.0337,-0.0877 0.25561,-0.24074 0.4932,-0.34002 0.98074,-0.40978 1.13637,-0.8829 0.70389,-2.1399 -0.27101,-0.78771 -0.3271,-1.80986 -0.12051,-2.19589 0.0712,-0.13307 0.41286,-0.38555 0.75921,-0.56105 0.67593,-0.34252 0.9863,-0.83077 0.9863,-1.55155 0,-0.46392 -0.27418,-0.49929 -1,-0.12901 -0.26952,0.1375 -0.68628,0.25 -0.92614,0.25 h -0.4361 l 0.18112,-0.43349 c 0.0996,-0.23841 0.18112,-0.72379 0.18112,-1.0786 v -0.64512 l 0.59375,0.0753 c 1.76882,0.22441 2.25975,0.22961 3.20588,0.034 1.53757,-0.31798 1.57537,-0.3089 1.57537,0.37828 0,0.52965 -0.0523,0.63068 -0.5991,1.15625 -0.3295,0.31675 -0.87051,0.8009 -1.20224,1.0759 -0.55314,0.45854 -0.61279,0.56219 -0.71935,1.25 -0.0639,0.4125 -0.26374,1.05937 -0.44406,1.4375 -0.29585,0.62038 -0.32883,0.83638 -0.3378,2.21247 -0.0106,1.62702 -0.0249,1.66809 -0.70172,2.01319 -0.61291,0.31252 -0.90327,0.78615 -0.96918,1.58089 -0.05,0.60264 -0.0153,0.74711 0.2688,1.11956 0.22054,0.28915 0.53202,0.49601 0.96183,0.63877 0.63206,0.20994 0.88141,0.47153 0.66026,0.69268 -0.0637,0.0637 -0.4681,0.25384 -0.89873,0.4226 l -0.78296,0.30685 z"
           id="path2531"
           inkscape:connector-curvature="0" />
      </g>
    </g>
  </g>
</svg>
