<?xml version="1.0" encoding="UTF-8" standalone="no"?>
<!-- Created with Inkscape (http://www.inkscape.org/) -->

<svg
   xmlns:dc="http://purl.org/dc/elements/1.1/"
   xmlns:cc="http://creativecommons.org/ns#"
   xmlns:rdf="http://www.w3.org/1999/02/22-rdf-syntax-ns#"
   xmlns:svg="http://www.w3.org/2000/svg"
   xmlns="http://www.w3.org/2000/svg"
   xmlns:sodipodi="http://sodipodi.sourceforge.net/DTD/sodipodi-0.dtd"
   xmlns:inkscape="http://www.inkscape.org/namespaces/inkscape"
   width="1183.89"
   height="1030"
   id="svg2"
   sodipodi:version="0.32"
   inkscape:version="0.92.4 (5da689c313, 2019-01-14)"
   sodipodi:docname="mIslaMujeres.svg"
   inkscape:output_extension="org.inkscape.output.svg.inkscape"
   version="1.0">
  <defs
     id="defs4">
    <inkscape:perspective
       sodipodi:type="inkscape:persp3d"
       inkscape:vp_x="0 : 530.76001 : 1"
       inkscape:vp_y="0 : 1000 : 0"
       inkscape:vp_z="1183.8877 : 530.76001 : 1"
       inkscape:persp3d-origin="591.94385 : 353.84001 : 1"
       id="perspective2604" />
    <inkscape:perspective
       id="perspective4705"
       inkscape:persp3d-origin="0.5 : 0.33333333 : 1"
       inkscape:vp_z="1 : 0.5 : 1"
       inkscape:vp_y="0 : 1000 : 0"
       inkscape:vp_x="0 : 0.5 : 1"
       sodipodi:type="inkscape:persp3d" />
    <inkscape:perspective
       id="perspective4727"
       inkscape:persp3d-origin="0.5 : 0.33333333 : 1"
       inkscape:vp_z="1 : 0.5 : 1"
       inkscape:vp_y="0 : 1000 : 0"
       inkscape:vp_x="0 : 0.5 : 1"
       sodipodi:type="inkscape:persp3d" />
    <inkscape:perspective
       id="perspective4749"
       inkscape:persp3d-origin="0.5 : 0.33333333 : 1"
       inkscape:vp_z="1 : 0.5 : 1"
       inkscape:vp_y="0 : 1000 : 0"
       inkscape:vp_x="0 : 0.5 : 1"
       sodipodi:type="inkscape:persp3d" />
  </defs>
  <sodipodi:namedview
     id="base"
     pagecolor="#ffffff"
     bordercolor="#666666"
     borderopacity="1.0"
     inkscape:pageopacity="0.0"
     inkscape:pageshadow="2"
     inkscape:zoom="0.84876543"
     inkscape:cx="764.39913"
     inkscape:cy="415.30172"
     inkscape:document-units="px"
     inkscape:current-layer="layer1"
     inkscape:window-width="1920"
     inkscape:window-height="1051"
     inkscape:window-x="-9"
     inkscape:window-y="-9"
     showgrid="false"
     inkscape:window-maximized="1" />
  <metadata
     id="metadata7">
    <rdf:RDF>
      <cc:Work
         rdf:about="">
        <dc:format>image/svg+xml</dc:format>
        <dc:type
           rdf:resource="http://purl.org/dc/dcmitype/StillImage" />
        <dc:title />
      </cc:Work>
    </rdf:RDF>
  </metadata>
  <g
     inkscape:label="Capa 1"
     inkscape:groupmode="layer"
     id="layer1"
     transform="translate(220.76186,-24.90167)">
    <g
       id="g5488"
       transform="matrix(0.2060548,0,0,0.2060548,444.3564,684.2225)"
       style="fill:#f9f9f9;stroke-width:0.97061557;stroke-miterlimit:4;stroke-dasharray:none">
      <path
         id="path5430"
         d="m 867.00832,386.92855 c -1.83402,-2.28067 -2.70772,-3.86337 -5.69152,-2.37147 -1.49481,0.74741 -5.3991,0 -7.1144,0 -0.76659,0 0.91267,6.49641 0.94859,6.64011 0.42523,1.70094 1.75193,2.73909 2.37147,5.21723 0.48154,1.92617 1.80901,2.49311 2.37146,4.74293 0.53875,2.15498 1.89718,2.0153 1.89718,5.21723 0,2.09873 0.53959,5.00413 0.94858,6.64011 0.55097,2.20385 1.83512,3.00975 2.37147,5.69152 0.45163,2.25816 1.00093,4.95229 1.42288,6.64011 0.60364,2.41454 1.00394,4.49003 1.42288,6.16581 0.60305,2.4122 1.38377,4.58647 1.89717,6.64011 0.60987,2.43947 1.39631,3.2669 2.37147,5.21722 1.12362,2.24724 2.29583,2.77013 3.79435,4.26865 1.30125,1.30124 1.42288,3.01864 1.42288,5.69152 0,1.89684 2.84576,3.12199 2.84576,5.69152 0,2.37146 0,4.74293 0,7.1144 0,2.37146 0,4.74293 0,7.1144 0,2.37147 0,4.74293 0,7.1144 0,2.37147 0,4.74293 0,7.1144 0,3.01029 0.0258,4.25575 -1.89717,5.21723 -1.12407,0.56203 -0.4743,5.43625 -0.4743,6.64011 0,0.31619 0,0.63239 0,0.94858 0,2.60125 0.4743,5.37397 0.4743,8.06299 0,2.37147 0,4.74293 0,7.1144 0,2.72868 -0.4743,4.22522 -0.4743,6.64011 0,1.91715 -1.42478,3.80196 -1.89717,5.69152 -0.60386,2.41544 -1.71781,2.6026 -2.37147,5.21723 -0.62197,2.48787 -0.9094,3.28086 -2.37147,4.74293 -1.32261,1.32261 -2.14331,2.86374 -2.84576,4.26864 -1.11341,2.22683 -1.48702,3.3842 -2.84576,4.74293 -1.76769,1.7677 -1.89717,1.92932 -1.89717,5.21723 0,3.0357 4.04201,-0.49532 4.26864,-0.94858 0.81831,-1.63661 2.68165,-2.60411 4.26864,-3.79435 1.49428,-1.12071 4.03594,-1.78082 5.21723,-2.37147 2.67945,-1.33973 2.84576,-1.12664 2.84576,-4.74293 0,-2.34545 -0.20647,-3.38142 0.94859,-5.69152 0.88547,-1.77095 2.01193,-2.60099 2.84576,-4.26864 0.7474,-1.49482 0,-5.3991 0,-7.11441 0,-3.11151 0.0398,-4.22882 -1.42288,-5.69152 -1.73146,-1.73145 -1.45796,-3.2499 -0.4743,-5.21722 1.15424,-2.30848 1.42288,-3.11734 1.42288,-6.16582 0,-2.1545 2.37147,-2.35346 2.37147,-5.69152 0,-2.37146 0,-4.74293 0,-7.1144 0,-2.23235 2.56482,-2.88443 4.74293,-3.32005 2.79493,-0.55899 0.63706,-3.63159 0,-4.26864 -1.44476,-1.44476 -2.40047,-2.42948 -3.32005,-4.26864 -0.95082,-1.90165 -0.48514,-4.69956 0,-6.64011 0.45666,-1.82666 2.27174,-2.44686 2.84576,-4.74294 0.41262,-1.65048 0.96816,-3.87263 1.42288,-5.69152 0.50187,-2.00748 -0.53202,-4.49955 -0.94859,-6.16581 -0.44861,-1.79446 -2.07722,-2.73157 -2.84576,-4.26864 -0.99449,-1.98899 -2.28336,-4.30926 -3.32005,-5.69152 -1.03394,-1.37859 -0.90764,-4.66104 -1.42288,-5.69152 -1.16584,-2.33169 -2.84576,-0.18097 -2.84576,-4.26864 0,-3.22854 -0.39069,-3.71074 -1.89717,-5.21723 -1.51519,-1.51518 -1.42288,-3.7518 -1.42288,-6.16581 0,-2.84998 -1.03683,-3.49654 -1.89718,-5.21723 -0.76989,-1.53978 -0.16993,-5.89697 -0.47429,-7.1144 -0.56679,-2.26717 -2.2335,-2.76819 -2.84576,-5.21723 -0.45073,-1.8029 -1.04943,-4.672 -1.42288,-6.16581 -0.77062,-3.08248 -2.37147,-2.61755 -2.37147,-6.16582 0,-2.37146 0,-4.74293 0,-7.1144 0,-1.65562 0.14141,-0.66577 -0.94859,-2.84576 z"
         style="fill:#f9f9f9;fill-rule:evenodd;stroke:#000000;stroke-width:0.97061557;stroke-linecap:butt;stroke-linejoin:miter;stroke-miterlimit:4;stroke-opacity:1;stroke-dasharray:none" />
      <path
         id="path5432"
         d="m 769.30389,569.53151 c 0,-1.6417 -5.63351,1.97223 -6.16582,2.37146 -1.93609,1.45208 -2.33829,2.35488 -4.26864,3.32006 -1.73874,0.86937 -3.0649,1.95196 -4.74293,2.37147 -1.69145,0.42286 -2.86685,2.39255 -3.79435,3.32005 -1.67402,1.67402 -2.72112,2.59648 -3.79435,4.74293 -1.05598,2.11198 -2.03461,4.06922 -2.84576,5.69152 -0.96049,1.92099 -0.94858,3.51617 -0.94858,6.16582 0,2.0229 -1.5149,4.1624 -1.89718,5.69152 -0.49167,1.96668 -1.9514,3.4285 -2.84576,5.21723 -0.86687,1.73374 -3.47,1.46036 -5.21723,1.89717 -2.16812,0.54203 -3.0028,2.21126 -3.79434,3.79435 -0.89503,1.79006 -0.94859,3.53814 -0.94859,6.16581 0,2.37147 4.74293,0 7.1144,0 3.2232,0 4.93496,0.096 7.5887,1.42288 1.49481,0.74741 5.39909,0 7.1144,0 0.43823,0 3.89742,-2.8973 4.74293,-3.32005 1.63504,-0.81752 0.94859,-4.26746 0.94859,-6.16582 0,-1.06741 2.89953,-4.32241 3.32005,-4.74293 1.58111,-1.58111 2.02785,-2.97643 3.32005,-4.26864 1.58111,-1.58111 2.50214,-2.50214 3.79435,-3.79435 1.66908,-1.66907 2.37147,-1.71661 2.37147,-4.74293 0,-1.12002 2.42886,-4.38343 2.84576,-5.21723 1.10083,-2.20166 1.39157,-4.14339 1.89717,-6.16581 0.43932,-1.75729 0.4743,-4.23602 0.4743,-6.64011 0,-2.7625 -0.15211,-4.57285 -0.94859,-6.16582 -0.38864,-0.77728 -3.17984,-0.92054 -3.32005,-0.94858 z"
         style="fill:#f9f9f9;fill-rule:evenodd;stroke:#000000;stroke-width:0.97061557;stroke-linecap:butt;stroke-linejoin:miter;stroke-miterlimit:4;stroke-opacity:1;stroke-dasharray:none" />
      <path
         id="path5436"
         d="m 793.49285,637.35546 c -1.5918,0.7959 -3.41842,2.89495 -5.21723,3.79435 -1.78667,0.89334 -4.51789,0.47429 -6.64011,0.47429 -1.91552,0 -3.43246,1.64771 -4.26864,3.32006 -1.03725,2.07451 -1.93364,2.44441 -2.84576,4.26864 -1.18221,2.36442 -2.63079,1.98587 -3.32005,4.74293 -0.2964,1.1856 -2.72027,3.54336 -3.32006,4.74294 -1.12102,2.24204 -1.99951,3.52473 -2.84576,5.21722 -0.98761,1.97523 -0.94858,3.6519 -0.94858,6.16582 0,2.26565 -0.0873,5.0922 -0.4743,6.6401 -0.45829,1.83318 -2.05132,2.67978 -2.84576,4.26865 -0.91967,1.83934 -1.67652,3.0994 -2.84576,4.26864 -1.09318,1.09318 -2.19362,3.91296 -2.84576,5.21722 -1.17498,2.34998 0.25608,5.34527 1.89718,6.16582 2.25082,1.12541 1.42288,6.46922 1.42288,8.53728 0,2.37147 0,4.74293 0,7.1144 0,2.07599 3.40534,3.87964 4.26864,4.74293 1.56811,1.56812 2.97051,3.56955 3.79434,5.21723 1.32495,2.6499 0.92573,4.31437 0,6.16581 -0.80297,1.60596 -0.13907,5.9126 -0.47429,7.5887 -0.45889,2.29444 -0.47429,4.0091 -0.47429,6.64011 0,2.98815 -0.44596,4.62959 -0.94859,6.6401 -0.49976,1.99906 -0.94859,4.09321 -0.94859,6.64011 0,2.37147 0,4.74294 0,7.1144 0,2.37147 0,4.74294 0,7.1144 0,2.52957 0,5.05913 0,7.5887 0,2.96626 -0.47429,5.64021 -0.47429,8.06299 0,2.1552 -0.47429,4.03131 -0.47429,6.6401 0,2.70175 -0.43937,4.12893 -0.94859,6.16582 -0.55035,2.20139 -1.36421,4.3485 -2.37147,5.69152 -1.31168,1.74891 -1.37229,3.11771 -1.89717,5.21722 -0.55621,2.22485 -1.77788,2.36858 -2.37147,4.74294 -0.81147,3.24589 -1.55443,3.58315 -2.84576,6.16581 -1.1962,2.3924 -2.31808,3.68758 -3.32005,5.69152 -1.1178,2.2356 -0.94865,4.26894 -1.42288,6.64011 -0.32739,1.63695 -2.44878,2.92308 -3.32005,3.79435 -0.98575,0.98574 -2.07311,4.66132 -2.84577,5.69152 -1.36792,1.82389 -1.98853,2.46283 -3.32005,3.79435 -1.51751,1.5175 -2.48064,3.06411 -3.32005,4.74293 -0.80435,1.6087 -3.41874,2.8012 -4.74294,3.79435 -1.6245,1.21837 -2.59366,2.11937 -3.79434,3.32005 -1.38722,1.38721 -2.3634,3.46739 -3.32006,4.74294 -1.17073,1.56097 -2.86381,2.61763 -4.26864,3.32005 -2.40976,1.20488 -2.92097,2.29165 -5.69152,2.84576 -2.65908,0.53181 -3.32005,0.46139 -3.32005,3.79435 0,3.07895 -1.74351,2.69209 -3.32006,4.26864 -1.36331,1.36331 -3.3953,2.17194 -4.74293,2.84576 -2.84354,1.42177 -3.38188,1.48471 -5.21723,3.32005 -1.61885,1.61885 -2.55416,3.21115 -3.32005,4.74293 -0.90759,1.81519 -3.40075,1.42289 -5.69152,1.42289 -2.52957,0 -5.05913,0 -7.5887,0 -3.56884,0 -4.15951,1.78804 -4.26864,1.89717 -0.72363,0.72364 5.49863,3.27183 5.69152,3.32005 1.82263,0.45566 3.54062,0.94859 6.16582,0.94859 2.37146,0 4.74293,0 7.1144,0 2.78795,0 3.40133,-1.02987 4.74293,-2.37147 1.23973,-1.23973 3.12544,-2.58122 4.74294,-3.79434 1.99875,-1.49907 3.20935,-1.84183 5.21722,-2.84577 2.32596,-1.16297 2.64208,-2.16778 4.26864,-3.79434 1.69461,-1.69461 2.77448,-3.24877 4.26865,-4.74294 1.59776,-1.59776 3.17619,-1.60945 4.26864,-3.79434 0.89765,-1.79532 2.59639,-3.29561 3.32005,-4.74294 0.99102,-1.98204 3.46894,-3.94324 4.74293,-5.21722 1.11863,-1.11864 2.20025,-3.14884 3.32006,-4.26865 1.12135,-1.12135 2.79965,-2.11126 4.26864,-2.84576 1.58086,-0.79043 2.29619,-2.77048 3.32005,-3.79434 1.70178,-1.70179 2.5195,-3.14182 3.32006,-4.74294 0.91054,-1.82108 1.57038,-3.61507 2.37146,-5.21722 0.81219,-1.62438 2.43853,-3.38711 3.79435,-4.74294 1.33896,-1.33896 2.56209,-4.17559 3.32005,-5.69152 0.86487,-1.72973 2.43664,-2.0275 3.32006,-3.79435 0.91309,-1.82618 1.42288,-4.19603 1.42288,-6.6401 0,-2.60682 0.49554,-4.82793 0.94858,-6.64011 0.53988,-2.15951 2.23662,-3.1852 3.32006,-4.26864 0.85563,-0.85564 0.49466,-0.98933 0.94858,-1.89718 1.61587,-1.61587 1.01001,-6.41148 1.42288,-8.06298 0.49632,-1.98525 0.94859,-3.38016 0.94859,-6.16582 0,-1.28088 3.32006,-1.87583 3.32006,-5.21722 0,-2.37147 0,-4.74294 0,-7.11441 0,-2.37146 0,-4.74293 0,-7.1144 0,-1.90672 1.01204,-4.52247 1.42288,-6.16581 0.56345,-2.2538 0.47429,-4.64989 0.47429,-7.1144 0,-2.76001 0.47429,-4.04238 0.47429,-6.64011 0,-2.37147 0,-4.74293 0,-7.1144 0,-2.80387 -0.47429,-4.2481 -0.47429,-5.69152 0,-0.55245 1.99737,-3.24655 2.37147,-4.74293 0.48848,-1.95393 0.5475,-4.5615 0.94858,-6.16582 0.50557,-2.02229 1.42288,-2.66629 1.42288,-5.69152 0,-2.37147 0,-4.74293 0,-7.1144 0,-1.68605 -2.80133,-4.17978 -3.32005,-5.21723 -0.85251,-1.70501 -1.75208,-3.17496 -2.84576,-4.26864 -1.61517,-1.61517 -2.54883,-2.60795 -3.79435,-4.26864 -1.2213,-1.6284 -1.90043,-2.8588 -2.37147,-4.74293 -0.12282,-0.49132 0,-1.35332 0,-1.89718 -0.92419,-3.69677 1.19237,-4.98671 2.84576,-6.6401 1.66034,-1.66034 3.32006,-1.51513 3.32006,-4.74294 0,-2.46366 0.0737,-4.92242 -0.47429,-7.1144 -0.25707,-1.02827 0.67306,-5.06372 0.94858,-6.16581 0.70383,-2.8153 1.23052,-2.6534 2.84576,-4.26864 1.69789,-1.69789 2.56512,-2.94586 4.26864,-5.21723 1.17053,-1.5607 2.82412,-2.34982 4.26864,-3.79435 0.96954,-0.96953 1.98393,-3.66706 2.37147,-5.21722 0.73406,-2.93624 1.67875,-2.07972 4.74293,-2.84577 2.24251,-0.56062 3.46642,-1.2413 4.26864,-2.84576 1.12661,-2.2532 2.84577,-1.70671 2.84577,-5.21722 0,-3.49305 0.82773,-5.66918 -2.37147,-7.5887 z"
         style="fill:#f9f9f9;fill-rule:evenodd;stroke:#000000;stroke-width:0.97061557;stroke-linecap:butt;stroke-linejoin:miter;stroke-miterlimit:4;stroke-opacity:1;stroke-dasharray:none" />
      <path
         id="path5438"
         d="m 670.65086,890.62814 c 0,-0.90884 -5.8106,1.06766 -6.64011,1.89717 -1.47039,1.47039 4.14845,0.44424 6.16582,0.94859 1.87239,0.46809 0.66705,-1.88197 0.47429,-2.84576 z"
         style="fill:#f9f9f9;fill-rule:evenodd;stroke:#000000;stroke-width:0.97061557;stroke-linecap:butt;stroke-linejoin:miter;stroke-miterlimit:4;stroke-opacity:1;stroke-dasharray:none" />
      <path
         id="path5440"
         d="m 651.20483,874.97645 c 1.96419,0.49105 -3.83749,1.98346 -4.74293,3.79435 -1.00675,2.01349 4.37292,1.42288 5.69152,1.42288 3.84199,0 3.77971,-0.41577 4.26864,-2.37147 0.55517,-2.22068 -3.70769,-2.84576 -5.21723,-2.84576 z"
         style="fill:#f9f9f9;fill-rule:evenodd;stroke:#000000;stroke-width:0.97061557;stroke-linecap:butt;stroke-linejoin:miter;stroke-miterlimit:4;stroke-opacity:1;stroke-dasharray:none" />
      <path
         id="path5442"
         d="m 631.28451,874.97645 c 0.46334,-1.85337 3.79964,-0.938 1.89717,-4.74293 -1.03293,-2.06586 -3.26271,-2.74152 -4.74293,-2.37147 -2.51736,0.62934 -0.19717,4.8229 0,5.21723 0.50985,1.0197 1.89717,1.26478 2.84576,1.89717 z"
         style="fill:#f9f9f9;fill-rule:evenodd;stroke:#000000;stroke-width:0.97061557;stroke-linecap:butt;stroke-linejoin:miter;stroke-miterlimit:4;stroke-opacity:1;stroke-dasharray:none" />
      <path
         id="path5444"
         d="m 621.32435,854.58184 c 0.69634,1.39269 -3.16762,-2.9982 -4.26864,-1.89718 -1.13425,1.13425 0.79928,6.04289 0.94858,6.64011 0.27027,1.08109 4.55754,0.94859 6.16582,0.94859 2.1211,0 -1.34592,-4.19168 -2.84576,-5.69152 z"
         style="fill:#f9f9f9;fill-rule:evenodd;stroke:#000000;stroke-width:0.97061557;stroke-linecap:butt;stroke-linejoin:miter;stroke-miterlimit:4;stroke-opacity:1;stroke-dasharray:none" />
      <path
         id="path5446"
         d="m 617.53,846.51885 c 1.92334,0 -3.97123,-0.0884 -5.69152,-0.94859 -0.85898,-0.42948 1.67289,-5.46724 1.89717,-5.69152 2.10242,-2.10241 3.19199,3.28207 3.32006,3.79435 0.23324,0.93296 0.31619,1.89717 0.47429,2.84576 z"
         style="fill:#f9f9f9;fill-rule:evenodd;stroke:#000000;stroke-width:0.97061557;stroke-linecap:butt;stroke-linejoin:miter;stroke-miterlimit:4;stroke-opacity:1;stroke-dasharray:none" />
      <path
         id="path5448"
         d="m 606.62125,821.3813 c 0.58026,2.32102 -0.94859,4.72195 -0.94859,7.1144 0,3.20798 1.42186,3.32005 4.26864,3.32005 3.49861,0 4.02978,-0.007 3.32006,-2.84576 -0.62469,-2.49876 -1.795,-3.38566 -2.37147,-5.69152 -0.6743,-2.6972 0.0115,-4.24555 -0.94859,-6.16581 -0.4579,-0.91581 0.76168,-5.01629 0.4743,-6.16581 -0.51706,-2.06824 0,-4.96991 0,-7.11441 0,-1.37582 -0.6201,-4.85185 -0.94859,-6.16581 -0.51629,-2.06515 -1.35158,-3.03486 -1.89717,-5.21723 -0.41048,-1.64189 0.94858,-4.36012 0.94858,-6.6401 0,-1.37059 -3.85051,-3.85052 -4.74293,-4.74294 -1.4491,-1.4491 -2.09863,-2.57292 -3.32005,-3.79435 -2.00189,-2.00189 -2.84576,-1.71758 -2.84576,1.42288 0,2.37147 0,4.74294 0,7.11441 0,0.59246 3.43746,2.96317 3.79434,3.32005 0.94457,0.94456 1.82512,4.12452 2.37147,5.21723 1.00017,2.00033 0.87077,2.64752 -1.42288,3.79434 -1.71463,0.85732 -2.69526,2.22097 -3.79435,3.32006 -2.10241,2.10241 3.28207,3.19198 3.79435,3.32005 1.4295,0.35738 1.42288,5.25138 1.42288,6.64011 0,3.41315 0.3216,3.64165 1.89717,5.21723 0.59032,0.59032 0.94859,3.96739 0.94859,4.74293 z"
         style="fill:#f9f9f9;fill-rule:evenodd;stroke:#000000;stroke-width:0.97061557;stroke-linecap:butt;stroke-linejoin:miter;stroke-miterlimit:4;stroke-opacity:1;stroke-dasharray:none" />
      <path
         id="path5450"
         d="m 593.81533,750.23729 c 0.17757,0.17757 -2.93957,5.59245 -3.32005,7.1144 -0.50876,2.03504 -0.4743,4.33164 -0.4743,6.64011 0,1.90375 3.98876,0.37709 5.69152,-0.47429 1.06724,-0.53362 0.4743,-5.81578 0.4743,-6.16582 0,-2.24418 0.87352,-5.0671 1.42288,-6.16581 0.89545,-1.79092 1.42288,-4.10696 1.42288,-6.64011 0,-2.37147 0,-4.74293 0,-7.1144 0,-2.37147 0,-4.74293 0,-7.1144 0,-2.37147 0,-4.74294 0,-7.1144 0,-2.37147 0,-4.74294 0,-7.1144 0,-2.76251 0.1521,-4.57285 0.94858,-6.16582 0.89884,-1.79767 -0.32324,-5.34713 0,-6.64011 0.0701,-0.28032 6.46837,-3.19124 6.64011,-3.32005 1.57335,-1.18001 -1.24939,-5.9345 -1.42288,-6.16581 -1.89601,-2.52802 -4.83567,1.04133 -5.21723,1.42288 -1.41063,1.41063 -1.59119,3.18238 -2.37146,4.74293 -1.02417,2.04834 -2.11176,4.22351 -2.84576,5.69152 -1.03566,2.07132 -1.89718,3.28393 -1.89718,6.16582 0,2.83821 0.94859,4.31924 0.94859,6.6401 0,2.42346 0.0286,4.85742 0.47429,6.64011 0.51706,2.06823 0,4.9699 0,7.1144 0,2.37147 0,4.74294 0,7.1144 0,2.52957 0,5.05913 0,7.5887 0,1.75473 0.062,0.63853 -0.47429,3.32005 z"
         style="fill:#f9f9f9;fill-rule:evenodd;stroke:#000000;stroke-width:0.97061557;stroke-linecap:butt;stroke-linejoin:miter;stroke-miterlimit:4;stroke-opacity:1;stroke-dasharray:none" />
      <path
         id="path5452"
         d="m 611.83848,637.82976 c 0,1.45759 3.49761,-2.01635 2.84576,-3.32006 -0.98929,-1.97857 0.99593,-3.98372 1.42288,-5.69152 0.70813,-2.83254 -2.34001,-3.68364 -3.79435,-3.32005 -2.37844,0.59461 -1.89717,4.42938 -1.89717,6.64011 0,2.58282 -0.0572,3.22465 1.42288,5.69152 z"
         style="fill:#f9f9f9;fill-rule:evenodd;stroke:#000000;stroke-width:0.97061557;stroke-linecap:butt;stroke-linejoin:miter;stroke-miterlimit:4;stroke-opacity:1;stroke-dasharray:none" />
      <path
         id="path5454"
         d="m 613.73565,598.4634 c 0,1.31861 4.73923,-3.31263 5.21723,-4.26864 1.19984,-2.39968 -1.90669,-3.80386 -2.84576,-4.74293 -1.4491,-1.4491 -2.09863,-2.57292 -3.32005,-3.79435 -2.37189,-2.37188 -2.37147,4.81246 -2.37147,5.69152 0,0.45834 3.79435,1.42252 3.79435,4.26864 0,0.22359 0.31619,0.3162 0.47429,0.4743 0.60202,0.60202 -0.63239,1.58098 -0.94859,2.37146 z"
         style="fill:#f9f9f9;fill-rule:evenodd;stroke:#000000;stroke-width:0.97061557;stroke-linecap:butt;stroke-linejoin:miter;stroke-miterlimit:4;stroke-opacity:1;stroke-dasharray:none" />
      <path
         id="path5456"
         d="m 609.9413,562.8914 c 2.32585,2.32584 3.18439,-2.57442 3.79435,-3.79435 0.98931,-1.97861 1.42288,-2.67214 1.42288,-5.69152 0,-1.8401 1.83496,-3.0712 2.37147,-5.21723 0.65604,-2.62414 0.0451,-4.78803 1.89717,-6.6401 1.98939,-1.98939 -0.30094,-4.56958 -0.94858,-5.21723 -1.18837,-1.18837 -2.13169,2.60598 -3.32006,3.79435 -0.70878,0.70878 0,5.98744 0,7.1144 0,2.73049 -1.05137,3.42283 -2.37146,4.74293 -1.70939,1.70939 -2.37147,1.95191 -2.37147,5.21723 0,2.02664 -0.0678,3.65895 -0.4743,5.69152 z"
         style="fill:#f9f9f9;fill-rule:evenodd;stroke:#000000;stroke-width:0.97061557;stroke-linecap:butt;stroke-linejoin:miter;stroke-miterlimit:4;stroke-opacity:1;stroke-dasharray:none" />
      <path
         id="path5458"
         d="m 622.74723,511.19342 c 0,1.33902 -2.07709,5.69152 1.42288,5.69152 3.3239,0 3.7577,-3.17348 4.26864,-5.21723 0.43466,-1.73865 2.60124,-2.35671 3.32005,-3.79434 0.74024,-1.48049 0.47429,-5.15949 0.47429,-6.64011 0,-2.71221 1.186,-3.6366 2.37147,-5.21723 1.2432,-1.65759 2.68552,-2.68552 3.79435,-3.79435 1.56698,-1.56698 0.94859,-4.45993 0.94859,-6.6401 0,-3.62977 -1.53089,-1.84317 -3.32006,-0.94859 -1.47841,0.73921 -2.35381,2.82811 -3.32005,3.79435 -1.09116,1.09115 -1.1242,4.49679 -1.42288,5.69152 -0.60008,2.40031 -1.56961,3.13922 -2.37147,4.74293 -0.85462,1.70923 -1.7497,3.17258 -2.84576,4.26864 -1.03392,1.03392 -1.5939,4.47842 -1.89717,5.69152 -0.22359,0.89434 -0.94859,1.58098 -1.42288,2.37147 z"
         style="fill:#f9f9f9;fill-rule:evenodd;stroke:#000000;stroke-width:0.97061557;stroke-linecap:butt;stroke-linejoin:miter;stroke-miterlimit:4;stroke-opacity:1;stroke-dasharray:none" />
      <path
         id="path5460"
         d="m 663.06216,439.57512 c -0.44586,1.78344 -1.42288,3.82925 -1.42288,7.1144 0,3.18213 3.65021,0.61844 4.26865,0 1.52194,-1.52195 0.2349,-4.50354 1.89717,-6.16582 1.14521,-1.14521 1.58158,-4.90344 1.89717,-6.16581 0.63931,-2.55724 1.89718,-2.51058 1.89718,-5.69152 0,-1.84458 2.01939,-3.44228 2.84576,-4.26864 2.17218,-2.17219 3.02943,-0.7347 3.79434,-3.79435 0.69725,-2.78898 0.46587,-3.7775 1.42288,-5.69152 0.89334,-1.78667 0.4743,-4.51789 0.4743,-6.64011 0,-3.29915 -3.21971,-0.10034 -3.79435,0.4743 -1.51652,1.51652 -1.89717,2.59553 -1.89717,5.21722 0,2.08222 -1.025,4.09998 -1.42288,5.69153 -0.40943,1.63772 -2.15702,3.36544 -2.84576,4.74293 -0.99216,1.98431 -0.82477,3.77336 -1.42288,6.16581 -0.4673,1.86917 -1.29332,4.00951 -1.89718,5.21723 -0.83073,1.66145 -2.23658,2.54814 -3.79435,3.79435 z"
         style="fill:#f9f9f9;fill-rule:evenodd;stroke:#000000;stroke-width:0.97061557;stroke-linecap:butt;stroke-linejoin:miter;stroke-miterlimit:4;stroke-opacity:1;stroke-dasharray:none" />
      <path
         id="path5462"
         d="m 689.62259,387.87714 c -0.93286,1.86572 -4.74293,-1.16767 -4.74293,3.32005 0,1.72669 3.13114,2.27701 4.26864,2.84576 2.75598,1.37799 0.69867,-5.60488 0.47429,-6.16581 z"
         style="fill:#f9f9f9;fill-rule:evenodd;stroke:#000000;stroke-width:0.97061557;stroke-linecap:butt;stroke-linejoin:miter;stroke-miterlimit:4;stroke-opacity:1;stroke-dasharray:none" />
      <path
         id="path5464"
         d="m 693.89124,376.4941 c 1.7905,0.89525 2.82815,2.84576 5.69152,2.84576 2.71212,0 -0.43236,-4.65907 -0.4743,-4.74294 -1.12442,-2.24884 1.51782,-3.88918 -1.89717,-4.74293 -1.97895,-0.49474 -3.88925,1.51778 -4.74293,2.37147 -0.78737,0.78736 1.09982,2.65334 1.42288,4.26864 z"
         style="fill:#f9f9f9;fill-rule:evenodd;stroke:#000000;stroke-width:0.97061557;stroke-linecap:butt;stroke-linejoin:miter;stroke-miterlimit:4;stroke-opacity:1;stroke-dasharray:none" />
      <path
         id="path5466"
         d="m 709.54292,357.99665 c -0.49724,0.49724 -1.25231,3.62378 -2.84576,5.21723 -2.04869,2.04869 -0.17604,4.34321 1.42288,4.74294 3.31191,0.82797 3.44053,-1.18954 4.26864,-2.84577 1.12664,-2.25327 2.58375,-3.53233 3.79434,-4.74293 1.29204,-1.29203 1.69606,-3.39211 2.37147,-4.74293 1.14026,-2.28052 0.12296,-4.49703 -0.47429,-5.69152 -0.82454,-1.64908 -3.43923,1.54205 -4.74294,2.84576 -1.76374,1.76374 -3.27351,2.61308 -3.79434,5.21722 z"
         style="fill:#f9f9f9;fill-rule:evenodd;stroke:#000000;stroke-width:0.97061557;stroke-linecap:butt;stroke-linejoin:miter;stroke-miterlimit:4;stroke-opacity:1;stroke-dasharray:none" />
      <path
         id="path5468"
         d="m 726.61748,330.96193 c -1.33025,1.33025 -2.9651,4.50732 -4.26864,7.1144 -1.2508,2.50159 -2.12354,2.88888 -1.42288,5.69152 0.20495,0.81979 5.20642,-1.89177 5.21723,-1.89717 1.38606,-0.69304 2.51368,-2.94034 2.84576,-4.26864 0.60337,-2.41349 0.63125,-3.95131 1.89717,-5.21723 1.81499,-1.81499 1.16096,-3.3696 0.47429,-4.74293 -1.37174,-2.74349 -4.70431,3.12693 -4.74293,3.32005 z"
         style="fill:#f9f9f9;fill-rule:evenodd;stroke:#000000;stroke-width:0.97061557;stroke-linecap:butt;stroke-linejoin:miter;stroke-miterlimit:4;stroke-opacity:1;stroke-dasharray:none" />
      <path
         id="path5470"
         d="m 807.72165,333.80769 c -1.05108,-2.10217 -4.9782,-0.70956 -6.64011,-2.37147 -1.52055,-1.52055 -4.05587,-0.64606 -4.74293,-0.47429 -0.24617,0.0615 0,6.47189 0,7.1144 0,1.13503 -4.39814,-1.46657 -4.74294,-2.84576 -0.51705,-2.06823 0,-4.9699 0,-7.1144 0,-0.79736 -6.11525,-2.12168 -7.1144,-2.37147 -1.37639,-0.3441 -3.15431,-4.50006 -4.74293,-5.69152 -2.38026,-1.7852 -3.48963,-2.37146 -6.64011,-2.37146 -2.94608,0 -1.84298,-3.06254 -1.42288,-4.74294 0.46672,-1.86689 4.51017,-1.95755 6.16582,-2.37147 2.61626,-0.65406 4.86269,1.24562 6.16581,1.89718 2.49153,1.24576 3.93748,3.60632 5.21723,6.16581 1.23735,2.47471 2.14525,3.09384 3.79434,4.74294 1.62496,1.62496 1.86538,2.59271 4.26865,3.79434 1.49481,0.74741 5.39909,0 7.1144,0 2.85482,0 3.3763,1.00484 4.74293,2.37147 1.06055,1.06055 -0.65121,2.98253 -1.42288,4.26864 z"
         style="fill:#f9f9f9;fill-rule:evenodd;stroke:#000000;stroke-width:0.97061557;stroke-linecap:butt;stroke-linejoin:miter;stroke-miterlimit:4;stroke-opacity:1;stroke-dasharray:none" />
      <path
         id="path5472"
         d="m 782.5841,346.61361 c 0.84778,0.84778 -3.91242,4.80198 -4.74293,5.21723 -3.33575,1.66787 -4.24921,0.90973 -2.84576,-1.89717 0.89213,-1.78427 1.46422,-4.43401 1.89717,-6.16582 0.64923,-2.5969 -2.49611,-1.5977 1.89717,-3.79435 1.79006,-0.89503 3.53814,-0.94858 6.16582,-0.94858 2.30319,0 -0.22084,4.20339 -0.4743,5.21723 -0.24552,0.98209 -1.26478,1.58097 -1.89717,2.37146 z"
         style="fill:#f9f9f9;fill-rule:evenodd;stroke:#000000;stroke-width:0.97061557;stroke-linecap:butt;stroke-linejoin:miter;stroke-miterlimit:4;stroke-opacity:1;stroke-dasharray:none" />
      <path
         id="path5474"
         d="m 792.54426,347.5622 c -0.5021,2.0084 -5.45545,-2.37362 -3.32005,1.89717 1.53286,3.06573 2.18768,3.51126 5.21722,4.26864 3.43242,0.85811 -0.27066,-3.59072 -0.47429,-3.79434 -0.65185,-0.65186 -0.94859,-1.58098 -1.42288,-2.37147 z"
         style="fill:#f9f9f9;fill-rule:evenodd;stroke:#000000;stroke-width:0.97061557;stroke-linecap:butt;stroke-linejoin:miter;stroke-miterlimit:4;stroke-opacity:1;stroke-dasharray:none" />
      <path
         id="path5476"
         d="m 798.71008,362.26529 c -2.49111,-2.4911 -4.11226,-0.15638 -5.69153,1.42288 -1.20921,1.20922 3.05943,1.63655 4.26865,2.84576 3.00347,3.00348 3.34038,-1.87176 1.42288,-4.26864 z"
         style="fill:#f9f9f9;fill-rule:evenodd;stroke:#000000;stroke-width:0.97061557;stroke-linecap:butt;stroke-linejoin:miter;stroke-miterlimit:4;stroke-opacity:1;stroke-dasharray:none" />
      <path
         id="path5478"
         d="m 822.42475,357.99665 c 1.42288,1.42288 -3.7806,2.31647 -4.26865,4.26864 -0.57089,2.28357 -2.09299,3.32006 1.89718,3.32006 3.09347,0 4.53458,0.83342 5.21723,-1.89718 0.0774,-0.30957 -2.30451,-4.96984 -2.84576,-5.69152 z"
         style="fill:#f9f9f9;fill-rule:evenodd;stroke:#000000;stroke-width:0.97061557;stroke-linecap:butt;stroke-linejoin:miter;stroke-miterlimit:4;stroke-opacity:1;stroke-dasharray:none" />
      <path
         id="path5480"
         d="m 835.70496,352.30513 c 0.43719,-1.74877 -4.26864,1.51746 -4.26864,3.32006 0,1.57453 3.63133,1.89717 5.21723,1.89717 4.25803,0 0.88307,-4.11823 -0.94859,-5.21723 z"
         style="fill:#f9f9f9;fill-rule:evenodd;stroke:#000000;stroke-width:0.97061557;stroke-linecap:butt;stroke-linejoin:miter;stroke-miterlimit:4;stroke-opacity:1;stroke-dasharray:none" />
      <path
         id="path5482"
         d="m 753.6522,315.31025 c 2.23584,0 -4.20066,2.57385 -4.74293,4.74293 -0.86835,3.47341 2.80654,2.37147 5.21723,2.37147 0.72166,0 3.79259,-3.43731 4.26864,-3.79435 2.59018,-1.94264 3.32005,1.02293 3.32005,-3.79435 0,-3.05755 -1.76845,-2.87794 -3.79435,-2.37146 -1.6942,0.42355 -2.05119,1.95878 -4.26864,2.84576 z"
         style="fill:#f9f9f9;fill-rule:evenodd;stroke:#000000;stroke-width:0.97061557;stroke-linecap:butt;stroke-linejoin:miter;stroke-miterlimit:4;stroke-opacity:1;stroke-dasharray:none" />
      <path
         id="path5484"
         d="m 738.94911,324.32182 c -2.35084,0.58771 -2.72231,3.30054 -3.32006,5.69152 -0.83119,3.32478 4.01466,0.25398 4.26864,0 0.8864,-0.88639 -0.79849,-5.31628 -0.94858,-5.69152 z"
         style="fill:#f9f9f9;fill-rule:evenodd;stroke:#000000;stroke-width:0.97061557;stroke-linecap:butt;stroke-linejoin:miter;stroke-miterlimit:4;stroke-opacity:1;stroke-dasharray:none" />
      <path
         id="path5486"
         d="m 749.38356,326.219 c 1.49985,-1.49985 -4.74293,0.94858 -5.69152,2.84576 -1.51738,3.03476 2.84461,2.48975 4.26864,2.84576 2.34914,0.58728 1.42288,-4.13438 1.42288,-5.69152 z"
         style="fill:#f9f9f9;fill-rule:evenodd;stroke:#000000;stroke-width:0.97061557;stroke-linecap:butt;stroke-linejoin:miter;stroke-miterlimit:4;stroke-opacity:1;stroke-dasharray:none" />
    </g>
    <rect
       style="fill:none;stroke:#000000;stroke-width:0.2;stroke-linecap:round;stroke-miterlimit:4;stroke-opacity:1;stroke-dasharray:none;stroke-dashoffset:0"
       id="rect5518"
       width="1182.8877"
       height="1060.52"
       x="-220.26186"
       y="25.881615" />
    <path
       style="fill:#f9f9f9;fill-rule:evenodd;stroke:#000000;stroke-width:0.2;stroke-linecap:butt;stroke-linejoin:miter;stroke-miterlimit:4;stroke-opacity:1;stroke-dasharray:none"
       d="m 493.85121,764.36209 c 0,0 -1.02124,4.63513 -1.66161,7.19449 -0.60381,2.41328 0,5.79906 0,8.30134 0,3.51811 -1.53714,3.37657 -2.21546,6.08765 -0.43065,1.72119 -2.54364,3.42287 -3.32323,4.9808 -1.14666,2.29143 -1.5769,4.08875 -2.21549,6.64108 -0.60381,2.41329 0,5.79904 0,8.30132 0,3.19103 -0.20232,5.38515 -1.10773,7.19451 -1.08138,2.16098 -3.05725,2.50135 -4.43097,3.87394 -1.88744,1.88591 -2.75361,2.18222 -3.87711,4.4274 -1.16027,2.31869 -1.98615,2.95746 -2.76934,6.08764 -0.76523,3.05846 -1.27344,4.75854 -2.21549,6.64107 -0.98621,1.97086 -1.10773,3.98311 -1.10773,7.1945 0,2.76711 0,5.53423 0,8.30134 0,2.76711 0,5.53423 0,8.30134 0,2.76711 0,5.53423 0,8.30134 0,1.26424 -2.77936,3.89397 -3.32323,4.9808 -1.73191,3.46105 -1.31258,2.86946 -4.43094,4.42738 -0.69885,0.34914 0.55385,6.69454 0.55385,7.74793 0,2.64365 -0.10195,5.94177 -0.55385,7.74791 -0.51488,2.05783 -0.71973,5.6437 -1.10776,7.1945 -0.57486,2.29761 -2.20199,3.82011 -2.76935,6.08764 -0.9036,3.6115 0.99726,5.64464 -1.66161,8.30134 -1.78644,1.785 -2.36254,2.8406 -4.43096,3.87396 -2.44098,1.21951 -1.6616,4.31826 -1.6616,7.19451 0,1.41259 -2.91445,3.347 -3.32323,4.9808 -0.77442,3.09517 -1.05435,5.42754 -2.21549,7.74791 -1.2843,2.56653 -0.2679,4.99882 0.55389,6.64107 1.07848,2.15529 0.41791,6.07751 0,7.74793 -0.68752,2.74781 -0.54302,5.49074 -1.10776,7.74794 -0.47599,1.9024 -3.04321,2.4873 -4.43096,3.8739 -2.11459,2.1129 -4.43095,-2.633 -4.43095,-4.4274 0,-2.7237 2.66431,-3.769 3.87708,-4.98076 1.63223,-1.63089 1.10776,-4.50313 1.10776,-7.19451 0,-2.22901 -4.09728,1.77028 -6.0926,2.76714 -4.69286,2.34451 -2.60749,-3.09055 -2.21546,-3.87397 1.16364,-2.32543 1.66161,-2.93098 1.66161,-6.64108 0,-3.65606 1.79586,-3.7398 -0.55388,-6.08763 -1.74392,-1.74251 -1.04227,-4.68905 -0.55388,-6.64108 0.59033,-2.35939 1.33216,-4.3224 2.21549,-6.08766 1.03456,-2.06743 -3.32322,-3.77618 -3.32322,-6.08764 0,-1.0704 -4.81677,-3.70604 -5.53871,-4.42738 -2.15958,-2.15783 -3.6659,-1.95099 -2.76935,-5.53423 0.66424,-2.65483 0.82957,-4.9833 -0.55387,-7.74791 -1.31701,-2.63188 -3.82089,-2.61471 -6.64645,-3.32053 -2.34266,-0.58519 -6.05697,-0.12947 -7.75418,-0.55343 -2.50937,-0.62685 -3.06049,-2.70149 -5.5387,-3.32054 -2.71063,-0.67711 -4.15478,-1.24557 -6.09257,-2.21369 -2.39785,-1.19795 -3.32322,-2.22175 -3.32322,-5.53424 0,-3.25106 1.55182,-4.20799 2.76934,-6.64107 1.27272,-2.54336 3.10601,-3.43988 4.43096,-6.08765 1.55798,-3.11341 3.25053,-2.35893 1.66161,-5.53423 -1.43146,-2.86063 -2.76934,-1.94486 -2.76934,-6.08763 0,-3.2047 1.57552,-3.52985 2.21548,-6.08765 0.41921,-1.67555 1.79166,-4.9472 2.21547,-6.64106 0.6537,-2.61263 2.61307,-2.69589 3.32322,-5.53424 0.81672,-3.26425 -0.3964,-5.37688 -1.66161,-6.64107 -1.15316,-1.15223 -1.10773,-5.54052 -1.10773,-7.74793 0,-2.63864 2.21549,-3.63277 2.21549,-6.64108 0,-3.06969 0.55385,-5.20696 0.55385,-7.74791 0,-1.84038 -2.21546,-4.40225 -2.21546,-7.74791 0,-2.76234 -1.5688,-2.67435 -3.32323,-4.42739 -1.85693,-1.85544 -3.07677,-1.22868 -3.87709,-4.42738 -0.30225,-1.20799 0.55387,-5.57331 0.55387,-7.74791 0,-3.87454 -1.56401,-4.32987 -3.32322,-6.08766 -2.41925,-2.41726 -2.96469,0.39038 -3.8771,2.21371 -1.62067,3.23873 -1.56947,3.22846 -3.8771,5.53423 -1.63671,1.63539 -3.30293,2.61355 -4.98484,3.87394 -2.68806,2.01445 -4.11817,1.2501 -3.32321,4.4274 0.58383,2.33345 1.66161,3.73326 1.66161,7.19448 0,3.17556 -0.24005,5.46053 -1.10774,7.19449 -0.68883,1.37654 -5.41679,-3.19872 -5.53871,-3.32054 -2.70154,-2.69935 -2.52551,-2.42948 -3.87708,-2.76709 -2.00253,-0.50023 -1.30977,4.07583 -2.76936,5.5342 -0.19626,0.1961 0.55387,6.37205 0.55387,7.74794 0,2.39406 3.5902,4.07899 -1.6616,2.7671 -3.34179,-0.83478 -3.92379,1.84687 -4.43096,3.87397 -0.41097,1.64245 -2.95459,2.40059 -3.32325,3.87397 -0.56639,2.26375 5.60208,0.1266 6.64647,2.21367 1.71741,3.43206 -3.6417,2.98502 -4.98483,3.32054 -1.63445,0.40827 -3.19518,3.61807 -3.87709,4.9808 -0.97512,1.94863 -1.10776,5.0552 -1.10776,7.1945 0,2.15232 -2.3582,4.01657 -3.32322,4.9808 -1.75541,1.75399 -2.76936,3.38078 -2.76936,6.64108 0,2.7671 0,5.53423 0,8.30134 0,0.58285 -3.51066,3.69515 -3.87709,4.42737 -1.42826,2.85424 -4.43095,1.946 -4.43095,6.64107 0,3.25715 -1.38369,3.73511 -3.87711,4.9808 -1.59717,0.79795 -2.82144,3.3726 -3.87707,4.4274 -0.25126,0.25103 -3.11732,1.00396 -3.32322,1.10684 -1.64349,1.64215 -7.70375,0.42766 -9.41582,0 -3.3895,-0.8467 -4.9081,-1.66028 -8.30805,-1.66028 -3.41277,0 -4.73207,0.70387 -6.64644,1.66028 -2.08643,1.04237 -5.27589,0.55343 -7.75418,0.55343 -2.54107,0 -5.55849,-0.55343 -8.30805,-0.55343 -2.76159,0 -4.94602,3.16534 -5.53872,5.53423 -0.61497,2.45792 -2.47001,2.8566 -1.6616,6.08764 1.04943,4.19438 -1.21975,2.98941 -3.8771,4.98081 -1.86829,1.4001 -1.10773,6.15741 -1.10773,8.30133 0,2.01161 1.6616,4.65411 1.6616,7.74794 0,2.61251 -2.13089,3.55497 -3.87709,4.42737 -2.15078,1.07451 -3.0747,4.48417 -3.87708,6.08764 -1.38748,2.77272 -2.68508,4.64396 -3.32322,7.1945 -0.23057,0.92145 -6.47978,2.13044 -6.64645,2.21369 -0.53341,0.26649 0,7.40591 0,8.30134 0,2.76711 0,5.53424 0,8.30131 0,1.8978 -4.89562,3.2314 -6.09259,4.4274 -2.01378,2.0122 -3.32322,1.4833 -3.32322,5.5342 0,2.1592 -2.21546,3.9285 -2.21546,6.0877 0,3.4855 -2.3729,4.5847 -3.87711,6.0876 -1.23389,1.2329 -2.22368,4.4438 -2.76934,5.5343 -1.33414,2.6661 -2.76936,1.9066 -2.76936,5.5342 0,2.7671 0,5.5342 0,8.3013 0,3.23653 -0.11073,5.20213 -1.10773,7.19453 -1.23454,2.4671 -2.61193,4.3881 -4.98483,4.9808 -3.66911,0.9166 -4.58177,-0.4027 -6.64645,1.6603 -1.38469,1.3836 -0.27695,5.2575 -1.66161,6.6411 -2.3133,2.3114 -2.76937,0.346 -2.76937,5.5342 0,0.6183 -4.04162,3.4849 -4.43096,3.874 -1.44174,1.4405 -2.38983,5.1242 -2.76934,6.641 -0.1988,0.7946 -6.90816,0.8955 -7.75419,1.1069 -3.04362,0.7603 -2.21547,2.5936 -2.21547,6.0876 0,3.6854 -0.51144,4.9384 -2.21549,6.6411 -2.32167,2.3198 -3.39124,0.4855 -5.53871,-1.6603 -1.69732,-1.6959 -3.53761,-2.2137 -6.64644,-2.2137 -2.06453,0 -3.38563,-3.9986 -3.87709,-4.9808 -1.87582,-3.7486 1.21314,-4.098 -2.76936,-6.0876 -2.22624,-1.1122 -3.16457,-2.1741 -5.53869,-2.7671 -1.839,-0.4594 -3.71746,3.7144 -4.43097,4.4274 -2.61724,2.6151 -3.59908,-2.7629 -3.87711,-3.874 -0.72829,-2.9109 -0.21031,-5.4011 -1.10773,-7.1945 -0.65622,-1.3114 -5.48151,-3.0295 -6.64644,-3.3205 -3.109,-0.7767 -4.29968,-0.033 -6.64645,0.5534 -1.15474,0.2884 -3.73241,3.1759 -4.43094,3.8739 -1.83697,1.8355 0.52217,-0.2608 -1.10777,0.5535 -0.9231,-0.1845 -1.84623,-0.369 -2.76934,-0.5535 -3.52502,-0.7044 -4.26106,2.9811 -4.98483,4.4274 -1.20604,2.4101 -4.43096,-1.593 -4.43096,3.874 0,3.6817 -0.79913,3.8739 -4.43098,3.8739 l 0.55388,27.1177 -64.80282,0.5535 0.153095,-300.21859 148.073965,44.0718 0.16333,48.99057 51.92163,0.0561 3.24664,-5.53931 39.38809,3.78257 35.72424,-70.2934 10.46649,0 9.81656,-29.95616 8.42761,0.0144 2.52171,5.20897 c 0,0 114.91519,4.48129 114.91519,4.48129 l 0,5e-5 z"
       id="path5174-1"
       sodipodi:nodetypes="csssssssssssssssssssssssssssssssssssssssssssssssssssssssssssssssssssssssssssssssssssssssscsssssssssssssssssssssssssssssssssssssssssssscssscccccccccccccccc" />
  </g>
</svg>
