<?xml version="1.0" encoding="UTF-8" standalone="no"?>
<!-- Created with Inkscape (http://www.inkscape.org/) -->

<svg
   xmlns:dc="http://purl.org/dc/elements/1.1/"
   xmlns:cc="http://creativecommons.org/ns#"
   xmlns:rdf="http://www.w3.org/1999/02/22-rdf-syntax-ns#"
   xmlns:svg="http://www.w3.org/2000/svg"
   xmlns="http://www.w3.org/2000/svg"
   xmlns:sodipodi="http://sodipodi.sourceforge.net/DTD/sodipodi-0.dtd"
   xmlns:inkscape="http://www.inkscape.org/namespaces/inkscape"
   width="314.83612"
   height="500"
   id="svg2"
   sodipodi:version="0.32"
   inkscape:version="0.92.4 (5da689c313, 2019-01-14)"
   sodipodi:docname="mJoseMariaMorelos.svg"
   inkscape:output_extension="org.inkscape.output.svg.inkscape"
   version="1.0">
  <defs
     id="defs4">
    <inkscape:perspective
       sodipodi:type="inkscape:persp3d"
       inkscape:vp_x="0 : 530.76001 : 1"
       inkscape:vp_y="0 : 1000 : 0"
       inkscape:vp_z="1183.8877 : 530.76001 : 1"
       inkscape:persp3d-origin="591.94385 : 353.84001 : 1"
       id="perspective2604" />
    <inkscape:perspective
       id="perspective4705"
       inkscape:persp3d-origin="0.5 : 0.33333333 : 1"
       inkscape:vp_z="1 : 0.5 : 1"
       inkscape:vp_y="0 : 1000 : 0"
       inkscape:vp_x="0 : 0.5 : 1"
       sodipodi:type="inkscape:persp3d" />
    <inkscape:perspective
       id="perspective4727"
       inkscape:persp3d-origin="0.5 : 0.33333333 : 1"
       inkscape:vp_z="1 : 0.5 : 1"
       inkscape:vp_y="0 : 1000 : 0"
       inkscape:vp_x="0 : 0.5 : 1"
       sodipodi:type="inkscape:persp3d" />
    <inkscape:perspective
       id="perspective4749"
       inkscape:persp3d-origin="0.5 : 0.33333333 : 1"
       inkscape:vp_z="1 : 0.5 : 1"
       inkscape:vp_y="0 : 1000 : 0"
       inkscape:vp_x="0 : 0.5 : 1"
       sodipodi:type="inkscape:persp3d" />
  </defs>
  <sodipodi:namedview
     id="base"
     pagecolor="#ffffff"
     bordercolor="#666666"
     borderopacity="1.0"
     inkscape:pageopacity="0.0"
     inkscape:pageshadow="2"
     inkscape:zoom="2"
     inkscape:cx="342.55638"
     inkscape:cy="257.20645"
     inkscape:document-units="px"
     inkscape:current-layer="layer1"
     inkscape:window-width="1920"
     inkscape:window-height="1051"
     inkscape:window-x="-9"
     inkscape:window-y="-9"
     showgrid="false"
     inkscape:window-maximized="1"
     fit-margin-top="0"
     fit-margin-left="0"
     fit-margin-right="0"
     fit-margin-bottom="0" />
  <metadata
     id="metadata7">
    <rdf:RDF>
      <cc:Work
         rdf:about="">
        <dc:format>image/svg+xml</dc:format>
        <dc:type
           rdf:resource="http://purl.org/dc/dcmitype/StillImage" />
        <dc:title></dc:title>
      </cc:Work>
    </rdf:RDF>
  </metadata>
  <g
     inkscape:label="Capa 1"
     inkscape:groupmode="layer"
     id="layer1"
     transform="translate(171.15709,-46.495692)">
    <g
       id="g3815">
      <path
         inkscape:connector-curvature="0"
         id="path5170"
         d="M -88.701004,304.2552 35.210022,216.88233 h 21.926647 l 4.079396,4.50644 -7.903792,27.78893 2.039697,17.02407 h -5.099246 l -5.099218,20.0282 h -4.589301 l -6.628987,20.27859 H 21.952043 l 4.844263,7.00946 -0.254956,25.03551 H 14.303194 l 2.294667,9.26293 7.39387,8.76237 6.629,-0.25034 -2.804586,5.50759 1.784741,9.01283 -117.53712,5.25726 z"
         style="fill:#f9f9f9;fill-rule:evenodd;stroke:#000000;stroke-width:0.12734844;stroke-linecap:butt;stroke-linejoin:miter;stroke-miterlimit:4;stroke-dasharray:none;stroke-opacity:1" />
      <path
         transform="translate(-171.15709,46.495692)"
         inkscape:connector-curvature="0"
         id="path3676"
         d="m 83.570877,328.48649 c -0.127831,-0.405 -0.349756,-16.43838 -0.493167,-35.62973 l -0.260748,-34.89337 61.843838,-43.60299 61.84385,-43.603 h 10.71589 10.71589 l 1.88282,1.9426 c 1.03556,1.06842 1.88284,2.26808 1.88284,2.6659 0,0.39782 -1.70975,6.74738 -3.79944,14.11013 l -3.79945,13.38683 1.03343,8.39454 1.03343,8.39455 h -2.52458 c -2.14397,0 -2.57591,0.20453 -2.86507,1.35662 -0.18727,0.74614 -1.34471,5.18641 -2.57208,9.86727 l -2.23159,8.51065 -2.35052,0.17646 -2.35052,0.17646 -3.18862,9.97809 -3.18863,9.97809 -6.03818,0.007 c -3.321,0.004 -6.03818,0.16019 -6.03818,0.34709 0,0.1869 1.06036,1.8206 2.35636,3.63044 l 2.35637,3.29062 v 12.27501 12.27501 h -6.18546 c -3.402,0 -6.18545,0.15465 -6.18545,0.34367 0,0.18902 0.54196,2.4663 1.20434,5.06063 1.05334,4.12551 1.66107,5.26424 4.84688,9.08178 l 3.64252,4.36483 h 3.0982 3.0982 l -1.23467,2.54134 c -1.17854,2.42578 -1.19547,2.73187 -0.37237,6.73229 l 0.86231,4.19096 -4.18543,0.3436 c -3.37732,0.27728 -108.900254,5.04796 -111.565741,5.04389 -0.415168,-6.3e-4 -0.859441,-0.33251 -0.987272,-0.73751 z"
         style="fill:#66bb6a;fill-opacity:0.78431373;fill-rule:evenodd;stroke-width:0.58909088" />
      <path
         transform="translate(-171.15709,46.495692)"
         inkscape:connector-curvature="0"
         id="path3678"
         d="m 225.11913,211.0632 c 0,-0.0156 -0.6508,-5.31429 -0.93587,-7.61969 l -0.0716,-0.57885 0.60401,-2.12804 c 0.3322,-1.17042 1.0867,-3.82841 1.67667,-5.90664 2.2717,-8.00231 3.03849,-10.73713 3.93732,-14.0427 l 0.19528,-0.71816 0.14761,-0.007 c 0.0812,-0.004 0.14761,-6.3e-4 0.14761,0.007 0,0.007 -1.44585,5.09649 -3.21301,11.3095 l -3.213,11.29638 0.49408,4.13185 c 0.27174,2.27251 0.49887,4.16416 0.50472,4.20366 l 0.0106,0.0718 h -0.14224 c -0.0782,0 -0.14224,-0.009 -0.14224,-0.0192 z"
         style="fill:#66bb6a;fill-opacity:0.78431373;fill-rule:evenodd;stroke-width:0.02209709" />
      <path
         transform="translate(-171.15709,46.495692)"
         inkscape:connector-curvature="0"
         id="path3680"
         d="m 230.53292,180.04737 c 0,-0.007 0.074,-0.28837 0.16441,-0.62526 0.4515,-1.6821 0.77945,-2.9575 0.93026,-3.61773 0.061,-0.26701 0.0781,-0.38421 0.0698,-0.47881 -0.0323,-0.36983 -0.64851,-1.28554 -1.50683,-2.23913 -0.1993,-0.22142 -0.33,-0.35738 -1.57727,-1.64072 l -0.67112,-0.69052 H 217.21784 206.4935 l -2.72459,1.92089 -2.72459,1.9209 -0.006,-0.17797 c -0.004,-0.0979 -0.004,-0.18034 0,-0.18324 0.004,-0.003 1.20761,-0.85184 2.67567,-1.88655 l 2.66921,-1.88129 10.9426,1.4e-4 10.94259,1.4e-4 1.99979,2.2096 c 1.09988,1.21528 2.00213,2.22699 2.005,2.24824 0.003,0.0212 -0.32044,1.18216 -0.71845,2.5798 l -0.72367,2.54117 -0.14886,0.007 c -0.0819,0.004 -0.14885,8.1e-4 -0.14885,-0.006 z"
         style="fill:#66bb6a;fill-opacity:0.78431373;fill-rule:evenodd;stroke-width:0.02209709" />
      <path
         transform="translate(-171.15709,46.495692)"
         inkscape:connector-curvature="0"
         id="path3682"
         d="m 172.75366,194.3539 0.006,-0.17777 14.13109,-9.96425 14.13109,-9.96425 0.006,0.17898 c 0.004,0.0984 0.004,0.18114 0,0.18378 -0.14253,0.10597 -28.26197,19.92128 -28.26983,19.92128 -0.006,0 -0.009,-0.08 -0.005,-0.17777 z"
         style="fill:#66bb6a;fill-opacity:0.78431373;fill-rule:evenodd;stroke-width:0.02209709" />
      <path
         transform="translate(-171.15709,46.495692)"
         inkscape:connector-curvature="0"
         id="path3684"
         d="m 141.29419,216.36669 c 0.0365,-0.0344 31.43109,-22.16648 31.44337,-22.16648 0.006,0 0.0115,0.078 0.0115,0.17328 v 0.17328 l -15.47951,10.91393 -15.47951,10.91394 -0.25878,0.006 c -0.15961,0.004 -0.25045,-0.002 -0.23704,-0.0142 z"
         style="fill:#66bb6a;fill-opacity:0.78431373;fill-rule:evenodd;stroke-width:0.02209709" />
      <path
         transform="translate(-171.15709,46.495692)"
         inkscape:connector-curvature="0"
         id="path3686"
         d="m 108.70173,239.34734 c 0.0115,-0.0106 7.34292,-5.18164 16.29194,-11.49116 l 16.27096,-11.47186 0.24708,0.006 0.24709,0.006 -7.41231,5.22596 c -4.07678,2.87428 -8.74555,6.16592 -10.37505,7.31475 -1.62951,1.14884 -5.62432,3.96539 -8.87737,6.259 l -5.91463,4.17022 h -0.24935 c -0.14352,0 -0.24044,-0.008 -0.22836,-0.0193 z"
         style="fill:#66bb6a;fill-opacity:0.78431373;fill-rule:evenodd;stroke-width:0.02209709" />
      <path
         transform="translate(-171.15709,46.495692)"
         inkscape:connector-curvature="0"
         id="path3688"
         d="m 82.526628,257.86686 c 0,-0.0611 0.656843,-0.52787 11.716981,-8.32656 6.444341,-4.54402 12.327131,-8.69232 13.072861,-9.21845 l 1.35588,-0.9566 0.24581,0.006 0.2458,0.006 -13.147413,9.26973 -13.147414,9.26973 -0.171252,0.007 -0.171253,0.007 z"
         style="fill:#66bb6a;fill-opacity:0.78431373;fill-rule:evenodd;stroke-width:0.02209709" />
      <path
         transform="translate(-171.15709,46.495692)"
         inkscape:connector-curvature="0"
         id="path3690"
         d="m 82.80595,283.40063 c -0.0064,-0.0881 -0.06689,-5.59941 -0.134335,-12.24732 -0.06744,-6.6479 -0.128729,-12.34315 -0.136191,-12.6561 l -0.01357,-0.569 0.151542,-4e-5 0.151541,-4e-5 -0.0069,0.28178 c -0.0064,0.26133 0.01401,3.14934 0.128839,18.20251 0.02392,3.13558 0.04356,6.02671 0.04366,6.42473 l 1.67e-4,0.72368 h -0.0865 -0.0865 z"
         style="fill:#66bb6a;fill-opacity:0.78431373;fill-rule:evenodd;stroke-width:0.02209709" />
      <path
         transform="translate(-171.15709,46.495692)"
         inkscape:connector-curvature="0"
         id="path3692"
         d="m 82.884774,291.67395 c -0.0022,-0.0381 -0.08533,-8.0274 -0.08458,-8.13086 0.0011,-0.15693 0.0023,-0.16171 0.0108,-0.0449 l 0.005,0.0684 h 0.08914 0.08914 l 0.0011,-0.47461 c 6.19e-4,-0.26104 0.0072,0.30586 0.01462,1.25976 0.0074,0.95391 0.01587,2.02793 0.01876,2.38672 0.01023,1.26657 0.03567,4.69302 0.03574,4.81445 l 7e-5,0.12305 h -0.08984 c -0.04941,0 -0.08989,-8.8e-4 -0.08996,-0.002 z"
         style="fill:#66bb6a;fill-opacity:0.78431373;fill-rule:evenodd;stroke-width:0.0078125" />
      <path
         transform="translate(-171.15709,46.495692)"
         inkscape:connector-curvature="0"
         id="path3694"
         d="m 82.970778,299.78332 c -2.6e-5,-0.01 -0.01934,-1.81933 -0.04293,-4.02148 -0.02358,-2.20215 -0.0429,-4.02237 -0.04292,-4.04492 l -4.3e-5,-0.041 h 0.08892 0.08892 l 0.0047,0.37695 c 0.0026,0.20733 0.0066,0.63887 0.009,0.95899 0.01031,1.42228 0.02836,3.69794 0.03902,4.92187 0.0064,0.73262 0.01161,1.45244 0.01162,1.59961 l 1.2e-5,0.26758 h -0.07813 c -0.0758,0 -0.07813,-5.2e-4 -0.07817,-0.0176 z"
         style="fill:#66bb6a;fill-opacity:0.78431373;fill-rule:evenodd;stroke-width:0.0078125" />
      <path
         transform="translate(-171.15709,46.495692)"
         inkscape:connector-curvature="0"
         id="path3696"
         d="m 83.045918,306.77551 c -0.0026,-0.11709 -0.01882,-1.58574 -0.03595,-3.26367 -0.01713,-1.67793 -0.03345,-3.19945 -0.03626,-3.38115 l -0.0051,-0.33036 0.0812,0.002 0.0812,0.002 0.0051,0.57812 c 0.01607,1.81654 0.02245,2.51713 0.02606,2.86328 0.0022,0.2127 0.0058,0.55196 0.0079,0.75391 0.0021,0.20195 0.0056,0.57812 0.0078,0.83594 0.0022,0.25781 0.0057,0.59355 0.0078,0.74609 0.0021,0.15254 0.0061,0.53135 0.0088,0.8418 l 0.005,0.56445 h -0.07439 -0.07438 z"
         style="fill:#66bb6a;fill-opacity:0.78431373;fill-rule:evenodd;stroke-width:0.0078125" />
      <path
         transform="translate(-171.15709,46.495692)"
         inkscape:connector-curvature="0"
         id="path3698"
         d="m 83.134644,315.11145 c -8.82e-4,-0.007 -0.08545,-7.9298 -0.08556,-8.01563 l -1.37e-4,-0.10742 h 0.07368 0.07368 l 0.0029,0.0762 c 0.0016,0.0419 0.0036,0.17637 0.0045,0.29883 8.89e-4,0.12246 0.0051,0.53555 0.0093,0.91797 0.0042,0.38242 0.01116,1.02051 0.01542,1.41797 0.0043,0.39746 0.0097,0.86855 0.01198,1.04687 0.0023,0.17832 0.0076,0.64063 0.01168,1.02735 0.0041,0.38672 0.0093,0.83144 0.0115,0.98828 0.0022,0.15683 0.0058,0.4539 0.008,0.66015 0.0022,0.20625 0.0057,0.48223 0.0078,0.61329 0.0021,0.13105 0.006,0.42724 0.0088,0.6582 l 0.005,0.41992 h -0.07913 c -0.04352,0 -0.07923,-8.8e-4 -0.07937,-0.002 z"
         style="fill:#66bb6a;fill-opacity:0.78431373;fill-rule:evenodd;stroke-width:0.0078125" />
      <path
         transform="translate(-171.15709,46.495692)"
         inkscape:connector-curvature="0"
         id="path3700"
         d="m 83.197333,321.2052 c -3e-5,-0.087 -0.01407,-1.46074 -0.0312,-3.05274 -0.01713,-1.59199 -0.03117,-2.92705 -0.0312,-2.96679 l -5.5e-5,-0.0723 h 0.07724 0.07724 l 0.0048,0.19727 c 0.0026,0.10849 0.01001,0.62617 0.01637,1.15039 0.0064,0.52422 0.01346,1.06562 0.01579,1.20312 0.0023,0.1375 0.0077,0.50313 0.01196,0.8125 0.0042,0.30938 0.01113,0.79453 0.01531,1.07813 0.0042,0.28359 0.01115,0.76172 0.01551,1.0625 0.0044,0.30078 0.0093,0.5917 0.01093,0.64648 l 0.003,0.0996 h -0.09284 -0.09284 z"
         style="fill:#66bb6a;fill-opacity:0.78431373;fill-rule:evenodd;stroke-width:0.0078125" />
      <path
         transform="translate(-171.15709,46.495692)"
         inkscape:connector-curvature="0"
         id="path3702"
         d="m 83.264503,327.32238 c -0.0028,-0.16005 -0.01708,-1.47753 -0.03183,-2.92773 -0.01475,-1.45019 -0.02832,-2.72549 -0.03017,-2.83398 l -0.0034,-0.19727 h 0.09163 0.09163 l 0.0053,0.36523 c 0.02937,2.00537 0.105566,5.52212 0.126196,5.82422 l 0.0041,0.0606 h -0.12427 -0.124271 z"
         style="fill:#66bb6a;fill-opacity:0.78431373;fill-rule:evenodd;stroke-width:0.0078125" />
      <path
         transform="translate(-171.15709,46.495692)"
         inkscape:connector-curvature="0"
         id="path3704"
         d="m 88.728637,329.18446 v -0.10862 l 0.08008,-0.005 c 0.04404,-0.003 0.21543,-0.0101 0.38086,-0.0166 1.798103,-0.0707 10.002904,-0.4229 15.737613,-0.67562 0.87619,-0.0386 1.60481,-0.0702 1.61914,-0.0702 h 0.0261 v 0.0933 0.0933 l -0.0332,0.004 c -0.0183,0.002 -0.43925,0.022 -0.93554,0.0437 -0.49629,0.0217 -1.17305,0.0517 -1.50391,0.0665 -7.334253,0.32865 -15.289724,0.68344 -15.32509,0.68344 h -0.046 z"
         style="fill:#66bb6a;fill-opacity:0.78431373;fill-rule:evenodd;stroke-width:0.0078125" />
      <path
         transform="translate(-171.15709,46.495692)"
         inkscape:connector-curvature="0"
         id="path3706"
         d="m 83.287441,329.52384 c -0.0017,-0.009 -0.0051,-0.27958 -0.0076,-0.60185 -0.0024,-0.32226 -0.0067,-0.74853 -0.0095,-0.94726 l -0.0051,-0.36133 h 0.125127 0.125128 l 0.0054,0.14648 c 0.0085,0.23122 0.02772,0.57751 0.03615,0.65238 0.01666,0.14793 0.105051,0.31158 0.249489,0.46191 0.170973,0.17794 0.378513,0.29512 0.597252,0.33722 0.103944,0.02 0.287183,0.0172 1.328768,-0.0201 0.505835,-0.0181 2.053893,-0.0785 2.599008,-0.10134 0.204845,-0.009 0.377893,-0.0156 0.384551,-0.0156 0.01026,0 0.01243,0.0169 0.01427,0.11133 l 0.0022,0.11132 -2.644532,0.11831 c -1.454492,0.0651 -2.678929,0.11968 -2.720972,0.12138 -0.07191,0.003 -0.07663,0.002 -0.0796,-0.0128 z"
         style="fill:#66bb6a;fill-opacity:0.78431373;fill-rule:evenodd;stroke-width:0.0078125" />
      <path
         transform="translate(-171.15709,46.495692)"
         inkscape:connector-curvature="0"
         id="path3708"
         d="m 106.57239,328.40303 v -0.0932 l 0.041,-0.004 c 0.0226,-0.002 0.93399,-0.0431 2.02539,-0.0907 1.93562,-0.0843 10.88927,-0.48032 11.00196,-0.4866 l 0.0566,-0.003 v 0.0919 0.0919 l -0.0566,0.005 c -0.0312,0.003 -0.33614,0.0169 -0.67774,0.0319 -0.74609,0.0328 -0.85105,0.0374 -7.25897,0.32409 -2.78716,0.12468 -5.08199,0.22668 -5.09961,0.22668 h -0.032 z"
         style="fill:#66bb6a;fill-opacity:0.78431373;fill-rule:evenodd;stroke-width:0.0078125" />
      <path
         transform="translate(-171.15709,46.495692)"
         inkscape:connector-curvature="0"
         id="path3710"
         d="m 119.69739,327.81653 v -0.0937 h 0.0322 c 0.0292,0 8.58099,-0.38201 11.28226,-0.50398 0.61768,-0.0279 1.13711,-0.0507 1.1543,-0.0507 h 0.0313 v 0.0925 0.0925 l -0.11914,0.005 c -0.16424,0.007 -2.52415,0.11252 -2.73633,0.12224 -0.61738,0.0283 -9.60922,0.42974 -9.62497,0.42974 h -0.0196 z"
         style="fill:#66bb6a;fill-opacity:0.78431373;fill-rule:evenodd;stroke-width:0.0078125" />
      <path
         transform="translate(-171.15709,46.495692)"
         inkscape:connector-curvature="0"
         id="path3712"
         d="m 132.19739,327.26114 v -0.0921 l 0.0332,-0.004 c 0.0183,-0.002 1.45176,-0.0677 3.18555,-0.14531 4.94226,-0.22136 7.28001,-0.32679 7.3457,-0.33127 l 0.0606,-0.004 v 0.0963 0.0963 l -0.10352,0.005 c -0.0569,0.003 -0.65371,0.0297 -1.32617,0.0597 -0.67246,0.0299 -1.3,0.058 -1.39453,0.0623 -0.0945,0.004 -1.86289,0.0833 -3.92969,0.17543 -2.0668,0.0922 -3.7833,0.16899 -3.81445,0.17073 l -0.0566,0.003 z"
         style="fill:#66bb6a;fill-opacity:0.78431373;fill-rule:evenodd;stroke-width:0.0078125" />
      <path
         transform="translate(-171.15709,46.495692)"
         inkscape:connector-curvature="0"
         id="path3714"
         d="m 142.82239,326.78165 v -0.0979 h 0.0235 c 0.0129,0 1.61342,-0.0721 3.55664,-0.16019 1.94321,-0.0881 4.15011,-0.18814 4.90421,-0.22229 0.7541,-0.0341 1.40362,-0.0642 1.44336,-0.0668 l 0.0723,-0.005 v 0.10203 0.10203 h -0.0388 c -0.0333,0 -1.87228,0.0813 -3.26588,0.14442 -0.23848,0.0108 -1.81172,0.081 -3.49609,0.15596 -1.68438,0.075 -3.09327,0.1384 -3.13086,0.14092 l -0.0684,0.005 z"
         style="fill:#66bb6a;fill-opacity:0.78431373;fill-rule:evenodd;stroke-width:0.0078125" />
      <path
         transform="translate(-171.15709,46.495692)"
         inkscape:connector-curvature="0"
         id="path3716"
         d="m 152.82239,326.3307 c 0,-0.0786 0.002,-0.10011 0.0105,-0.10011 0.0143,0 7.44339,-0.33927 8.81136,-0.4024 0.60456,-0.0279 1.11696,-0.0507 1.13867,-0.0507 h 0.0395 v 0.101 0.101 l -0.041,0.004 c -0.0226,0.002 -0.44531,0.0221 -0.93945,0.0438 -0.49414,0.0217 -1.16914,0.0516 -1.5,0.0664 -0.33086,0.0148 -2.13789,0.0954 -4.01563,0.17914 -1.87773,0.0837 -3.43427,0.15341 -3.45898,0.15492 l -0.0449,0.003 z"
         style="fill:#66bb6a;fill-opacity:0.78431373;fill-rule:evenodd;stroke-width:0.0078125" />
      <path
         transform="translate(-171.15709,46.495692)"
         inkscape:connector-curvature="0"
         id="path3718"
         d="m 162.82411,325.87717 0.002,-0.10342 2.92188,-0.13431 c 5.68124,-0.26116 6.33651,-0.29151 6.39258,-0.29614 l 0.0566,-0.005 v 0.11273 0.11274 l -0.12305,0.005 c -0.14904,0.006 -2.49033,0.11098 -2.73242,0.12204 -0.83679,0.0383 -6.46932,0.28916 -6.49136,0.28916 h -0.0286 z"
         style="fill:#66bb6a;fill-opacity:0.78431373;fill-rule:evenodd;stroke-width:0.0078125" />
      <path
         id="path3720"
         transform="translate(-171.15709,46.495692)"
         d="M 192.82031 324.36328 C 192.81864 324.36328 192.28515 324.38968 191.63477 324.42188 C 189.08658 324.54794 181.92678 324.88991 180.67773 324.94531 C 180.52734 324.95161 180.38588 324.96089 180.36328 324.96289 L 180.32227 324.9668 L 180.32227 324.96484 L 180.30078 324.96484 C 180.28869 324.96484 179.71828 324.99124 179.0332 325.02344 C 177.23914 325.10767 172.23534 325.33984 172.21484 325.33984 C 172.19777 325.33984 172.19727 325.3424 172.19727 325.45312 L 172.19727 325.56445 L 172.25 325.56055 C 172.27901 325.55878 173.32754 325.51273 174.58008 325.45703 C 175.83262 325.40135 177.05078 325.34664 177.28711 325.33594 C 177.52344 325.32524 178.27051 325.29172 178.94727 325.26172 C 179.62403 325.23172 180.2103 325.20612 180.25 325.20312 L 180.32227 325.19727 L 180.32227 325.08203 C 180.32227 325.17906 180.32498 325.19922 180.33398 325.19922 C 180.34339 325.19922 189.20072 324.80343 190.03711 324.76562 C 191.34271 324.70663 192.7512 324.64453 192.7832 324.64453 L 192.82227 324.64453 L 192.82227 324.50391 C 192.82227 324.42658 192.82231 324.36328 192.82031 324.36328 z "
         style="fill:#66bb6a;fill-opacity:0.78431373;fill-rule:evenodd;stroke-width:0.0078125" />
      <path
         transform="translate(-171.15709,46.495692)"
         inkscape:connector-curvature="0"
         id="path3725"
         d="m 192.82238,324.5029 1e-5,-0.13784 0.0684,-0.005 c 0.0376,-0.003 0.34785,-0.019 0.68945,-0.0361 1.08926,-0.0547 2.03944,-0.10649 2.36328,-0.12867 0.18657,-0.0128 4.36562,-0.35494 4.36793,-0.35763 7.7e-4,-9e-4 -0.0682,-0.33913 -0.15315,-0.75163 -0.78947,-3.83108 -0.99212,-4.82544 -0.99212,-4.86818 0,-0.015 0.30108,-0.0159 0.30663,-9.6e-4 0.007,0.0195 1.20314,6.06898 1.20025,6.07139 -0.002,0.001 -0.17876,0.0102 -0.3936,0.0196 -0.44857,0.0197 -0.26082,0.0113 -3.69141,0.16472 -1.4416,0.0645 -2.86015,0.12776 -3.15234,0.14065 -0.29219,0.0129 -0.54971,0.0243 -0.57228,0.0254 l -0.041,0.002 1e-5,-0.13784 z"
         style="fill:#66bb6a;fill-opacity:0.78431373;fill-rule:evenodd;stroke-width:0.0078125" />
      <path
         transform="translate(-171.15709,46.495692)"
         inkscape:connector-curvature="0"
         id="path3727"
         d="m 199.16243,318.20569 c -0.006,-0.0163 -0.0862,-0.46618 -0.12483,-0.69776 -0.1267,-0.7594 -0.17728,-1.34481 -0.15356,-1.77734 0.009,-0.16527 0.0244,-0.33843 0.0295,-0.33332 0.002,0.002 0.55727,2.79549 0.55727,2.80532 0,0.002 -0.0648,0.003 -0.14408,0.003 -0.0793,-5e-5 -0.14783,0.002 -0.1524,0.005 -0.005,0.003 -0.01,5.2e-4 -0.0119,-0.005 z"
         style="fill:#66bb6a;fill-opacity:0.78431373;fill-rule:evenodd;stroke-width:0.0078125" />
      <path
         transform="translate(-171.15709,46.495692)"
         inkscape:connector-curvature="0"
         id="path3729"
         d="m 198.93176,315.25572 c 0,-0.005 0.0106,-0.0619 0.0235,-0.12699 0.0906,-0.45615 0.24017,-0.87537 0.55869,-1.56611 0.11685,-0.25341 0.24182,-0.51257 0.90224,-1.87109 0.22037,-0.45332 0.45433,-0.93497 0.5199,-1.07032 l 0.11922,-0.24609 -3.09849,-0.004 -3.09849,-0.004 -0.2023,-0.24219 c -0.11127,-0.1332 -0.41057,-0.4918 -0.66513,-0.79688 -0.25455,-0.30507 -0.68654,-0.82275 -0.95998,-1.15039 l -0.49716,-0.5957 0.20877,2.2e-4 0.20876,2.2e-4 1.0771,1.27694 c 0.59241,0.70231 1.08122,1.28035 1.08624,1.28452 0.006,0.005 0.61833,-0.0154 1.75493,-0.0584 0.96019,-0.0363 2.43134,-0.0919 3.26923,-0.12363 0.83789,-0.0317 1.524,-0.0572 1.52468,-0.0566 0.002,10e-4 -2.7219,5.34927 -2.72719,5.35455 -0.002,0.002 -0.005,6e-4 -0.005,-0.004 z"
         style="fill:#66bb6a;fill-opacity:0.78431373;fill-rule:evenodd;stroke-width:0.0078125" />
      <path
         transform="translate(-171.15709,46.495692)"
         inkscape:connector-curvature="0"
         id="path3731"
         d="m 192.49634,307.53723 c -0.1264,-0.14736 -1.69189,-2.02928 -1.91153,-2.2979 -1.02696,-1.25599 -1.6835,-2.14253 -2.16449,-2.9228 -0.13246,-0.21488 -0.18566,-0.3055 -0.18168,-0.30949 0.003,-0.003 4.61629,5.45709 4.69564,5.55716 l 0.0142,0.0179 h -0.20682 -0.20683 z"
         style="fill:#66bb6a;fill-opacity:0.78431373;fill-rule:evenodd;stroke-width:0.0078125" />
      <path
         transform="translate(-171.15709,46.495692)"
         inkscape:connector-curvature="0"
         id="path3733"
         d="m 187.42862,300.36553 c -0.34226,-0.85732 -0.62112,-1.7548 -0.99958,-3.21697 -0.17973,-0.6944 -0.61337,-2.43152 -0.78897,-3.16051 l -0.11188,-0.46449 0.10912,-0.002 c 0.06,-0.001 0.11103,-2.6e-4 0.11336,0.002 0.007,0.007 1.71277,6.89737 1.71048,6.90848 -0.001,0.005 -0.0158,-0.0244 -0.0325,-0.0664 z"
         style="fill:#66bb6a;fill-opacity:0.78431373;fill-rule:evenodd;stroke-width:0.0078125" />
      <path
         transform="translate(-171.15709,46.495692)"
         inkscape:connector-curvature="0"
         id="path3735"
         d="m 185.52551,293.5166 c 0,-0.002 -0.0402,-0.17482 -0.0894,-0.38477 -0.12084,-0.516 -0.21829,-0.9587 -0.24821,-1.12754 -0.0217,-0.1226 -0.0234,-0.14128 -0.0135,-0.15324 0.10831,-0.13118 1.6708,-0.25383 3.81984,-0.29985 0.2084,-0.004 0.42285,-0.0103 0.47656,-0.0129 0.0537,-0.003 1.89063,-0.007 4.08204,-0.01 l 3.98437,-0.005 0.002,-1.97071 0.002,-1.9707 h 0.0664 0.0664 l -1e-4,0.17383 c -8e-5,0.0956 -0.009,1.00351 -0.0194,2.01758 -0.0106,1.01406 -0.0194,1.92724 -0.0194,2.02929 l -9e-5,0.18555 h -6.12891 c -3.72807,0 -6.12891,0.003 -6.12891,0.007 0,0.004 0.0844,0.34723 0.1875,0.76283 0.10313,0.4156 0.1875,0.75689 0.1875,0.75843 0,0.002 -0.051,0.003 -0.11328,0.003 -0.0623,0 -0.11328,-0.001 -0.11328,-0.003 z"
         style="fill:#66bb6a;fill-opacity:0.78431373;fill-rule:evenodd;stroke-width:0.0078125" />
      <path
         transform="translate(-171.15709,46.495692)"
         inkscape:connector-curvature="0"
         id="path3737"
         d="m 197.54114,284.45715 v -3.125 h 0.0976 0.0977 l 2.7e-4,0.14258 c 5.3e-4,0.27685 -0.0555,5.88632 -0.0599,5.99609 l -0.004,0.11133 h -0.0656 -0.0656 z"
         style="fill:#66bb6a;fill-opacity:0.78431373;fill-rule:evenodd;stroke-width:0.0078125" />
      <path
         transform="translate(-171.15709,46.495692)"
         inkscape:connector-curvature="0"
         id="path3739"
         d="m 197.54114,278.20715 v -3.125 h 0.13331 0.13332 l -0.004,0.13867 c -0.002,0.0763 -0.0175,1.48252 -0.0335,3.125 l -0.0291,2.98633 h -0.0998 -0.0998 z"
         style="fill:#66bb6a;fill-opacity:0.78431373;fill-rule:evenodd;stroke-width:0.0078125" />
      <path
         transform="translate(-171.15709,46.495692)"
         inkscape:connector-curvature="0"
         id="path3741"
         d="m 197.54114,271.64465 v -3.4375 h 0.16663 0.16664 l -0.003,0.22461 c -0.006,0.43141 -0.0647,6.36645 -0.0647,6.50781 l 1e-5,0.14258 h -0.13281 -0.13281 z"
         style="fill:#66bb6a;fill-opacity:0.78431373;fill-rule:evenodd;stroke-width:0.0078125" />
      <path
         transform="translate(-171.15709,46.495692)"
         inkscape:connector-curvature="0"
         id="path3743"
         d="m 197.54114,267.59126 v -0.61589 l -0.0298,-0.0423 c -0.0164,-0.0233 -0.22496,-0.31477 -0.46346,-0.64777 -0.23851,-0.33301 -0.62122,-0.86739 -0.85047,-1.1875 -0.22925,-0.32012 -0.52761,-0.73672 -0.66303,-0.92579 -0.73555,-1.02697 -1.06192,-1.49235 -1.50121,-2.14062 -0.20224,-0.29844 -0.46076,-0.68864 -0.46076,-0.69543 0,-0.002 0.083,-0.003 0.18451,-0.002 l 0.1845,0.002 1.97229,2.8538 1.97229,2.8538 -0.006,0.58174 -0.006,0.58175 h -0.16677 -0.16676 z"
         style="fill:#66bb6a;fill-opacity:0.78431373;fill-rule:evenodd;stroke-width:0.0078125" />
      <path
         transform="translate(-171.15709,46.495692)"
         inkscape:connector-curvature="0"
         id="path3745"
         d="m 193.45741,261.16223 c -0.44558,-0.69324 -0.66175,-1.08143 -0.62611,-1.12437 0.0215,-0.0259 0.15799,-0.0738 0.17074,-0.0599 0.003,0.004 0.20372,0.29304 0.44542,0.64323 0.2417,0.3502 0.45129,0.65342 0.46577,0.67383 l 0.0263,0.0371 h -0.18646 -0.18646 z"
         style="fill:#66bb6a;fill-opacity:0.78431373;fill-rule:evenodd;stroke-width:0.0078125" />
      <path
         transform="translate(-171.15709,46.495692)"
         inkscape:connector-curvature="0"
         id="path3747"
         d="m 193.13554,259.94628 c 0.005,-0.005 0.22396,-0.0346 0.37825,-0.0514 0.72776,-0.0794 1.90573,-0.1362 3.58203,-0.17275 0.41666,-0.009 3.79776,-0.0215 6.06446,-0.0223 l 1.53711,-5.2e-4 v 0.125 0.125 h -5.78255 c -3.18041,0 -5.78109,-0.001 -5.7793,-0.003 z"
         style="fill:#66bb6a;fill-opacity:0.78431373;fill-rule:evenodd;stroke-width:0.0078125" />
      <path
         transform="translate(-171.15709,46.495692)"
         inkscape:connector-curvature="0"
         id="path3749"
         d="m 204.69739,259.82449 v -0.12515 h 0.10126 0.10127 l 0.0584,-0.18164 c 0.0321,-0.0999 0.12688,-0.3961 0.2106,-0.65821 0.18207,-0.57004 0.38361,-1.20084 0.634,-1.98437 0.10162,-0.31797 0.25156,-0.78731 0.3332,-1.04297 0.0816,-0.25566 0.16881,-0.52812 0.1937,-0.60547 l 0.0452,-0.14062 0.12896,-0.002 0.12896,-0.002 -0.0694,0.21308 c -0.0382,0.11719 -0.3958,1.21151 -0.79478,2.43182 l -0.7254,2.21875 -0.17302,0.002 -0.17301,0.002 z"
         style="fill:#66bb6a;fill-opacity:0.78431373;fill-rule:evenodd;stroke-width:0.0078125" />
      <path
         transform="translate(-171.15709,46.495692)"
         inkscape:connector-curvature="0"
         id="path3751"
         d="m 206.38037,255.06848 c 0.012,-0.0377 0.17615,-0.55158 0.38997,-1.2207 0.13113,-0.41036 0.2811,-0.87969 0.33327,-1.04297 0.17345,-0.54285 0.38611,-1.20805 0.72305,-2.26172 0.18344,-0.57363 0.33599,-1.05176 0.33901,-1.0625 l 0.005,-0.0195 0.15041,-0.002 c 0.14095,-0.002 0.15014,-0.001 0.14598,0.0117 -0.002,0.008 -0.38431,1.17576 -0.84859,2.59588 -0.46429,1.42011 -0.87593,2.67959 -0.91476,2.79882 l -0.0706,0.2168 h -0.12879 c -0.11911,0 -0.12847,-0.001 -0.12445,-0.0137 z"
         style="fill:#66bb6a;fill-opacity:0.78431373;fill-rule:evenodd;stroke-width:0.0078125" />
      <path
         transform="translate(-171.15709,46.495692)"
         inkscape:connector-curvature="0"
         id="path3753"
         d="m 208.17592,249.44756 c 0.002,-0.005 0.0661,-0.20506 0.14231,-0.44353 0.0762,-0.23848 0.2082,-0.65157 0.29334,-0.91797 0.0851,-0.26641 0.25029,-0.78321 0.36699,-1.14844 0.11671,-0.36524 0.27849,-0.87149 0.35952,-1.125 0.081,-0.25352 0.1979,-0.61914 0.2597,-0.8125 0.0618,-0.19336 0.21585,-0.67585 0.34232,-1.07221 l 0.22994,-0.72064 0.16993,-6e-5 c 0.1309,-5e-5 0.16986,0.002 0.16965,0.01 -1.4e-4,0.005 -0.4584,1.41074 -1.01834,3.12304 l -1.01807,3.11328 -0.15053,0.002 c -0.11926,0.002 -0.14975,6e-5 -0.14676,-0.008 z"
         style="fill:#66bb6a;fill-opacity:0.78431373;fill-rule:evenodd;stroke-width:0.0078125" />
      <path
         transform="translate(-171.15709,46.495692)"
         inkscape:connector-curvature="0"
         id="path3755"
         d="m 210.17395,243.20222 c 0,-0.005 0.0234,-0.0786 0.70705,-2.21773 0.13184,-0.4125 0.27505,-0.86087 0.31826,-0.99639 l 0.0786,-0.24638 0.18729,-0.0137 c 0.10301,-0.008 0.18809,-0.0127 0.18907,-0.0114 9.8e-4,0.001 -0.25494,0.78717 -0.56872,1.74645 l -0.5705,1.74414 h -0.1705 c -0.0938,0 -0.17051,-0.002 -0.17051,-0.005 z"
         style="fill:#66bb6a;fill-opacity:0.78431373;fill-rule:evenodd;stroke-width:0.0078125" />
      <path
         transform="translate(-171.15709,46.495692)"
         inkscape:connector-curvature="0"
         id="path3757"
         d="m 212.33411,239.6634 c 0.009,-0.001 0.82421,-0.0626 1.8125,-0.13593 0.98828,-0.0734 1.80527,-0.13588 1.81554,-0.13895 0.0204,-0.006 -0.0154,0.12624 0.53264,-1.96653 0.099,-0.37812 0.18559,-0.70771 0.19235,-0.73242 l 0.0123,-0.0449 h 0.16303 c 0.0897,0 0.16303,0.002 0.16303,0.004 0,0.002 -0.17226,0.68089 -0.38281,1.50768 -0.21055,0.82678 -0.38281,1.50506 -0.38281,1.50728 0,0.002 -0.88682,0.004 -1.97071,0.003 -1.08388,-5.8e-4 -1.96367,-0.002 -1.95507,-0.004 z"
         style="fill:#66bb6a;fill-opacity:0.78431373;fill-rule:evenodd;stroke-width:0.0078125" />
      <path
         transform="translate(-171.15709,46.495692)"
         inkscape:connector-curvature="0"
         id="path3759"
         d="m 216.72474,236.54519 c 0.0291,-0.11047 0.16481,-0.62766 0.38279,-1.45913 0.18964,-0.7234 0.41758,-1.59274 0.54796,-2.08985 0.35821,-1.36573 0.68155,-2.59987 0.81875,-3.125 l 0.0255,-0.0976 0.13854,-0.002 0.13853,-0.002 -0.005,0.0217 c -0.003,0.0119 -0.39598,1.558 -0.87408,3.43573 l -0.86929,3.41406 -0.16511,0.002 -0.16512,0.002 z"
         style="fill:#66bb6a;fill-opacity:0.78431373;fill-rule:evenodd;stroke-width:0.0078125" />
      <path
         transform="translate(-171.15709,46.495692)"
         inkscape:connector-curvature="0"
         id="path3761"
         d="m 218.50492,229.75616 c 0.005,-0.0186 0.62169,-2.3748 0.85269,-3.25995 0.10149,-0.38886 0.24561,-0.94082 0.32027,-1.22656 0.29197,-1.11745 0.85275,-3.27553 0.97646,-3.75781 0.19211,-0.74892 0.21809,-0.83699 0.29954,-1.01563 l 0.0445,-0.0976 0.0833,-0.002 0.0833,-0.002 -0.082,0.32253 c -0.0451,0.17739 -0.58194,2.286 -1.19294,4.6858 l -1.11091,4.36328 -0.13909,0.002 c -0.13002,0.002 -0.13882,10e-4 -0.13507,-0.0117 z"
         style="fill:#66bb6a;fill-opacity:0.78431373;fill-rule:evenodd;stroke-width:0.0078125" />
      <path
         transform="translate(-171.15709,46.495692)"
         inkscape:connector-curvature="0"
         id="path3763"
         d="m 221.02663,220.35363 c 0.0447,-0.0759 0.0998,-0.15066 0.15595,-0.2116 0.0307,-0.0333 0.057,-0.0594 0.0584,-0.0579 0.001,0.001 -0.0148,0.071 -0.0361,0.15464 -0.0213,0.0836 -0.0387,0.15289 -0.0387,0.15397 -1e-5,0.001 -0.0368,0.002 -0.0819,0.002 h -0.0818 z"
         style="fill:#66bb6a;fill-opacity:0.78431373;fill-rule:evenodd;stroke-width:0.0078125" />
      <path
         transform="translate(-171.15709,46.495692)"
         inkscape:connector-curvature="0"
         id="path3765"
         d="m 226.17047,219.62707 c -0.002,-0.005 -0.0912,-0.72871 -0.19896,-1.60742 -0.21537,-1.75567 -0.58425,-4.75705 -0.58883,-4.79102 l -0.003,-0.0215 h 0.14144 0.14144 l 0.38127,3.18555 c 0.2097,1.75205 0.3832,3.19873 0.38555,3.21484 l 0.004,0.0293 h -0.13015 c -0.0973,0 -0.1309,-0.002 -0.13314,-0.01 z"
         style="fill:#66bb6a;fill-opacity:0.78431373;fill-rule:evenodd;stroke-width:0.0078125" />
      <path
         transform="translate(-171.15709,46.495692)"
         inkscape:connector-curvature="0"
         id="path3767"
         d="m 225.35489,213.00598 c -0.0136,-0.11065 -0.0722,-0.5868 -0.13017,-1.05813 -0.058,-0.47132 -0.10546,-0.8598 -0.10546,-0.86328 0,-0.005 0.28153,-0.004 0.28725,10e-4 0.003,0.003 0.25181,2.0809 0.25181,2.10307 v 0.0184 h -0.13935 -0.13936 z"
         style="fill:#66bb6a;fill-opacity:0.78431373;fill-rule:evenodd;stroke-width:0.0078125" />
    </g>
  </g>
</svg>
