<?xml version="1.0" encoding="UTF-8" standalone="no"?>
<!-- Created with Inkscape (http://www.inkscape.org/) -->

<svg
   xmlns:dc="http://purl.org/dc/elements/1.1/"
   xmlns:cc="http://creativecommons.org/ns#"
   xmlns:rdf="http://www.w3.org/1999/02/22-rdf-syntax-ns#"
   xmlns:svg="http://www.w3.org/2000/svg"
   xmlns="http://www.w3.org/2000/svg"
   xmlns:sodipodi="http://sodipodi.sourceforge.net/DTD/sodipodi-0.dtd"
   xmlns:inkscape="http://www.inkscape.org/namespaces/inkscape"
   width="314.83612"
   height="500"
   id="svg2"
   sodipodi:version="0.32"
   inkscape:version="0.92.4 (5da689c313, 2019-01-14)"
   sodipodi:docname="mOthonPompeyoBlanco.svg"
   inkscape:output_extension="org.inkscape.output.svg.inkscape"
   version="1.0">
  <defs
     id="defs4">
    <inkscape:perspective
       sodipodi:type="inkscape:persp3d"
       inkscape:vp_x="0 : 530.76001 : 1"
       inkscape:vp_y="0 : 1000 : 0"
       inkscape:vp_z="1183.8877 : 530.76001 : 1"
       inkscape:persp3d-origin="591.94385 : 353.84001 : 1"
       id="perspective2604" />
    <inkscape:perspective
       id="perspective4705"
       inkscape:persp3d-origin="0.5 : 0.33333333 : 1"
       inkscape:vp_z="1 : 0.5 : 1"
       inkscape:vp_y="0 : 1000 : 0"
       inkscape:vp_x="0 : 0.5 : 1"
       sodipodi:type="inkscape:persp3d" />
    <inkscape:perspective
       id="perspective4727"
       inkscape:persp3d-origin="0.5 : 0.33333333 : 1"
       inkscape:vp_z="1 : 0.5 : 1"
       inkscape:vp_y="0 : 1000 : 0"
       inkscape:vp_x="0 : 0.5 : 1"
       sodipodi:type="inkscape:persp3d" />
    <inkscape:perspective
       id="perspective4749"
       inkscape:persp3d-origin="0.5 : 0.33333333 : 1"
       inkscape:vp_z="1 : 0.5 : 1"
       inkscape:vp_y="0 : 1000 : 0"
       inkscape:vp_x="0 : 0.5 : 1"
       sodipodi:type="inkscape:persp3d" />
  </defs>
  <sodipodi:namedview
     id="base"
     pagecolor="#ffffff"
     bordercolor="#666666"
     borderopacity="1.0"
     inkscape:pageopacity="0.0"
     inkscape:pageshadow="2"
     inkscape:zoom="2"
     inkscape:cx="262.86897"
     inkscape:cy="311.33745"
     inkscape:document-units="px"
     inkscape:current-layer="layer1"
     inkscape:window-width="1920"
     inkscape:window-height="1051"
     inkscape:window-x="-9"
     inkscape:window-y="-9"
     showgrid="false"
     inkscape:window-maximized="1"
     fit-margin-top="0"
     fit-margin-left="0"
     fit-margin-right="0"
     fit-margin-bottom="0" />
  <metadata
     id="metadata7">
    <rdf:RDF>
      <cc:Work
         rdf:about="">
        <dc:format>image/svg+xml</dc:format>
        <dc:type
           rdf:resource="http://purl.org/dc/dcmitype/StillImage" />
        <dc:title />
      </cc:Work>
    </rdf:RDF>
  </metadata>
  <g
     inkscape:label="Capa 1"
     inkscape:groupmode="layer"
     id="layer1"
     transform="translate(171.15709,-46.495692)">
    <g
       id="g3025"
       transform="translate(33.624841,-1.5910926)">
      <path
         inkscape:connector-curvature="0"
         sodipodi:nodetypes="csssssssssssssssssssssssssssssssssssssssssssssssssssssssssssssssssssssssssssssssssssssssscsssssssssssssssssssssssssssssssssssssssssssscssscccccccccccccccc"
         id="path5174-1"
         d="m 58.973745,226.82488 c 0,0 -0.511263,2.28036 -0.831849,3.5395 -0.302287,1.18727 0,2.85299 0,4.08405 0,1.73082 -0.769539,1.66119 -1.109123,2.99497 -0.215589,0.84678 -1.273412,1.68396 -1.663692,2.45042 -0.574052,1.12733 -0.789445,2.01156 -1.109141,3.26724 -0.302282,1.18727 0,2.85297 0,4.08404 0,1.5699 -0.101285,2.64935 -0.554556,3.53951 -0.541371,1.06314 -1.530544,1.2306 -2.218266,1.90588 -0.944901,0.92781 -1.378527,1.07359 -1.940984,2.17817 -0.580862,1.14073 -0.994321,1.45499 -1.386411,2.99496 -0.383091,1.50468 -0.637512,2.34108 -1.109129,3.26723 -0.493724,0.96962 -0.554562,1.95959 -0.554562,3.53952 0,1.36133 0,2.72269 0,4.08403 0,1.36136 0,2.72271 0,4.08405 0,1.36134 0,2.7227 0,4.08405 0,0.62197 -1.391423,1.91573 -1.663703,2.45042 -0.867034,1.70275 -0.65711,1.4117 -2.218242,2.17815 -0.349863,0.17178 0.277269,3.29355 0.277269,3.81179 0,1.30061 -0.05101,2.9232 -0.277269,3.81177 -0.257766,1.0124 -0.36032,2.77656 -0.554573,3.53951 -0.287792,1.13037 -1.10238,1.8794 -1.386417,2.99496 -0.452364,1.77677 0.499258,2.77702 -0.831843,4.08405 -0.894342,0.87817 -1.182756,1.3975 -2.218259,1.90589 -1.222022,0.59996 -0.831843,2.12447 -0.831843,3.53951 0,0.69496 -1.459052,1.64664 -1.663703,2.45043 -0.387694,1.52274 -0.527835,2.67021 -1.10913,3.81177 -0.642957,1.26267 -0.134121,2.45929 0.277293,3.26724 0.539911,1.06034 0.209218,2.98997 0,3.81178 -0.344193,1.35185 -0.271848,2.70129 -0.554574,3.81178 -0.2383,0.93593 -1.523515,1.22369 -2.218259,1.90586 -1.058618,1.03949 -2.21826,-1.29536 -2.21826,-2.17817 0,-1.33998 1.333835,-1.85424 1.940973,-2.4504 0.817145,-0.80235 0.55458,-2.21543 0.55458,-3.53952 0,-1.09661 -2.051214,0.87094 -3.050126,1.36137 -2.349373,1.15343 -1.305376,-1.52047 -1.109118,-1.9059 0.582552,-1.14405 0.831849,-1.44197 0.831849,-3.26724 0,-1.79868 0.899057,-1.83988 -0.277287,-2.99495 -0.873054,-0.85727 -0.521791,-2.3069 -0.277287,-3.26724 0.295538,-1.16076 0.666914,-2.12651 1.10913,-2.99498 0.517935,-1.01711 -1.663692,-1.85778 -1.663692,-2.99496 0,-0.52661 -2.411403,-1.82327 -2.772827,-2.17815 -1.081146,-1.0616 -1.835252,-0.95984 -1.386411,-2.7227 0.332538,-1.30612 0.415304,-2.45166 -0.277281,-3.81177 -0.659334,-1.29482 -1.91284,-1.28638 -3.327395,-1.63362 -1.172797,-0.2879 -3.032285,-0.0637 -3.881957,-0.27227 -1.256252,-0.3084 -1.532163,-1.32906 -2.772822,-1.63362 -1.357014,-0.33313 -2.079992,-0.61279 -3.0501077,-1.08908 -1.200425,-0.58937 -1.663685,-1.09305 -1.663685,-2.7227 0,-1.59944 0.776882,-2.07023 1.386398,-3.26724 0.6371627,-1.25127 1.5549577,-1.69233 2.2182657,-2.99497 0.779966,-1.53172 1.627302,-1.16053 0.831842,-2.72269 -0.716625,-1.40736 -1.386404,-0.95683 -1.386404,-2.99496 0,-1.57663 0.788745,-1.7366 1.109129,-2.99497 0.209871,-0.82433 0.896958,-2.4339 1.109124,-3.26723 0.327259,-1.28535 1.308176,-1.32631 1.663692,-2.7227 0.408875,-1.60594 -0.198447,-2.64529 -0.831843,-3.26724 -0.577303,-0.56687 -0.554562,-2.72579 -0.554562,-3.81178 0,-1.29814 1.109136,-1.78724 1.109136,-3.26724 0,-1.51021 0.277269,-2.56169 0.277269,-3.81177 0,-0.90543 -1.109118,-2.16579 -1.109118,-3.81178 0,-1.359 -0.785382,-1.31571 -1.663698,-2.17816 -0.929633,-0.91283 -1.540318,-0.60448 -1.940972,-2.17816 -0.151322,-0.59429 0.277281,-2.74192 0.277281,-3.81177 0,-1.90617 -0.7829857,-2.13019 -1.6636977,-2.99497 -1.211143,-1.18923 -1.484207,0.19206 -1.940978,1.08909 -0.8113503,1.59337 -0.7857263,1.58832 -1.9409843,2.7227 -0.819381,0.80457 -1.653537,1.2858 -2.495546,1.90587 -1.345716,0.99106 -2.061665,0.61502 -1.663686,2.17817 0.292281,1.148 0.831843,1.83667 0.831843,3.5395 0,1.5623 -0.12017,2.68645 -0.554562,3.53951 -0.344852,0.67722 -2.711793,-1.57369 -2.772827,-1.63362 -1.352466,-1.32801 -1.264337,-1.19525 -1.940973,-1.36134 -1.002519,-0.2461 -0.65571,2.0052 -1.386416,2.72268 -0.09825,0.0965 0.277281,3.13489 0.277281,3.81179 0,1.17781 1.797349,2.00676 -0.831837,1.36134 -1.672998,-0.41069 -1.96436,0.90861 -2.218266,1.90589 -0.205736,0.80805 -1.479148,1.18103 -1.663703,1.9059 -0.28355,1.1137 2.804548,0.0623 3.327401,1.08907 0.85978,1.68848 -1.823133,1.46855 -2.49554,1.63362 -0.818254,0.20086 -1.599591,1.78 -1.940979,2.45042 -0.488171,0.95868 -0.554573,2.48703 -0.554573,3.53951 0,1.05889 -1.18058,1.97605 -1.663698,2.45042 -0.878802,0.86293 -1.386416,1.66326 -1.386416,3.26725 0,1.36134 0,2.72269 0,4.08404 0,0.28675 -1.757527,1.81792 -1.940973,2.17816 -0.715024,1.40421 -2.218253,0.95738 -2.218253,3.26722 0,1.60244 -0.692716,1.83759 -1.940991,2.45044 -0.799588,0.39256 -1.412485,1.65923 -1.940966,2.17816 -0.125787,0.1235 -1.56061,0.49392 -1.663692,0.54454 -0.822773,0.80789 -3.856701,0.21039 -4.713811,0 -1.696878,-0.41656 -2.457129,-0.81682 -4.159238,-0.81682 -1.708527,0 -2.369,0.34629 -3.327389,0.81682 -1.044525,0.51281 -2.641257,0.27227 -3.881951,0.27227 -1.27213,0 -2.782732,-0.27227 -4.159232,-0.27227 -1.382531,0 -2.476114,1.55727 -2.772833,2.7227 -0.307875,1.20923 -1.236559,1.40537 -0.831842,2.99496 0.525373,2.06353 -0.610644,1.47071 -1.940985,2.45043 -0.935316,0.68882 -0.554556,3.02929 -0.554556,4.08404 0,0.98966 0.831837,2.2897 0.831837,3.81178 0,1.2853 -1.066779,1.74896 -1.940978,2.17816 -1.076733,0.52863 -1.539275,2.20609 -1.940967,2.99496 -0.694608,1.36411 -1.344226,2.28471 -1.663697,3.53951 -0.115425,0.45333 -3.243947,1.04812 -3.327389,1.08907 -0.267044,0.13111 0,3.64352 0,4.08405 0,1.36135 0,2.72271 0,4.08403 0,0.93368 -2.450883,1.58976 -3.05012,2.17817 -1.008148,0.98995 -1.663692,0.72975 -1.663692,2.72268 0,1.06228 -1.109118,1.93272 -1.109118,2.995 0,1.71477 -1.187934,2.25555 -1.940984,2.99494 -0.61772,0.60655 -1.11323,2.18623 -1.38641,2.72273 -0.66791,1.31166 -1.38642,0.938 -1.38642,2.72268 0,1.36134 0,2.72268 0,4.08403 0,1.59229 -0.0555,2.55931 -0.55455,3.53952 -0.61805,1.21375 -1.3076,2.15884 -2.49554,2.45042 -1.83686,0.45095 -2.29376,-0.19811 -3.3274,0.81684 -0.69321,0.68069 -0.13865,2.58655 -0.83184,3.26724 -1.15811,1.13715 -1.38643,0.17023 -1.38643,2.72268 0,0.30419 -2.02334,1.71449 -2.21825,1.90592 -0.72178,0.70868 -1.19643,2.52097 -1.38641,3.26719 -0.0995,0.39093 -3.458417,0.44057 -3.881957,0.54457 -1.52372,0.37405 -1.10912,1.27599 -1.10912,2.99494 0,1.81313 -0.25604,2.42957 -1.10914,3.26725 -1.16229,1.14128 -1.69774,0.23886 -2.77283,-0.81682 -0.84972,-0.83434 -1.77102,-1.08909 -3.32739,-1.08909 -1.03356,0 -1.69493,-1.9672 -1.94097,-2.45042 -0.93909,-1.84422 0.60733,-2.01611 -1.38642,-2.99494 -1.11451,-0.54717 -1.58427,-1.0696 -2.77282,-1.36134 -0.92065,-0.22602 -1.861061,1.82739 -2.218261,2.17816 -1.31026,1.28656 -1.8018,-1.35928 -1.94099,-1.9059 -0.3646,-1.43209 -0.10528,-2.65721 -0.55456,-3.53952 -0.32851,-0.64517 -2.74419,-1.49043 -3.32738,-1.63359 -1.55645,-0.38212 -2.15254,-0.0162 -3.3274,0.27225 -0.57809,0.14189 -1.86855,1.56246 -2.21824,1.90586 -0.91964,0.90302 0.26141,-0.1283 -0.55458,0.27231 -0.46214,-0.0908 -0.92428,-0.18153 -1.38641,-0.27231 -1.76472,-0.34654 -2.13321,1.46663 -2.49554,2.17817 -0.60378,1.18571 -2.21826,-0.78371 -2.21826,1.90591 0,1.8113 -0.40006,1.90586 -2.21827,1.90586 l 0.27729,13.3412 -32.44204,0.27232 0.0766,-147.69982 74.129828,21.68219 0.0818,24.1021 25.993372,0.0276 1.625357,-2.7252 19.718744,1.86093 17.884526,-34.58255 h 5.239802 l 4.914441,-14.73766 4.219085,0.007 1.262439,2.56268 c 0,0 57.529661,2.20468 57.529661,2.20468 z"
         style="fill:#f9f9f9;fill-rule:evenodd;stroke:#000000;stroke-width:0.09925636;stroke-linecap:butt;stroke-linejoin:miter;stroke-miterlimit:4;stroke-dasharray:none;stroke-opacity:1" />
      <path
         transform="translate(-171.15709,46.495692)"
         inkscape:connector-curvature="0"
         id="path2751"
         d="m 17.669344,253.78771 v -73.62227 l 1.251819,0.37061 c 0.6885,0.20384 17.322855,5.06854 36.965232,10.81046 l 35.713418,10.43984 2.18e-4,12.00273 2.21e-4,12.00273 h 13.187058 13.18706 l 0.72825,-1.33312 c 0.6195,-1.13405 0.83849,-1.31276 1.46657,-1.19679 1.84193,0.34011 18.50106,1.72984 18.87507,1.57459 0.23079,-0.0958 4.38685,-7.86812 9.23568,-17.27181 l 8.81607,-17.09763 2.64734,-0.084 2.64735,-0.084 2.40375,-7.21636 2.40374,-7.21637 1.96198,-0.087 1.96199,-0.087 0.65047,1.33885 c 0.59134,1.21717 0.74551,1.33847 1.69631,1.33464 2.30755,-0.009 56.1342,2.13534 56.24558,2.241 0.0659,0.0625 -0.091,1.07588 -0.34851,2.25203 -0.29469,1.34582 -0.40815,2.79468 -0.30612,3.90891 0.14615,1.59604 0.0687,1.94427 -0.78594,3.53455 -0.52143,0.97024 -1.1405,1.98116 -1.37571,2.24648 -1.12233,1.26603 -1.6759,3.57067 -1.7236,7.17578 -0.0433,3.27491 -0.42066,5.15455 -1.03475,5.15455 -0.43263,0 -3.02622,2.50522 -3.70222,3.57607 -0.38944,0.61692 -1.20266,2.54991 -1.80714,4.29553 l -1.09905,3.17385 -0.1538,7.51091 -0.15379,7.51091 -1.13086,1.62 c -0.62198,0.891 -1.45868,1.79426 -1.85934,2.00724 -0.72271,0.38418 -0.72697,0.41096 -0.53845,3.38728 0.23037,3.63696 -0.34173,7.54596 -1.45212,9.92184 -0.5006,1.07115 -0.75809,2.13004 -0.75999,3.12543 -0.003,1.47231 -0.045,1.54468 -1.91743,3.28893 -1.88936,1.76003 -1.91454,1.80394 -1.91454,3.33845 0,1.23558 -0.14511,1.70951 -0.7065,2.30744 -0.62056,0.66096 -1.6786,3.60677 -2.14532,5.97306 -0.0871,0.44132 0.078,1.45934 0.36669,2.26227 0.45502,1.26534 0.4806,1.72752 0.19201,3.46851 -0.18313,1.10475 -0.41679,2.57382 -0.51924,3.2646 -0.15703,1.05876 -0.38699,1.39406 -1.46457,2.13546 -0.70307,0.48372 -1.35578,0.87949 -1.45047,0.87949 -0.24878,0 -1.33929,-1.8489 -1.34059,-2.2729 -5.9e-4,-0.19709 0.59535,-1.02992 1.32435,-1.85074 1.18813,-1.33776 1.32546,-1.64216 1.32546,-2.9379 0,-0.79503 -0.13619,-1.52968 -0.30264,-1.63255 -0.16646,-0.10288 -0.72977,0.0827 -1.25182,0.41236 -2.17167,1.37142 -2.63011,1.56407 -2.95315,1.24103 -0.22534,-0.22534 -0.13775,-0.76184 0.30465,-1.86597 0.90645,-2.26228 1.15431,-5.33742 0.50952,-6.32149 -0.62858,-0.95934 -0.45427,-3.14915 0.41006,-5.15136 l 0.59631,-1.38134 -0.85391,-1.07451 c -0.46965,-0.59098 -0.92453,-1.29483 -1.01083,-1.56412 -0.0863,-0.26928 -0.81592,-0.93796 -1.62137,-1.48595 -2.41118,-1.64049 -2.50941,-1.82235 -2.51286,-4.65235 -0.003,-2.34882 -0.0513,-2.54243 -0.79713,-3.18462 -0.91078,-0.78425 -3.10198,-1.3285 -5.34865,-1.3285 -1.18384,0 -1.78033,-0.1712 -2.53409,-0.72731 -0.54219,-0.40001 -1.81996,-1.00489 -2.83947,-1.34416 -2.70986,-0.90179 -3.35826,-1.50391 -3.35826,-3.1186 0,-1.38433 0.40249,-2.12828 3.37301,-6.23463 0.73685,-1.01859 1.33972,-1.9596 1.33972,-2.09114 0,-0.13153 -0.39523,-0.82241 -0.87828,-1.53529 -0.99342,-1.46606 -1.10582,-2.5261 -0.41045,-3.87081 0.26321,-0.50897 0.7918,-1.84638 1.17465,-2.97203 0.38286,-1.12563 1.04992,-2.51049 1.48237,-3.07746 1.02932,-1.34951 1.10001,-3.08881 0.17807,-4.38131 -0.52758,-0.73963 -0.66273,-1.32826 -0.66273,-2.88645 0,-1.12331 0.1799,-2.30521 0.42219,-2.77375 0.67658,-1.30837 0.91441,-5.56865 0.382,-6.84289 -0.24371,-0.58329 -0.53614,-1.61113 -0.64983,-2.28408 -0.16708,-0.9889 -0.47003,-1.43217 -1.57963,-2.3113 -2.16156,-1.71258 -2.13558,-1.64906 -1.92126,-4.6981 l 0.19164,-2.72631 -1.04401,-1.04401 c -1.51932,-1.51932 -2.09706,-1.39178 -3.15075,0.69556 -0.8707,1.72486 -2.07366,2.91213 -4.65307,4.59237 -1.41262,0.92018 -1.4631,1.16431 -0.76211,3.68562 0.38105,1.37057 0.43007,2.13264 0.22091,3.43457 -0.14784,0.92025 -0.41976,1.72231 -0.60426,1.78235 -0.1845,0.06 -1.09981,-0.5597 -2.03401,-1.3772 -1.96732,-1.72156 -2.9732,-1.93143 -3.24167,-0.67637 -0.0953,0.4455 -0.30135,1.1248 -0.45789,1.50955 -0.25941,0.63759 -0.14891,3.27387 0.20985,5.00604 0.13009,0.62813 0.0667,0.67873 -0.63133,0.50355 -1.18437,-0.29726 -1.80606,0.0393 -2.28933,1.23925 -0.2422,0.60139 -0.78477,1.41476 -1.20572,1.8075 -1.32554,1.23673 -0.96263,1.66038 1.59101,1.85733 0.79783,0.0615 1.03091,0.20912 1.03091,0.65279 0,0.44908 -0.31608,0.64052 -1.45897,0.88364 -2.02241,0.43021 -3.02387,1.85563 -3.43793,4.89333 -0.26695,1.95845 -0.42004,2.31689 -1.43925,3.36975 -1.50467,1.55434 -1.76341,2.34468 -1.76611,5.39463 l -0.002,2.5581 -2.05956,2.11294 c -1.76156,1.80731 -2.05946,2.26332 -2.05946,3.15261 0,0.80228 -0.18149,1.16051 -0.79485,1.56888 -0.43716,0.29106 -1.34206,1.08631 -2.01089,1.76723 -2.12325,2.16162 -4.30088,2.53062 -8.21954,1.39282 -1.90704,-0.55372 -4.62619,-0.53639 -5.99419,0.0382 -0.85607,0.35957 -2.00834,0.44213 -5.27935,0.37826 -4.06587,-0.0794 -4.20557,-0.0617 -4.93699,0.62544 -1.14258,1.07339 -2.27139,3.76645 -2.16291,5.16014 0.085,1.0923 0.0138,1.2163 -1.01507,1.76728 -0.60858,0.3259 -1.19302,0.85764 -1.29875,1.18164 -0.29609,0.90734 -0.1156,4.25026 0.31807,5.89091 0.48298,1.82721 0.29181,2.37379 -1.17339,3.3549 -0.91862,0.61512 -1.47469,1.41294 -2.6936,3.86466 l -1.53601,3.08953 -1.55672,0.4547 -1.55672,0.4547 -0.14728,4.36096 -0.14727,4.36097 -1.38155,0.7807 c -2.09874,1.18597 -2.83502,1.95471 -3.05961,3.19451 -0.11166,0.6164 -0.36641,1.4521 -0.56611,1.8571 -0.1997,0.405 -0.44846,1.20874 -0.55279,1.7861 -0.11733,0.64927 -0.58865,1.43584 -1.23545,2.06182 -0.57516,0.55664 -1.30925,1.60688 -1.63132,2.33386 -0.32207,0.72699 -0.83076,1.58853 -1.13041,1.91455 -0.46059,0.50111 -0.56184,1.20865 -0.65483,4.57594 -0.10186,3.68851 -0.16861,4.0832 -0.90225,5.33506 -0.84525,1.44231 -1.609538,1.88023 -3.698139,2.11895 -1.679416,0.19195 -2.013625,0.52724 -2.242071,2.24935 -0.139259,1.04979 -0.394644,1.61148 -0.920903,2.02544 -0.452916,0.35626 -0.728201,0.87305 -0.728201,1.36704 0,0.56147 -0.414046,1.19646 -1.412791,2.1667 -1.254743,1.21892 -1.677951,1.9089 -2.215788,3.61249 -0.150746,0.47749 -1.580894,0.84327 -3.321224,0.84946 -1.390685,0.005 -1.886561,0.77058 -1.886561,2.91288 0,2.03809 -0.552432,3.42554 -1.481313,3.72036 -0.441618,0.14016 -0.913173,-0.0875 -1.752928,-0.84612 -1.031558,-0.93195 -1.745153,-1.20344 -3.83485,-1.45895 -0.564817,-0.0691 -2.061818,-3.00391 -2.061818,-4.04217 0,-0.66262 -0.279317,-0.93865 -1.734867,-1.71445 -2.288727,-1.21988 -2.801963,-1.18707 -3.790658,0.24233 -0.443963,0.64185 -0.979646,1.17203 -1.190414,1.17818 -0.495046,0.0144 -1.110534,-1.50834 -1.364576,-3.37609 -0.110172,-0.81 -0.271775,-1.71669 -0.359119,-2.01485 -0.23313,-0.79583 -2.941166,-1.95524 -4.574827,-1.95864 -1.738484,-0.004 -2.551618,0.30624 -3.892029,1.48313 -0.858176,0.75349 -1.252893,0.90857 -2.020903,0.79398 -1.374594,-0.20509 -2.214139,0.21308 -2.770609,1.38001 -0.379343,0.79549 -0.689578,1.04217 -1.397516,1.11123 -0.840061,0.082 -0.931149,0.20186 -1.186184,1.5615 -0.302581,1.61311 -0.547319,1.90327 -1.611058,1.91003 l -0.709127,0.005 0.177655,6.58023 0.177656,6.58022 -8.426449,0.19432 C 36.68212,327.32305 29.4656,327.4105 25.279956,327.4105 h -7.610262 z"
         style="fill:#66bb6a;fill-opacity:0.78431373;fill-rule:evenodd;stroke-width:0.29454544" />
      <path
         transform="translate(-171.15709,46.495692)"
         inkscape:connector-curvature="0"
         id="path2753"
         d="m 37.299422,327.35458 v -0.0548 l 0.269233,-0.006 c 0.148079,-0.003 0.50533,-0.01 0.793892,-0.0149 0.966653,-0.0167 2.306182,-0.044 3.345853,-0.0682 0.296156,-0.007 2.221525,-0.0512 4.278598,-0.0985 2.057072,-0.0473 3.744555,-0.0888 3.74996,-0.0921 0.0069,-0.004 0.0054,-0.16895 -0.0054,-0.56154 -0.0084,-0.3055 -0.05029,-1.86434 -0.09316,-3.46409 -0.04287,-1.59975 -0.07912,-2.94903 -0.08054,-2.99839 l -0.0026,-0.0898 0.06673,1e-5 c 0.04166,10e-6 0.06673,0.004 0.06673,0.01 0,0.0476 0.147123,7.12599 0.150386,7.23544 l 0.0043,0.14407 -0.121063,0.005 c -0.06659,0.003 -1.226989,0.0138 -2.578676,0.0243 -1.351688,0.0105 -2.909097,0.023 -3.460909,0.0278 -0.551813,0.005 -2.011884,0.0169 -3.244603,0.0268 -1.232718,0.01 -2.443231,0.0206 -2.690028,0.0237 l -0.448722,0.006 z"
         style="fill:#66bb6a;fill-opacity:0.78431373;fill-rule:evenodd;stroke-width:0.00920455" />
      <path
         transform="translate(-171.15709,46.495692)"
         inkscape:connector-curvature="0"
         id="path2755"
         d="m 49.55095,319.85354 c 1.52e-4,-0.0291 -0.0356,-1.38578 -0.07945,-3.01482 -0.04385,-1.62903 -0.07744,-2.96417 -0.07464,-2.96697 0.0028,-0.003 0.230122,-0.009 0.50516,-0.0129 0.589563,-0.009 0.697005,-0.02 0.900467,-0.0902 0.370646,-0.12791 0.583546,-0.44048 0.755012,-1.10848 l 0.03012,-0.11735 0.09297,-1e-5 0.09297,-10e-6 -0.0024,0.0483 c -0.01518,0.30318 -0.07216,0.60307 -0.148022,0.77903 -0.104725,0.24292 -0.28528,0.39758 -0.55864,0.47854 -0.242063,0.0717 -0.528539,0.0994 -1.124924,0.10876 l -0.370483,0.006 v 0.10311 c 0,0.12136 0.106683,5.31262 0.115619,5.62606 l 0.0061,0.214 h -0.07006 -0.07006 l 2.78e-4,-0.0529 z"
         style="fill:#66bb6a;fill-opacity:0.78431373;fill-rule:evenodd;stroke-width:0.00920455" />
      <path
         transform="translate(-171.15709,46.495692)"
         inkscape:connector-curvature="0"
         id="path2757"
         d="m 51.613808,312.42663 c 0.01449,-0.0639 0.05133,-0.24513 0.08187,-0.4027 0.06636,-0.34237 0.146981,-0.72651 0.153825,-0.73292 0.0027,-0.003 0.0021,0.012 -0.0013,0.0322 -0.04264,0.2536 -0.06075,0.4567 -0.06081,0.68196 -2e-5,0.0815 -0.0028,0.23574 -0.0061,0.34287 l -0.0061,0.19478 h -0.09389 -0.09389 z"
         style="fill:#66bb6a;fill-opacity:0.78431373;fill-rule:evenodd;stroke-width:0.00920455" />
      <path
         transform="translate(-171.15709,46.495692)"
         inkscape:connector-curvature="0"
         id="path2759"
         d="m 51.907659,311.07713 c -8.04e-4,-0.0206 0.06279,-0.18997 0.09597,-0.25555 0.08962,-0.17715 0.21825,-0.2892 0.400837,-0.3492 0.09396,-0.0309 0.218432,-0.0531 0.439068,-0.0785 0.112606,-0.0129 0.249294,-0.0321 0.30375,-0.0426 0.355805,-0.0686 0.604961,-0.22402 0.820439,-0.51159 0.09781,-0.13054 0.167529,-0.25022 0.32295,-0.55439 0.07397,-0.14477 0.154633,-0.29636 0.179243,-0.33686 0.346838,-0.57077 0.796021,-0.91161 1.369411,-1.03913 0.209534,-0.0466 0.304835,-0.0555 0.596344,-0.0558 0.280312,-2.7e-4 0.332277,0.004 0.648921,0.0477 0.242068,0.0338 0.519249,0.0355 0.675004,0.004 0.234244,-0.0471 0.446675,-0.13985 0.685819,-0.29946 0.185818,-0.12402 0.327467,-0.23567 0.647832,-0.51063 0.58468,-0.50181 0.93841,-0.75856 1.339498,-0.97224 l 0.09895,-0.0527 v 0.0272 c 0,0.0249 -0.0088,0.0324 -0.103551,0.0884 -0.372205,0.21995 -0.843741,0.64115 -1.689333,1.50898 -0.427067,0.4383 -0.4573,0.46732 -0.479721,0.46041 -0.05899,-0.0182 -0.161882,0.004 -0.269845,0.058 -0.02388,0.012 -0.05211,0.0217 -0.06275,0.0217 -0.01063,0 -0.32453,-0.0599 -0.697551,-0.1332 -0.819548,-0.16096 -0.807682,-0.15888 -0.971211,-0.16983 -0.364059,-0.0244 -0.700128,0.0537 -0.980111,0.22768 -0.107929,0.0671 -0.176785,0.12152 -0.281205,0.22238 -0.295248,0.28517 -0.493283,0.62082 -0.79288,1.34385 -0.199281,0.48093 -0.242362,0.56119 -0.361641,0.67371 -0.163851,0.15457 -0.369281,0.19615 -0.784296,0.15875 -0.240547,-0.0217 -0.504059,-0.0224 -0.595333,-0.002 -0.233872,0.0532 -0.393194,0.18548 -0.499417,0.41479 -0.01924,0.0415 -0.03939,0.0859 -0.04478,0.0985 -0.0069,0.0163 -0.01,0.0183 -0.01041,0.007 z"
         style="fill:#66bb6a;fill-opacity:0.78431373;fill-rule:evenodd;stroke-width:0.00920455" />
      <path
         transform="translate(-171.15709,46.495692)"
         inkscape:connector-curvature="0"
         id="path2761"
         d="m 68.95832,313.15833 c -0.273268,-0.14608 -0.511077,-0.52817 -0.717841,-1.15336 -0.07757,-0.23456 -0.126603,-0.41371 -0.22577,-0.82497 -0.177738,-0.73709 -0.21779,-1.02431 -0.275887,-1.97842 -0.03598,-0.5909 -0.06879,-0.89652 -0.124455,-1.15942 -0.05979,-0.28236 -0.164246,-0.55247 -0.265981,-0.68779 -0.222721,-0.29625 -0.890171,-0.67739 -1.883055,-1.0753 -0.538082,-0.21565 -1.082361,-0.40196 -1.422102,-0.48679 -0.417914,-0.10436 -0.747908,-0.15112 -1.124496,-0.15935 -0.508625,-0.0111 -0.796834,0.0371 -1.628874,0.27239 -0.161334,0.0456 -0.372505,0.10359 -0.469268,0.12879 -0.09676,0.0252 -0.19203,0.0527 -0.211704,0.0611 -0.08122,0.0346 -0.07719,0.0345 -0.07719,0.004 0,-0.0264 0.0051,-0.0304 0.08974,-0.07 0.478407,-0.22382 0.975959,-0.33978 1.677528,-0.39097 0.211761,-0.0154 0.902436,-0.0155 1.049319,-1.5e-4 0.8556,0.0897 1.846122,0.37919 2.738352,0.80025 0.819315,0.38665 1.35098,0.80182 1.458133,1.13862 0.07357,0.23126 0.221748,1.04632 0.341024,1.87584 0.06184,0.43009 0.09642,0.64255 0.144208,0.88596 0.217698,1.10891 0.567307,2.04543 0.908861,2.4346 l 0.06059,0.069 2.12e-4,0.16799 c 1.17e-4,0.0924 -8.83e-4,0.16798 -0.0022,0.16798 -0.0013,0 -0.01895,-0.009 -0.03912,-0.0196 z"
         style="fill:#66bb6a;fill-opacity:0.78431373;fill-rule:evenodd;stroke-width:0.00920455" />
      <path
         transform="translate(-171.15709,46.495692)"
         inkscape:connector-curvature="0"
         id="path2763"
         d="m 69.055104,313.19777 -0.05062,-0.0159 -0.0025,-0.16766 c -0.0014,-0.0922 3.3e-5,-0.16766 0.0031,-0.16766 0.0031,0 0.02275,0.0146 0.04365,0.0325 0.0613,0.0525 0.130361,0.0817 0.202928,0.0858 0.05951,0.003 0.06814,10e-4 0.138356,-0.0344 0.09929,-0.0503 0.248852,-0.17054 0.402041,-0.32311 0.228733,-0.2278 0.422232,-0.46261 0.682736,-0.82851 0.227671,-0.31978 0.287217,-0.39607 0.462454,-0.59244 0.231979,-0.25997 0.549789,-0.45843 0.782547,-0.48869 0.04537,-0.006 0.04506,-0.006 -0.02115,0.0176 -0.191096,0.0671 -0.375059,0.19333 -0.577213,0.3959 -0.253118,0.25364 -0.475175,0.54836 -0.849766,1.12784 -0.320455,0.49572 -0.362615,0.55508 -0.470742,0.66272 -0.152361,0.15169 -0.309054,0.25297 -0.45587,0.29467 -0.08242,0.0234 -0.217498,0.024 -0.289972,10e-4 z"
         style="fill:#66bb6a;fill-opacity:0.78431373;fill-rule:evenodd;stroke-width:0.00920455" />
      <path
         transform="translate(-171.15709,46.495692)"
         inkscape:connector-curvature="0"
         id="path2765"
         d="m 75.886898,312.78947 c -0.07027,-0.12311 -0.225005,-0.26814 -0.434635,-0.40738 -0.149673,-0.0994 -0.261986,-0.16209 -0.630512,-0.3519 -0.362206,-0.18655 -0.467961,-0.24619 -0.942252,-0.53134 -0.449449,-0.27022 -0.526091,-0.31332 -0.778998,-0.43809 -0.219961,-0.10851 -0.430606,-0.19475 -0.639716,-0.26191 -0.15748,-0.0506 -0.398039,-0.11471 -0.437215,-0.11655 -0.02065,-9.7e-4 -0.02256,-0.002 -0.0076,-0.005 0.03017,-0.006 0.232959,0.0224 0.352261,0.049 0.436112,0.0975 1.097536,0.39287 2.085305,0.93122 0.936448,0.51037 1.278596,0.77106 1.432216,1.09121 0.0431,0.0898 0.0438,0.11571 0.0011,0.0409 z"
         style="fill:#66bb6a;fill-opacity:0.78431373;fill-rule:evenodd;stroke-width:0.00920455" />
      <path
         transform="translate(-171.15709,46.495692)"
         inkscape:connector-curvature="0"
         id="path2767"
         d="m 81.42141,318.48707 c -0.515385,-0.47008 -1.094629,-0.75023 -1.822433,-0.8814 -0.34095,-0.0614 -0.655719,-0.0891 -1.156857,-0.10179 -0.245153,-0.006 -0.375883,-0.0132 -0.419869,-0.0224 -0.376499,-0.0792 -0.74484,-0.44101 -1.115522,-1.09575 -0.134703,-0.23792 -0.286509,-0.55526 -0.501969,-1.04931 -0.04416,-0.10125 -0.102046,-0.22759 -0.128645,-0.28074 -0.152445,-0.30466 -0.249524,-0.59285 -0.296101,-0.87904 -0.02086,-0.12818 -0.02278,-0.47213 -0.0037,-0.67193 l 0.01315,-0.13807 0.01179,0.0917 c 0.07238,0.56347 0.464638,1.57556 0.964845,2.48947 0.403317,0.73689 0.788966,1.24312 1.020824,1.34 0.01693,0.007 0.113183,0.0235 0.213904,0.0366 1.120732,0.14523 1.732659,0.27983 2.267959,0.49889 0.330185,0.13512 0.707141,0.35659 0.987047,0.57992 l 0.06227,0.0497 v 0.0594 c 0,0.0327 -10e-4,0.0593 -0.0023,0.0591 -0.0013,-2.2e-4 -0.04372,-0.0382 -0.09435,-0.0843 z"
         style="fill:#66bb6a;fill-opacity:0.78431373;fill-rule:evenodd;stroke-width:0.00920455" />
      <path
         transform="translate(-171.15709,46.495692)"
         inkscape:connector-curvature="0"
         id="path2769"
         d="m 83.147263,319.92025 c -0.172839,-0.035 -0.351944,-0.12954 -0.557347,-0.29435 -0.144277,-0.11577 -0.291889,-0.25761 -0.687568,-0.66068 l -0.38429,-0.39147 v -0.0614 -0.0614 l 0.07132,0.0581 c 0.03922,0.032 0.127242,0.10739 0.195596,0.16762 0.298408,0.26291 0.359532,0.31587 0.446439,0.3868 0.387372,0.31616 0.664546,0.48147 0.930179,0.55475 0.07991,0.022 0.108464,0.0253 0.224992,0.0256 0.152286,3.7e-4 0.223286,-0.0145 0.368235,-0.077 0.667118,-0.28761 1.126357,-1.16777 1.297218,-2.48618 0.04685,-0.3615 0.06326,-0.64119 0.07416,-1.26351 0.01041,-0.595 0.02659,-0.83588 0.07864,-1.1711 0.03043,-0.19595 0.10917,-0.53786 0.121121,-0.52591 0.0018,0.002 -0.003,0.0422 -0.01071,0.0897 -0.03901,0.24084 -0.03972,0.47459 -0.0036,1.17519 0.03148,0.61022 0.02692,1.34693 -0.01097,1.77386 -0.06593,0.7427 -0.222442,1.22476 -0.543914,1.67522 -0.18335,0.25692 -0.501541,0.5945 -0.747656,0.79321 -0.304574,0.24591 -0.599159,0.34602 -0.861855,0.29291 z"
         style="fill:#66bb6a;fill-opacity:0.78431373;fill-rule:evenodd;stroke-width:0.00920455" />
      <path
         transform="translate(-171.15709,46.495692)"
         inkscape:connector-curvature="0"
         id="path2771"
         d="m 85.540444,313.64221 c 0,-0.003 0.01875,-0.0326 0.04168,-0.0647 0.193659,-0.27139 0.457194,-0.4439 0.813035,-0.53222 0.19898,-0.0494 0.306052,-0.0593 0.75348,-0.0697 0.402909,-0.009 0.58072,-0.0187 0.890843,-0.047 1.15821,-0.10551 2.016947,-0.37749 2.245045,-0.71104 0.02373,-0.0347 0.05274,-0.10965 0.107455,-0.27765 0.252977,-0.77671 0.465458,-1.27317 0.751774,-1.75652 0.03248,-0.0548 0.06071,-0.098 0.06274,-0.096 0.002,0.002 -0.02323,0.0583 -0.05614,0.12511 -0.267628,0.54318 -0.526355,1.29162 -0.775232,2.24257 l -0.05292,0.2022 -0.03682,0.0243 c -0.109303,0.0722 -0.3651,0.13675 -0.777784,0.1961 -0.399878,0.0575 -0.887914,0.10065 -1.937556,0.17125 -0.908976,0.0611 -1.007247,0.0714 -1.195041,0.12495 -0.357764,0.102 -0.588535,0.22423 -0.767829,0.40669 -0.0367,0.0374 -0.06673,0.0651 -0.06673,0.0616 z"
         style="fill:#66bb6a;fill-opacity:0.78431373;fill-rule:evenodd;stroke-width:0.00920455" />
      <path
         transform="translate(-171.15709,46.495692)"
         inkscape:connector-curvature="0"
         id="path2773"
         d="m 91.863967,309.2239 c 0,-0.0146 0.207301,-0.2303 0.667282,-0.69426 0.475526,-0.47963 0.649501,-0.66591 0.825816,-0.88421 0.304817,-0.37741 0.489979,-0.70519 0.563837,-0.99812 l 0.02089,-0.0828 -0.0045,0.46023 -0.0045,0.46023 -0.02302,0.0431 c -0.09523,0.17818 -0.656575,0.65963 -1.548754,1.32835 -0.07341,0.055 -0.210093,0.15858 -0.30375,0.23015 -0.182746,0.13963 -0.193295,0.14713 -0.193295,0.13739 z"
         style="fill:#66bb6a;fill-opacity:0.78431373;fill-rule:evenodd;stroke-width:0.00920455" />
      <path
         transform="translate(-171.15709,46.495692)"
         inkscape:connector-curvature="0"
         id="path2775"
         d="m 94.192717,305.54983 c 0,-0.0128 0.108637,-0.17414 0.160976,-0.23906 0.07354,-0.0912 0.215534,-0.23059 0.349876,-0.34344 0.250709,-0.2106 0.392647,-0.38253 0.532006,-0.64443 0.177614,-0.33379 0.279617,-0.71613 0.384233,-1.44024 0.06726,-0.46559 0.116443,-0.70802 0.193912,-0.95591 0.220705,-0.70625 0.609533,-0.99515 1.549963,-1.15163 0.106312,-0.0177 0.361048,-0.0529 0.566079,-0.0782 0.731012,-0.0903 1.160793,-0.1763 1.587784,-0.31764 0.440316,-0.14576 0.802174,-0.3426 1.088434,-0.59208 l 0.0575,-0.0501 v 0.14779 0.1478 l -0.0893,0.0705 c -0.22303,0.17614 -0.48161,0.32169 -0.748311,0.42121 -0.257958,0.0963 -0.689065,0.19035 -1.082205,0.23618 -0.249833,0.0291 -0.388312,0.0369 -0.826392,0.0466 -0.552651,0.0122 -0.740808,0.0342 -0.962498,0.11204 -0.23989,0.0843 -0.496436,0.25229 -0.737663,0.48309 -0.191002,0.18275 -0.286869,0.35525 -0.362464,0.65222 -0.05898,0.23168 -0.08652,0.4729 -0.120309,1.05361 -0.03475,0.59722 -0.0598,0.81888 -0.119108,1.05391 -0.06884,0.2728 -0.144447,0.4132 -0.312435,0.58019 -0.231113,0.22973 -0.418069,0.36946 -0.76954,0.57518 -0.177054,0.10363 -0.231285,0.14037 -0.296847,0.20113 -0.02405,0.0223 -0.04372,0.0363 -0.04372,0.0312 z"
         style="fill:#66bb6a;fill-opacity:0.78431373;fill-rule:evenodd;stroke-width:0.00920455" />
      <path
         transform="translate(-171.15709,46.495692)"
         inkscape:connector-curvature="0"
         id="path2777"
         d="m 100.66351,299.88434 v -0.14096 l 0.12671,-0.1286 c 0.2968,-0.30125 0.52285,-0.61627 0.84194,-1.17332 0.59967,-1.04685 0.69995,-1.57718 0.78933,-4.17426 0.005,-0.14681 0.0175,-0.55894 0.0276,-0.91585 0.024,-0.84426 0.0601,-1.8701 0.068,-1.93296 0.008,-0.0624 0.004,4.03799 -0.004,4.25711 -0.0442,1.20269 -0.18675,1.84365 -0.5794,2.60488 -0.2835,0.54963 -0.54901,0.96596 -0.83647,1.31165 -0.089,0.10697 -0.3819,0.40527 -0.41582,0.42343 -0.018,0.01 -0.0184,0.007 -0.0184,-0.13112 z"
         style="fill:#66bb6a;fill-opacity:0.78431373;fill-rule:evenodd;stroke-width:0.00920455" />
      <path
         transform="translate(-171.15709,46.495692)"
         inkscape:connector-curvature="0"
         id="path2779"
         d="m 102.76215,289.31108 c 0,-0.0226 0.0618,-0.18979 0.10078,-0.27264 0.0585,-0.12441 0.1304,-0.23129 0.24602,-0.36594 0.33196,-0.38657 0.77258,-1.12986 1.11139,-1.87479 0.23924,-0.52602 0.59204,-1.09636 1.02859,-1.66286 0.20499,-0.26601 0.3744,-0.45935 0.64756,-0.73907 0.27066,-0.27715 0.37507,-0.39678 0.53059,-0.60795 0.16665,-0.22627 0.29358,-0.43205 0.40818,-0.66175 0.14217,-0.28495 0.2173,-0.50346 0.27663,-0.8046 0.11786,-0.59809 0.33264,-1.2877 0.53843,-1.72876 0.0346,-0.074 0.0908,-0.20554 0.12511,-0.29225 l 0.0623,-0.15764 h 0.11826 c 0.065,0 0.11647,0.003 0.11429,0.007 -0.002,0.004 -0.0319,0.0587 -0.0661,0.12196 -0.0342,0.0633 -0.12331,0.22275 -0.19809,0.35438 -0.2807,0.49404 -0.3761,0.68937 -0.46081,0.94346 -0.0731,0.21923 -0.0897,0.32058 -0.10494,0.63972 -0.0211,0.44087 -0.0646,0.68049 -0.17649,0.97044 -0.19248,0.49888 -0.48659,0.86036 -1.15044,1.41396 -0.49855,0.41576 -0.65444,0.56242 -0.78714,0.74054 -0.28195,0.37848 -0.50456,0.82542 -0.92251,1.85209 -0.24183,0.59407 -0.31897,0.75488 -0.47725,0.99497 -0.1442,0.21872 -0.23332,0.32327 -0.55467,0.65067 -0.22595,0.23021 -0.30253,0.31975 -0.36929,0.43182 -0.0331,0.0555 -0.0404,0.0641 -0.0404,0.0473 z"
         style="fill:#66bb6a;fill-opacity:0.78431373;fill-rule:evenodd;stroke-width:0.00920455" />
      <path
         transform="translate(-171.15709,46.495692)"
         inkscape:connector-curvature="0"
         id="path2781"
         d="m 107.90049,279.95341 c 0.12679,-0.38262 0.23125,-0.7774 0.31154,-1.17746 0.0654,-0.32589 0.095,-0.4378 0.16631,-0.62946 0.0375,-0.10075 0.16455,-0.37202 0.17115,-0.36542 0.002,0.002 -0.0115,0.0442 -0.03,0.0938 -0.10417,0.27812 -0.1555,0.6274 -0.16624,1.1312 -0.003,0.13668 -0.0112,0.29615 -0.0184,0.35437 -0.0259,0.20918 -0.094,0.42453 -0.21917,0.69264 l -0.0419,0.0897 h -0.11802 -0.11802 z"
         style="fill:#66bb6a;fill-opacity:0.78431373;fill-rule:evenodd;stroke-width:0.00920455" />
      <path
         transform="translate(-171.15709,46.495692)"
         inkscape:connector-curvature="0"
         id="path2783"
         d="m 108.80953,277.38635 c 0,-0.0107 0.0808,-0.1066 0.19518,-0.2317 0.26995,-0.29528 0.65863,-0.6129 1.15219,-0.94153 0.4406,-0.29336 0.65028,-0.41727 1.90874,-1.12788 0.55422,-0.31295 0.60059,-0.34098 0.60043,-0.36302 -4.3e-4,-0.0607 0.12056,-3.64104 0.1253,-3.708 l 0.005,-0.0759 h 0.13264 0.13263 l -1.3e-4,1.69134 c -1.2e-4,1.45725 -0.002,1.69929 -0.0137,1.74884 -0.0248,0.10515 -0.10195,0.23674 -0.19977,0.34069 -0.27083,0.2878 -0.63348,0.51241 -1.53418,0.9502 -0.9346,0.45427 -1.08031,0.53994 -1.35366,0.79591 -0.19835,0.18574 -0.31704,0.28128 -0.64074,0.51575 -0.23995,0.17381 -0.34281,0.25457 -0.43898,0.34465 -0.0392,0.0368 -0.0713,0.0641 -0.0713,0.0607 z"
         style="fill:#66bb6a;fill-opacity:0.78431373;fill-rule:evenodd;stroke-width:0.00920455" />
      <path
         transform="translate(-171.15709,46.495692)"
         inkscape:connector-curvature="0"
         id="path2785"
         d="m 112.79502,270.89916 c -5e-5,-0.0215 0.0105,-0.3477 0.0234,-0.72486 0.0129,-0.37715 0.0498,-1.46364 0.0819,-2.41441 0.0321,-0.95077 0.0601,-1.73033 0.0621,-1.73236 0.002,-0.002 0.12364,-0.0388 0.27024,-0.0816 0.14661,-0.0429 0.50266,-0.1469 0.79122,-0.2312 0.28856,-0.0843 0.82289,-0.24048 1.18739,-0.34705 0.3645,-0.10657 0.70674,-0.20626 0.76054,-0.22152 l 0.0978,-0.0278 0.7306,-1.4679 c 0.40182,-0.80734 0.73888,-1.48596 0.749,-1.50804 l 0.0184,-0.0401 0.0719,-1.9e-4 c 0.0395,-1.1e-4 0.0701,0.003 0.0679,0.007 -0.0509,0.0881 -0.52385,0.96103 -0.6072,1.12065 -0.31983,0.61255 -0.52625,1.11245 -0.66872,1.61951 -0.0421,0.14995 -0.0496,0.16847 -0.081,0.20083 -0.17254,0.17767 -0.79178,0.40186 -1.82031,0.65903 -0.29296,0.0732 -0.54038,0.13119 -1.02894,0.24096 -0.45147,0.10144 -0.43738,0.096 -0.47543,0.18441 -0.0105,0.0245 -0.0271,0.0913 -0.0367,0.14849 -0.032,0.18924 -0.0413,0.39226 -0.0406,0.88172 9.2e-4,0.5997 0.0189,1.10366 0.0784,2.19068 0.0233,0.42552 0.0292,0.61669 0.0327,1.05162 l 0.004,0.53156 h -0.13434 -0.13434 z"
         style="fill:#66bb6a;fill-opacity:0.78431373;fill-rule:evenodd;stroke-width:0.00920455" />
      <path
         transform="translate(-171.15709,46.495692)"
         inkscape:connector-curvature="0"
         id="path2787"
         d="m 117.57226,262.09725 c 0,-0.009 0.38011,-0.75588 0.54115,-1.06306 0.24045,-0.45863 0.5956,-1.09382 0.60586,-1.08356 0.002,0.002 -0.0248,0.0634 -0.0596,0.13631 -0.0788,0.16534 -0.18034,0.39685 -0.36093,0.82299 -0.13573,0.32028 -0.30989,0.67908 -0.50263,1.03551 l -0.0821,0.15188 -0.0709,0.003 c -0.039,10e-4 -0.0709,2.4e-4 -0.0709,-0.003 z"
         style="fill:#66bb6a;fill-opacity:0.78431373;fill-rule:evenodd;stroke-width:0.00920455" />
      <path
         transform="translate(-171.15709,46.495692)"
         inkscape:connector-curvature="0"
         id="path2789"
         d="m 119.85499,258.50173 c 0.11068,-0.0965 0.28987,-0.23262 0.45224,-0.34363 0.3949,-0.26998 0.61266,-0.43903 0.8082,-0.62742 0.55083,-0.53066 0.69079,-1.03335 0.53786,-1.93177 -0.0331,-0.1942 -0.0732,-0.37562 -0.16308,-0.73637 -0.13442,-0.53968 -0.20171,-0.89618 -0.28223,-1.49523 -0.0456,-0.33935 -0.0448,-0.35409 0.008,-0.15238 0.0526,0.19995 0.11511,0.40251 0.28099,0.91125 0.31275,0.95919 0.41965,1.46379 0.43488,2.05261 0.006,0.21763 -0.002,0.34411 -0.0302,0.48784 -0.10476,0.53779 -0.43488,0.95437 -1.04907,1.32383 -0.15238,0.0917 -0.39631,0.22053 -0.68494,0.36185 -0.1139,0.0558 -0.23548,0.11869 -0.27017,0.13982 -0.0744,0.0453 -0.087,0.0482 -0.0428,0.01 z"
         style="fill:#66bb6a;fill-opacity:0.78431373;fill-rule:evenodd;stroke-width:0.00920455" />
      <path
         transform="translate(-171.15709,46.495692)"
         inkscape:connector-curvature="0"
         id="path2791"
         d="m 121.07651,252.09658 c -0.0431,-0.56535 -0.0617,-1.04019 -0.0617,-1.57858 -5e-5,-0.63093 0.0269,-1.05377 0.0879,-1.38165 0.0552,-0.29637 0.13223,-0.42843 0.41291,-0.70783 0.29293,-0.29159 0.56188,-0.4862 1.0171,-0.73597 0.56289,-0.30883 0.74186,-0.44664 0.85522,-0.65847 0.0458,-0.0855 0.0689,-0.15578 0.0897,-0.27281 0.0209,-0.11753 0.0211,-0.42545 3.7e-4,-0.70663 -0.0157,-0.2135 -0.0185,-0.35672 -0.009,-0.45877 0.005,-0.0571 0.008,-0.0621 0.0271,-0.0621 0.0174,0 0.0223,0.006 0.0269,0.0345 0.0208,0.12794 0.0483,0.26194 0.0872,0.42571 0.0802,0.33728 0.10873,0.51414 0.11672,0.72315 0.0122,0.31931 -0.0477,0.52091 -0.20113,0.67724 -0.1187,0.12094 -0.26234,0.19813 -0.65655,0.35286 -0.36867,0.14469 -0.41649,0.16504 -0.6075,0.2585 -0.38374,0.18774 -0.65985,0.38223 -0.79825,0.56227 -0.17057,0.22189 -0.29184,0.53866 -0.36066,0.94212 -0.0521,0.30559 -0.0716,0.59143 -0.0714,1.04932 1.5e-4,0.36733 0.007,0.54344 0.0435,1.20149 0.0269,0.47797 0.0277,0.68116 0.001,0.33567 z"
         style="fill:#66bb6a;fill-opacity:0.78431373;fill-rule:evenodd;stroke-width:0.00920455" />
      <path
         transform="translate(-171.15709,46.495692)"
         inkscape:connector-curvature="0"
         id="path2793"
         d="m 123.46991,245.54783 c 0.003,-0.0529 0.0124,-0.14831 0.0218,-0.22657 l 0.009,-0.0723 0.005,0.0859 c 0.003,0.0473 0.008,0.11142 0.0109,0.14257 0.008,0.0743 0.008,0.0723 -0.002,0.0625 -0.009,-0.009 -0.0282,-0.0103 -0.035,-0.002 -0.003,0.003 -0.006,0.0141 -0.008,0.0244 -0.003,0.0148 -0.003,0.0117 -0.001,-0.0144 z"
         style="fill:#66bb6a;fill-opacity:0.78431373;fill-rule:evenodd;stroke-width:0.00390625" />
      <path
         transform="translate(-171.15709,46.495692)"
         inkscape:connector-curvature="0"
         id="path2795"
         d="m 123.6706,244.44721 c 0,-0.015 0.0768,-0.27004 0.12975,-0.43063 0.31812,-0.96551 0.80497,-1.93333 1.32195,-2.62793 l 0.056,-0.0752 h 0.041 0.041 l -0.0654,0.0869 c -0.17771,0.23596 -0.3167,0.46042 -0.44931,0.72558 -0.1383,0.27656 -0.22481,0.50293 -0.30603,0.80078 -0.0639,0.23424 -0.1198,0.38222 -0.21632,0.57227 -0.0636,0.12527 -0.12365,0.2276 -0.26354,0.44922 -0.14072,0.22294 -0.18513,0.29837 -0.24666,0.41896 -0.0233,0.0457 -0.0424,0.0817 -0.0424,0.08 z"
         style="fill:#66bb6a;fill-opacity:0.78431373;fill-rule:evenodd;stroke-width:0.00390625" />
      <path
         transform="translate(-171.15709,46.495692)"
         inkscape:connector-curvature="0"
         id="path2797"
         d="m 125.22179,241.25963 c 0.18728,-0.23612 0.3685,-0.42559 0.59306,-0.62006 0.31048,-0.26888 0.57851,-0.37865 1.06619,-0.43662 0.11899,-0.0142 0.13625,-0.0132 0.0469,0.003 -0.33016,0.0586 -0.67058,0.20985 -0.97503,0.43319 -0.22117,0.16225 -0.45287,0.38387 -0.64616,0.61804 l -0.0467,0.0566 h -0.0405 -0.0405 z"
         style="fill:#66bb6a;fill-opacity:0.78431373;fill-rule:evenodd;stroke-width:0.00552427" />
      <path
         transform="translate(-171.15709,46.495692)"
         inkscape:connector-curvature="0"
         id="path2799"
         d="m 133.1649,240.50359 c -0.16296,-0.003 -0.47244,-0.0135 -0.79826,-0.027 -0.4533,-0.0188 -0.63814,-0.0243 -1.03028,-0.0305 -0.18838,-0.003 -0.38974,-0.008 -0.44746,-0.011 -0.40733,-0.0218 -0.6798,-0.0439 -1.4667,-0.11857 -0.52236,-0.0496 -0.68782,-0.0645 -0.91979,-0.0826 -0.4474,-0.0351 -0.70537,-0.0486 -1.08,-0.0566 -0.16959,-0.004 -0.18678,-0.005 -0.12715,-0.008 0.49214,-0.0282 1.26185,-0.0265 2.96939,0.006 0.67735,0.0131 0.93017,0.0169 1.47775,0.0223 1.44699,0.0143 2.39992,-0.0229 3.05325,-0.11901 0.42636,-0.0627 0.70248,-0.1358 1.07061,-0.28325 0.37622,-0.15068 0.7832,-0.25383 1.30238,-0.33007 0.12559,-0.0184 0.1435,-0.0155 0.0288,0.005 -0.38741,0.0684 -0.77377,0.1858 -1.16265,0.35334 -0.14699,0.0633 -0.29688,0.1333 -0.59109,0.27593 -0.26114,0.12661 -0.34809,0.1645 -0.47194,0.20569 -0.31756,0.10562 -0.71553,0.16966 -1.18258,0.1903 -0.14022,0.006 -0.48624,0.0107 -0.62424,0.008 z"
         style="fill:#66bb6a;fill-opacity:0.78431373;fill-rule:evenodd;stroke-width:0.00552427" />
      <path
         transform="translate(-171.15709,46.495692)"
         inkscape:connector-curvature="0"
         id="path2801"
         d="m 145.48126,240.57837 c -0.54057,-0.0251 -1.20595,-0.10665 -1.8672,-0.22881 -0.61865,-0.11429 -1.03799,-0.21768 -2.02741,-0.4999 -0.68932,-0.19662 -0.97641,-0.26993 -1.32922,-0.33945 -0.33037,-0.0651 -0.66583,-0.10873 -0.99926,-0.13 -0.14306,-0.009 -0.14797,-0.0105 -0.0276,-0.008 0.34399,0.007 0.90033,0.0575 1.31652,0.11846 0.48835,0.0715 0.85815,0.15117 1.35722,0.29238 0.62839,0.1778 1.07028,0.2868 1.55785,0.38424 1.63036,0.32585 2.90221,0.30116 4.01614,-0.078 0.076,-0.0259 0.14246,-0.0484 0.14778,-0.0501 0.009,-0.003 0.01,0.002 0.01,0.0435 v 0.0466 l -0.0499,0.0149 c -0.0896,0.0268 -0.1092,0.0362 -0.14795,0.0709 -0.23351,0.20874 -0.65779,0.3306 -1.26613,0.36363 -0.11561,0.006 -0.55255,0.006 -0.69053,-3.6e-4 z"
         style="fill:#66bb6a;fill-opacity:0.78431373;fill-rule:evenodd;stroke-width:0.00552427" />
      <path
         transform="translate(-171.15709,46.495692)"
         inkscape:connector-curvature="0"
         id="path2803"
         d="m 147.63573,240.0802 1e-5,-0.0456 0.0566,-0.0214 c 0.17786,-0.0673 0.46967,-0.20329 0.65876,-0.30706 0.38355,-0.21048 0.76693,-0.47882 1.13122,-0.79177 0.18285,-0.15708 0.29512,-0.26201 0.53573,-0.50071 0.10862,-0.10776 0.19749,-0.194 0.19749,-0.19165 0,0.002 -0.0145,0.0221 -0.0321,0.0439 -0.1029,0.12688 -0.20133,0.25999 -0.47249,0.639 -0.28186,0.39394 -0.39682,0.54285 -0.53027,0.68683 -0.0521,0.0562 -0.0588,0.0615 -0.11105,0.0865 -0.0943,0.0453 -0.32229,0.12363 -0.62459,0.21468 -0.16387,0.0493 -0.7972,0.23282 -0.8037,0.23282 -0.003,0 -0.006,-0.0184 -0.006,-0.0456 z"
         style="fill:#66bb6a;fill-opacity:0.78431373;fill-rule:evenodd;stroke-width:0.00552427" />
      <path
         transform="translate(-171.15709,46.495692)"
         inkscape:connector-curvature="0"
         id="path2805"
         d="m 150.94496,237.52742 c 0.004,-0.004 0.0541,-0.0483 0.11029,-0.0982 0.42366,-0.37633 0.75544,-0.64519 1.02199,-0.82816 0.28318,-0.19438 0.44295,-0.34425 0.5592,-0.52454 0.15911,-0.24675 0.2304,-0.55641 0.23083,-1.00266 3.6e-4,-0.38388 0.0484,-0.64056 0.17118,-0.91526 0.035,-0.0783 0.12701,-0.24864 0.12706,-0.23525 0,0.002 -0.0109,0.0358 -0.0241,0.0746 -0.0443,0.12941 -0.0854,0.30672 -0.10783,0.46549 -0.0262,0.18526 -0.0332,0.29107 -0.0393,0.58834 -0.007,0.33254 -0.0218,0.51251 -0.0583,0.6975 -0.0926,0.46928 -0.28974,0.78827 -0.65434,1.05905 -0.20761,0.15419 -0.42515,0.27396 -1.04277,0.57414 -0.10409,0.0506 -0.21283,0.1056 -0.24164,0.12223 -0.0523,0.0302 -0.0675,0.0368 -0.0523,0.0228 z"
         style="fill:#66bb6a;fill-opacity:0.78431373;fill-rule:evenodd;stroke-width:0.00552427" />
      <path
         transform="translate(-171.15709,46.495692)"
         inkscape:connector-curvature="0"
         id="path2807"
         d="m 153.82643,233.05332 c 0.13604,-0.15415 0.42269,-0.46631 0.55675,-0.60629 0.33291,-0.34759 0.3406,-0.35555 0.59993,-0.62148 0.0533,-0.0547 0.19128,-0.19639 0.30655,-0.31488 0.11526,-0.1185 0.26067,-0.26765 0.32312,-0.33146 0.0625,-0.0638 0.20662,-0.21172 0.32035,-0.32869 0.11374,-0.11698 0.25417,-0.26116 0.31207,-0.32041 0.0579,-0.0593 0.14534,-0.14874 0.19431,-0.19887 0.049,-0.0501 0.19237,-0.19681 0.31864,-0.32594 l 0.2296,-0.23478 2.8e-4,-0.89355 2.9e-4,-0.89355 h 0.0829 0.0829 v 0.81993 0.81992 l -0.0226,0.0442 c -0.0242,0.0472 -0.10202,0.15421 -0.173,0.23787 -0.15462,0.18224 -0.32558,0.36059 -0.8954,0.93411 -0.4599,0.4629 -0.60793,0.61722 -0.71156,0.74184 -0.0929,0.11177 -0.0955,0.11563 -0.18373,0.27467 -0.14568,0.26267 -0.37137,0.51115 -0.662,0.72887 -0.0701,0.0525 -0.1934,0.13842 -0.4207,0.29312 -0.0603,0.041 -0.14397,0.10005 -0.186,0.1312 -0.042,0.0311 -0.078,0.0566 -0.08,0.0566 -0.002,0 0.001,-0.006 0.007,-0.0124 z"
         style="fill:#66bb6a;fill-opacity:0.78431373;fill-rule:evenodd;stroke-width:0.00552427" />
      <path
         transform="translate(-171.15709,46.495692)"
         inkscape:connector-curvature="0"
         id="path2809"
         d="m 156.98843,227.47933 c 2.8e-4,-1.27588 0.0295,-1.96428 0.10824,-2.55359 0.12019,-0.89913 0.36255,-1.52238 0.84587,-2.17519 l 0.0521,-0.0704 h 0.0636 0.0635 l -0.0354,0.0428 c -0.37057,0.44804 -0.59962,0.86118 -0.74346,1.34102 -0.0953,0.31806 -0.14357,0.60211 -0.17871,1.05237 -0.004,0.0556 -0.007,0.50664 -0.008,1.4736 l -0.002,1.3935 h -0.0826 -0.0826 z"
         style="fill:#66bb6a;fill-opacity:0.78431373;fill-rule:evenodd;stroke-width:0.00552427" />
      <path
         transform="translate(-171.15709,46.495692)"
         inkscape:connector-curvature="0"
         id="path2811"
         d="m 157.99926,222.67728 c 0,-0.015 0.26665,-0.33347 0.42764,-0.51078 0.10069,-0.11091 0.10848,-0.1192 0.33233,-0.35369 0.19898,-0.20845 0.28736,-0.30394 0.3937,-0.42537 0.49334,-0.56338 0.69721,-0.99092 0.86005,-1.80367 0.056,-0.27952 0.0994,-0.5513 0.18226,-1.14077 0.0888,-0.63188 0.18024,-1.10146 0.30715,-1.57718 0.0306,-0.11483 0.1046,-0.36362 0.10973,-0.36914 0.002,-0.002 0.0117,-0.004 0.0208,-0.003 l 0.0166,0.002 -0.0241,0.0635 c -0.26983,0.71001 -0.40565,1.68495 -0.41941,3.01073 -0.002,0.15951 -0.005,0.31985 -0.008,0.35631 -0.034,0.41095 -0.25174,0.84819 -0.65891,1.32306 -0.15716,0.1833 -0.4073,0.43513 -0.71893,0.72378 -0.29324,0.27163 -0.49338,0.47274 -0.64711,0.65029 l -0.0489,0.0565 -0.0622,1e-4 c -0.0342,6e-5 -0.0622,-0.001 -0.0622,-0.003 z"
         style="fill:#66bb6a;fill-opacity:0.78431373;fill-rule:evenodd;stroke-width:0.00552427" />
      <path
         transform="translate(-171.15709,46.495692)"
         inkscape:connector-curvature="0"
         id="path2813"
         d="m 160.61224,216.49119 c 0,-10e-4 0.0188,-0.058 0.0419,-0.12601 0.22122,-0.6527 0.50214,-1.18005 0.84891,-1.59358 0.074,-0.0882 0.1661,-0.18899 0.2214,-0.24219 0.11422,-0.10988 0.19573,-0.18306 0.19959,-0.17919 0.001,0.001 -0.0215,0.0308 -0.0506,0.0657 -0.21414,0.25686 -0.4443,0.60067 -0.67732,1.01177 -0.17048,0.30076 -0.43343,0.80745 -0.50694,0.97686 l -0.0372,0.0856 -0.0199,0.002 c -0.0109,9.4e-4 -0.0199,6.3e-4 -0.0199,-7e-4 z"
         style="fill:#66bb6a;fill-opacity:0.78431373;fill-rule:evenodd;stroke-width:0.00552427" />
      <path
         transform="translate(-171.15709,46.495692)"
         inkscape:connector-curvature="0"
         id="path2815"
         d="m 163.06377,213.71196 c 0.0204,-0.009 0.14585,-0.0494 0.23327,-0.0744 0.10477,-0.0299 0.18295,-0.0489 0.41195,-0.10011 0.33626,-0.0752 0.51796,-0.12259 0.69852,-0.18233 0.22916,-0.0758 0.39574,-0.15982 0.50224,-0.25324 0.13671,-0.11993 0.19649,-0.28986 0.1783,-0.50686 -0.0146,-0.17432 -0.0635,-0.27993 -0.1687,-0.36427 -0.14128,-0.11329 -0.37771,-0.1751 -0.81301,-0.21256 -0.46885,-0.0403 -0.626,-0.0558 -0.84521,-0.0831 -0.80758,-0.10046 -1.27745,-0.25008 -1.45346,-0.46281 -0.1584,-0.19144 -0.10782,-0.43815 0.16036,-0.78218 0.10892,-0.13972 0.23779,-0.2761 0.52799,-0.55875 0.22109,-0.21535 0.42413,-0.46875 0.65743,-0.8205 0.22021,-0.33201 0.38721,-0.63956 0.52435,-0.96564 0.0714,-0.16973 0.12901,-0.29486 0.1822,-0.39561 l 0.0379,-0.0718 0.0426,-0.002 c 0.0234,-8.9e-4 0.0417,3.5e-4 0.0407,0.003 -0.001,0.002 -0.0192,0.0367 -0.0404,0.0762 -0.13179,0.24621 -0.23217,0.53486 -0.36211,1.04133 -0.0624,0.24314 -0.0701,0.26723 -0.11333,0.35631 -0.0925,0.19036 -0.25026,0.36992 -0.52468,0.59707 -0.0365,0.0302 -0.13465,0.10819 -0.21821,0.17336 -0.38779,0.30246 -0.51618,0.41604 -0.6434,0.56921 -0.20676,0.24893 -0.28137,0.52626 -0.19095,0.70987 0.0779,0.15828 0.28393,0.25341 0.63272,0.29221 0.18603,0.0207 0.45103,0.0306 0.82864,0.031 0.84559,7.8e-4 1.2519,0.0529 1.54127,0.19752 0.16347,0.0817 0.25668,0.17465 0.33117,0.3302 0.17063,0.35628 0.18519,0.63545 0.0444,0.85146 -0.16649,0.25541 -0.55688,0.42301 -1.20122,0.5157 -0.1927,0.0277 -0.31155,0.0402 -0.67971,0.0716 -0.37514,0.0319 -0.34309,0.0299 -0.32165,0.02 z"
         style="fill:#66bb6a;fill-opacity:0.78431373;fill-rule:evenodd;stroke-width:0.00552427" />
      <path
         transform="translate(-171.15709,46.495692)"
         inkscape:connector-curvature="0"
         id="path2817"
         d="m 163.9243,207.8335 c 0.2007,-0.33947 0.41137,-0.55274 0.6737,-0.68203 0.207,-0.10202 0.41965,-0.14358 0.69882,-0.13656 0.21296,0.005 0.36678,0.0286 0.68225,0.10328 0.20804,0.0492 0.27986,0.0641 0.35861,0.0745 0.18263,0.0239 0.26526,-0.005 0.29985,-0.1038 0.008,-0.0229 0.01,-0.0451 0.01,-0.11147 -4.3e-4,-0.0991 -0.007,-0.14134 -0.0606,-0.41708 -0.0977,-0.49908 -0.16069,-0.9165 -0.22039,-1.46117 -0.11576,-1.05599 -0.15264,-2.17963 -0.0942,-2.86876 0.004,-0.0526 0.008,-0.0967 0.008,-0.0981 0,-10e-4 0.002,-0.002 0.004,-0.002 0.002,0 0.004,0.0615 0.005,0.13673 10e-4,0.27941 0.027,0.59827 0.17038,2.1006 0.0717,0.75137 0.10336,1.12905 0.11359,1.35621 0.003,0.0699 0.008,0.17802 0.0109,0.2403 0.007,0.15495 0.0285,0.26899 0.0786,0.41706 0.0628,0.186 0.14993,0.35582 0.33867,0.66018 0.13581,0.21902 0.17168,0.28873 0.17767,0.34526 0.003,0.0241 0.001,0.0292 -0.0102,0.0399 -0.0258,0.024 -0.0737,0.0309 -0.18964,0.0275 -0.18412,-0.005 -0.44587,-0.0512 -0.89493,-0.15648 -0.0972,-0.0228 -0.22817,-0.0535 -0.29098,-0.0682 -0.31736,-0.0745 -0.60119,-0.0919 -0.84426,-0.0519 -0.25367,0.0418 -0.4714,0.14629 -0.66291,0.31812 -0.0891,0.08 -0.19912,0.21398 -0.26898,0.32771 l -0.0321,0.0522 -0.0426,6e-5 -0.0425,6e-5 0.0246,-0.0416 z"
         style="fill:#66bb6a;fill-opacity:0.78431373;fill-rule:evenodd;stroke-width:0.00552427" />
      <path
         transform="translate(-171.15709,46.495692)"
         inkscape:connector-curvature="0"
         id="path2819"
         d="m 166.28447,202.13864 c -0.007,-0.0356 0.033,-0.30134 0.0617,-0.41017 0.009,-0.0339 0.0266,-0.0886 0.0392,-0.12154 0.13206,-0.34428 0.24829,-0.7017 0.35282,-1.08496 0.0273,-0.10014 0.0726,-0.28374 0.11375,-0.46098 0.0631,-0.27195 0.15644,-0.46173 0.29183,-0.59345 0.13308,-0.12947 0.32234,-0.19054 0.53268,-0.17187 0.1272,0.0113 0.26707,0.0452 0.40788,0.0988 0.13246,0.0505 0.1511,0.0631 0.0507,0.0343 -0.0731,-0.021 -0.40326,-0.0973 -0.45725,-0.10571 -0.0563,-0.009 -0.15753,-0.003 -0.20893,0.0113 -0.16591,0.0471 -0.29232,0.17938 -0.39264,0.41072 -0.0781,0.18014 -0.13949,0.41672 -0.23525,0.90701 -0.0861,0.44091 -0.14081,0.66732 -0.21016,0.87007 -0.0772,0.22573 -0.17692,0.40865 -0.28457,0.52204 -0.0353,0.0372 -0.043,0.0499 -0.0522,0.0856 -0.006,0.0239 -0.007,0.0242 -0.01,0.009 z"
         style="fill:#66bb6a;fill-opacity:0.78431373;fill-rule:evenodd;stroke-width:0.00552427" />
      <path
         transform="translate(-171.15709,46.495692)"
         inkscape:connector-curvature="0"
         id="path2821"
         d="m 172.13035,202.44744 c -0.34745,-0.0781 -0.89789,-0.42977 -1.627,-1.03944 -0.36601,-0.30606 -0.59079,-0.50998 -0.99703,-0.9045 -0.36656,-0.35597 -0.38051,-0.36939 -0.49078,-0.47209 -0.19031,-0.17724 -0.32097,-0.29018 -0.4323,-0.37366 -0.0316,-0.0237 -0.06,-0.0456 -0.063,-0.0486 -0.026,-0.026 0.16286,0.0871 0.32466,0.19431 0.36628,0.24283 0.69856,0.50232 1.22562,0.95714 0.22149,0.19114 0.30001,0.25757 0.42741,0.36163 0.75541,0.61698 1.39277,1.02972 1.59013,1.02972 0.0701,0 0.14785,-0.0939 0.23331,-0.28151 0.24427,-0.53637 0.46391,-1.60376 0.51669,-2.51101 0.008,-0.14247 0.008,-0.50662 -1e-4,-0.63806 -0.034,-0.53616 -0.12673,-1.03492 -0.32927,-1.77053 -0.0763,-0.27716 -0.15381,-0.56368 -0.18491,-0.68362 l -0.0269,-0.10358 h 0.0516 0.0516 l 0.011,0.0318 c 0.006,0.0175 0.0438,0.12126 0.0838,0.23064 0.18052,0.49284 0.27647,0.81502 0.34501,1.15838 0.10298,0.51597 0.13107,0.94998 0.11361,1.75567 -0.03,1.38281 -0.1764,2.24153 -0.49879,2.9251 -0.0617,0.13081 -0.0784,0.15297 -0.13377,0.17701 -0.0305,0.0133 -0.14139,0.0163 -0.19058,0.005 z"
         style="fill:#66bb6a;fill-opacity:0.78431373;fill-rule:evenodd;stroke-width:0.00552427" />
      <path
         transform="translate(-171.15709,46.495692)"
         inkscape:connector-curvature="0"
         id="path2823"
         d="m 172.29092,196.1429 c -0.0111,-0.0412 -0.0667,-0.27176 -0.0915,-0.37979 -0.0478,-0.20755 -0.10812,-0.5316 -0.10753,-0.57767 9e-5,-0.007 0.0147,0.0437 0.0325,0.11363 0.0585,0.23007 0.12961,0.45957 0.22491,0.72595 0.0254,0.0711 0.0463,0.13142 0.0463,0.13397 0,0.003 -0.0223,0.005 -0.0495,0.005 h -0.0495 z"
         style="fill:#66bb6a;fill-opacity:0.78431373;fill-rule:evenodd;stroke-width:0.00552427" />
      <path
         transform="translate(-171.15709,46.495692)"
         inkscape:connector-curvature="0"
         id="path2825"
         d="m 172.48391,193.82529 c 0.14075,-0.13729 0.32708,-0.27916 0.63252,-0.48158 0.73882,-0.48965 0.84172,-0.55902 1.12143,-0.75599 1.12444,-0.79184 1.91207,-1.47541 2.52503,-2.19144 0.39598,-0.46258 0.7144,-0.92643 1.02104,-1.48741 l 0.0204,-0.0373 h 0.11314 0.11313 l -0.0507,0.0981 c -0.29244,0.56576 -0.39044,0.7407 -0.54077,0.96537 -0.19597,0.29286 -0.43944,0.56262 -1.03299,1.14455 -0.56487,0.55381 -0.89007,0.81343 -1.8672,1.49061 -0.36554,0.25333 -0.48904,0.34034 -0.68451,0.48225 -0.36676,0.26629 -0.55588,0.37952 -1.08937,0.65226 -0.096,0.0491 -0.21152,0.11034 -0.25665,0.1361 -0.0451,0.0258 -0.0834,0.0468 -0.085,0.0467 -0.002,-9e-5 0.0256,-0.0281 0.0606,-0.0622 z"
         style="fill:#66bb6a;fill-opacity:0.78431373;fill-rule:evenodd;stroke-width:0.00552427" />
      <path
         transform="translate(-171.15709,46.495692)"
         inkscape:connector-curvature="0"
         id="path2827"
         d="m 177.83055,188.82059 c 0.015,-0.0282 0.0701,-0.13449 0.12248,-0.23627 0.29427,-0.57202 0.50281,-0.91174 0.72054,-1.17374 0.0559,-0.0672 0.17971,-0.19823 0.18366,-0.19428 0.001,0.001 -0.0119,0.0217 -0.0291,0.0457 -0.0884,0.12299 -0.20869,0.35381 -0.34212,0.65668 -0.0415,0.0942 -0.0981,0.22221 -0.12567,0.2845 -0.0276,0.0623 -0.1129,0.23754 -0.1895,0.38946 l -0.13926,0.27622 -0.11416,10e-4 -0.11416,0.001 z"
         style="fill:#66bb6a;fill-opacity:0.78431373;fill-rule:evenodd;stroke-width:0.00552427" />
      <path
         transform="translate(-171.15709,46.495692)"
         inkscape:connector-curvature="0"
         id="path2829"
         d="m 181.77572,192.20137 c 0,-0.004 0.004,-0.037 0.008,-0.0734 0.1157,-0.93656 0.15761,-1.44915 0.1502,-1.83665 -0.0164,-0.85942 -0.18272,-1.40835 -0.57017,-1.88242 -0.12917,-0.15806 -0.27953,-0.30341 -0.61019,-0.58986 -0.24232,-0.20993 -0.3222,-0.28164 -0.45502,-0.40851 -0.13464,-0.12861 -0.17897,-0.16844 -0.26313,-0.23641 -0.0735,-0.0594 -0.18051,-0.1322 -0.24859,-0.16918 -0.0497,-0.027 -0.0448,-0.0284 0.0203,-0.006 0.19094,0.067 0.43804,0.22331 0.70564,0.44624 0.20516,0.17091 0.33726,0.29788 1.00244,0.96352 l 0.59312,0.59354 -0.0674,0.95781 c -0.037,0.52679 -0.0877,1.24742 -0.11255,1.60139 l -0.0452,0.64358 -0.0538,0.002 c -0.0416,0.001 -0.0538,-7e-5 -0.0538,-0.006 z"
         style="fill:#66bb6a;fill-opacity:0.78431373;fill-rule:evenodd;stroke-width:0.00552427" />
      <path
         transform="translate(-171.15709,46.495692)"
         inkscape:connector-curvature="0"
         id="path2831"
         d="m 184.76659,197.27888 c -0.0154,-0.0171 -0.11809,-0.10154 -0.1819,-0.14956 -0.0305,-0.0229 -0.15227,-0.10949 -0.27069,-0.1924 -0.33754,-0.23631 -0.47803,-0.34635 -0.66172,-0.51827 -0.18739,-0.17539 -0.22236,-0.20719 -0.29109,-0.26478 -0.15764,-0.13208 -0.34298,-0.26126 -0.59662,-0.41583 -0.2525,-0.15388 -0.34461,-0.21591 -0.45023,-0.30322 -0.28449,-0.23515 -0.4761,-0.57898 -0.62959,-1.12973 -0.0167,-0.0599 -0.0341,-0.13054 -0.0386,-0.15689 -0.036,-0.20866 -0.0215,-0.60485 0.0444,-1.21628 0.0201,-0.18643 0.0794,-0.69656 0.0827,-0.71125 0.003,-0.0118 0.005,-0.0124 0.0552,-0.0124 h 0.0524 v 0.0212 c 0,0.0117 -0.004,0.0744 -0.008,0.13949 -0.01,0.14062 -0.0271,0.42972 -0.0371,0.61821 -0.004,0.082 -0.007,0.27034 -0.007,0.47785 3e-5,0.28668 0.002,0.35913 0.01,0.44451 0.0703,0.72839 0.29865,1.10843 1.05002,1.74795 0.15821,0.13466 0.35388,0.29412 0.62772,0.51158 0.62885,0.49937 0.77695,0.62311 0.98933,0.82664 0.0931,0.0893 0.2359,0.23653 0.26575,0.27416 0.0173,0.0218 0.0137,0.0291 -0.004,0.009 z"
         style="fill:#66bb6a;fill-opacity:0.78431373;fill-rule:evenodd;stroke-width:0.00552427" />
      <path
         transform="translate(-171.15709,46.495692)"
         inkscape:connector-curvature="0"
         id="path2833"
         d="m 186.25038,201.77182 c 0,-0.0103 -0.068,-0.1897 -0.11789,-0.31089 -0.0255,-0.062 -0.11361,-0.26443 -0.19575,-0.44977 -0.17609,-0.39733 -0.2002,-0.45341 -0.27265,-0.63413 -0.17547,-0.43767 -0.28392,-0.80318 -0.3445,-1.1611 -0.0376,-0.2218 -0.0502,-0.36797 -0.058,-0.67135 -0.003,-0.11394 -0.009,-0.24067 -0.0138,-0.28162 -0.0152,-0.13295 -0.042,-0.26807 -0.0698,-0.35265 -0.0182,-0.0553 -0.009,-0.0453 0.0194,0.0207 0.0972,0.22774 0.15374,0.43424 0.2216,0.80968 0.0366,0.2025 0.0598,0.31572 0.10287,0.50271 0.14114,0.61229 0.34257,1.27122 0.53532,1.75119 0.0643,0.16018 0.10549,0.29664 0.14587,0.48363 0.0199,0.0923 0.0541,0.29318 0.0505,0.29681 -0.002,0.002 -0.003,2.5e-4 -0.003,-0.003 z"
         style="fill:#66bb6a;fill-opacity:0.78431373;fill-rule:evenodd;stroke-width:0.00552427" />
      <path
         transform="translate(-171.15709,46.495692)"
         inkscape:connector-curvature="0"
         id="path2835"
         d="m 186.06852,206.59522 c -2.4e-4,-0.007 0.002,-0.0302 0.005,-0.0525 0.0136,-0.10088 0.0172,-0.17575 0.0221,-0.4567 0.0111,-0.64249 0.0349,-0.96597 0.14135,-1.91775 0.0696,-0.62199 0.094,-0.86704 0.11233,-1.12696 l 0.004,-0.0635 8.1e-4,0.0856 c 4.5e-4,0.0471 0.002,0.1428 0.004,0.21269 0.004,0.13081 -0.005,0.63877 -0.0146,0.85902 -0.0359,0.83508 -0.11834,1.62101 -0.24078,2.29534 -0.0308,0.16968 -0.0342,0.18562 -0.0349,0.16474 z"
         style="fill:#66bb6a;fill-opacity:0.78431373;fill-rule:evenodd;stroke-width:0.00552427" />
      <path
         transform="translate(-171.15709,46.495692)"
         inkscape:connector-curvature="0"
         id="path2837"
         d="m 185.24268,212.69638 c -0.11598,-0.37463 -0.19422,-0.92949 -0.2296,-1.62828 -0.0286,-0.56401 -0.0372,-1.67016 -0.0145,-1.84511 0.0201,-0.15434 0.0516,-0.29381 0.0972,-0.43024 0.0751,-0.22455 0.17019,-0.415 0.4168,-0.83439 0.15468,-0.26305 0.19861,-0.34235 0.27112,-0.48932 0.0768,-0.15555 0.12523,-0.27112 0.17151,-0.4088 0.0194,-0.0577 0.0353,-0.10174 0.0354,-0.0978 2.1e-4,0.0124 -0.0428,0.17847 -0.0749,0.28942 -0.0668,0.23086 -0.13011,0.4008 -0.21769,0.58455 -0.072,0.15118 -0.0957,0.21137 -0.13873,0.35323 -0.1936,0.63795 -0.30996,1.68061 -0.29535,2.64645 0.0117,0.77108 0.0463,1.16968 0.13578,1.56061 0.0197,0.0863 0.0687,0.25598 0.0906,0.31416 0.008,0.0209 0.0143,0.0401 0.0143,0.0428 0,0.003 -0.0546,0.005 -0.12135,0.005 h -0.12134 z"
         style="fill:#66bb6a;fill-opacity:0.78431373;fill-rule:evenodd;stroke-width:0.00552427" />
      <path
         transform="translate(-171.15709,46.495692)"
         inkscape:connector-curvature="0"
         id="path2839"
         d="m 186.00732,217.39574 c 0,-0.002 0.0109,-0.02 0.0242,-0.0406 0.1787,-0.27624 0.30455,-0.60668 0.38938,-1.02239 0.0904,-0.44294 0.10756,-0.88115 0.05,-1.2761 -0.0663,-0.4552 -0.23055,-0.88309 -0.48557,-1.26531 -0.12606,-0.18894 -0.23849,-0.32626 -0.43247,-0.52822 -0.0442,-0.0461 -0.0933,-0.102 -0.10897,-0.1243 -0.0584,-0.083 -0.11756,-0.20177 -0.16296,-0.3272 l -0.0192,-0.0531 h 0.1242 c 0.0725,0 0.12419,0.002 0.12419,0.005 0,0.0123 0.0767,0.18797 0.11869,0.27202 0.0817,0.16326 0.14533,0.26616 0.34628,0.55979 0.17064,0.24934 0.31671,0.5435 0.4156,0.83692 0.0831,0.24669 0.13894,0.51209 0.16728,0.7955 0.0121,0.12126 0.0139,0.48574 0.003,0.60491 -0.0406,0.44165 -0.13962,0.82951 -0.31302,1.22638 -0.0325,0.0744 -0.12871,0.26961 -0.15489,0.31427 l -0.0149,0.0255 h -0.0354 c -0.0195,0 -0.0354,-0.001 -0.0354,-0.003 z"
         style="fill:#66bb6a;fill-opacity:0.78431373;fill-rule:evenodd;stroke-width:0.00552427" />
      <path
         transform="translate(-171.15709,46.495692)"
         inkscape:connector-curvature="0"
         id="path2841"
         d="m 183.6816,222.25453 c 0,-0.009 0.10484,-0.32503 0.16591,-0.49973 0.072,-0.20603 0.11673,-0.32946 0.31906,-0.88112 0.34119,-0.93028 0.44129,-1.22561 0.53921,-1.59099 0.12826,-0.47858 0.297,-0.76249 0.71412,-1.20153 0.22108,-0.23269 0.24749,-0.26103 0.31603,-0.33898 0.0871,-0.0991 0.15833,-0.18819 0.2203,-0.27559 l 0.048,-0.0677 h 0.0379 0.0379 l -0.0107,0.0179 c -0.006,0.01 -0.0313,0.0528 -0.0566,0.0953 -0.0644,0.10838 -0.15395,0.24164 -0.24501,0.36461 -0.0427,0.0577 -0.10773,0.1497 -0.14441,0.20439 -0.34067,0.50799 -0.80298,1.44699 -1.15186,2.33953 -0.0779,0.19934 -0.131,0.34528 -0.24012,0.66015 -0.13698,0.39526 -0.24918,0.70629 -0.37764,1.04685 l -0.049,0.12982 -0.0616,0.002 c -0.0422,10e-4 -0.0616,-3.6e-4 -0.0616,-0.005 z"
         style="fill:#66bb6a;fill-opacity:0.78431373;fill-rule:evenodd;stroke-width:0.00552427" />
      <path
         transform="translate(-171.15709,46.495692)"
         inkscape:connector-curvature="0"
         id="path2843"
         d="m 183.69505,228.18368 c -0.13975,-0.22692 -0.28144,-0.40451 -0.55203,-0.69192 -0.15064,-0.16 -0.18085,-0.19366 -0.24291,-0.27069 -0.21841,-0.27107 -0.32848,-0.5729 -0.37839,-1.03761 -0.0165,-0.15375 -0.0217,-0.23732 -0.0282,-0.45714 -0.0143,-0.48087 0.0269,-0.84164 0.13372,-1.17216 0.0394,-0.12202 0.0744,-0.20783 0.13682,-0.33553 0.068,-0.13917 0.12978,-0.24661 0.27534,-0.47875 0.19853,-0.31662 0.27338,-0.44767 0.34939,-0.6117 0.0921,-0.19869 0.15015,-0.36125 0.21008,-0.58803 0.0122,-0.0461 0.035,-0.12789 0.0508,-0.18182 l 0.0286,-0.0981 h 0.063 c 0.0482,0 0.0624,0.002 0.0602,0.007 -0.002,0.004 -0.0282,0.0728 -0.0593,0.1533 -0.25454,0.65872 -0.46765,1.16063 -0.64738,1.5247 -0.11505,0.23305 -0.1529,0.31603 -0.21044,0.46128 -0.24437,0.61692 -0.29722,1.18011 -0.16588,1.76774 0.0851,0.38084 0.25452,0.78449 0.51598,1.22944 0.0748,0.12726 0.14169,0.23221 0.28689,0.44996 0.10327,0.15486 0.22103,0.33473 0.23962,0.36598 0.003,0.005 -0.002,0.007 -0.0178,0.007 -0.0213,0 -0.0225,-0.001 -0.0482,-0.0428 z"
         style="fill:#66bb6a;fill-opacity:0.78431373;fill-rule:evenodd;stroke-width:0.00552427" />
      <path
         transform="translate(-171.15709,46.495692)"
         inkscape:connector-curvature="0"
         id="path2845"
         d="m 182.43311,232.20121 c 0,-0.002 0.0221,-0.0307 0.049,-0.0649 0.2089,-0.26491 0.38591,-0.54064 0.55591,-0.86594 0.22061,-0.42214 0.38192,-0.64728 0.75994,-1.06066 0.18321,-0.20035 0.24733,-0.27994 0.29946,-0.37169 0.11074,-0.19491 0.12649,-0.40004 0.0516,-0.67239 -0.0626,-0.22784 -0.23621,-0.61582 -0.39567,-0.88437 l -0.0325,-0.0548 0.0232,1.2e-4 0.0232,1.2e-4 0.0493,0.0786 c 0.349,0.5562 0.56111,0.95378 0.56111,1.05177 0,0.13989 -0.56518,1.02134 -1.37906,2.15081 -0.0821,0.11393 -0.19861,0.27552 -0.2589,0.35907 -0.0603,0.0836 -0.13958,0.19356 -0.1762,0.24445 l -0.0666,0.0925 h -0.0319 c -0.0175,0 -0.0319,-0.001 -0.0319,-0.003 z"
         style="fill:#66bb6a;fill-opacity:0.78431373;fill-rule:evenodd;stroke-width:0.00552427" />
      <path
         transform="translate(-171.15709,46.495692)"
         inkscape:connector-curvature="0"
         id="path2847"
         d="m 183.84795,241.1956 c -1.15582,-0.30568 -1.84587,-0.55999 -2.76367,-1.01852 -0.36406,-0.18188 -0.47644,-0.24545 -0.68945,-0.39002 -0.54264,-0.36828 -0.80564,-0.81473 -0.90803,-1.5414 -0.0324,-0.23029 -0.0462,-0.8999 -0.0232,-1.13437 0.0488,-0.49905 0.184,-0.91731 0.44015,-1.36174 0.0446,-0.0773 0.21955,-0.35156 0.38883,-0.60937 0.31916,-0.4861 0.37379,-0.57632 0.56293,-0.92969 0.21639,-0.40426 0.47043,-0.75389 0.87423,-1.20312 0.30871,-0.34346 0.61556,-0.69156 0.65906,-0.74768 0.0239,-0.0308 0.0513,-0.0501 0.0666,-0.0469 0.0199,0.004 -0.0189,0.0682 -0.16437,0.27111 -0.72027,1.00477 -1.46778,2.10787 -1.77354,2.61719 -0.50207,0.83634 -0.71539,1.34476 -0.81381,1.93963 -0.0212,0.12791 -0.0268,0.26205 -0.0269,0.63849 -8e-5,0.42439 0.004,0.49765 0.0346,0.66921 0.13352,0.74105 0.50616,1.20715 1.32426,1.65637 0.44104,0.24218 1.03605,0.48169 2.07007,0.83328 0.41643,0.14159 1.1747,0.44802 1.10938,0.44831 -0.0129,6e-5 -0.17813,-0.0408 -0.36719,-0.0908 z"
         style="fill:#66bb6a;fill-opacity:0.78431373;fill-rule:evenodd;stroke-width:0.015625" />
      <path
         transform="translate(-171.15709,46.495692)"
         inkscape:connector-curvature="0"
         id="path2849"
         d="m 192.71489,243.63143 c -0.0567,-0.0248 -0.28247,-0.0913 -0.46746,-0.13757 -0.1867,-0.0467 -0.37653,-0.0883 -0.83417,-0.18261 -0.16407,-0.0338 -0.41717,-0.0888 -0.56244,-0.12228 -0.5893,-0.13565 -0.90338,-0.16357 -2.03397,-0.18086 -1.16848,-0.0179 -1.51165,-0.0337 -1.79274,-0.0828 -0.21592,-0.0377 -0.43356,-0.11032 -0.64346,-0.21478 -0.26785,-0.1333 -0.43559,-0.2539 -0.86519,-0.62211 -0.27314,-0.2341 -0.47326,-0.39356 -0.56528,-0.45043 -0.0221,-0.0136 -0.0377,-0.0273 -0.0347,-0.0303 0.008,-0.008 0.34294,0.16706 0.5481,0.2864 0.0972,0.0565 0.25997,0.16105 0.36179,0.23227 0.4889,0.342 0.7828,0.49456 1.15318,0.59862 0.40332,0.11331 0.68037,0.14022 1.6615,0.16138 0.4793,0.0103 0.77244,0.0253 1.08275,0.0553 1.09759,0.10615 2.10491,0.32659 2.88644,0.63166 0.0927,0.0362 0.16849,0.0679 0.16849,0.0705 0,0.009 -0.027,0.003 -0.0629,-0.0125 z"
         style="fill:#66bb6a;fill-opacity:0.78431373;fill-rule:evenodd;stroke-width:0.01104854" />
      <path
         transform="translate(-171.15709,46.495692)"
         inkscape:connector-curvature="0"
         id="path2851"
         d="m 194.47463,245.67462 c -0.0592,-0.21231 -0.19925,-0.55791 -0.33319,-0.82248 -0.17415,-0.34397 -0.39436,-0.61814 -0.6541,-0.81439 -0.0442,-0.0334 -0.0782,-0.0629 -0.0756,-0.0655 0.0152,-0.0152 0.25981,0.16782 0.45014,0.33688 0.35498,0.31533 0.49679,0.54303 0.57735,0.92707 0.0318,0.15169 0.0651,0.41413 0.0601,0.47337 -0.003,0.0387 -0.005,0.0368 -0.0247,-0.035 z"
         style="fill:#66bb6a;fill-opacity:0.78431373;fill-rule:evenodd;stroke-width:0.01104854" />
      <path
         transform="translate(-171.15709,46.495692)"
         inkscape:connector-curvature="0"
         id="path2853"
         d="m 199.21519,259.24645 c 0.22889,-0.8437 0.53998,-1.67312 0.92721,-2.47211 0.15099,-0.31155 0.17005,-0.37103 0.1703,-0.53133 2.2e-4,-0.14092 -0.0282,-0.25025 -0.10447,-0.40227 -0.11516,-0.22948 -0.25073,-0.39124 -0.76834,-0.91676 -0.38821,-0.39414 -0.49079,-0.50798 -0.61291,-0.68019 -0.14394,-0.20299 -0.24874,-0.46832 -0.24874,-0.62977 0,-0.15084 -0.0682,-0.26971 -0.26943,-0.46934 -0.28067,-0.27848 -0.70048,-0.58188 -1.65854,-1.19864 -0.65249,-0.42005 -0.76115,-0.49753 -0.96122,-0.68535 -0.1633,-0.1533 -0.31383,-0.27941 -0.63529,-0.5322 -0.13673,-0.10752 -0.28923,-0.23179 -0.3389,-0.27614 -0.4697,-0.41945 -0.53266,-0.80851 -0.29198,-1.80422 0.0367,-0.15191 0.0786,-0.3309 0.093,-0.39774 l 0.0262,-0.12154 0.007,0.13811 c 0.004,0.076 0.0122,0.24997 0.0187,0.3867 0.0624,1.30462 0.33678,1.81759 1.4032,2.62292 0.24756,0.18695 0.44939,0.33048 0.89493,0.6364 0.54723,0.37575 0.8452,0.60212 1.17667,0.89394 0.17804,0.15675 0.40312,0.38336 0.49445,0.49781 0.0758,0.0951 0.0884,0.11751 0.20686,0.36953 0.0832,0.17693 0.20089,0.3744 0.40243,0.67492 0.20766,0.30966 0.43456,0.60989 0.95521,1.26391 0.33162,0.41656 0.43324,0.55125 0.42933,0.569 -0.003,0.0128 -0.14281,0.34145 -0.31108,0.73035 -0.16828,0.38891 -0.34585,0.80655 -0.39462,0.92808 -0.15785,0.39341 -0.33644,0.95944 -0.43488,1.37831 l -0.0305,0.12982 h -0.0861 -0.0861 z"
         style="fill:#66bb6a;fill-opacity:0.78431373;fill-rule:evenodd;stroke-width:0.01104854" />
      <path
         transform="translate(-171.15709,46.495692)"
         inkscape:connector-curvature="0"
         id="path2855"
         d="m 199.65897,263.07457 c -0.0337,-0.0409 -0.13911,-0.15569 -0.23413,-0.25508 -0.22503,-0.23535 -0.32867,-0.38999 -0.42662,-0.63654 -0.0397,-0.10003 -0.091,-0.29222 -0.11805,-0.44229 -0.0288,-0.15992 -0.0288,-0.7392 0,-0.96123 0.0471,-0.3631 0.1339,-0.77092 0.29575,-1.38935 l 0.0108,-0.0414 h 0.0866 0.0865 l -0.0268,0.12414 c -0.0708,0.32799 -0.13443,0.78105 -0.15927,1.13407 -0.0187,0.26542 -0.007,0.83391 0.0213,1.03989 0.0639,0.46463 0.15446,0.74285 0.34595,1.06324 0.0373,0.0624 0.0837,0.15071 0.1032,0.19629 0.0421,0.0985 0.0872,0.23155 0.0807,0.23805 -0.003,0.003 -0.0322,-0.0289 -0.066,-0.0698 z"
         style="fill:#66bb6a;fill-opacity:0.78431373;fill-rule:evenodd;stroke-width:0.01104854" />
      <path
         transform="translate(-171.15709,46.495692)"
         inkscape:connector-curvature="0"
         id="path2857"
         d="m 199.65107,266.81746 c -3.4e-4,-0.0213 0.004,-0.10081 0.0104,-0.17677 0.006,-0.076 0.0157,-0.3693 0.0215,-0.65187 0.0103,-0.50277 0.017,-0.61531 0.0508,-0.85073 0.0211,-0.14711 0.0829,-0.42565 0.12608,-0.569 l 0.0333,-0.11049 -0.005,0.33146 c -0.009,0.56117 -0.0698,1.15361 -0.18836,1.82301 -0.0427,0.24096 -0.0478,0.26229 -0.0487,0.20439 z"
         style="fill:#66bb6a;fill-opacity:0.78431373;fill-rule:evenodd;stroke-width:0.01104854" />
      <path
         transform="translate(-171.15709,46.495692)"
         inkscape:connector-curvature="0"
         id="path2859"
         d="m 202.84299,272.61212 c 0,-0.006 0.0101,-0.0374 0.0225,-0.07 0.0359,-0.0944 0.0849,-0.27358 0.10932,-0.39929 0.0796,-0.41038 0.092,-0.80836 0.0561,-1.79539 -0.006,-0.17622 -0.016,-0.44221 -0.0213,-0.59109 -0.0104,-0.29528 -0.0187,-0.3386 -0.0786,-0.41119 -0.0534,-0.0648 -0.12085,-0.0909 -0.23172,-0.0896 -0.11605,10e-4 -0.22537,0.0342 -0.41683,0.12538 -0.2823,0.13442 -0.538,0.30098 -1.31014,0.85343 -0.55394,0.39632 -0.85021,0.58938 -1.08489,0.70692 -0.45467,0.22773 -0.83013,0.32208 -1.06964,0.26879 -0.15992,-0.0356 -0.26869,-0.13909 -0.32388,-0.30822 -0.0255,-0.0782 -0.0302,-0.11413 -0.0346,-0.26737 -0.006,-0.19307 0.009,-0.32561 0.0595,-0.5577 0.0531,-0.24222 0.15498,-0.56114 0.25576,-0.80102 0.0381,-0.0907 0.53287,-1.07219 0.53287,-1.05709 0,0.0197 -0.16462,0.49513 -0.23214,0.6704 -0.19565,0.50781 -0.23467,0.61355 -0.29764,0.80654 -0.25773,0.78994 -0.23408,1.1377 0.0878,1.29138 0.0647,0.0309 0.0823,0.0343 0.17678,0.0344 0.12685,10e-5 0.21799,-0.0212 0.41241,-0.0965 0.34467,-0.13338 0.89098,-0.44174 1.90779,-1.07685 0.58074,-0.36273 0.74839,-0.45228 1.03272,-0.55161 0.23314,-0.0815 0.44253,-0.10852 0.52091,-0.0673 0.12371,0.065 0.22972,0.44992 0.2878,1.04501 0.0236,0.2414 0.0269,0.99793 0.005,1.2224 -0.032,0.3336 -0.0894,0.57344 -0.19314,0.80655 -0.0635,0.14265 -0.17319,0.33842 -0.17317,0.30905 z"
         style="fill:#66bb6a;fill-opacity:0.78431373;fill-rule:evenodd;stroke-width:0.01104854" />
      <path
         transform="translate(-171.15709,46.495692)"
         inkscape:connector-curvature="0"
         id="path2861"
         d="m 201.98672,277.99329 c -0.31718,-0.0698 -0.63746,-0.35979 -0.94446,-0.85506 -0.14637,-0.23613 -0.29823,-0.56538 -0.39049,-0.84664 -0.0998,-0.30408 -0.13073,-0.46791 -0.1306,-0.69053 2.6e-4,-0.42137 0.14156,-0.79338 0.43435,-1.14353 0.18721,-0.22389 0.43013,-0.43486 0.87776,-0.76235 0.13289,-0.0972 0.28817,-0.2131 0.34505,-0.25749 0.0569,-0.0444 0.10167,-0.0759 0.0995,-0.07 -0.002,0.006 -0.13597,0.16156 -0.29741,0.34588 -0.16144,0.18432 -0.35575,0.4097 -0.4318,0.50085 -0.43451,0.52078 -0.79197,1.02091 -0.91996,1.28716 -0.0405,0.0843 -0.045,0.10178 -0.0436,0.17125 0.008,0.39574 0.98023,2.07923 1.29484,2.24192 0.0186,0.01 0.0417,0.0175 0.0514,0.0175 0.0283,0 0.29449,-0.14196 0.49695,-0.265 0.55742,-0.33874 1.25182,-0.8156 1.5472,-1.06249 0.38903,-0.32517 0.58172,-0.5938 0.71435,-0.99588 0.0683,-0.20694 0.11181,-0.42556 0.2018,-1.01329 0.12167,-0.79456 0.2627,-1.68009 0.44168,-2.77319 0.18295,-1.11738 0.22557,-1.51205 0.21295,-1.97216 -0.0136,-0.49383 -0.0733,-0.7714 -0.33295,-1.5468 -0.19875,-0.59351 -0.26962,-0.85372 -0.34253,-1.25758 -0.0519,-0.2877 -0.0681,-0.41734 -0.0833,-0.66706 -0.0139,-0.22823 -0.001,-0.3844 0.0502,-0.628 0.0218,-0.10307 0.0425,-0.20355 0.0459,-0.2233 0.003,-0.02 0.013,-0.0359 0.0214,-0.0359 0.019,0 0.0192,-0.003 -0.006,0.0976 -0.0288,0.11407 -0.0532,0.25085 -0.0671,0.37622 -0.0149,0.13452 -0.0147,0.4751 2.9e-4,0.61519 0.051,0.47637 0.22013,1.01049 0.49085,1.55029 0.15786,0.31476 0.22709,0.50423 0.28118,0.76956 0.13566,0.66544 0.11139,1.53339 -0.0712,2.54631 -0.037,0.20519 -0.0696,0.35532 -0.16935,0.77893 -0.11372,0.48307 -0.17744,0.92871 -0.26619,1.86168 -0.0933,0.98091 -0.14315,1.34393 -0.2366,1.72357 -0.0714,0.29009 -0.16033,0.44501 -0.3807,0.66327 -0.21082,0.20881 -0.35005,0.30649 -0.92425,0.64844 -0.50461,0.3005 -0.6774,0.41988 -0.87882,0.60718 -0.17377,0.16158 -0.26896,0.22061 -0.41668,0.25839 -0.0956,0.0245 -0.17825,0.026 -0.27339,0.005 z"
         style="fill:#66bb6a;fill-opacity:0.78431373;fill-rule:evenodd;stroke-width:0.01104854" />
      <path
         transform="translate(-171.15709,46.495692)"
         inkscape:connector-curvature="0"
         id="path2863"
         d="m 204.89801,265.47764 c 0,-0.0427 0.18985,-0.81495 0.2926,-1.19029 0.19655,-0.71794 0.44081,-1.48702 0.67371,-2.12132 0.11546,-0.31443 0.30626,-0.7972 0.31257,-0.79088 0.003,0.003 -0.0254,0.13053 -0.062,0.28448 -0.0366,0.15394 -0.11455,0.49121 -0.17321,0.74947 -0.30209,1.32996 -0.45896,1.82924 -0.79486,2.52993 -0.10243,0.21367 -0.1597,0.35125 -0.20673,0.49668 -0.0154,0.0475 -0.0421,0.0741 -0.0421,0.0419 z"
         style="fill:#66bb6a;fill-opacity:0.78431373;fill-rule:evenodd;stroke-width:0.01104854" />
      <path
         transform="translate(-171.15709,46.495692)"
         inkscape:connector-curvature="0"
         id="path2865"
         d="m 206.53319,260.59347 c 0,-0.0186 0.16347,-0.29946 0.24869,-0.42723 0.0507,-0.076 0.14537,-0.19777 0.21047,-0.27069 0.44232,-0.49547 0.59176,-0.87562 0.64499,-1.64071 0.006,-0.0881 0.0138,-0.36653 0.0171,-0.61872 0.008,-0.58426 0.0138,-0.7488 0.0341,-0.90598 0.031,-0.23975 0.0989,-0.46585 0.18913,-0.62976 0.0525,-0.0953 0.15912,-0.25679 0.16543,-0.25048 0.003,0.003 -0.007,0.0341 -0.0219,0.0697 -0.0722,0.17335 -0.12594,0.38591 -0.15874,0.6282 -0.0278,0.20502 -0.0272,0.89796 0.001,1.38107 0.0114,0.19446 0.0213,0.48282 0.0219,0.64082 l 0.001,0.28726 -0.0349,0.0906 c -0.0883,0.22893 -0.2747,0.48034 -0.69474,0.93693 -0.24056,0.26148 -0.41729,0.46198 -0.51452,0.58369 -0.10353,0.1296 -0.10926,0.13616 -0.10926,0.12528 z"
         style="fill:#66bb6a;fill-opacity:0.78431373;fill-rule:evenodd;stroke-width:0.01104854" />
      <path
         transform="translate(-171.15709,46.495692)"
         inkscape:connector-curvature="0"
         id="path2867"
         d="m 208.63288,255.18782 c 0.0737,-0.076 0.57766,-0.55377 0.97181,-0.92135 1.26311,-1.17798 1.5568,-1.50597 1.73078,-1.93287 0.10866,-0.26662 0.13348,-0.45469 0.1474,-1.11668 0.0106,-0.50446 0.0197,-0.67171 0.0504,-0.92808 0.0722,-0.60352 0.23583,-1.23608 0.48224,-1.86444 l 0.0661,-0.16849 h 0.0385 0.0385 l -0.033,0.058 c -0.0514,0.0904 -0.17035,0.35374 -0.22583,0.49994 -0.14259,0.37584 -0.22541,0.79556 -0.25178,1.27611 -0.0127,0.2307 -0.009,0.40952 0.0196,0.87283 0.022,0.35976 0.0241,0.79562 0.005,0.93913 -0.0574,0.42456 -0.1981,0.75011 -0.4728,1.09381 -0.0413,0.0516 -0.19717,0.2182 -0.34642,0.37012 -0.14924,0.15192 -0.39865,0.41046 -0.55424,0.57453 -0.15558,0.16407 -0.3344,0.34831 -0.39736,0.40943 -0.25572,0.24822 -0.50884,0.44334 -0.80501,0.62054 -0.0925,0.0553 -0.49463,0.26823 -0.50667,0.26823 -0.003,0 0.016,-0.0228 0.0431,-0.0508 z"
         style="fill:#66bb6a;fill-opacity:0.78431373;fill-rule:evenodd;stroke-width:0.01104854" />
      <path
         transform="translate(-171.15709,46.495692)"
         inkscape:connector-curvature="0"
         id="path2869"
         d="m 212.09061,248.24684 c 0,-0.0119 0.0653,-0.16306 0.16551,-0.38315 0.43184,-0.94858 0.7567,-2.00159 1.01576,-3.29247 0.24281,-1.2099 0.38707,-2.43953 0.45625,-3.88909 0.0157,-0.32987 0.0199,-1.91943 0.005,-2.06331 l -0.009,-0.0856 h 0.12032 0.12033 l 0.0145,0.14998 c 0.0241,0.24956 0.006,1.40525 -0.0336,2.1205 -0.0434,0.7882 -0.12272,1.43716 -0.22622,1.85063 -0.10396,0.41529 -0.1805,0.89354 -0.31476,1.96664 -0.0429,0.34333 -0.0956,0.74605 -0.11692,0.89493 -0.12797,0.89237 -0.24203,1.19737 -0.81509,2.17961 -0.0949,0.16271 -0.20552,0.35537 -0.24574,0.42814 -0.0673,0.12166 -0.0757,0.13229 -0.1051,0.13229 -0.0176,0 -0.0319,-0.004 -0.0319,-0.009 z"
         style="fill:#66bb6a;fill-opacity:0.78431373;fill-rule:evenodd;stroke-width:0.01104854" />
      <path
         transform="translate(-171.15709,46.495692)"
         inkscape:connector-curvature="0"
         id="path2871"
         d="m 213.71595,238.26527 c -0.007,-0.14736 -0.0208,-0.37866 -0.0296,-0.51399 -0.0729,-1.11842 -0.10249,-1.85661 -0.0856,-2.1349 l 0.011,-0.1823 0.002,0.17314 c 0.004,0.40908 0.0613,0.91355 0.25599,2.26084 0.0486,0.33604 0.0883,0.62316 0.0883,0.63805 0,0.027 -3.6e-4,0.0271 -0.11414,0.0271 h -0.11415 z"
         style="fill:#66bb6a;fill-opacity:0.78431373;fill-rule:evenodd;stroke-width:0.01104854" />
      <path
         transform="translate(-171.15709,46.495692)"
         inkscape:connector-curvature="0"
         id="path2873"
         d="m 213.7037,235.02345 c 0,-0.0227 0.0868,-0.14191 0.14034,-0.19268 0.082,-0.0778 0.12889,-0.10936 0.31817,-0.21415 0.18266,-0.10112 0.30544,-0.19116 0.48614,-0.3565 0.41088,-0.37598 0.89558,-0.93195 1.32197,-1.51636 0.0946,-0.12969 1.22251,-1.7412 1.24992,-1.78586 0.004,-0.007 0.0227,-0.74274 0.0411,-1.63518 0.0184,-0.89244 0.0458,-2.22173 0.0609,-2.95397 0.0151,-0.73225 0.0275,-1.37734 0.0275,-1.43355 l 3e-5,-0.1022 h 0.12724 0.12725 l -0.003,2.83671 -0.003,2.83672 -0.0302,0.089 c -0.10078,0.29715 -0.34339,0.64653 -0.95861,1.38048 -0.35871,0.42794 -0.51547,0.62603 -0.59998,0.75813 -0.0215,0.0336 -0.13833,0.25462 -0.25966,0.49116 -0.25764,0.50233 -0.34133,0.65395 -0.44528,0.80665 -0.13158,0.19332 -0.26742,0.32138 -0.46029,0.43396 -0.0917,0.0535 -0.35944,0.18758 -0.63801,0.31944 -0.1154,0.0546 -0.27569,0.132 -0.35621,0.17194 -0.0805,0.0399 -0.14639,0.0698 -0.14639,0.0663 z"
         style="fill:#66bb6a;fill-opacity:0.78431373;fill-rule:evenodd;stroke-width:0.01104854" />
      <path
         transform="translate(-171.15709,46.495692)"
         inkscape:connector-curvature="0"
         id="path2875"
         d="m 217.35658,224.67003 c 0.003,-0.0896 0.0174,-0.77699 0.0323,-1.52746 0.0332,-1.66947 0.10965,-5.41971 0.13166,-6.45788 l 0.0162,-0.76236 0.47681,-1.37553 c 0.26225,-0.75655 0.49723,-1.43644 0.52218,-1.51088 l 0.0454,-0.13535 h 0.12906 0.12906 l -0.0389,0.1243 c -0.16425,0.52502 -0.33565,0.95368 -0.59973,1.49984 -0.21496,0.44456 -0.29046,0.63995 -0.38072,0.98523 -0.0972,0.37184 -0.14737,0.71934 -0.19589,1.35706 -0.01,0.1255 -0.0141,1.21247 -0.0169,4.06863 l -0.004,3.89737 h -0.12589 -0.12589 z"
         style="fill:#66bb6a;fill-opacity:0.78431373;fill-rule:evenodd;stroke-width:0.01104854" />
      <path
         transform="translate(-171.15709,46.495692)"
         inkscape:connector-curvature="0"
         id="path2877"
         d="m 218.71303,212.89867 c -0.0706,-8.1e-4 -0.12844,-0.003 -0.12844,-0.006 0,-0.007 0.16525,-0.47636 0.25096,-0.71229 0.42461,-1.16887 0.92994,-2.3975 1.29051,-3.13771 l 0.0652,-0.13396 h 0.0801 0.0801 l -0.0528,0.0898 c -0.029,0.0494 -0.0956,0.16186 -0.14785,0.24997 -0.19147,0.32258 -0.27021,0.46432 -0.37225,0.67013 -0.22082,0.44536 -0.35711,0.83346 -0.53386,1.52024 -0.11769,0.45731 -0.21351,0.81429 -0.29284,1.09105 -0.0367,0.12817 -0.1085,0.37012 -0.10978,0.37012 -3.8e-4,0 -0.0585,-6.6e-4 -0.12913,-0.001 z"
         style="fill:#66bb6a;fill-opacity:0.78431373;fill-rule:evenodd;stroke-width:0.00552427" />
      <path
         transform="translate(-171.15709,46.495692)"
         inkscape:connector-curvature="0"
         id="path2879"
         d="m 220.22594,208.8412 c 0.14735,-0.29444 0.26569,-0.48084 0.48337,-0.76144 0.13273,-0.17108 0.43645,-0.53379 0.44219,-0.52806 0.001,10e-4 -0.0253,0.0386 -0.0588,0.0832 -0.15078,0.20062 -0.27289,0.40068 -0.4352,0.71302 -0.0949,0.18255 -0.16265,0.30787 -0.24291,0.44905 l -0.0636,0.11187 h -0.0794 -0.0795 z"
         style="fill:#66bb6a;fill-opacity:0.78431373;fill-rule:evenodd;stroke-width:0.00552427" />
      <path
         transform="translate(-171.15709,46.495692)"
         inkscape:connector-curvature="0"
         id="path2881"
         d="m 221.49036,207.17699 c 0,-0.0186 0.78637,-0.81338 1.05914,-1.07041 0.62553,-0.58943 1.11636,-0.99353 1.40268,-1.15483 0.0815,-0.0459 0.13346,-0.0647 0.19524,-0.0706 0.0861,-0.008 0.15057,-0.0356 0.21682,-0.0921 0.33601,-0.28665 0.58443,-1.2627 0.71214,-2.79798 l 0.0128,-0.1533 h 0.12582 0.12582 l -2e-5,0.018 c -5e-5,0.0348 -0.0168,0.28467 -0.0277,0.41294 -0.0712,0.83903 -0.22267,1.44959 -0.4919,1.98322 -0.2233,0.44257 -0.53012,0.76321 -1.04901,1.09622 -0.0456,0.0293 -0.18679,0.11683 -0.31368,0.19454 -0.34024,0.20837 -0.49189,0.31026 -0.64503,0.43337 -0.0898,0.0722 -0.11337,0.0935 -0.29831,0.27026 -0.20168,0.19269 -0.26356,0.24938 -0.56348,0.51619 -0.21863,0.19451 -0.28847,0.25768 -0.42122,0.38109 -0.022,0.0205 -0.04,0.0355 -0.04,0.0334 z"
         style="fill:#66bb6a;fill-opacity:0.78431373;fill-rule:evenodd;stroke-width:0.00552427" />
      <path
         transform="translate(-171.15709,46.495692)"
         inkscape:connector-curvature="0"
         id="path2883"
         d="m 225.08899,201.82537 c 0.001,-0.007 0.004,-0.0336 0.006,-0.0594 0.0229,-0.34097 0.0329,-0.5094 0.0442,-0.75131 0.0183,-0.3898 0.0279,-0.70876 0.0361,-1.196 0.0111,-0.65881 0.0348,-1.33635 0.055,-1.56889 l 0.004,-0.0497 7.7e-4,0.0746 c 0.002,0.17028 0.0257,0.61053 0.059,1.08275 0.0655,0.92994 0.066,0.94189 0.0659,1.53575 -7e-5,0.45756 -0.007,0.80965 -0.0171,0.91289 l -0.003,0.0318 h -0.12662 -0.12662 z"
         style="fill:#66bb6a;fill-opacity:0.78431373;fill-rule:evenodd;stroke-width:0.00552427" />
      <path
         transform="translate(-171.15709,46.495692)"
         inkscape:connector-curvature="0"
         id="path2885"
         d="m 225.40711,196.47051 c 8e-5,-0.0164 0.0303,-0.20927 0.0609,-0.38817 0.24235,-1.4187 0.64938,-2.50877 1.22248,-3.27396 0.0625,-0.0834 0.11364,-0.14697 0.18904,-0.23478 0.13425,-0.15637 0.3031,-0.40158 0.54113,-0.78583 l 0.071,-0.11463 h 0.13747 c 0.10847,0 0.1366,0.001 0.13336,0.007 -0.002,0.004 -0.0305,0.043 -0.0628,0.0872 -0.11089,0.15166 -0.22831,0.29728 -0.55278,0.68555 -0.2682,0.32093 -0.38998,0.47781 -0.5055,0.65114 -0.0921,0.13822 -0.12702,0.20002 -0.2262,0.40051 -0.39193,0.79235 -0.6387,1.51585 -0.97502,2.85872 -0.0279,0.11121 -0.0332,0.12845 -0.0331,0.10735 z"
         style="fill:#66bb6a;fill-opacity:0.78431373;fill-rule:evenodd;stroke-width:0.00552427" />
      <path
         transform="translate(-171.15709,46.495692)"
         inkscape:connector-curvature="0"
         id="path2887"
         d="m 227.6292,191.67453 c -0.0737,-8.7e-4 -0.13396,-0.003 -0.13396,-0.004 0,-0.002 0.0444,-0.0767 0.0987,-0.16701 0.3045,-0.50653 0.61635,-1.06614 0.91684,-1.64528 0.1966,-0.3789 0.35372,-0.73068 0.43646,-0.97721 0.0314,-0.0936 0.0768,-0.24916 0.0818,-0.28036 l 0.003,-0.0207 h 0.0849 c 0.0787,0 0.0849,7.4e-4 0.0849,0.0101 0,0.0199 -0.0286,0.16507 -0.0475,0.2412 -0.0416,0.16756 -0.0952,0.31378 -0.17058,0.46517 -0.0636,0.12782 -0.12701,0.23194 -0.27733,0.45569 -0.20098,0.29914 -0.26531,0.40597 -0.35025,0.58164 -0.0871,0.18018 -0.14658,0.3422 -0.20889,0.5692 -0.0585,0.21312 -0.12079,0.35758 -0.23834,0.55281 -0.0396,0.0658 -0.14338,0.22439 -0.14524,0.22198 -5.4e-4,-7.1e-4 -0.0613,-0.002 -0.13495,-0.003 z"
         style="fill:#66bb6a;fill-opacity:0.78431373;fill-rule:evenodd;stroke-width:0.00552427" />
      <path
         transform="translate(-171.15709,46.495692)"
         inkscape:connector-curvature="0"
         id="path2889"
         d="m 229.03651,188.57705 c 0,-0.001 0.009,-0.0455 0.0191,-0.0981 0.0227,-0.1135 0.0377,-0.21525 0.051,-0.34691 0.0122,-0.12077 0.014,-0.59917 0.003,-0.76235 -0.0148,-0.21524 -0.0241,-0.3349 -0.0397,-0.51375 -0.0325,-0.37291 -0.044,-0.62143 -0.0441,-0.95294 -1.6e-4,-0.61674 0.0523,-1.30382 0.15229,-1.99426 0.0136,-0.0942 0.0261,-0.17561 0.0277,-0.18092 0.002,-0.008 0.009,-0.01 0.0385,-0.01 0.0195,0 0.0355,0.002 0.0355,0.005 0,0.003 -0.0135,0.0604 -0.0301,0.12844 -0.0968,0.39786 -0.13555,0.78001 -0.13563,1.33677 -5e-5,0.39151 0.0127,0.66248 0.0691,1.47165 0.0534,0.76616 0.0603,0.91188 0.0602,1.26782 -7e-5,0.29895 -0.004,0.37564 -0.0279,0.57315 l -0.01,0.0787 h -0.0846 c -0.0465,0 -0.0846,-0.001 -0.0846,-0.002 z"
         style="fill:#66bb6a;fill-opacity:0.78431373;fill-rule:evenodd;stroke-width:0.00552427" />
      <path
         transform="translate(-171.15709,46.495692)"
         inkscape:connector-curvature="0"
         id="path2891"
         d="m 229.20777,183.71213 c 0,-0.01 0.0316,-0.1955 0.0558,-0.32816 0.0352,-0.19293 0.0572,-0.3023 0.11832,-0.58833 0.14246,-0.66635 0.23714,-1.17211 0.29793,-1.59158 0.0419,-0.28944 0.0599,-0.49631 0.0485,-0.55778 -0.004,-0.019 -0.008,-0.0365 -0.0107,-0.0389 -0.0133,-0.0132 -0.4814,-0.0405 -1.63949,-0.0959 -1.20005,-0.0574 -4.39984,-0.19927 -5.60713,-0.24865 -0.11242,-0.005 -0.22491,-0.01 -0.24998,-0.0116 l -0.0456,-0.003 v -0.0851 -0.0851 l 0.0207,10e-6 c 0.0155,0 4.41707,0.16807 5.35164,0.20435 0.079,0.003 0.33878,0.013 0.57729,0.0221 0.46251,0.0176 0.65032,0.0249 0.8535,0.0331 0.0699,0.003 0.34271,0.0132 0.60629,0.0231 0.28335,0.0106 0.47923,0.0201 0.47923,0.0232 0,0.007 -0.1553,0.69063 -0.27099,1.19211 -0.17891,0.77544 -0.36348,1.5531 -0.4754,2.00304 l -0.0347,0.13949 h -0.0376 c -0.0236,0 -0.0376,-0.002 -0.0376,-0.006 z"
         style="fill:#66bb6a;fill-opacity:0.78431373;fill-rule:evenodd;stroke-width:0.00552427" />
      <path
         transform="translate(-171.15709,46.495692)"
         inkscape:connector-curvature="0"
         id="path2893"
         d="m 221.48207,180.22109 c -0.95756,-0.0417 -4.06585,-0.17166 -5.9745,-0.2499 l -0.84245,-0.0345 -0.002,-0.0731 -0.002,-0.0731 h 0.0314 c 0.0173,0 0.45053,0.0161 0.96276,0.0358 0.79365,0.0305 1.92172,0.0738 2.7433,0.10521 0.11849,0.005 0.43793,0.0168 0.70987,0.0273 0.27193,0.0105 1.05748,0.0403 1.74567,0.0663 0.68818,0.026 1.26678,0.0487 1.28577,0.0504 l 0.0345,0.003 v 0.0852 0.0852 l -0.0428,-7.2e-4 c -0.0235,-3.9e-4 -0.31626,-0.0126 -0.65048,-0.0271 z"
         style="fill:#66bb6a;fill-opacity:0.78431373;fill-rule:evenodd;stroke-width:0.00552427" />
      <path
         transform="translate(-171.15709,46.495692)"
         inkscape:connector-curvature="0"
         id="path2895"
         d="m 213.50226,179.88943 c -0.56969,-0.0238 -2.20667,-0.0905 -3.63773,-0.14834 -1.43106,-0.0578 -2.62741,-0.10664 -2.65856,-0.10852 l -0.0566,-0.003 v -0.063 -0.063 l 0.0539,3.1e-4 c 0.1221,7.2e-4 7.44765,0.28466 7.45183,0.28884 0.003,0.002 0.005,0.0354 0.006,0.0731 l 0.002,0.0686 -0.0627,-7e-4 c -0.0345,-3.8e-4 -0.52883,-0.0202 -1.09852,-0.0439 z"
         style="fill:#66bb6a;fill-opacity:0.78431373;fill-rule:evenodd;stroke-width:0.00552427" />
      <path
         transform="translate(-171.15709,46.495692)"
         inkscape:connector-curvature="0"
         id="path2897"
         d="m 204.77667,179.53623 c -1.26395,-0.051 -2.62872,-0.10549 -3.03282,-0.12114 -0.4041,-0.0156 -0.74529,-0.0297 -0.75821,-0.0313 l -0.0235,-0.003 v -0.0577 -0.0577 l 0.0152,-3.2e-4 c 0.008,-1.7e-4 1.40047,0.0526 3.09359,0.11734 l 3.0784,0.11764 v 0.065 0.065 l -0.0373,-6.6e-4 c -0.0205,-3.6e-4 -1.07143,-0.0424 -2.33539,-0.0933 z"
         style="fill:#66bb6a;fill-opacity:0.78431373;fill-rule:evenodd;stroke-width:0.00552427" />
      <path
         transform="translate(-171.15709,46.495692)"
         inkscape:connector-curvature="0"
         id="path2899"
         d="m 199.4347,179.32361 c -1.8745,-0.0751 -1.89287,-0.0758 -3.76755,-0.14887 -0.89328,-0.0348 -1.65832,-0.0649 -1.7001,-0.0669 l -0.076,-0.004 v -0.0546 -0.0546 l 0.0235,-2.3e-4 c 0.0421,-4.1e-4 7.02238,0.26618 7.03516,0.26869 0.012,0.002 0.0124,0.005 0.0124,0.0603 v 0.0579 l -0.0566,-6.9e-4 c -0.0311,-3.8e-4 -0.69302,-0.0262 -1.47084,-0.0573 z"
         style="fill:#66bb6a;fill-opacity:0.78431373;fill-rule:evenodd;stroke-width:0.00552427" />
      <path
         transform="translate(-171.15709,46.495692)"
         inkscape:connector-curvature="0"
         id="path2901"
         d="m 193.16465,179.07717 c -1.27729,-0.0512 -7.94679,-0.30769 -8.67863,-0.33368 -0.13065,-0.005 -0.25556,-0.01 -0.27759,-0.0115 l -0.04,-0.003 v -0.0556 -0.0556 l 0.0483,0.003 c 0.0266,0.002 2.21419,0.086 4.86135,0.18724 l 4.81302,0.18401 1e-5,0.0566 v 0.0566 l -0.029,-7.1e-4 c -0.016,-4e-4 -0.3298,-0.0128 -0.69744,-0.0275 z"
         style="fill:#66bb6a;fill-opacity:0.78431373;fill-rule:evenodd;stroke-width:0.00552427" />
      <path
         transform="translate(-171.15709,46.495692)"
         inkscape:connector-curvature="0"
         id="path2903"
         d="m 183.37288,178.70167 c -2.64629,-0.10171 -7.1042,-0.26134 -8.23669,-0.29493 -0.0562,-0.002 -0.13513,-0.005 -0.17539,-0.006 l -0.0732,-0.003 v -0.0657 -0.0657 l 0.0235,10e-6 c 0.0129,0 2.0989,0.0796 4.63552,0.17677 2.53663,0.0972 4.61424,0.17678 4.61691,0.17678 0.003,0 0.005,0.0249 0.005,0.0552 v 0.0552 l -0.0511,-7.3e-4 c -0.0281,-4e-4 -0.36308,-0.0127 -0.7444,-0.0274 z"
         style="fill:#66bb6a;fill-opacity:0.78431373;fill-rule:evenodd;stroke-width:0.00552427" />
      <path
         transform="translate(-171.15709,46.495692)"
         inkscape:connector-curvature="0"
         id="path2905"
         d="m 174.66663,178.39229 c -0.34052,-0.0118 -0.78613,-0.0226 -1.12419,-0.0272 -0.37298,-0.005 -0.45524,-0.009 -0.57729,-0.0251 -0.3883,-0.0523 -0.60106,-0.22102 -0.8702,-0.69012 -0.11767,-0.2051 -0.16782,-0.30554 -0.72378,-1.44951 l -0.24804,-0.51037 -0.0747,0.004 c -0.0742,0.004 -1.26712,0.0565 -2.94183,0.13048 -0.48006,0.0212 -0.88135,0.0392 -0.89175,0.04 l -0.0189,10e-4 -0.35217,1.05513 -0.35216,1.05514 -4.4e-4,-0.18505 -4.3e-4,-0.18504 0.33282,-0.99853 0.33283,-0.99853 h 0.92303 c 0.50766,0 1.44155,0.002 2.07531,0.004 l 1.15229,0.004 0.63101,1.28072 0.63101,1.28071 0.0227,-1.3e-4 c 0.043,-2.5e-4 2.23799,0.0833 2.26692,0.0863 l 0.029,0.003 v 0.0659 0.0659 l -0.0483,-8.7e-4 c -0.0266,-4.7e-4 -0.10427,-0.003 -0.17263,-0.005 z"
         style="fill:#66bb6a;fill-opacity:0.78431373;fill-rule:evenodd;stroke-width:0.00552427" />
      <path
         transform="translate(-171.15709,46.495692)"
         inkscape:connector-curvature="0"
         id="path2907"
         d="m 164.89103,182.40479 c 0.002,-0.005 0.36213,-1.08607 0.80095,-2.40167 l 0.79786,-2.39201 4.3e-4,0.18668 4.4e-4,0.18668 -0.73779,2.215 -0.73778,2.21499 h -0.0636 c -0.0581,0 -0.0633,-8.4e-4 -0.0605,-0.01 z"
         style="fill:#66bb6a;fill-opacity:0.78431373;fill-rule:evenodd;stroke-width:0.00552427" />
      <path
         transform="translate(-171.15709,46.495692)"
         inkscape:connector-curvature="0"
         id="path2909"
         d="m 163.56284,186.39019 c 0,-10e-4 0.29793,-0.89554 0.66207,-1.98753 l 0.66207,-1.98544 0.0643,-0.002 c 0.0514,-0.001 0.0637,-1e-4 0.0615,0.006 -0.002,0.004 -0.29972,0.89839 -0.66263,1.98753 l -0.65984,1.98025 -0.0637,0.002 c -0.035,8.6e-4 -0.0637,6.2e-4 -0.0637,-5.4e-4 z"
         style="fill:#66bb6a;fill-opacity:0.78431373;fill-rule:evenodd;stroke-width:0.00552427" />
      <path
         transform="translate(-171.15709,46.495692)"
         inkscape:connector-curvature="0"
         id="path2911"
         d="m 162.25912,190.29796 c 0,-0.002 0.29271,-0.88126 0.65047,-1.95457 l 0.65048,-1.95145 h 0.0655 c 0.0501,0 0.0649,0.002 0.063,0.007 -0.001,0.004 -0.2941,0.88195 -0.65045,1.95145 -0.35635,1.0695 -0.6482,1.94487 -0.64854,1.94527 -0.002,0.003 -0.13044,0.005 -0.13044,0.002 z"
         style="fill:#66bb6a;fill-opacity:0.78431373;fill-rule:evenodd;stroke-width:0.00552427" />
    </g>
  </g>
</svg>
