<?xml version="1.0" encoding="UTF-8" standalone="no"?>
<!-- Created with Inkscape (http://www.inkscape.org/) -->

<svg
   xmlns:dc="http://purl.org/dc/elements/1.1/"
   xmlns:cc="http://creativecommons.org/ns#"
   xmlns:rdf="http://www.w3.org/1999/02/22-rdf-syntax-ns#"
   xmlns:svg="http://www.w3.org/2000/svg"
   xmlns="http://www.w3.org/2000/svg"
   xmlns:sodipodi="http://sodipodi.sourceforge.net/DTD/sodipodi-0.dtd"
   xmlns:inkscape="http://www.inkscape.org/namespaces/inkscape"
   width="314.83612"
   height="500"
   id="svg2"
   sodipodi:version="0.32"
   inkscape:version="0.92.4 (5da689c313, 2019-01-14)"
   sodipodi:docname="mPuertoMorelos.svg"
   inkscape:output_extension="org.inkscape.output.svg.inkscape"
   version="1.0">
  <defs
     id="defs4">
    <inkscape:perspective
       sodipodi:type="inkscape:persp3d"
       inkscape:vp_x="0 : 530.76001 : 1"
       inkscape:vp_y="0 : 1000 : 0"
       inkscape:vp_z="1183.8877 : 530.76001 : 1"
       inkscape:persp3d-origin="591.94385 : 353.84001 : 1"
       id="perspective2604" />
    <inkscape:perspective
       id="perspective4705"
       inkscape:persp3d-origin="0.5 : 0.33333333 : 1"
       inkscape:vp_z="1 : 0.5 : 1"
       inkscape:vp_y="0 : 1000 : 0"
       inkscape:vp_x="0 : 0.5 : 1"
       sodipodi:type="inkscape:persp3d" />
    <inkscape:perspective
       id="perspective4727"
       inkscape:persp3d-origin="0.5 : 0.33333333 : 1"
       inkscape:vp_z="1 : 0.5 : 1"
       inkscape:vp_y="0 : 1000 : 0"
       inkscape:vp_x="0 : 0.5 : 1"
       sodipodi:type="inkscape:persp3d" />
    <inkscape:perspective
       id="perspective4749"
       inkscape:persp3d-origin="0.5 : 0.33333333 : 1"
       inkscape:vp_z="1 : 0.5 : 1"
       inkscape:vp_y="0 : 1000 : 0"
       inkscape:vp_x="0 : 0.5 : 1"
       sodipodi:type="inkscape:persp3d" />
  </defs>
  <sodipodi:namedview
     id="base"
     pagecolor="#ffffff"
     bordercolor="#666666"
     borderopacity="1.0"
     inkscape:pageopacity="0.0"
     inkscape:pageshadow="2"
     inkscape:zoom="2"
     inkscape:cx="98.108203"
     inkscape:cy="221.13742"
     inkscape:document-units="px"
     inkscape:current-layer="layer1"
     inkscape:window-width="1920"
     inkscape:window-height="1051"
     inkscape:window-x="-9"
     inkscape:window-y="-9"
     showgrid="false"
     inkscape:window-maximized="1"
     fit-margin-top="0"
     fit-margin-left="0"
     fit-margin-right="0"
     fit-margin-bottom="0" />
  <metadata
     id="metadata7">
    <rdf:RDF>
      <cc:Work
         rdf:about="">
        <dc:format>image/svg+xml</dc:format>
        <dc:type
           rdf:resource="http://purl.org/dc/dcmitype/StillImage" />
        <dc:title></dc:title>
      </cc:Work>
    </rdf:RDF>
  </metadata>
  <g
     inkscape:label="Capa 1"
     inkscape:groupmode="layer"
     id="layer1"
     transform="translate(171.15709,-46.495692)">
    <g
       id="g4622"
       transform="matrix(2.6393469,0,0,2.6393469,-9.7898473,6.4193331)"
       style="fill:#66bb6a;fill-opacity:0.78431374">
      <path
         inkscape:connector-curvature="0"
         id="path4608"
         d="m -29.866485,116.2086 0.35909,-26.820055 26.7832404,-0.24178 -0.83437,19.405665 29.2655306,-0.52196 0.31195,-0.0283 -0.043,0.7539 -0.004,0.64844 0.0234,0.76172 0.14844,0.76563 0.18359,0.68359 0.14844,0.51953 0.13281,0.39063 0.10157,0.32421 0.12109,0.42969 0.0352,0.26953 0.008,0.32422 -0.043,0.30078 -0.13281,0.37891 -0.15625,0.32812 -0.14844,0.21875 -0.35547,0.36329 -0.35156,0.30859 -0.26953,0.31641 -0.16406,0.23046 -0.16016,0.29688 -0.125,0.46094 -0.0937,0.40234 -0.16016,0.38281 -0.0976,0.20703 -0.1836,0.22266 -0.17968,0.14844 -0.33204,0.16797 -0.28515,0.17968 -0.21485,0.17188 -0.12109,0.16406 -0.0547,0.23047 0.004,0.32422 -0.0117,0.42187 -0.0937,0.5586 -0.11719,0.42187 -0.0664,0.375 -0.0703,0.39844 -0.0664,0.77734 -0.0156,0.62891 -0.0625,0.36328 -0.0547,0.082 -0.15235,0.0547 -0.29957,0.0567 -9.747631,0.53218 -6.6750296,-0.30948 -10.1788,0.28055 -15.0340904,6.31695 0.34638,-13.93927 z"
         style="fill:#66bb6a;stroke:#000000;stroke-width:0.1;stroke-linecap:butt;stroke-linejoin:miter;stroke-miterlimit:4;stroke-dasharray:none;stroke-opacity:1;fill-opacity:0.78431374" />
    </g>
  </g>
</svg>
