<?xml version="1.0" encoding="UTF-8" standalone="no"?>
<!-- Created with Inkscape (http://www.inkscape.org/) -->

<svg
   xmlns:dc="http://purl.org/dc/elements/1.1/"
   xmlns:cc="http://creativecommons.org/ns#"
   xmlns:rdf="http://www.w3.org/1999/02/22-rdf-syntax-ns#"
   xmlns:svg="http://www.w3.org/2000/svg"
   xmlns="http://www.w3.org/2000/svg"
   xmlns:sodipodi="http://sodipodi.sourceforge.net/DTD/sodipodi-0.dtd"
   xmlns:inkscape="http://www.inkscape.org/namespaces/inkscape"
   width="314.83612"
   height="500"
   id="svg2"
   sodipodi:version="0.32"
   inkscape:version="0.92.4 (5da689c313, 2019-01-14)"
   sodipodi:docname="mSolidaridad.svg"
   inkscape:output_extension="org.inkscape.output.svg.inkscape"
   version="1.0">
  <defs
     id="defs4">
    <inkscape:perspective
       sodipodi:type="inkscape:persp3d"
       inkscape:vp_x="0 : 530.76001 : 1"
       inkscape:vp_y="0 : 1000 : 0"
       inkscape:vp_z="1183.8877 : 530.76001 : 1"
       inkscape:persp3d-origin="591.94385 : 353.84001 : 1"
       id="perspective2604" />
    <inkscape:perspective
       id="perspective4705"
       inkscape:persp3d-origin="0.5 : 0.33333333 : 1"
       inkscape:vp_z="1 : 0.5 : 1"
       inkscape:vp_y="0 : 1000 : 0"
       inkscape:vp_x="0 : 0.5 : 1"
       sodipodi:type="inkscape:persp3d" />
    <inkscape:perspective
       id="perspective4727"
       inkscape:persp3d-origin="0.5 : 0.33333333 : 1"
       inkscape:vp_z="1 : 0.5 : 1"
       inkscape:vp_y="0 : 1000 : 0"
       inkscape:vp_x="0 : 0.5 : 1"
       sodipodi:type="inkscape:persp3d" />
    <inkscape:perspective
       id="perspective4749"
       inkscape:persp3d-origin="0.5 : 0.33333333 : 1"
       inkscape:vp_z="1 : 0.5 : 1"
       inkscape:vp_y="0 : 1000 : 0"
       inkscape:vp_x="0 : 0.5 : 1"
       sodipodi:type="inkscape:persp3d" />
  </defs>
  <sodipodi:namedview
     id="base"
     pagecolor="#ffffff"
     bordercolor="#666666"
     borderopacity="1.0"
     inkscape:pageopacity="0.0"
     inkscape:pageshadow="2"
     inkscape:zoom="2.8284271"
     inkscape:cx="157.41695"
     inkscape:cy="286.06469"
     inkscape:document-units="px"
     inkscape:current-layer="layer1"
     inkscape:window-width="1920"
     inkscape:window-height="1051"
     inkscape:window-x="-9"
     inkscape:window-y="-9"
     showgrid="false"
     inkscape:window-maximized="1"
     fit-margin-top="0"
     fit-margin-left="0"
     fit-margin-right="0"
     fit-margin-bottom="0" />
  <metadata
     id="metadata7">
    <rdf:RDF>
      <cc:Work
         rdf:about="">
        <dc:format>image/svg+xml</dc:format>
        <dc:type
           rdf:resource="http://purl.org/dc/dcmitype/StillImage" />
        <dc:title></dc:title>
      </cc:Work>
    </rdf:RDF>
  </metadata>
  <g
     inkscape:label="Capa 1"
     inkscape:groupmode="layer"
     id="layer1"
     transform="translate(171.15709,-46.495692)">
    <g
       id="g1177"
       transform="translate(-1.1174581e-7,3.3741702e-6)">
      <path
         sodipodi:nodetypes="cssssssssssssssssssssscccccccccccccccccccccc"
         inkscape:connector-curvature="0"
         id="path4391"
         d="m 61.196368,259.87163 c -0.0992,0.39009 -9.09389,15.56054 -9.5877,16.53109 -0.49938,0.98149 -1.01085,1.94401 -1.93471,2.85191 -0.35335,0.34724 -2.43999,1.66931 -2.57961,2.21814 -0.33687,1.32416 -0.6696,2.26669 -1.28981,3.48565 -0.51714,1.01643 -1.26177,1.87373 -2.25715,2.85191 -0.92052,0.9046 -1.61788,1.27854 -2.25717,2.53503 l -1.61225,3.16878 c -0.14555,0.28606 -1.05659,3.16878 -1.61226,3.16878 -1.77192,0 -2.85724,-0.022 -4.19187,0.63375 -1.2282,0.60349 -1.61225,1.38655 -1.61225,3.16879 0,1.90401 -0.52276,2.0981 -1.61226,3.16878 -0.83039,0.81604 -1.27198,1.56688 -2.25716,2.53501 -0.94422,0.92791 -1.59704,1.87137 -2.25716,3.16879 -0.53048,1.04261 -0.65323,2.22632 -1.61226,3.16878 -0.83039,0.81604 -1.59443,1.25 -2.57961,2.21815 l -2.57961,2.53502 c -0.46716,0.45908 -2.37928,1.43071 -2.57961,2.21815 -0.47091,1.85112 -1.39894,1.37477 -2.57961,2.53503 -0.83039,0.81605 -1.59443,1.25 -2.57962,2.21814 -0.830382,0.81604 -1.916872,0.93311 -2.90205,1.90126 -0.68836,0.67647 -1.981812,1.3601 -2.579617,2.53504 -0.396761,0.77981 -1.087438,4.01554 -1.612254,4.43629 l -45.465641,-0.31688 -6.126577,-10.77385 -22.571593,0.31687 -19.024627,-15.21014 19.669538,-16.16079 23.216491,0.63375 v 18.69582 l 17.734826,0.31687 v -4.1194 h 1.612255 v -10.14011 l 31.922684,0.31688 -4.83676795,-3.80253 7.09392695,-4.75318 -4.514317,-1.90128 13.211743,-8.21299 -0.51525,-11.07526 13.5798,-6.46674 12.12171,-0.3341 7.94915,0.36856 z"
         style="fill:#f9f9f9;fill-rule:evenodd;stroke:#000000;stroke-width:0.11820228;stroke-linecap:butt;stroke-linejoin:miter;stroke-miterlimit:4;stroke-dasharray:none;stroke-opacity:1" />
      <path
         transform="translate(-171.15709,46.495692)"
         inkscape:connector-curvature="0"
         id="path921"
         d="m 140.83413,286.26764 -10.51822,-0.0509 -3.0052,-5.31766 c -1.65286,-2.92471 -3.10156,-5.3559 -3.21933,-5.40265 -0.11777,-0.0467 -5.23373,-0.018 -11.36881,0.0639 l -11.15467,0.14888 -9.358264,-7.48605 c -5.147046,-4.11732 -9.35502,-7.53795 -9.351053,-7.6014 0.004,-0.0634 4.349551,-3.67519 9.656853,-8.02611 l 9.649644,-7.91075 1.78943,0.003 c 0.98419,0.002 5.60782,0.11942 10.27472,0.26171 4.66691,0.14229 9.06202,0.26027 9.76692,0.26217 l 1.28163,0.003 v 9.34898 9.34898 l 5.08233,0.10726 c 2.79528,0.059 6.8523,0.15186 9.01561,0.20638 l 3.93328,0.0991 v -2.13074 -2.13074 h 0.79549 0.7955 v -5.05439 -5.05438 l 7.02687,0.10369 c 15.1027,0.22286 24.96971,0.30998 24.96971,0.22048 0,-0.0515 -1.07392,-0.93995 -2.38648,-1.97428 -1.31257,-1.03433 -2.38649,-1.9023 -2.38649,-1.92881 0,-0.0265 1.54923,-1.07432 3.44272,-2.32846 1.8935,-1.25413 3.42186,-2.34881 3.39636,-2.43262 -0.0255,-0.0838 -0.93366,-0.52328 -2.01812,-0.97661 -1.08446,-0.45333 -2.00983,-0.86232 -2.05638,-0.90887 -0.0465,-0.0466 2.81677,-1.87423 6.36293,-4.06152 l 6.44756,-3.97689 -0.14194,-3.62392 c -0.0781,-1.99316 -0.14194,-4.5227 -0.14194,-5.62121 v -1.99728 l 6.63071,-3.15581 6.63071,-3.1558 6.00882,-0.18466 c 4.27545,-0.13139 7.15914,-0.12898 9.99645,0.008 3.33625,0.16149 4.90513,0.14298 9.60442,-0.11332 3.08923,-0.16849 5.65049,-0.27264 5.69168,-0.23145 0.0412,0.0412 -2.05813,3.72719 -4.66517,8.1911 -2.60703,4.46392 -4.96778,8.53576 -5.24611,9.04854 -0.48792,0.89894 -1.15178,1.5895 -3.04471,3.16717 -0.71505,0.59597 -0.92993,0.90692 -1.09942,1.59099 -0.11586,0.46764 -0.53414,1.52227 -0.9295,2.34363 -0.5911,1.22797 -1.03991,1.82489 -2.52538,3.35875 -1.91726,1.97972 -3.09256,3.84368 -4.08333,6.4759 -0.74051,1.96735 -0.92199,2.19517 -1.74989,2.19672 -1.15585,0.002 -2.91707,0.34193 -3.60716,0.69587 -1.28247,0.65776 -1.7764,1.65356 -1.78629,3.60125 -0.002,0.46822 -0.096,1.02259 -0.20802,1.23192 -0.11203,0.20933 -1.15661,1.41082 -2.3213,2.66998 -2.41285,2.60855 -3.19747,3.73506 -4.01631,5.76643 -0.51497,1.27753 -0.71388,1.55238 -1.82946,2.52794 -0.68841,0.602 -2.09251,1.89005 -3.12022,2.86232 -1.0277,0.97228 -2.25915,2.04619 -2.73655,2.38649 -0.56517,0.40286 -1.02547,0.92686 -1.31937,1.50197 -0.26332,0.51526 -0.69539,1.03082 -1.03704,1.23744 -0.32211,0.1948 -1.47558,1.09579 -2.56326,2.0022 -1.08769,0.9064 -2.33558,1.83321 -2.7731,2.05957 -1.09174,0.56482 -3.55438,2.60061 -3.94052,3.25751 -0.17414,0.29623 -0.53834,1.27653 -0.80935,2.17844 -0.271,0.90191 -0.58874,1.81883 -0.70608,2.03759 l -0.21334,0.39775 -12.14718,-0.0428 c -6.68095,-0.0235 -16.88038,-0.0657 -22.66539,-0.0937 z"
         style="fill:#66bb6a;fill-opacity:0.78431373;fill-rule:evenodd;stroke-width:0.17677669" />
      <path
         transform="translate(-171.15709,46.495692)"
         inkscape:connector-curvature="0"
         id="path923"
         d="m 125.27776,246.82178 -9.8e-4,-1.6084 -0.77539,-0.002 c -0.83987,-0.003 -0.85225,-0.003 -2.16797,-0.0348 -0.89705,-0.0218 -2.50752,-0.0649 -3.79102,-0.10152 -0.30078,-0.009 -0.55962,-0.0156 -0.57519,-0.0156 h -0.0283 v -0.0423 -0.0423 l 0.042,0.001 c 0.0231,8e-4 0.62295,0.0172 1.33301,0.0364 0.71006,0.0192 1.41845,0.0385 1.57422,0.0428 0.15576,0.004 0.60664,0.0166 1.00195,0.0274 0.39531,0.0107 0.84619,0.023 1.00195,0.0274 0.15576,0.004 0.73496,0.0201 1.28711,0.035 0.55215,0.0149 1.03599,0.0283 1.0752,0.0298 l 0.0713,0.003 v 1.62644 1.62643 h -0.0234 -0.0234 z"
         style="fill:#66bb6a;fill-opacity:0.78431373;fill-rule:evenodd;stroke-width:0.00390625" />
      <path
         transform="translate(-171.15709,46.495692)"
         inkscape:connector-curvature="0"
         id="path925"
         d="m 117.75725,245.05285 c -0.0924,-0.003 -0.50196,-0.0149 -0.91016,-0.0268 -0.4082,-0.0119 -1.15088,-0.034 -1.65039,-0.049 -1.45708,-0.0438 -2.08327,-0.0625 -2.09273,-0.0625 -0.009,0 -0.009,-0.001 -0.009,-0.0351 v -0.0352 h 0.0336 c 0.0286,0 4.22062,0.11377 4.60503,0.12498 0.073,0.002 0.14907,0.004 0.16894,0.004 l 0.0361,3e-5 v 0.043 c 0,0.0385 -7.1e-4,0.0429 -0.007,0.0424 -0.004,-3.2e-4 -0.0824,-0.003 -0.1748,-0.006 z"
         style="fill:#66bb6a;fill-opacity:0.78431373;fill-rule:evenodd;stroke-width:0.00390625" />
      <path
         transform="translate(-171.15709,46.495692)"
         inkscape:connector-curvature="0"
         id="path927"
         d="m 112.75725,244.90444 c -0.50434,-0.0158 -2.134,-0.0622 -3.167,-0.0902 l -0.40136,-0.0109 v -0.034 -0.034 l 0.0693,0.002 c 0.0381,0.001 0.9166,0.0253 1.95215,0.0535 l 1.88281,0.0513 0.001,0.0361 0.001,0.0361 -0.0246,-5.3e-4 c -0.0135,-3e-4 -0.15464,-0.005 -0.31362,-0.01 z"
         style="fill:#66bb6a;fill-opacity:0.78431373;fill-rule:evenodd;stroke-width:0.00390625" />
      <path
         transform="translate(-171.15709,46.495692)"
         inkscape:connector-curvature="0"
         id="path929"
         d="m 108.64201,244.78892 c -2.49447,-0.0655 -4.10222,-0.10086 -4.58822,-0.10091 -0.0947,-1e-5 -0.2437,-0.001 -0.33106,-0.003 l -0.15884,-0.003 v -0.0501 c 0,-0.0395 0.001,-0.0502 0.005,-0.0502 0.003,0 1.00353,0.0273 2.22364,0.0606 1.2201,0.0333 2.41084,0.0658 2.6461,0.0722 0.68422,0.0186 0.74798,0.0204 0.74918,0.0215 6.2e-4,5.5e-4 6.2e-4,0.0157 0,0.0337 l -0.001,0.0327 z"
         style="fill:#66bb6a;fill-opacity:0.78431373;fill-rule:evenodd;stroke-width:0.00390625" />
      <path
         transform="translate(-171.15709,46.495692)"
         inkscape:connector-curvature="0"
         id="path931"
         d="m 99.189755,247.06621 0.0011,-0.0568 1.339835,-1.10083 c 0.73692,-0.60545 1.41192,-1.16001 1.5,-1.23235 l 0.16017,-0.13152 0.67772,0.0187 c 0.37276,0.0103 0.6817,0.0188 0.68654,0.0189 0.009,1.8e-4 0.009,9.6e-4 0.009,0.051 v 0.0508 l -0.7002,8e-5 -0.70019,8e-5 -0.13689,0.11222 c -0.0753,0.0617 -0.1702,0.13957 -0.21093,0.17298 -0.0407,0.0334 -0.13823,0.11334 -0.21664,0.1776 -0.0784,0.0643 -0.21113,0.17309 -0.29493,0.24182 -0.0838,0.0687 -0.23496,0.19266 -0.33593,0.27539 -0.10097,0.0827 -0.2416,0.198 -0.3125,0.25618 -0.0709,0.0582 -0.16845,0.13814 -0.21679,0.17771 -0.0483,0.0396 -0.12129,0.0994 -0.16211,0.13288 -0.0408,0.0335 -0.13838,0.11351 -0.21681,0.17776 -0.07841,0.0643 -0.211127,0.17307 -0.294916,0.2418 -0.08379,0.0687 -0.244629,0.20046 -0.357422,0.29272 -0.112793,0.0923 -0.208203,0.17044 -0.212022,0.17372 -0.0066,0.006 -0.0069,0.003 -0.0059,-0.0508 z"
         style="fill:#66bb6a;fill-opacity:0.78431373;fill-rule:evenodd;stroke-width:0.00390625" />
      <path
         transform="translate(-171.15709,46.495692)"
         inkscape:connector-curvature="0"
         id="path933"
         d="m 94.50225,250.91348 0.0011,-0.0527 2.337891,-1.92076 c 1.28584,-1.05642 2.340088,-1.92256 2.342773,-1.92475 0.0039,-0.003 0.0049,0.008 0.0048,0.0522 l -4.2e-5,0.0561 -0.04586,0.0373 c -0.02522,0.0205 -0.124958,0.10214 -0.221637,0.18141 -0.09668,0.0793 -0.239063,0.19599 -0.316407,0.25937 -0.07734,0.0634 -0.159082,0.13039 -0.18164,0.1489 -0.130027,0.10668 -0.364547,0.299 -0.488282,0.4004 -0.07842,0.0643 -0.219921,0.18027 -0.314453,0.25778 -0.09453,0.0775 -0.211425,0.1733 -0.259765,0.21288 -0.04834,0.0396 -0.121289,0.0994 -0.16211,0.1329 -0.04082,0.0335 -0.138379,0.11351 -0.216797,0.17776 -0.07842,0.0642 -0.210253,0.17234 -0.292968,0.24019 -0.08271,0.0679 -0.214551,0.17594 -0.292969,0.24021 -0.07842,0.0643 -0.219922,0.18027 -0.314453,0.25778 -0.09453,0.0775 -0.211426,0.1733 -0.259766,0.21288 -0.04834,0.0396 -0.121289,0.0994 -0.162109,0.1329 -0.04082,0.0335 -0.138379,0.11351 -0.216797,0.17776 -0.07842,0.0642 -0.210254,0.17234 -0.292969,0.24019 -0.08271,0.0678 -0.248828,0.20403 -0.36914,0.30262 -0.120313,0.0986 -0.232424,0.19056 -0.249137,0.20437 l -0.03039,0.0251 0.0011,-0.0527 z"
         style="fill:#66bb6a;fill-opacity:0.78431373;fill-rule:evenodd;stroke-width:0.00390625" />
      <path
         transform="translate(-171.15709,46.495692)"
         inkscape:connector-curvature="0"
         id="path935"
         d="m 89.481995,254.98708 c 0.0031,-0.003 1.133357,-0.93205 2.51158,-2.06437 l 2.505859,-2.05876 0.0011,0.0495 0.0011,0.0495 -0.01086,0.0105 c -0.006,0.006 -0.08997,0.0752 -0.186647,0.15425 -0.09668,0.0791 -0.218847,0.17911 -0.271484,0.2223 -0.05264,0.0432 -0.135254,0.11091 -0.183594,0.15049 -0.04834,0.0396 -0.155566,0.12749 -0.238281,0.19534 -0.08271,0.0678 -0.214551,0.17595 -0.292969,0.24022 -0.07842,0.0643 -0.219922,0.18027 -0.314453,0.25777 -0.09453,0.0775 -0.211426,0.17328 -0.259765,0.21283 -0.04834,0.0395 -0.111622,0.0915 -0.140625,0.11534 -0.029,0.0239 -0.166114,0.1364 -0.304688,0.25002 -0.267427,0.21927 -1.211325,0.99398 -1.427734,1.17182 -0.173692,0.14274 -0.488099,0.4013 -0.59375,0.48827 -0.04727,0.0389 -0.186133,0.15316 -0.308594,0.25389 -0.122461,0.10073 -0.256322,0.21093 -0.29747,0.2449 l -0.07481,0.0618 H 89.5361 c -0.052,0 -0.05907,-7.3e-4 -0.05409,-0.006 z"
         style="fill:#66bb6a;fill-opacity:0.78431373;fill-rule:evenodd;stroke-width:0.00390625" />
      <path
         transform="translate(-171.15709,46.495692)"
         inkscape:connector-curvature="0"
         id="path937"
         d="m 84.536683,259.04976 c 0.0031,-0.003 1.115928,-0.91749 2.47285,-2.03223 l 2.467131,-2.0268 0.05916,10e-4 0.05916,0.001 -0.202074,0.16655 c -0.11114,0.0916 -0.299631,0.24693 -0.41887,0.34519 -0.119238,0.0983 -0.304836,0.2513 -0.41244,0.3401 -0.680971,0.56193 -0.672731,0.55513 -0.833653,0.68818 -0.05479,0.0453 -0.124219,0.10271 -0.154297,0.12757 -0.275535,0.2278 -0.580848,0.48041 -0.771485,0.63832 -0.407459,0.33749 -0.429948,0.35614 -0.789062,0.65425 -0.05049,0.0419 -0.126953,0.10538 -0.169922,0.14105 -0.04297,0.0357 -0.320237,0.26645 -0.616152,0.51287 l -0.538026,0.44803 h -0.07902 c -0.06756,0 -0.07819,-7.9e-4 -0.0733,-0.005 z"
         style="fill:#66bb6a;fill-opacity:0.78431373;fill-rule:evenodd;stroke-width:0.00390625" />
      <path
         transform="translate(-171.15709,46.495692)"
         inkscape:connector-curvature="0"
         id="path939"
         d="m 83.944935,261.72159 c -0.739021,-0.5908 -1.343674,-1.07592 -1.343674,-1.07804 0,-0.003 1.825814,-1.50625 1.914063,-1.57604 l 0.01563,-0.0124 0.07669,0.002 0.07669,0.002 -0.121522,0.10156 c -1.081927,0.90423 -1.705692,1.43852 -1.705692,1.46103 0,0.018 0.359527,0.32595 0.930033,0.79665 0.05459,0.0451 0.123873,0.10228 0.153951,0.12718 0.221991,0.18383 0.916983,0.75254 1.302734,1.06603 0.11709,0.0952 0.215465,0.17546 0.218611,0.17845 0.0049,0.005 -0.0073,0.005 -0.08406,0.005 h -0.08978 z"
         style="fill:#66bb6a;fill-opacity:0.78431373;fill-rule:evenodd;stroke-width:0.00390625" />
      <path
         transform="translate(-171.15709,46.495692)"
         inkscape:connector-curvature="0"
         id="path941"
         d="m 88.573424,265.42201 c -0.880588,-0.70401 -1.97812,-1.58136 -2.43896,-1.94967 -0.460839,-0.36832 -0.839495,-0.67115 -0.841455,-0.67297 -0.002,-0.002 0.03638,-0.004 0.08521,-0.004 l 0.08877,-10e-4 0.04565,0.0373 c 0.02511,0.0205 0.09751,0.0793 0.160887,0.13073 0.06338,0.0514 0.185547,0.15056 0.271484,0.22035 0.521122,0.42317 1.498755,1.21382 2.149903,1.73871 0.131861,0.10629 0.296216,0.23881 0.365235,0.29449 0.06902,0.0557 0.200194,0.1613 0.291503,0.23472 0.09131,0.0734 0.240047,0.19311 0.330531,0.26596 0.166487,0.13405 0.477815,0.38436 0.687033,0.55239 0.06287,0.0505 0.206241,0.16562 0.318608,0.25585 0.112367,0.0902 0.207941,0.16708 0.212386,0.17077 0.0077,0.006 0.0049,0.007 -0.05882,0.007 l -0.0669,1.3e-4 z"
         style="fill:#66bb6a;fill-opacity:0.78431373;fill-rule:evenodd;stroke-width:0.00390625" />
      <path
         transform="translate(-171.15709,46.495692)"
         inkscape:connector-curvature="0"
         id="path943"
         d="m 93.011821,268.97057 -2.830156,-2.26269 0.05819,-0.003 c 0.032,-10e-4 0.05974,-0.004 0.06163,-0.005 0.0019,-0.001 0.02793,0.0176 0.05786,0.0417 0.02993,0.0241 0.205589,0.16498 0.390355,0.31306 0.184765,0.14808 0.379883,0.3046 0.433593,0.34782 0.05371,0.0432 1.148829,0.91936 2.433594,1.94698 1.284766,1.02762 2.339405,1.8717 2.343642,1.87573 0.0076,0.007 0.0065,0.007 -0.05542,0.007 h -0.06313 z"
         style="fill:#66bb6a;fill-opacity:0.78431373;fill-rule:evenodd;stroke-width:0.00390625" />
      <path
         transform="translate(-171.15709,46.495692)"
         inkscape:connector-curvature="0"
         id="path945"
         d="m 98.191105,273.11173 c -1.286914,-1.02911 -2.341425,-1.87268 -2.343358,-1.87459 -0.0021,-0.002 0.02216,-0.004 0.05836,-0.005 l 0.06188,-0.001 2.338121,1.87039 c 1.285966,1.02872 2.340692,1.87291 2.343842,1.87598 0.005,0.005 -0.003,0.006 -0.0566,0.005 l -0.0624,-2.1e-4 -2.339847,-1.87112 z"
         style="fill:#66bb6a;fill-opacity:0.78431373;fill-rule:evenodd;stroke-width:0.00390625" />
      <path
         transform="translate(-171.15709,46.495692)"
         inkscape:connector-curvature="0"
         id="path947"
         d="m 101.04462,275.393 c -0.27393,-0.21921 -0.50053,-0.40099 -0.50356,-0.40395 -0.005,-0.005 0.003,-0.006 0.0545,-0.007 l 0.06,-0.001 0.45531,0.36461 0.4553,0.36462 0.18555,-0.002 c 2.11192,-0.0275 2.84689,-0.0373 2.94434,-0.0393 l 0.11816,-0.002 v 0.0406 0.0406 l -0.20019,0.003 c -0.11011,0.001 -0.82071,0.0114 -1.57911,0.0221 -0.75839,0.0107 -1.40439,0.0194 -1.43554,0.0193 l -0.0566,-1.4e-4 z"
         style="fill:#66bb6a;fill-opacity:0.78431373;fill-rule:evenodd;stroke-width:0.00390625" />
      <path
         transform="translate(-171.15709,46.495692)"
         inkscape:connector-curvature="0"
         id="path949"
         d="m 104.81415,275.7072 v -0.0403 h 0.0283 c 0.0156,-10e-6 1.14541,-0.0149 2.51074,-0.0332 1.36534,-0.0183 2.51275,-0.0332 2.54981,-0.0332 h 0.0674 v 0.0367 0.0367 l -0.12597,0.003 c -0.0693,0.001 -1.19209,0.0174 -2.49512,0.0354 -1.30303,0.018 -2.4065,0.0335 -2.45215,0.0343 l -0.083,10e-4 z"
         style="fill:#66bb6a;fill-opacity:0.78431373;fill-rule:evenodd;stroke-width:0.00390625" />
      <path
         transform="translate(-171.15709,46.495692)"
         inkscape:connector-curvature="0"
         id="path951"
         d="m 109.9704,275.63842 v -0.0375 l 0.0166,-0.002 c 0.009,-0.001 0.71709,-0.0109 1.57325,-0.022 1.71169,-0.0221 2.2829,-0.0295 2.58496,-0.0335 l 0.20019,-0.003 v 0.0353 0.0353 l -0.0518,0.002 c -0.0285,10e-4 -0.95263,0.0146 -2.05371,0.0297 -1.10107,0.0151 -2.06216,0.0286 -2.13574,0.03 l -0.13379,0.003 z"
         style="fill:#66bb6a;fill-opacity:0.78431373;fill-rule:evenodd;stroke-width:0.00390625" />
      <path
         transform="translate(-171.15709,46.495692)"
         inkscape:connector-curvature="0"
         id="path953"
         d="m 114.3454,275.57747 v -0.0347 l 0.12207,-0.002 c 0.12154,-0.002 0.34474,-0.005 1.34082,-0.016 1.22398,-0.0134 1.87586,-0.0198 2.77539,-0.0272 0.3878,-0.003 0.78814,-0.007 0.88965,-0.008 l 0.18457,-0.002 v 0.0248 0.0248 l -0.0752,0.002 c -0.0414,10e-4 -0.40479,0.007 -0.80762,0.0122 -0.40283,0.005 -0.85371,0.0116 -1.00195,0.0137 -0.93574,0.0136 -3.32939,0.0467 -3.37403,0.0467 l -0.0537,1e-5 z"
         style="fill:#66bb6a;fill-opacity:0.78431373;fill-rule:evenodd;stroke-width:0.00390625" />
      <path
         transform="translate(-171.15709,46.495692)"
         inkscape:connector-curvature="0"
         id="path955"
         d="m 119.6579,275.51372 v -0.0254 l 0.39356,-0.003 c 1.35767,-0.009 2.7762,-0.0122 3.36816,-0.007 l 0.25195,0.002 -0.16601,0.003 c -0.0913,0.002 -0.35235,0.006 -0.58008,0.009 -0.22773,0.003 -0.97568,0.0136 -1.66211,0.0232 -0.68643,0.01 -1.32847,0.0186 -1.42676,0.0201 l -0.17871,0.003 z"
         style="fill:#66bb6a;fill-opacity:0.78431373;fill-rule:evenodd;stroke-width:0.00390625" />
      <path
         transform="translate(-171.15709,46.495692)"
         inkscape:connector-curvature="0"
         id="path957"
         d="m 126.41251,279.48815 c -0.11124,-0.19218 -2.04393,-3.59577 -2.04257,-3.59712 0.004,-0.004 0.2109,0.32814 0.4091,0.65474 0.44364,0.73104 1.03692,1.74148 1.68288,2.86621 l 0.0589,0.10254 h -0.0465 -0.0465 z"
         style="fill:#66bb6a;fill-opacity:0.78431373;fill-rule:evenodd;stroke-width:0.00390625" />
      <path
         transform="translate(-171.15709,46.495692)"
         inkscape:connector-curvature="0"
         id="path959"
         d="m 127.72719,281.80055 c -0.70203,-1.23476 -1.28173,-2.2543 -1.28823,-2.26564 l -0.0118,-0.0206 0.0475,10e-4 0.0475,10e-4 0.19526,0.3418 c 0.25893,0.45322 0.49576,0.87092 1.06754,1.88281 0.26162,0.46299 0.65843,1.16524 0.88181,1.56055 0.22338,0.39531 0.40961,0.72446 0.41384,0.73144 l 0.008,0.0127 -0.0423,-1.1e-4 -0.0423,-1e-4 z"
         style="fill:#66bb6a;fill-opacity:0.78431373;fill-rule:evenodd;stroke-width:0.00390625" />
      <path
         transform="translate(-171.15709,46.495692)"
         inkscape:connector-curvature="0"
         id="path961"
         d="m 131.98993,286.26375 c -0.92275,-0.006 -1.69021,-0.0123 -1.70546,-0.0134 l -0.0277,-0.002 -0.62573,-1.10031 -0.62573,-1.10031 0.0398,-10e-4 c 0.0219,-6.1e-4 0.0412,2.6e-4 0.0428,0.002 0.002,0.002 0.2775,0.4891 0.6131,1.08315 0.3356,0.59404 0.61147,1.08147 0.61303,1.08318 0.002,0.002 0.73832,0.007 1.63723,0.0107 0.89892,0.004 1.73503,0.009 1.85803,0.0101 l 0.22363,0.002 v 0.0191 0.0191 l -0.18262,-5.6e-4 c -0.10043,-3.1e-4 -0.93759,-0.006 -1.86035,-0.0119 z"
         style="fill:#66bb6a;fill-opacity:0.78431373;fill-rule:evenodd;stroke-width:0.00390625" />
      <path
         transform="translate(-171.15709,46.495692)"
         inkscape:connector-curvature="0"
         id="path963"
         d="m 138.57587,286.30858 c -0.10848,-8.9e-4 -3.08276,-0.0213 -3.83984,-0.0264 -0.1751,-10e-4 -0.40493,-0.003 -0.51075,-0.004 l -0.19238,-0.002 v -0.0191 -0.0191 l 0.0498,-1.5e-4 c 0.19469,-5.6e-4 4.51707,0.0204 4.57031,0.0222 l 0.0674,0.002 v 0.025 0.025 l -0.0127,-9.1e-4 c -0.007,-5.1e-4 -0.0663,-0.001 -0.13184,-0.002 z"
         style="fill:#66bb6a;fill-opacity:0.78431373;fill-rule:evenodd;stroke-width:0.00390625" />
      <path
         transform="translate(-171.15709,46.495692)"
         inkscape:connector-curvature="0"
         id="path965"
         d="m 141.72821,286.33069 c -1.42334,-0.0103 -2.68237,-0.0189 -2.79785,-0.019 l -0.20996,-2.8e-4 v -0.0254 -0.0254 l 0.21192,-4e-5 c 0.11655,-3e-5 0.57666,0.002 1.02246,0.004 0.4458,0.002 1.41172,0.007 2.14648,0.01 0.73477,0.003 1.54028,0.007 1.79004,0.008 l 0.4541,0.003 v 0.0326 0.0326 l -0.0147,-5.2e-4 c -0.008,-2.8e-4 -1.1792,-0.009 -2.60254,-0.0192 z"
         style="fill:#66bb6a;fill-opacity:0.78431373;fill-rule:evenodd;stroke-width:0.00390625" />
      <path
         transform="translate(-171.15709,46.495692)"
         inkscape:connector-curvature="0"
         id="path967"
         d="m 147.82587,286.3734 c -1.17012,-0.009 -3.22957,-0.023 -3.34668,-0.023 l -0.13379,2e-5 v -0.0337 -0.0337 l 0.35645,0.003 c 0.19604,10e-4 0.97519,0.005 1.73144,0.008 0.75625,0.003 1.58023,0.007 1.83106,0.008 l 0.45605,0.003 v 0.0366 0.0366 l -0.24121,-6.4e-4 c -0.13267,-3.6e-4 -0.42666,-0.002 -0.65332,-0.004 z"
         style="fill:#66bb6a;fill-opacity:0.78431373;fill-rule:evenodd;stroke-width:0.00390625" />
      <path
         transform="translate(-171.15709,46.495692)"
         inkscape:connector-curvature="0"
         id="path969"
         d="m 151.00165,286.39523 c -1.25361,-0.009 -2.27973,-0.0168 -2.28027,-0.017 -5.4e-4,-2.2e-4 -9.8e-4,-0.0171 -9.8e-4,-0.0375 v -0.0371 l 0.0537,5e-5 c 0.0295,2e-5 0.8377,0.003 1.7959,0.008 0.9582,0.004 2.05903,0.009 2.44629,0.0103 l 0.7041,0.003 v 0.0443 0.0443 l -0.21972,-5.4e-4 c -0.12085,-2.9e-4 -1.24541,-0.008 -2.49903,-0.0172 z"
         style="fill:#66bb6a;fill-opacity:0.78431373;fill-rule:evenodd;stroke-width:0.00390625" />
      <path
         transform="translate(-171.15709,46.495692)"
         inkscape:connector-curvature="0"
         id="path971"
         d="m 156.02509,286.43031 c -1.2665,-0.009 -2.30317,-0.0169 -2.30371,-0.0171 -5.4e-4,-1.7e-4 -9.8e-4,-0.0204 -9.8e-4,-0.045 v -0.0447 l 0.30567,0.002 c 0.30486,0.002 2.55878,0.0109 3.95703,0.0159 l 0.7373,0.003 v 0.0521 0.0521 l -0.19629,-5.2e-4 c -0.10796,-2.8e-4 -1.23252,-0.008 -2.49902,-0.0173 z"
         style="fill:#66bb6a;fill-opacity:0.78431373;fill-rule:evenodd;stroke-width:0.00390625" />
      <path
         transform="translate(-171.15709,46.495692)"
         inkscape:connector-curvature="0"
         id="path973"
         d="m 161.3454,286.46741 c -1.42334,-0.0103 -2.59624,-0.0189 -2.60644,-0.019 l -0.0186,-2.8e-4 v -0.052 -0.052 l 0.28418,10e-4 c 0.3529,0.002 3.16316,0.012 4.23438,0.0155 l 0.79394,0.003 v 0.0618 0.0619 l -0.0498,-5.2e-4 c -0.0274,-2.8e-4 -1.21436,-0.009 -2.6377,-0.0192 z"
         style="fill:#66bb6a;fill-opacity:0.78431373;fill-rule:evenodd;stroke-width:0.00390625" />
      <path
         transform="translate(-171.15709,46.495692)"
         inkscape:connector-curvature="0"
         id="path975"
         d="m 168.27118,286.51558 c -0.50399,-0.004 -4.06463,-0.0284 -4.1416,-0.0284 l -0.0967,10e-6 v -0.0616 -0.0616 l 0.24903,10e-4 c 0.26516,0.001 2.02291,0.007 3.33398,0.0114 l 0.79199,0.003 v 0.0697 c 0,0.0536 -0.001,0.0695 -0.005,0.0687 -0.003,-5e-4 -0.062,-10e-4 -0.13184,-0.002 z"
         style="fill:#66bb6a;fill-opacity:0.78431373;fill-rule:evenodd;stroke-width:0.00390625" />
      <path
         transform="translate(-171.15709,46.495692)"
         inkscape:connector-curvature="0"
         id="path977"
         d="m 170.654,286.53253 -2.24415,-0.0161 -0.001,-0.0689 -0.001,-0.0689 0.27841,0.002 c 0.15313,9.3e-4 1.07206,0.004 2.04208,0.007 0.97002,0.003 1.96978,0.007 2.22168,0.008 l 0.45801,0.003 v 0.0757 0.0757 l -0.25488,-5.5e-4 c -0.14019,-3e-4 -1.26475,-0.008 -2.49902,-0.0166 z"
         style="fill:#66bb6a;fill-opacity:0.78431373;fill-rule:evenodd;stroke-width:0.00390625" />
      <path
         transform="translate(-171.15709,46.495692)"
         inkscape:connector-curvature="0"
         id="path979"
         d="m 175.12242,286.56388 c -9e-4,-7.9e-4 -0.37253,-0.003 -0.82585,-0.006 -0.45332,-0.003 -0.83872,-0.006 -0.85644,-0.007 l -0.0322,-0.002 v -0.0763 -0.0763 l 0.64942,0.002 c 0.35717,10e-4 0.86123,0.004 1.12011,0.005 l 0.47071,0.002 0.11213,-0.2103 c 0.0617,-0.11567 0.11946,-0.22613 0.1284,-0.24546 0.11183,-0.24186 0.34654,-0.91155 0.56748,-1.61914 l 0.0445,-0.14258 0.0415,-10e-4 c 0.0228,-6.1e-4 0.0415,-4e-5 0.0415,10e-4 0,0.005 -0.13168,0.44414 -0.18603,0.62051 -0.30904,1.00291 -0.52539,1.53171 -0.71018,1.73577 l -0.0186,0.0205 h -0.27243 c -0.14983,0 -0.27315,-6.4e-4 -0.27405,-10e-4 z"
         style="fill:#66bb6a;fill-opacity:0.78431373;fill-rule:evenodd;stroke-width:0.00390625" />
      <path
         transform="translate(-171.15709,46.495692)"
         inkscape:connector-curvature="0"
         id="path981"
         d="m 176.5026,284.18165 c 0.001,-0.003 0.0243,-0.0788 0.0516,-0.16908 0.19033,-0.62759 0.38171,-1.18576 0.56655,-1.65235 0.13899,-0.35087 0.23176,-0.54593 0.3098,-0.65136 l 0.0166,-0.0225 h 0.047 0.047 l -0.0218,0.0303 c -0.081,0.11264 -0.17168,0.25753 -0.23859,0.38138 -0.14611,0.27042 -0.26,0.60539 -0.60643,1.78366 l -0.089,0.30273 -0.0424,10e-4 c -0.0333,8.8e-4 -0.042,4e-5 -0.0405,-0.004 z"
         style="fill:#66bb6a;fill-opacity:0.78431373;fill-rule:evenodd;stroke-width:0.00390625" />
      <path
         transform="translate(-171.15709,46.495692)"
         inkscape:connector-curvature="0"
         id="path983"
         d="m 177.47111,281.65417 c 0.15628,-0.20561 0.4908,-0.54498 0.90579,-0.91895 0.62079,-0.55941 1.40681,-1.18859 2.04636,-1.63801 l 0.0954,-0.0671 h 0.0275 0.0275 l -0.0741,0.0494 c -0.23726,0.15798 -0.43479,0.31539 -0.62686,0.49956 -0.23217,0.2226 -0.32998,0.30445 -0.81446,0.68156 -0.36788,0.28636 -0.54855,0.43226 -0.71094,0.57413 -0.31404,0.27437 -0.57702,0.54866 -0.76296,0.79577 l -0.0417,0.0555 -0.048,2.1e-4 -0.048,2e-4 z"
         style="fill:#66bb6a;fill-opacity:0.78431373;fill-rule:evenodd;stroke-width:0.00390625" />
      <path
         transform="translate(-171.15709,46.495692)"
         inkscape:connector-curvature="0"
         id="path985"
         d="m 180.53525,279.01912 c 0.0365,-0.0264 0.24888,-0.16827 0.32382,-0.21628 0.16621,-0.1065 0.28732,-0.17814 0.43946,-0.25994 0.11443,-0.0615 0.17127,-0.0952 0.29101,-0.17226 0.54096,-0.34826 1.51502,-1.08304 2.3529,-1.77489 l 0.0795,-0.0656 h 0.0415 c 0.0351,0 0.0406,8.2e-4 0.0358,0.005 -0.003,0.003 -0.0708,0.0571 -0.15025,0.12039 -0.49721,0.39593 -0.82198,0.67862 -1.18128,1.02819 -0.2253,0.2192 -0.41393,0.36327 -0.69958,0.53433 -0.16279,0.0975 -0.23799,0.13737 -0.81055,0.42995 -0.29037,0.14839 -0.46755,0.2467 -0.63936,0.35476 -0.0427,0.0269 -0.0433,0.0271 -0.0706,0.0271 h -0.0275 z"
         style="fill:#66bb6a;fill-opacity:0.78431373;fill-rule:evenodd;stroke-width:0.00390625" />
      <path
         transform="translate(-171.15709,46.495692)"
         inkscape:connector-curvature="0"
         id="path987"
         d="m 184.03106,276.52288 c 0.0238,-0.0225 0.53821,-0.44555 0.78895,-0.6489 0.23057,-0.18699 0.58049,-0.46582 0.5823,-0.46401 0.001,0.001 -0.19878,0.19541 -0.27753,0.26876 -0.2182,0.20323 -0.46545,0.41171 -0.86476,0.72918 l -0.15375,0.12223 h -0.0415 c -0.0406,0 -0.0413,-1.5e-4 -0.0337,-0.007 z"
         style="fill:#66bb6a;fill-opacity:0.78431373;fill-rule:evenodd;stroke-width:0.00390625" />
      <path
         transform="translate(-171.15709,46.495692)"
         inkscape:connector-curvature="0"
         id="path989"
         d="m 185.91962,275.00534 c 0,-0.003 0.20365,-0.15737 0.36133,-0.27393 0.14893,-0.1101 0.27149,-0.1961 0.35351,-0.24805 0.0796,-0.0504 0.11695,-0.0767 0.17745,-0.12508 0.21772,-0.17399 0.47369,-0.46752 0.67107,-0.76954 0.0818,-0.1252 0.13403,-0.21476 0.21386,-0.36687 0.047,-0.0896 0.10258,-0.18778 0.14385,-0.25423 0.0423,-0.0681 0.11473,-0.17644 0.11667,-0.1745 0.001,0.001 -0.005,0.016 -0.014,0.0334 -0.0284,0.0564 -0.0461,0.10689 -0.0765,0.21772 -0.0767,0.27948 -0.14059,0.45379 -0.23694,0.64608 -0.17251,0.34424 -0.37937,0.56655 -0.71611,0.76958 -0.0772,0.0465 -0.19062,0.10771 -0.36968,0.19937 -0.2984,0.15275 -0.44429,0.23372 -0.58846,0.32661 -0.0307,0.0198 -0.036,0.0226 -0.036,0.0195 z"
         style="fill:#66bb6a;fill-opacity:0.78431373;fill-rule:evenodd;stroke-width:0.00390625" />
      <path
         transform="translate(-171.15709,46.495692)"
         inkscape:connector-curvature="0"
         id="path991"
         d="m 188.35238,272.30456 c 0.17157,-0.18305 0.41805,-0.40044 0.6101,-0.53809 0.53701,-0.38489 1.66067,-1.36255 2.79698,-2.43356 0.27165,-0.25604 0.41757,-0.39284 0.66019,-0.61896 0.12782,-0.11913 0.25465,-0.23739 0.28185,-0.26282 l 0.0494,-0.0462 0.0508,0.001 0.0508,10e-4 -1.1305,1.11133 c -0.62177,0.61123 -1.16892,1.1483 -1.21588,1.1935 -0.16305,0.15692 -0.25437,0.22427 -0.82088,0.60536 -0.34149,0.22972 -0.43631,0.29461 -0.58985,0.40365 -0.31525,0.22389 -0.57865,0.43407 -0.73862,0.58937 -0.0227,0.0221 -0.0427,0.0401 -0.0444,0.0401 -0.002,0 0.0163,-0.0207 0.04,-0.0459 z"
         style="fill:#66bb6a;fill-opacity:0.78431373;fill-rule:evenodd;stroke-width:0.00390625" />
      <path
         transform="translate(-171.15709,46.495692)"
         inkscape:connector-curvature="0"
         id="path993"
         d="m 192.75996,268.39866 c 0.0105,-0.0127 0.52951,-0.49146 0.88036,-0.81207 0.51894,-0.47422 0.87705,-0.79651 1.21289,-1.09159 0.4007,-0.35206 0.55384,-0.49381 0.75752,-0.70118 0.32527,-0.33118 0.52089,-0.60549 0.72982,-1.02344 0.0624,-0.12491 0.17251,-0.36957 0.23943,-0.5322 l 0.0213,-0.0517 0.0459,-3e-5 c 0.0263,-2e-5 0.0459,0.002 0.0459,0.004 0,0.006 -0.0709,0.19076 -0.11532,0.30098 -0.2282,0.5659 -0.4571,0.95787 -0.76534,1.31055 -0.15723,0.17989 -0.45809,0.4619 -0.78163,0.73264 -0.14776,0.12365 -0.25741,0.21231 -0.56427,0.45626 -0.5007,0.39805 -0.68264,0.54857 -0.94727,0.78369 -0.16761,0.14893 -0.28013,0.2546 -0.50439,0.4737 l -0.16093,0.15722 h -0.0497 c -0.0458,0 -0.0492,-5e-4 -0.0443,-0.006 z"
         style="fill:#66bb6a;fill-opacity:0.78431373;fill-rule:evenodd;stroke-width:0.00390625" />
      <path
         transform="translate(-171.15709,46.495692)"
         inkscape:connector-curvature="0"
         id="path995"
         d="m 196.60321,264.18432 c 0,-0.001 0.004,-0.0121 0.009,-0.0244 0.005,-0.0123 0.0405,-0.0988 0.0786,-0.19227 0.14749,-0.36229 0.24351,-0.58533 0.36327,-0.84375 0.0835,-0.18012 0.15582,-0.32846 0.23435,-0.48046 0.21303,-0.41238 0.41501,-0.75483 0.67908,-1.15137 l 0.0787,-0.11817 h 0.0167 0.0167 l -0.023,0.0342 c -0.20424,0.30417 -0.47831,0.77326 -0.7115,1.21778 -0.22787,0.43439 -0.30661,0.61921 -0.5608,1.3164 -0.0423,0.11602 -0.0795,0.21841 -0.0827,0.22754 l -0.006,0.0166 h -0.0465 c -0.0256,0 -0.0465,-9.3e-4 -0.0465,-0.002 z"
         style="fill:#66bb6a;fill-opacity:0.78431373;fill-rule:evenodd;stroke-width:0.00390625" />
      <path
         transform="translate(-171.15709,46.495692)"
         inkscape:connector-curvature="0"
         id="path997"
         d="m 198.05105,261.36901 c 0.007,-0.0121 0.0979,-0.1414 0.15106,-0.21582 0.43977,-0.61567 0.9967,-1.29216 1.79929,-2.18555 0.20099,-0.22372 0.37746,-0.41693 0.76001,-0.8321 0.23153,-0.25127 0.4407,-0.47972 0.45684,-0.49895 0.01,-0.0119 0.0122,-0.0127 0.0357,-0.0127 0.0138,0 0.025,9.3e-4 0.025,0.002 0,10e-4 -0.0296,0.0358 -0.0657,0.0771 -0.11642,0.13314 -0.24816,0.29049 -0.50276,0.60047 -0.30752,0.37442 -0.4716,0.56736 -0.66771,0.78512 -0.16706,0.18552 -0.3741,0.40202 -0.52325,0.54714 -0.12226,0.11897 -0.34716,0.35352 -0.48109,0.50174 -0.32478,0.35943 -0.62565,0.74335 -0.89851,1.14653 l -0.0608,0.0898 h -0.0156 c -0.0115,0 -0.0148,-10e-4 -0.0126,-0.005 z"
         style="fill:#66bb6a;fill-opacity:0.78431373;fill-rule:evenodd;stroke-width:0.00390625" />
      <path
         transform="translate(-171.15709,46.495692)"
         inkscape:connector-curvature="0"
         id="path999"
         d="m 201.2406,257.61315 c 0.005,-0.006 0.0687,-0.0758 0.14046,-0.15527 0.85649,-0.94834 1.48437,-1.68115 1.62794,-1.89998 0.0385,-0.0587 0.0634,-0.11719 0.095,-0.22306 l 0.0163,-0.0547 h 0.05 c 0.0275,0 0.05,0.001 0.05,0.003 0,0.002 -0.009,0.0316 -0.0195,0.0663 -0.065,0.21027 -0.15843,0.40226 -0.2828,0.5809 -0.14142,0.20315 -0.30645,0.38003 -0.70355,0.75409 -0.4715,0.44414 -0.63851,0.61144 -0.88613,0.88764 l -0.0463,0.0516 h -0.0257 -0.0257 z"
         style="fill:#66bb6a;fill-opacity:0.78431373;fill-rule:evenodd;stroke-width:0.00390625" />
      <path
         transform="translate(-171.15709,46.495692)"
         inkscape:connector-curvature="0"
         id="path1001"
         d="m 203.13654,255.21092 c 0.047,-0.1987 0.0826,-0.45366 0.0974,-0.69835 0.003,-0.0537 0.008,-0.19873 0.01,-0.32227 0.004,-0.23148 0.008,-0.32608 0.0178,-0.48437 0.0382,-0.58674 0.13558,-1.07343 0.29556,-1.47657 l 0.0287,-0.0723 0.0131,-0.001 c 0.0113,-0.001 0.0127,-2.9e-4 0.0104,0.006 -0.10873,0.28127 -0.18432,0.64166 -0.22067,1.05205 -0.02,0.22619 -0.0269,0.39817 -0.0315,0.78515 -0.004,0.34988 -0.009,0.46369 -0.0276,0.66211 -0.0194,0.20658 -0.0519,0.40337 -0.0926,0.56055 l -0.0146,0.0566 -0.0511,0.001 -0.0511,0.001 z"
         style="fill:#66bb6a;fill-opacity:0.78431373;fill-rule:evenodd;stroke-width:0.00390625" />
      <path
         transform="translate(-171.15709,46.495692)"
         inkscape:connector-curvature="0"
         id="path1003"
         d="m 203.59121,252.14636 c 0.0308,-0.0787 0.12005,-0.2518 0.18395,-0.35645 0.27835,-0.45594 0.69126,-0.81922 1.25677,-1.10571 0.57555,-0.29157 1.89598,-0.58367 3.02636,-0.66946 0.15833,-0.012 0.38901,-0.0235 0.47364,-0.0236 l 0.0322,-4e-5 v 0.0677 0.0677 l -0.26465,0.003 c -0.49309,0.005 -0.82154,0.0189 -1.15722,0.0497 -0.7331,0.0672 -1.33228,0.2202 -1.94532,0.49677 -0.40119,0.181 -0.69804,0.36031 -0.94395,0.57021 -0.0632,0.054 -0.2136,0.20533 -0.26299,0.26472 -0.15003,0.18042 -0.27394,0.38701 -0.3579,0.59671 -0.0189,0.0472 -0.0193,0.0478 -0.0317,0.0479 -0.0115,6e-5 -0.0123,-7.1e-4 -0.009,-0.009 z"
         style="fill:#66bb6a;fill-opacity:0.78431373;fill-rule:evenodd;stroke-width:0.00390625" />
      <path
         transform="translate(-171.15709,46.495692)"
         inkscape:connector-curvature="0"
         id="path1005"
         d="m 208.56415,250.05944 v -0.0684 l 0.0596,-1e-5 c 0.12467,-1e-5 0.25845,-0.009 0.35059,-0.0237 0.36411,-0.0579 0.58486,-0.26718 0.84842,-0.8044 0.14217,-0.28977 0.27514,-0.61264 0.54218,-1.31641 0.11513,-0.30342 0.21553,-0.56055 0.26197,-0.6709 l 0.009,-0.0205 h 0.0385 0.0385 l -0.01,0.0264 c -0.006,0.0145 -0.0425,0.11426 -0.0822,0.22168 -0.12428,0.33626 -0.21132,0.56904 -0.26805,0.7168 -0.38854,1.01211 -0.69864,1.63538 -0.93845,1.88618 -0.0663,0.0694 -0.12046,0.10689 -0.16914,0.11723 -0.0144,0.003 -0.12092,0.004 -0.35058,0.004 h -0.32989 z"
         style="fill:#66bb6a;fill-opacity:0.78431373;fill-rule:evenodd;stroke-width:0.00390625" />
      <path
         transform="translate(-171.15709,46.495692)"
         inkscape:connector-curvature="0"
         id="path1007"
         d="m 210.65455,247.10743 c 0.40056,-0.97326 0.82549,-1.81988 1.31515,-2.62025 0.1368,-0.22362 0.38118,-0.60129 0.38597,-0.5965 8.6e-4,8.6e-4 -0.2926,0.57971 -0.65214,1.28633 -0.35954,0.70663 -0.71725,1.40967 -0.7949,1.56232 -0.0952,0.1872 -0.15009,0.29972 -0.16854,0.3457 l -0.0274,0.0682 -0.039,0.001 -0.039,10e-4 z"
         style="fill:#66bb6a;fill-opacity:0.78431373;fill-rule:evenodd;stroke-width:0.00390625" />
      <path
         transform="translate(-171.15709,46.495692)"
         inkscape:connector-curvature="0"
         id="path1009"
         d="m 213.74622,242.09753 c 0.23946,-0.27072 0.45559,-0.50423 0.72223,-0.78033 1.35381,-1.40184 1.80977,-1.98001 2.31034,-2.92963 0.1615,-0.30637 0.40949,-0.83397 0.56552,-1.20313 l 0.0115,-0.0273 0.069,-0.001 c 0.0379,-5.9e-4 0.069,-3.1e-4 0.069,6.2e-4 0,0.009 -0.14649,0.35204 -0.21641,0.50743 -0.14217,0.31594 -0.35355,0.7476 -0.46907,0.95786 -0.41147,0.74894 -0.95859,1.44736 -1.81452,2.31628 -0.37838,0.38412 -0.56195,0.5585 -0.97461,0.9258 -0.0988,0.088 -0.20547,0.1833 -0.23698,0.21186 -0.0315,0.0286 -0.0585,0.0519 -0.0601,0.0519 -0.002,0 0.009,-0.0136 0.024,-0.0303 z"
         style="fill:#66bb6a;fill-opacity:0.78431373;fill-rule:evenodd;stroke-width:0.00390625" />
      <path
         transform="translate(-171.15709,46.495692)"
         inkscape:connector-curvature="0"
         id="path1011"
         d="m 217.36326,237.1405 c 0.1891,-0.44333 0.382,-0.94694 0.48141,-1.25684 0.0379,-0.11817 0.0475,-0.15127 0.0812,-0.2793 0.0381,-0.14482 0.0559,-0.20646 0.0822,-0.28515 0.0952,-0.28492 0.22096,-0.507 0.41249,-0.72852 0.0479,-0.0554 0.15127,-0.16212 0.23142,-0.23891 0.1228,-0.11765 0.19757,-0.18306 0.46878,-0.41016 0.0902,-0.0755 0.18725,-0.15691 0.21561,-0.18081 l 0.0516,-0.0435 0.0339,0.001 0.0339,0.001 -0.0562,0.0428 c -0.72906,0.55545 -1.10343,0.91842 -1.19323,1.15688 -0.005,0.0132 -0.0277,0.0958 -0.0505,0.1836 -0.17407,0.67017 -0.34134,1.21045 -0.53502,1.72804 -0.0404,0.1079 -0.11709,0.30461 -0.12377,0.31738 -0.003,0.006 -0.0108,0.007 -0.0719,0.007 h -0.0683 z"
         style="fill:#66bb6a;fill-opacity:0.78431373;fill-rule:evenodd;stroke-width:0.00390625" />
      <path
         transform="translate(-171.15709,46.495692)"
         inkscape:connector-curvature="0"
         id="path1013"
         d="m 219.39405,233.71403 c 0.001,-0.002 0.0597,-0.0524 0.12989,-0.1121 0.60917,-0.51766 1.03472,-0.90237 1.38427,-1.25139 0.32578,-0.3253 0.53725,-0.56513 0.74693,-0.8471 0.15245,-0.20503 0.26785,-0.38632 0.41688,-0.65494 0.0893,-0.16089 0.21672,-0.38583 0.37626,-0.66406 l 0.1232,-0.21484 0.0475,-0.001 0.0475,-0.001 -0.0517,0.10071 c -0.31398,0.61173 -0.53508,0.99853 -0.79104,1.38391 -0.29896,0.45011 -0.59638,0.81847 -0.94894,1.17526 -0.16014,0.16206 -0.23148,0.21947 -0.68567,0.55177 -0.072,0.0527 -0.20381,0.14913 -0.29297,0.21437 -0.0892,0.0653 -0.22413,0.16489 -0.29995,0.22143 l -0.13784,0.10279 h -0.0333 c -0.0194,0 -0.0324,-0.001 -0.0311,-0.004 z"
         style="fill:#66bb6a;fill-opacity:0.78431373;fill-rule:evenodd;stroke-width:0.00390625" />
      <path
         transform="translate(-171.15709,46.495692)"
         inkscape:connector-curvature="0"
         id="path1015"
         d="m 222.57735,229.9616 c 0.005,-0.0129 0.77265,-1.34201 1.33333,-2.30841 0.74101,-1.27722 0.82935,-1.4292 0.8328,-1.43276 0.002,-0.002 0.0209,-0.003 0.0428,-0.002 l 0.0398,10e-4 -0.15885,0.27148 c -1.17434,2.00698 -1.80471,3.09927 -1.95585,3.38902 l -0.0446,0.0856 -0.0459,0.001 c -0.0409,9.8e-4 -0.0456,4.1e-4 -0.0435,-0.005 z"
         style="fill:#66bb6a;fill-opacity:0.78431373;fill-rule:evenodd;stroke-width:0.00390625" />
      <path
         transform="translate(-171.15709,46.495692)"
         inkscape:connector-curvature="0"
         id="path1017"
         d="m 224.76288,226.18542 c 0.0103,-0.0177 0.0729,-0.12539 0.13915,-0.23926 0.0662,-0.11387 0.16646,-0.28613 0.22269,-0.38281 0.29276,-0.5034 0.3775,-0.64902 0.47847,-0.82227 0.20898,-0.35855 0.38836,-0.66646 0.50754,-0.87121 0.0657,-0.11286 0.29698,-0.50964 0.51397,-0.88174 l 0.39453,-0.67654 0.0482,-1e-4 c 0.0265,-5e-5 0.0476,0.001 0.0469,0.003 -7.1e-4,0.002 -0.24815,0.42407 -0.54985,0.93848 -0.64306,1.09642 -1.51408,2.58291 -1.64495,2.80728 l -0.0917,0.15715 -0.0418,8e-5 -0.0418,7e-5 z"
         style="fill:#66bb6a;fill-opacity:0.78431373;fill-rule:evenodd;stroke-width:0.00390625" />
      <path
         transform="translate(-171.15709,46.495692)"
         inkscape:connector-curvature="0"
         id="path1019"
         d="m 227.02557,222.30261 c 0.003,-0.005 0.19481,-0.33487 0.42721,-0.7334 0.23241,-0.39854 0.45425,-0.7791 0.49299,-0.84571 0.17961,-0.30878 0.22825,-0.39238 0.2727,-0.46875 0.0263,-0.0451 0.0891,-0.15322 0.13954,-0.24023 0.0505,-0.087 0.16471,-0.28389 0.25384,-0.4375 0.0891,-0.15361 0.19684,-0.3395 0.23934,-0.41309 l 0.0773,-0.13379 h 0.0542 c 0.0298,0 0.0542,6.5e-4 0.0542,0.001 0,0.002 -0.41075,0.70388 -1.02402,1.75052 -0.24799,0.42324 -0.55102,0.94044 -0.6734,1.14934 l -0.2225,0.37982 -0.048,6e-5 -0.048,7e-5 z"
         style="fill:#66bb6a;fill-opacity:0.78431373;fill-rule:evenodd;stroke-width:0.00390625" />
      <path
         transform="translate(-171.15709,46.495692)"
         inkscape:connector-curvature="0"
         id="path1021"
         d="m 228.93242,219.02514 c 0.001,-0.003 0.0502,-0.0884 0.1092,-0.19043 0.2736,-0.47288 0.73974,-1.28191 0.9621,-1.6698 0.0641,-0.11172 0.13165,-0.22949 0.15022,-0.26172 l 0.0338,-0.0586 0.0636,-0.001 0.0636,-0.001 -0.0128,0.0226 c -0.0156,0.0275 -0.93638,1.6059 -1.12684,1.93168 l -0.13642,0.23334 -0.0541,6e-5 c -0.0424,4e-5 -0.0537,-0.001 -0.0522,-0.005 z"
         style="fill:#66bb6a;fill-opacity:0.78431373;fill-rule:evenodd;stroke-width:0.00390625" />
      <path
         transform="translate(-171.15709,46.495692)"
         inkscape:connector-curvature="0"
         id="path1023"
         d="m 230.19045,216.83971 c 0.007,-0.0123 0.52411,-0.91815 0.60997,-1.06933 0.73002,-1.28542 1.16643,-2.0804 1.17639,-2.14299 0.002,-0.0138 0.002,-0.0141 -0.0128,-0.0165 -0.0701,-0.0111 -0.4865,-0.004 -1.12249,0.0188 -0.15803,0.006 -0.20169,0.007 -0.50977,0.0197 -0.5456,0.0218 -1.29224,0.0556 -1.98438,0.0897 -0.10742,0.005 -0.2498,0.0123 -0.3164,0.0156 -0.43413,0.0214 -1.52729,0.0787 -1.86172,0.0976 -0.0572,0.003 -0.10769,0.006 -0.11231,0.006 -0.008,0 -0.008,-0.002 -0.008,-0.0391 v -0.0391 h 0.01 c 0.009,0 0.44552,-0.0238 2.97835,-0.1621 2.66744,-0.1457 3.18559,-0.17383 3.20143,-0.17383 h 0.0179 l -0.0302,0.0576 c -0.1852,0.35313 -0.74313,1.33133 -1.63704,2.87012 -0.0836,0.14395 -0.1792,0.30868 -0.21241,0.36608 l -0.0604,0.10436 -0.0637,1.3e-4 c -0.035,7e-5 -0.0629,-0.001 -0.0619,-0.003 z"
         style="fill:#66bb6a;fill-opacity:0.78431373;fill-rule:evenodd;stroke-width:0.00390625" />
      <path
         transform="translate(-171.15709,46.495692)"
         inkscape:connector-curvature="0"
         id="path1025"
         d="m 221.98603,214.02038 c 0,-0.01 9.5e-4,-0.0176 0.002,-0.0176 0.001,0 0.51752,-0.0281 1.14746,-0.0625 2.10427,-0.11491 2.28839,-0.12494 2.57698,-0.14046 0.15791,-0.008 0.2981,-0.0163 0.31152,-0.0174 l 0.0244,-0.002 v 0.0386 0.0386 l -0.0283,0.002 c -0.0156,0.001 -0.0626,0.004 -0.1045,0.006 -0.0419,0.002 -0.19218,0.0101 -0.33398,0.0176 -1.27657,0.0676 -2.31645,0.11443 -3.11914,0.14061 -0.0999,0.003 -0.23395,0.008 -0.29788,0.01 -0.0639,0.002 -0.13029,0.004 -0.14746,0.004 h -0.0312 z"
         style="fill:#66bb6a;fill-opacity:0.78431373;fill-rule:evenodd;stroke-width:0.00390625" />
      <path
         transform="translate(-171.15709,46.495692)"
         inkscape:connector-curvature="0"
         id="path1027"
         d="m 221.04071,214.05507 c 0.01,-9.3e-4 0.21182,-0.0121 0.44922,-0.0249 0.23741,-0.0128 0.44615,-0.0243 0.46387,-0.0256 l 0.0322,-0.002 v 0.0175 0.0175 l -0.0439,0.002 c -0.10467,0.006 -0.95266,0.0203 -0.90137,0.0154 z"
         style="fill:#66bb6a;fill-opacity:0.78431373;fill-rule:evenodd;stroke-width:0.00390625" />
      <path
         transform="translate(-171.15709,46.495692)"
         inkscape:connector-curvature="0"
         id="path1029"
         d="m 219.67536,214.05923 c -0.55233,-0.007 -1.10338,-0.0212 -1.77343,-0.0468 -0.35647,-0.0136 -0.62028,-0.0252 -1.28711,-0.0564 -0.79317,-0.0372 -1.5695,-0.064 -2.26368,-0.0781 -0.0569,-0.001 -0.13735,-0.003 -0.17871,-0.004 l -0.0752,-0.002 v -0.0543 c 0,-0.0426 0.001,-0.0543 0.005,-0.0543 0.003,0 0.28895,0.0132 0.63575,0.0293 0.34679,0.0161 0.70612,0.0328 0.7985,0.0371 0.0924,0.004 0.39649,0.0184 0.67578,0.0313 0.2793,0.0129 0.65899,0.0305 0.84375,0.0391 0.18477,0.009 0.39219,0.0182 0.46094,0.0214 0.0688,0.003 0.20147,0.009 0.29492,0.0137 0.0935,0.004 0.20684,0.01 0.25196,0.0117 0.0451,0.002 0.15849,0.007 0.25195,0.0117 0.0935,0.004 0.20683,0.01 0.25195,0.0117 0.0451,0.002 0.17871,0.008 0.29688,0.0138 0.11816,0.005 0.38359,0.0177 0.58984,0.0273 0.41499,0.0193 0.73183,0.0339 0.93359,0.043 0.073,0.003 0.13985,0.007 0.14844,0.007 0.0318,0.002 -0.6293,0.001 -0.86133,-0.002 z"
         style="fill:#66bb6a;fill-opacity:0.78431373;fill-rule:evenodd;stroke-width:0.00390625" />
      <path
         transform="translate(-171.15709,46.495692)"
         inkscape:connector-curvature="0"
         id="path1031"
         d="m 208.15974,213.87019 v -0.0412 h 0.0187 c 0.0103,0 0.24099,-0.006 0.5127,-0.0137 1.15952,-0.0321 1.5458,-0.0427 2.61901,-0.0723 1.60715,-0.0443 1.47067,-0.0413 1.59518,-0.0358 0.27416,0.012 1.12351,0.0515 1.1558,0.0537 l 0.0361,0.002 v 0.0549 0.0549 l -0.11426,-0.003 c -0.0628,-0.001 -0.24785,-0.005 -0.41113,-0.007 -0.4069,-0.007 -2.51851,-0.007 -2.98828,1.1e-4 -0.72414,0.0103 -1.23616,0.0194 -1.81446,0.0322 -0.19013,0.004 -0.38964,0.009 -0.44336,0.01 -0.0537,0.001 -0.11303,0.003 -0.13183,0.004 l -0.0342,0.002 z"
         style="fill:#66bb6a;fill-opacity:0.78431373;fill-rule:evenodd;stroke-width:0.00390625" />
      <path
         transform="translate(-171.15709,46.495692)"
         inkscape:connector-curvature="0"
         id="path1033"
         d="m 203.47223,214.00384 1e-5,-0.0459 h 0.0252 c 0.0139,0 0.15054,-0.004 0.30371,-0.008 0.63178,-0.0177 3.84351,-0.10601 4.11444,-0.11319 0.0795,-0.002 0.16694,-0.005 0.19433,-0.006 l 0.0498,-0.002 v 0.0406 0.0406 l -0.11035,0.003 c -0.15932,0.004 -0.64743,0.0173 -0.7959,0.0218 -0.0698,0.002 -0.24912,0.007 -0.39844,0.0118 -0.14932,0.004 -0.3251,0.01 -0.39062,0.0117 -0.0655,0.002 -0.74932,0.0231 -1.51954,0.0467 -0.77021,0.0236 -1.41665,0.0434 -1.43653,0.044 l -0.0361,0.001 z"
         style="fill:#66bb6a;fill-opacity:0.78431373;fill-rule:evenodd;stroke-width:0.00390625" />
      <path
         transform="translate(-171.15709,46.495692)"
         inkscape:connector-curvature="0"
         id="path1035"
         d="m 198.4731,215.13742 0.001,-0.0468 1.10699,-0.52715 1.10698,-0.52715 0.13716,-0.004 c 0.15673,-0.005 1.83987,-0.0509 2.27192,-0.0624 0.15791,-0.004 0.30688,-0.009 0.33105,-0.01 l 0.0439,-0.002 v 0.0467 0.0467 h -0.0278 c -0.0242,0 -2.64333,0.0796 -2.73587,0.0831 l -0.0352,0.001 -1.06836,0.50903 c -0.5876,0.27997 -1.08291,0.51579 -1.1007,0.52404 l -0.0323,0.015 z"
         style="fill:#66bb6a;fill-opacity:0.78431373;fill-rule:evenodd;stroke-width:0.00390625" />
      <path
         transform="translate(-171.15709,46.495692)"
         inkscape:connector-curvature="0"
         id="path1037"
         d="m 193.16059,217.6666 10e-4,-0.0462 2.6543,-1.26402 2.6543,-1.26402 0.001,0.0448 c 6.1e-4,0.0246 -2.7e-4,0.0461 -0.002,0.0477 -0.002,0.002 -5.28794,2.51901 -5.30495,2.52594 -0.004,0.002 -0.005,-0.008 -0.004,-0.0441 z"
         style="fill:#66bb6a;fill-opacity:0.78431373;fill-rule:evenodd;stroke-width:0.00390625" />
      <path
         transform="translate(-171.15709,46.495692)"
         inkscape:connector-curvature="0"
         id="path1039"
         d="m 188.00349,220.12089 v -0.0441 l 2.57715,-1.22722 2.57715,-1.22721 0.001,0.0453 c 6.1e-4,0.0249 6.1e-4,0.0456 0,0.046 -0.004,0.003 -5.15126,2.45131 -5.1531,2.45131 -10e-4,0 -0.002,-0.0198 -0.002,-0.0441 z"
         style="fill:#66bb6a;fill-opacity:0.78431373;fill-rule:evenodd;stroke-width:0.00390625" />
      <path
         transform="translate(-171.15709,46.495692)"
         inkscape:connector-curvature="0"
         id="path1041"
         d="m 187.29096,223.34759 c -0.002,-0.0295 -0.12512,-2.68243 -0.13208,-2.8427 l -0.001,-0.0253 0.41992,-0.20014 c 0.23095,-0.11008 0.42124,-0.2002 0.42285,-0.20027 0.002,-7e-5 0.003,0.0197 0.003,0.044 v 0.0441 l -0.29529,0.14041 -0.29529,0.14041 0.002,1.35746 c 0.001,0.7466 0.003,1.408 0.005,1.46977 l 0.002,0.1123 h -0.0643 -0.0644 z"
         style="fill:#66bb6a;fill-opacity:0.78431373;fill-rule:evenodd;stroke-width:0.00390625" />
      <path
         transform="translate(-171.15709,46.495692)"
         inkscape:connector-curvature="0"
         id="path1043"
         d="m 187.46673,227.12103 c -0.001,-0.009 -0.04,-0.83662 -0.0862,-1.83887 -0.0463,-1.00224 -0.0852,-1.83852 -0.0866,-1.8584 l -0.002,-0.0361 h 0.0646 0.0646 l 0.002,0.0557 c 0.001,0.0306 0.004,0.1664 0.006,0.30175 0.0126,0.74811 0.0471,2.05893 0.0801,3.04297 0.003,0.0945 0.007,0.21187 0.008,0.26074 l 0.003,0.0889 h -0.0258 -0.0258 z"
         style="fill:#66bb6a;fill-opacity:0.78431373;fill-rule:evenodd;stroke-width:0.00390625" />
      <path
         transform="translate(-171.15709,46.495692)"
         inkscape:connector-curvature="0"
         id="path1045"
         d="m 187.61119,230.23041 c -0.003,-0.0359 -0.14293,-3.06 -0.14289,-3.08008 l 3e-5,-0.0127 h 0.0264 0.0264 l 0.009,0.25488 c 0.005,0.14019 0.0115,0.32081 0.0146,0.40137 0.0507,1.29936 0.0668,1.71333 0.0799,2.04588 0.009,0.21751 0.0156,0.40164 0.0156,0.40918 0,0.013 -7e-4,0.0137 -0.0133,0.0137 h -0.0133 z"
         style="fill:#66bb6a;fill-opacity:0.78431373;fill-rule:evenodd;stroke-width:0.00390625" />
      <path
         transform="translate(-171.15709,46.495692)"
         inkscape:connector-curvature="0"
         id="path1047"
         d="m 184.0973,233.84167 6e-5,-0.0693 1.78705,-1.11075 c 1.65067,-1.02599 1.78705,-1.11155 1.78704,-1.1211 0,-0.006 -0.0132,-0.29306 -0.0293,-0.63861 -0.0161,-0.34555 -0.0293,-0.63075 -0.0293,-0.63379 0,-0.004 0.004,-0.006 0.0134,-0.006 h 0.0134 l 0.002,0.0244 c 0.001,0.0134 0.0112,0.25908 0.0222,0.54589 0.011,0.28682 0.0229,0.59683 0.0265,0.68891 l 0.006,0.16742 -0.01,0.007 c -0.005,0.004 -0.0862,0.0539 -0.17969,0.11156 -0.0934,0.0576 -0.27099,0.16709 -0.39453,0.24331 -0.12353,0.0762 -0.31865,0.19657 -0.43359,0.26745 -0.37748,0.2328 -0.40713,0.25109 -0.51758,0.31921 -0.0601,0.0371 -0.1542,0.0951 -0.20898,0.12892 -0.0548,0.0338 -0.20157,0.12433 -0.32617,0.20117 -0.12461,0.0768 -0.31358,0.19338 -0.41993,0.25899 -0.10634,0.0656 -0.29355,0.1811 -0.41601,0.25665 -0.25061,0.1546 -0.59285,0.36567 -0.65332,0.40292 l -0.04,0.0247 z"
         style="fill:#66bb6a;fill-opacity:0.78431373;fill-rule:evenodd;stroke-width:0.00390625" />
      <path
         transform="translate(-171.15709,46.495692)"
         inkscape:connector-curvature="0"
         id="path1049"
         d="m 179.56612,236.64837 1.3e-4,-0.0596 2.26452,-1.40739 2.26452,-1.4074 0.001,0.0343 c 6.9e-4,0.0189 1.1e-4,0.0504 -0.001,0.07 l -0.003,0.0356 -0.0749,0.0461 c -0.0818,0.0504 -0.41338,0.25489 -0.71745,0.44247 -0.10634,0.0656 -0.29443,0.18165 -0.41797,0.25786 -0.12353,0.0762 -0.31865,0.19656 -0.43359,0.26745 -0.11494,0.0709 -0.25381,0.15653 -0.30859,0.19033 -0.0548,0.0338 -0.19365,0.11944 -0.3086,0.19032 -0.664,0.40951 -0.8171,0.50404 -1.25,0.77178 -0.18361,0.11357 -0.51875,0.32151 -0.77022,0.47789 -0.13251,0.0824 -0.24193,0.14982 -0.24316,0.14982 -0.001,0 -0.002,-0.0268 -0.002,-0.0596 z"
         style="fill:#66bb6a;fill-opacity:0.78431373;fill-rule:evenodd;stroke-width:0.00390625" />
      <path
         transform="translate(-171.15709,46.495692)"
         inkscape:connector-curvature="0"
         id="path1051"
         d="m 175.17636,239.99198 c -0.35286,-0.1487 -0.64114,-0.27164 -0.64062,-0.2732 7.1e-4,-0.002 4.94623,-3.07849 5.01755,-3.12119 l 0.0127,-0.008 v 0.0604 0.0604 l -0.0459,0.0285 c -0.12332,0.0766 -0.87066,0.54365 -1.0791,0.6744 -2.05173,1.28698 -3.42818,2.18024 -3.54102,2.29795 l -0.0156,0.0163 0.009,0.008 c 0.0389,0.0318 0.51301,0.24801 1.05714,0.48214 0.0537,0.0231 0.0984,0.0427 0.0993,0.0435 8.9e-4,7.9e-4 -0.051,0.001 -0.11524,0.001 l -0.11686,-1.5e-4 z"
         style="fill:#66bb6a;fill-opacity:0.78431373;fill-rule:evenodd;stroke-width:0.00390625" />
      <path
         transform="translate(-171.15709,46.495692)"
         inkscape:connector-curvature="0"
         id="path1053"
         d="m 177.33846,240.90218 -1.50858,-0.63608 0.11128,-0.001 0.11127,-10e-4 0.17643,0.0752 c 0.097,0.0413 0.37283,0.158 0.61286,0.25921 0.78015,0.32897 1.19738,0.51605 1.62137,0.72697 0.18444,0.0918 0.38023,0.19587 0.39471,0.20989 0.003,0.003 0.002,0.005 -0.003,0.004 -0.004,-3.3e-4 -0.68687,-0.28683 -1.51658,-0.63668 z"
         style="fill:#66bb6a;fill-opacity:0.78431373;fill-rule:evenodd;stroke-width:0.00552427" />
      <path
         transform="translate(-171.15709,46.495692)"
         inkscape:connector-curvature="0"
         id="path1055"
         d="m 172.7068,247.00482 c -0.42689,-0.33588 -0.77684,-0.61247 -0.77768,-0.61466 -0.002,-0.005 6.78759,-4.55474 6.79109,-4.55124 0.001,0.001 -0.033,0.0297 -0.0763,0.0632 -0.43516,0.33642 -1.18099,0.86453 -2.13644,1.51277 -0.1109,0.0752 -0.76221,0.51032 -1.44736,0.96683 -1.6546,1.10247 -2.42453,1.62177 -2.79528,1.88536 -0.12567,0.0894 -0.1448,0.10503 -0.13954,0.11441 0.0156,0.0279 0.42146,0.36185 1.1192,0.92105 l 0.39132,0.31363 -0.0764,-3.3e-4 -0.0764,-3.2e-4 z"
         style="fill:#66bb6a;fill-opacity:0.78431373;fill-rule:evenodd;stroke-width:0.00552427" />
      <path
         transform="translate(-171.15709,46.495692)"
         inkscape:connector-curvature="0"
         id="path1057"
         d="m 175.1134,248.89735 c -0.85581,-0.67278 -1.57242,-1.23616 -1.59246,-1.25195 l -0.0364,-0.0287 0.0774,1.2e-4 0.0775,1.3e-4 0.16211,0.12898 c 0.16182,0.12876 0.30185,0.23962 0.77735,0.61544 0.71119,0.56211 1.23363,0.98328 1.6875,1.3604 0.22236,0.18477 0.46484,0.3919 0.46484,0.39708 0,9.6e-4 -0.0139,0.002 -0.0309,0.002 h -0.0309 z"
         style="fill:#66bb6a;fill-opacity:0.78431373;fill-rule:evenodd;stroke-width:0.00390625" />
      <path
         transform="translate(-171.15709,46.495692)"
         inkscape:connector-curvature="0"
         id="path1059"
         d="m 173.28785,250.30814 c -1.15265,-0.006 -1.97452,-0.012 -2.02051,-0.0142 l -0.0478,-0.002 v -0.0484 -0.0484 l 0.0459,1e-5 c 0.0382,0 2.52568,0.0245 3.96191,0.039 0.21807,0.002 0.57051,0.006 0.78321,0.008 0.21269,0.002 0.48383,0.005 0.60253,0.006 0.11871,10e-4 0.21583,0.002 0.21583,3.5e-4 0,-0.001 -0.033,-0.0281 -0.0733,-0.0597 -0.0403,-0.0316 -0.0758,-0.0598 -0.079,-0.0627 -0.005,-0.005 -7.7e-4,-0.005 0.0273,-0.005 l 0.0331,9e-5 0.0653,0.0605 c 0.0699,0.0648 0.0968,0.0952 0.0882,0.0998 -0.016,0.009 -0.19688,0.0172 -0.50307,0.0235 -0.24992,0.005 -2.35793,0.008 -3.09961,0.004 z"
         style="fill:#66bb6a;fill-opacity:0.78431373;fill-rule:evenodd;stroke-width:0.00390625" />
      <path
         transform="translate(-171.15709,46.495692)"
         inkscape:connector-curvature="0"
         id="path1061"
         d="m 170.44605,250.28814 c -0.7447,-0.007 -2.07473,-0.0194 -2.39258,-0.0229 -0.18476,-0.002 -0.54775,-0.006 -0.80664,-0.008 -0.25888,-0.002 -0.49047,-0.005 -0.51464,-0.006 l -0.0439,-0.002 v -0.0507 -0.0507 l 0.0986,0.002 c 0.0542,10e-4 0.20938,0.003 0.34473,0.004 0.13535,0.001 0.41924,0.004 0.63086,0.006 0.53697,0.006 2.68959,0.0265 2.98047,0.0291 0.13213,0.001 0.29341,0.003 0.3584,0.004 l 0.11816,0.002 v 0.0484 0.0484 l -0.21582,-6.4e-4 c -0.1187,-3.6e-4 -0.36963,-0.002 -0.55762,-0.004 z"
         style="fill:#66bb6a;fill-opacity:0.78431373;fill-rule:evenodd;stroke-width:0.00390625" />
      <path
         transform="translate(-171.15709,46.495692)"
         inkscape:connector-curvature="0"
         id="path1063"
         d="m 165.97144,250.24336 c -0.22558,-0.003 -0.65537,-0.008 -0.95507,-0.0112 -0.49753,-0.006 -1.3369,-0.0158 -3.10352,-0.0372 -0.35879,-0.004 -0.69673,-0.009 -0.75098,-0.0103 l -0.0986,-0.002 v -0.0445 -0.0445 l 0.0107,1e-5 c 0.0155,3e-5 3.05255,0.0303 3.53028,0.0352 1.10614,0.0113 1.95243,0.0195 2.01464,0.0195 l 0.0693,1e-5 v 0.0508 0.0508 l -0.15332,-5.8e-4 c -0.0843,-3.2e-4 -0.33789,-0.003 -0.56348,-0.006 z"
         style="fill:#66bb6a;fill-opacity:0.78431373;fill-rule:evenodd;stroke-width:0.00390625" />
      <path
         transform="translate(-171.15709,46.495692)"
         inkscape:connector-curvature="0"
         id="path1065"
         d="m 160.80152,250.18037 c -0.0354,-5.5e-4 -0.27715,-0.004 -0.53711,-0.007 -0.65182,-0.008 -2.72616,-0.036 -3.07617,-0.041 -0.61421,-0.009 -1.09253,-0.0156 -1.1084,-0.0156 l -0.0166,-1e-5 v -0.037 -0.037 l 0.13574,0.002 c 0.0747,0.001 1.11309,0.0116 2.30762,0.0232 1.19453,0.0116 2.25845,0.0222 2.36426,0.0237 l 0.19238,0.003 v 0.0444 0.0444 l -0.0986,-8.7e-4 c -0.0542,-4.8e-4 -0.12764,-0.001 -0.16309,-0.002 z"
         style="fill:#66bb6a;fill-opacity:0.78431373;fill-rule:evenodd;stroke-width:0.00390625" />
      <path
         transform="translate(-171.15709,46.495692)"
         inkscape:connector-curvature="0"
         id="path1067"
         d="m 155.44801,250.10842 c -0.26856,-0.004 -1.09737,-0.016 -1.8418,-0.0268 -3.51347,-0.0509 -4.83856,-0.0704 -4.93652,-0.0727 l -0.10645,-0.002 v -0.0192 -0.0192 l 0.14941,0.002 c 0.16409,0.003 7.1967,0.0721 7.29171,0.0721 h 0.0589 v 0.0371 0.0371 l -0.0635,-5.5e-4 c -0.0349,-3e-4 -0.2832,-0.004 -0.55175,-0.008 z"
         style="fill:#66bb6a;fill-opacity:0.78431373;fill-rule:evenodd;stroke-width:0.00390625" />
      <path
         transform="translate(-171.15709,46.495692)"
         inkscape:connector-curvature="0"
         id="path1069"
         d="m 144.79371,250.72998 v -0.79688 l 0.0791,2e-5 c 0.0435,1e-5 0.86748,0.008 1.83106,0.0176 0.96357,0.01 1.77612,0.0175 1.80566,0.0176 l 0.0537,2e-5 v 0.0195 0.0195 l -0.0225,-1e-5 c -0.0124,-1e-5 -0.19473,-0.003 -0.40527,-0.006 -0.77312,-0.0117 -0.93434,-0.0141 -1.97852,-0.0291 -0.58545,-0.008 -1.10796,-0.0163 -1.16113,-0.0175 l -0.0967,-0.002 v 0.78704 0.78704 h -0.0527 -0.0527 z"
         style="fill:#66bb6a;fill-opacity:0.78431373;fill-rule:evenodd;stroke-width:0.00390625" />
      <path
         transform="translate(-171.15709,46.495692)"
         inkscape:connector-curvature="0"
         id="path1071"
         d="m 144.79371,253.8706 v -2.34375 h 0.0527 0.0527 v 2.34375 2.34375 h -0.0527 -0.0527 z"
         style="fill:#66bb6a;fill-opacity:0.78431373;fill-rule:evenodd;stroke-width:0.00390625" />
      <path
         transform="translate(-171.15709,46.495692)"
         inkscape:connector-curvature="0"
         id="path1073"
         d="m 144.79371,258.13818 v -1.92383 h 0.0527 0.0527 v 1.92383 1.92383 h -0.0527 -0.0527 z"
         style="fill:#66bb6a;fill-opacity:0.78431373;fill-rule:evenodd;stroke-width:0.00390625" />
      <path
         transform="translate(-171.15709,46.495692)"
         inkscape:connector-curvature="0"
         id="path1075"
         d="m 141.42315,264.2765 c -0.98936,-0.0253 -1.79927,-0.0462 -1.79981,-0.0464 -5.3e-4,-1.7e-4 -9.7e-4,-0.0233 -9.7e-4,-0.0515 v -0.0512 l 0.11426,0.003 c 0.0628,10e-4 0.80156,0.0147 1.6416,0.0296 0.84004,0.0149 1.5893,0.0282 1.66504,0.0297 l 0.13769,0.003 v -2.06117 -2.06116 h 0.0625 0.0625 v 2.12695 2.12695 l -0.042,-4.9e-4 c -0.0231,-2.7e-4 -0.85146,-0.0212 -1.84082,-0.0466 z"
         style="fill:#66bb6a;fill-opacity:0.78431373;fill-rule:evenodd;stroke-width:0.00390625" />
      <path
         transform="translate(-171.15709,46.495692)"
         inkscape:connector-curvature="0"
         id="path1077"
         d="m 139.46417,264.22704 c -0.0379,-10e-4 -0.89428,-0.0223 -1.55469,-0.0382 -0.54974,-0.0132 -3.04597,-0.071 -3.28711,-0.0761 -0.10635,-0.002 -0.22017,-0.005 -0.25293,-0.006 l -0.0596,-0.002 v -0.0348 -0.0347 h 0.04 c 0.0363,1e-5 0.57274,0.009 1.77636,0.0312 0.23956,0.004 1.07803,0.0192 1.86329,0.0331 0.78525,0.0138 1.47387,0.0263 1.53027,0.0278 l 0.10254,0.003 v 0.0503 0.0503 l -0.0615,-8e-4 c -0.0338,-4.4e-4 -0.0773,-0.001 -0.0967,-0.002 z"
         style="fill:#66bb6a;fill-opacity:0.78431373;fill-rule:evenodd;stroke-width:0.00390625" />
      <path
         transform="translate(-171.15709,46.495692)"
         inkscape:connector-curvature="0"
         id="path1079"
         d="m 133.73565,264.09286 c -0.68701,-0.0161 -1.09362,-0.0252 -1.99414,-0.0447 -1.27592,-0.0277 -1.29044,-0.028 -2.03613,-0.0436 l -0.70801,-0.0148 v -0.0259 -0.0259 l 0.0635,0.002 c 0.0349,8.8e-4 0.50997,0.009 1.05567,0.019 0.5457,0.01 1.13193,0.0199 1.30273,0.023 0.1708,0.003 0.87481,0.0154 1.56446,0.0274 0.68964,0.012 1.27016,0.0228 1.29004,0.024 l 0.0361,0.002 v 0.0348 0.0348 l -0.0537,-5.2e-4 c -0.0295,-2.9e-4 -0.26377,-0.005 -0.52051,-0.0114 z"
         style="fill:#66bb6a;fill-opacity:0.78431373;fill-rule:evenodd;stroke-width:0.00390625" />
      <path
         transform="translate(-171.15709,46.495692)"
         inkscape:connector-curvature="0"
         id="path1081"
         d="m 128.12627,263.97172 c -1.08278,-0.0235 -1.75854,-0.0378 -2.31054,-0.0487 -0.28145,-0.006 -0.51743,-0.011 -0.52442,-0.012 l -0.0127,-0.002 v -1.32795 -1.32795 h 0.0234 0.0234 v 1.30994 1.30994 l 0.16114,0.003 c 0.0886,0.001 0.89502,0.0158 1.79199,0.0319 0.89697,0.016 1.65063,0.0292 1.6748,0.0292 h 0.0439 v 0.0254 0.0254 l -0.0928,-5.1e-4 c -0.051,-2.8e-4 -0.40126,-0.007 -0.77832,-0.0154 z"
         style="fill:#66bb6a;fill-opacity:0.78431373;fill-rule:evenodd;stroke-width:0.00390625" />
      <path
         transform="translate(-171.15709,46.495692)"
         inkscape:connector-curvature="0"
         id="path1083"
         d="m 125.27862,259.76887 v -1.48437 h 0.0234 0.0234 v 1.48437 1.48438 h -0.0234 -0.0234 z"
         style="fill:#66bb6a;fill-opacity:0.78431373;fill-rule:evenodd;stroke-width:0.00390625" />
      <path
         transform="translate(-171.15709,46.495692)"
         inkscape:connector-curvature="0"
         id="path1085"
         d="m 125.27862,256.4095 v -1.875 h 0.0234 0.0234 v 1.875 1.875 h -0.0234 -0.0234 z"
         style="fill:#66bb6a;fill-opacity:0.78431373;fill-rule:evenodd;stroke-width:0.00390625" />
      <path
         transform="translate(-171.15709,46.495692)"
         inkscape:connector-curvature="0"
         id="path1087"
         d="m 125.27862,252.6595 v -1.875 h 0.0234 0.0234 v 1.875 1.875 h -0.0234 -0.0234 z"
         style="fill:#66bb6a;fill-opacity:0.78431373;fill-rule:evenodd;stroke-width:0.00390625" />
      <path
         transform="translate(-171.15709,46.495692)"
         inkscape:connector-curvature="0"
         id="path1089"
         d="m 125.27862,249.60872 v -1.17578 h 0.0234 0.0234 v 1.17578 1.17578 h -0.0234 -0.0234 z"
         style="fill:#66bb6a;fill-opacity:0.78431373;fill-rule:evenodd;stroke-width:0.00390625" />
    </g>
  </g>
</svg>
