<?xml version="1.0" encoding="UTF-8" standalone="no"?>
<!-- Created with Inkscape (http://www.inkscape.org/) -->

<svg
   xmlns:dc="http://purl.org/dc/elements/1.1/"
   xmlns:cc="http://creativecommons.org/ns#"
   xmlns:rdf="http://www.w3.org/1999/02/22-rdf-syntax-ns#"
   xmlns:svg="http://www.w3.org/2000/svg"
   xmlns="http://www.w3.org/2000/svg"
   xmlns:sodipodi="http://sodipodi.sourceforge.net/DTD/sodipodi-0.dtd"
   xmlns:inkscape="http://www.inkscape.org/namespaces/inkscape"
   width="314.83612"
   height="500"
   id="svg2"
   sodipodi:version="0.32"
   inkscape:version="0.92.4 (5da689c313, 2019-01-14)"
   sodipodi:docname="mTulum.svg"
   inkscape:output_extension="org.inkscape.output.svg.inkscape"
   version="1.0">
  <defs
     id="defs4">
    <inkscape:perspective
       sodipodi:type="inkscape:persp3d"
       inkscape:vp_x="0 : 530.76001 : 1"
       inkscape:vp_y="0 : 1000 : 0"
       inkscape:vp_z="1183.8877 : 530.76001 : 1"
       inkscape:persp3d-origin="591.94385 : 353.84001 : 1"
       id="perspective2604" />
    <inkscape:perspective
       id="perspective4705"
       inkscape:persp3d-origin="0.5 : 0.33333333 : 1"
       inkscape:vp_z="1 : 0.5 : 1"
       inkscape:vp_y="0 : 1000 : 0"
       inkscape:vp_x="0 : 0.5 : 1"
       sodipodi:type="inkscape:persp3d" />
    <inkscape:perspective
       id="perspective4727"
       inkscape:persp3d-origin="0.5 : 0.33333333 : 1"
       inkscape:vp_z="1 : 0.5 : 1"
       inkscape:vp_y="0 : 1000 : 0"
       inkscape:vp_x="0 : 0.5 : 1"
       sodipodi:type="inkscape:persp3d" />
    <inkscape:perspective
       id="perspective4749"
       inkscape:persp3d-origin="0.5 : 0.33333333 : 1"
       inkscape:vp_z="1 : 0.5 : 1"
       inkscape:vp_y="0 : 1000 : 0"
       inkscape:vp_x="0 : 0.5 : 1"
       sodipodi:type="inkscape:persp3d" />
  </defs>
  <sodipodi:namedview
     id="base"
     pagecolor="#ffffff"
     bordercolor="#666666"
     borderopacity="1.0"
     inkscape:pageopacity="0.0"
     inkscape:pageshadow="2"
     inkscape:zoom="3.3950618"
     inkscape:cx="114.39027"
     inkscape:cy="241.64655"
     inkscape:document-units="px"
     inkscape:current-layer="layer1"
     inkscape:window-width="1920"
     inkscape:window-height="1051"
     inkscape:window-x="-9"
     inkscape:window-y="-9"
     showgrid="false"
     inkscape:window-maximized="1"
     fit-margin-top="0"
     fit-margin-left="0"
     fit-margin-right="0"
     fit-margin-bottom="0" />
  <metadata
     id="metadata7">
    <rdf:RDF>
      <cc:Work
         rdf:about="">
        <dc:format>image/svg+xml</dc:format>
        <dc:type
           rdf:resource="http://purl.org/dc/dcmitype/StillImage" />
        <dc:title></dc:title>
      </cc:Work>
    </rdf:RDF>
  </metadata>
  <g
     inkscape:label="Capa 1"
     inkscape:groupmode="layer"
     id="layer1"
     transform="translate(171.15709,-46.495692)">
    <g
       id="g1844">
      <path
         inkscape:connector-curvature="0"
         sodipodi:nodetypes="cssssssssssssssssssssscssssssssssssssssssssssssssssssssssssssssccccccccccc"
         id="path5161"
         d="m 61.139764,245.70004 c -0.69167,1.35831 -1.37938,1.76311 -1.37938,3.25066 0,1.22817 -2.58578,0.34665 -3.58638,1.08354 -1.26617,0.93245 -2.09194,1.44425 -2.4829,2.97979 -0.41576,1.63296 -0.54148,1.88614 -1.65526,2.97978 -0.46081,0.45249 -0.17257,0.84731 -0.27587,1.35442 -0.092,0.45149 -0.18392,0.90297 -0.27587,1.35447 -0.2136,1.04873 -0.94779,2.01419 -1.65526,2.70889 -0.87384,0.85804 -1.38684,1.9255 -1.65526,2.97975 -0.30405,1.1943 -1.05293,1.9685 -1.37937,3.25066 -0.3533,1.38766 -0.48224,2.70674 -0.82763,4.06334 -0.3074,1.20733 -1.33428,1.71902 -1.65524,2.97977 -0.26379,1.03607 -1.66865,2.81671 -2.20703,3.52157 -0.8692,1.13798 -1.33121,1.81736 -2.207,3.25064 -0.79609,1.30282 -1.84752,2.10956 -2.207,3.52156 -0.36484,1.43296 -1.79991,2.99293 -2.48291,4.3342 -0.77101,1.51419 -1.79017,2.69712 -2.20699,4.33422 -0.33354,1.31008 -1.40379,2.75678 -1.93115,3.79247 -0.50034,0.98259 -0.70547,2.46901 -1.37937,3.79243 -0.78494,1.54154 -1.21899,2.66483 -1.93112,4.06333 -0.66482,1.3056 -0.82764,2.07178 -0.82764,3.79244 0,1.1539 -0.26087,2.92089 -0.55175,4.06333 -0.27189,1.06794 -0.82763,1.42484 -0.82763,2.70889 -0.43219,1.69748 -0.002,2.44105 -0.82762,4.06332 -0.51225,1.00595 -0.55177,2.86885 -0.55177,4.06331 0,1.35447 0,2.70891 0,4.06334 0,1.50128 -0.006,3.22865 0.27589,4.33423 0.36404,1.4298 0,3.38956 0,4.87599 0,0.88471 1.13945,2.23771 1.65526,3.25067 0.62307,1.22361 0.66884,2.01119 1.65526,2.97977 1.05586,1.03678 2.3286,1.42336 3.31049,2.70891 0.855,1.11934 2.31713,2.31125 3.03464,3.25066 0.94292,1.23449 1.1035,1.69043 1.1035,3.52154 0,1.3898 -0.49324,3.02087 -0.82761,4.33422 -0.31893,1.25258 -0.31028,2.84397 -0.55176,3.79243 -0.34799,1.3668 -0.53841,2.38559 -0.82762,3.52155 -0.2324,0.9128 -0.87665,2.08873 -1.10351,2.97977 -0.13657,0.5364 -2.00002,1.80581 -2.48288,2.43801 -0.779,1.01987 -1.34457,1.48863 -1.65525,2.70887 -0.36277,1.42482 -1.37939,1.41572 -1.37939,3.25068 0,1.76578 0.58493,2.19968 1.37939,2.97977 0.54073,0.53098 -0.21146,3.53941 -0.27588,3.79243 -0.27589,1.08356 -2.29315,-0.31317 -3.31053,-0.81264 -1.11563,-0.54775 -1.356099,-1.26302 -1.655257,-2.438 -0.30073,-1.18126 0,-2.83854 0,-4.06335 0,-1.38401 0.958287,-2.33815 1.655257,-3.25064 0.87339,-1.14346 1.51753,-1.08438 1.93115,-2.70889 0.35251,-1.38463 1.26586,-1.78477 2.207,-2.70889 1.06219,-1.043 1.6845,-1.41187 2.20702,-2.43799 0.43472,-0.85376 0,-3.08366 0,-4.06333 0,-1.35445 0,-2.70888 0,-4.06332 0,-1.35445 0,-2.70889 0,-4.06335 0,-1.2938 -0.69516,-2.44873 -1.10351,-3.25066 -0.51326,-1.00798 -1.92051,-1.62273 -3.03464,-1.89623 -1.96402,-0.48211 -0.82763,1.43462 -0.82763,2.43802 0,1.49678 0.84596,1.66134 1.37938,2.70887 0.53745,1.05545 0.27587,2.80631 0.27587,4.06335 0,1.35444 0,2.70887 0,4.06332 0,1.6147 0.0378,2.438 -1.65525,2.438 -0.74981,0 -1.1035,2.56312 -1.1035,3.25064 0,0.53435 -2.279786,3.1227 -2.482889,3.52157 -0.500284,0.98247 -1.123855,1.66527 -1.655259,2.70889 -0.766215,1.50471 -1.599285,2.11216 -2.482878,2.97977 -0.436205,0.4283 -1.103496,0.54177 -1.655258,0.81266 l 0.827629,-69.0766 -32.001624,-0.2709 -0.827609,-22.21285 -60.692733,0.54177 -12.138553,-59.05372 19.585171,-16.08215 27.059681,21.11247 30.871435,-0.94182 8.1600557,15.16862 z"
         style="fill:#f9f9f9;fill-rule:evenodd;stroke:#000000;stroke-width:0.16458814;stroke-linecap:butt;stroke-linejoin:miter;stroke-miterlimit:4;stroke-dasharray:none;stroke-opacity:1" />
      <path
         transform="translate(-171.15709,46.495692)"
         inkscape:connector-curvature="0"
         id="path1828"
         d="m 187.76091,303.64797 c 0,-0.41512 0.11613,-10.32836 0.25786,-22.0294 0.14173,-11.70106 0.24934,-21.28285 0.23914,-21.29287 -0.0102,-0.01 -7.20914,-0.0763 -15.99764,-0.1472 -8.7885,-0.0709 -15.98303,-0.13181 -15.98785,-0.13531 -0.005,-0.003 -0.19371,-4.98897 -0.41976,-11.07884 -0.22605,-6.08987 -0.42718,-11.08867 -0.44696,-11.10845 -0.0198,-0.0198 -5.94454,0.0177 -13.16615,0.0833 -7.2216,0.0656 -16.85803,0.15224 -21.41427,0.19259 -4.55625,0.0403 -11.58116,0.10608 -15.61091,0.14608 -4.02975,0.04 -8.014401,0.0728 -8.854776,0.0729 l -1.527955,1.8e-4 v -18.66682 -18.66682 h 68.113631 c 37.4625,0 68.11364,0.0144 68.11364,0.032 0,0.0176 -0.0355,0.1253 -0.0789,0.23932 -0.0434,0.11401 -0.10863,0.46774 -0.14497,0.78606 -0.0363,0.31833 -0.10718,0.62829 -0.1574,0.68881 -0.16285,0.19621 -0.44649,0.25376 -1.5701,0.31855 -0.6075,0.035 -1.22838,0.0998 -1.37973,0.14402 -0.34099,0.0995 -1.59646,1.02909 -2.04951,1.51745 -0.49947,0.53839 -0.68788,0.91484 -1.02579,2.04962 -0.16809,0.56447 -0.37129,1.15504 -0.45156,1.31237 -0.0803,0.15734 -0.4153,0.58649 -0.74452,0.95367 l -0.59857,0.66761 -0.0521,0.70775 c -0.1017,1.38118 -0.45328,2.52657 -1.03613,3.37556 -0.13263,0.1932 -0.49091,0.61685 -0.79616,0.94145 -0.89297,0.94956 -1.3566,1.74599 -1.69258,2.90755 -0.0879,0.30375 -0.42102,1.09902 -0.74037,1.76727 -0.6455,1.35078 -0.73523,1.65623 -1.1722,3.99026 -0.16445,0.87839 -0.36683,1.77836 -0.44972,1.99992 -0.0829,0.22156 -0.4133,0.77335 -0.73423,1.22619 -0.32093,0.45284 -0.65169,1.01087 -0.73502,1.24008 -0.0833,0.2292 -0.20116,0.55193 -0.26183,0.71718 -0.15553,0.42359 -0.94857,1.61802 -2.07516,3.12549 -0.53043,0.70977 -1.32897,1.85925 -1.77451,2.55441 -0.44555,0.69516 -0.98978,1.4896 -1.2094,1.76543 -0.83195,1.04488 -1.13579,1.56084 -1.37329,2.33211 -0.24,0.7794 -0.52158,1.31144 -1.39575,2.6373 -0.4434,0.6725 -0.98729,1.54945 -1.20866,1.94877 -0.22137,0.39933 -0.59056,1.03581 -0.82042,1.4144 -0.63599,1.0475 -0.96364,1.74288 -1.3004,2.75986 -0.29306,0.88501 -0.54069,1.38583 -1.49694,3.02746 -0.50422,0.86561 -0.61551,1.13485 -1.05188,2.54478 -0.32001,1.03396 -0.72063,1.94574 -2.45896,5.59636 -0.86692,1.82061 -0.94327,2.11285 -1.02931,3.93955 -0.12626,2.68078 -0.39487,4.13476 -1.017,5.50511 -0.12431,0.27382 -0.26009,0.68802 -0.30173,0.92046 -0.13277,0.74114 -0.29269,1.95008 -0.33838,2.55806 -0.0572,0.76121 -0.1954,1.31529 -0.50224,2.01382 -0.53621,1.22066 -0.63572,2.27166 -0.63483,6.70438 7.4e-4,3.41457 0.0702,4.89681 0.27251,5.81146 0.13392,0.60542 0.16028,1.79008 0.0937,4.2108 l -0.0355,1.28863 0.27109,0.522 c 0.1491,0.2871 0.47811,0.85042 0.73113,1.25182 0.25302,0.4014 0.60547,1.04462 0.78322,1.42937 0.83793,1.8137 0.9714,2.0474 1.4385,2.51865 0.25275,0.25499 0.77012,0.67901 1.14974,0.94226 1.25454,0.86999 1.55498,1.11587 2.05399,1.68105 0.27179,0.30781 1.04321,1.12415 1.71427,1.81407 1.22108,1.25541 1.90215,2.08374 2.19779,2.673 l 0.15756,0.31404 -2.21888,-0.0195 -2.21888,-0.0195 -0.17324,-0.46091 c -0.0953,-0.25351 -0.33059,-0.76713 -0.52291,-1.14137 -0.47484,-0.92404 -0.91359,-1.34662 -1.88797,-1.81838 -1.24392,-0.60228 -2.22051,-0.76443 -2.54212,-0.42209 -0.19659,0.20926 -0.21705,0.82961 -0.0478,1.44957 0.0608,0.22275 0.1405,0.70878 0.17708,1.08006 0.0375,0.38036 0.13167,0.82237 0.21578,1.0125 l 0.14926,0.33744 h -4.59813 -4.59813 v -0.75478 z"
         style="fill:#66bb6a;fill-opacity:0.78431373;fill-rule:evenodd;stroke-width:0.07363636" />
      <path
         transform="translate(-171.15709,46.495692)"
         inkscape:connector-curvature="0"
         id="path1830"
         d="m 187.46823,328.02161 c 0.002,-1.00628 0.27789,-23.5298 0.28948,-23.60046 0.002,-0.0101 2.08238,-0.0184 4.62383,-0.0184 h 4.6208 l 0.42347,0.53386 c 0.50227,0.63322 0.68983,0.993 0.78827,1.51209 0.046,0.24242 0.0567,1.92479 0.0291,4.56289 -0.0397,3.79495 -0.0558,4.20715 -0.17573,4.48661 -0.16326,0.38051 -0.45199,0.54205 -1.05892,0.59244 -0.24656,0.0205 -0.51988,0.0819 -0.60738,0.13659 -0.34448,0.21516 -0.68274,1.25665 -0.8622,2.65467 -0.11695,0.91099 -0.17477,1.01734 -1.42265,2.61656 -0.50956,0.65302 -1.14048,1.53689 -1.40207,1.96415 -0.26158,0.42726 -0.59965,0.96096 -0.75126,1.18599 -0.15162,0.22503 -0.40304,0.6411 -0.55871,0.9246 -0.49276,0.89736 -0.84993,1.37884 -1.57547,2.1238 -0.91471,0.93919 -1.15976,1.12908 -1.78598,1.38392 -0.28506,0.116 -0.53142,0.21092 -0.54747,0.21092 -0.0161,0 -0.0283,-0.57161 -0.0271,-1.27023 z"
         style="fill:#66bb6a;fill-opacity:0.78431373;fill-rule:evenodd;stroke-width:0.07363636" />
      <path
         transform="translate(-171.15709,46.495692)"
         inkscape:connector-curvature="0"
         id="path1832"
         d="m 197.66482,336.47563 c -0.72999,-0.2388 -2.65776,-1.28784 -3.0288,-1.6482 -0.4484,-0.43548 -0.85291,-1.50462 -0.9528,-2.51829 -0.0679,-0.68966 0.10261,-3.61654 0.24007,-4.11963 0.0605,-0.22153 0.17313,-0.52642 0.25022,-0.67753 0.24909,-0.48826 1.25929,-1.77207 1.98912,-2.52787 0.7517,-0.77846 0.97662,-1.14177 1.23081,-1.98818 0.21768,-0.72482 0.47155,-1.08351 1.30349,-1.84168 2.27296,-2.07143 2.7063,-2.52471 3.06152,-3.20241 0.15935,-0.30402 0.17289,-0.41341 0.1641,-1.32546 -0.0535,-5.54844 -0.15039,-11.61939 -0.18687,-11.70818 -0.025,-0.0608 -0.0653,-0.20158 -0.0898,-0.31295 l -0.0444,-0.2025 h 2.20703 2.20703 l 0.0819,0.27613 c 0.045,0.15188 0.10054,0.70691 0.12335,1.23341 0.0511,1.179 -0.0651,1.99267 -0.57298,4.01318 -0.26527,1.0553 -0.40872,1.83604 -0.5412,2.94546 -0.25143,2.10568 -0.96292,5.09132 -1.57724,6.61858 -0.23814,0.59203 -0.47529,1.20896 -0.52701,1.37096 -0.14389,0.45073 -0.1448,0.45169 -1.83356,1.94215 -0.58822,0.51915 -1.47788,1.58619 -1.88457,2.26035 -0.14486,0.24012 -0.33294,0.66855 -0.41796,0.95205 -0.19837,0.66151 -0.29388,0.84942 -0.73935,1.4546 -0.20135,0.27354 -0.42971,0.66478 -0.50747,0.86943 -0.30063,0.79121 -0.24567,2.12947 0.1189,2.89463 0.099,0.20773 0.41285,0.6357 0.6975,0.95102 0.39621,0.43892 0.52027,0.62881 0.52922,0.81 0.055,1.11479 -0.33179,3.27262 -0.62322,3.47675 -0.18731,0.13119 -0.28695,0.13181 -0.6771,0.004 z"
         style="fill:#66bb6a;fill-opacity:0.78431373;fill-rule:evenodd;stroke-width:0.07363636" />
      <path
         transform="translate(-171.15709,46.495692)"
         inkscape:connector-curvature="0"
         id="path1834"
         d="m 94.831639,185.23668 v -15.7806 l 3.580829,-2.94144 c 1.969452,-1.61779 3.608642,-2.95213 3.642632,-2.96519 0.034,-0.0131 6.08363,4.67573 13.44365,10.41954 7.36002,5.74382 13.43332,10.48062 13.49623,10.52623 0.0854,0.0619 3.67774,-0.0251 14.17893,-0.34343 7.7355,-0.2345 14.67757,-0.44679 15.42682,-0.47175 l 1.36227,-0.0454 4.01318,7.48475 c 2.20725,4.1166 4.04632,7.5288 4.08682,7.58265 0.0604,0.0803 3.4686,0.12537 18.96136,0.25064 33.54604,0.27125 45.01707,0.37167 45.03972,0.39432 0.0122,0.0122 -0.1924,0.36748 -0.45468,0.78951 -0.26227,0.42203 -0.47685,0.79285 -0.47685,0.82405 0,0.0312 -30.66771,0.0567 -68.15046,0.0567 H 94.831639 Z"
         style="fill:#66bb6a;fill-opacity:0.78431373;fill-rule:evenodd;stroke-width:0.07363636" />
      <path
         transform="translate(-171.15709,46.495692)"
         inkscape:connector-curvature="0"
         id="path1836"
         d="m 88.696267,209.02475 c -3.313704,-16.12885 -6.030886,-29.37742 -6.038182,-29.44126 -0.0083,-0.0723 2.253722,-1.97837 5.991368,-5.04879 3.302548,-2.713 6.044582,-4.95742 6.093409,-4.98759 0.06923,-0.0428 0.08878,7.52576 0.08878,34.37447 0,18.93614 -0.02485,34.42913 -0.05523,34.42885 -0.03037,-2.9e-4 -2.76644,-13.19682 -6.080145,-29.32568 z"
         style="fill:#66bb6a;fill-opacity:0.78431373;fill-rule:evenodd;stroke-width:0.07363636" />
    </g>
  </g>
</svg>
